<?xml version="1.0" encoding="utf-8"?>
<!-- Generator: Adobe Illustrator 23.0.1, SVG Export Plug-In . SVG Version: 6.00 Build 0)  -->
<svg version="1.1" id="Layer_1" xmlns="http://www.w3.org/2000/svg" xmlns:xlink="http://www.w3.org/1999/xlink" x="0px" y="0px"
	 viewBox="0 0 134 170" style="enable-background:new 0 0 134 170;" xml:space="preserve">
<style type="text/css">
	.st0{fill:#00B4EF;}
</style>
<path class="st0" d="M114.17,53.42c-0.72,0.37-1.91,0.89-2.82,1.16c-0.44,0.13-4.11,1.24-7.12,2.16L104,56.8
	c-0.02,0.01-0.05,0.02-0.08,0.03L96,59.22c5.43-5.53,8.06-14.28,6.78-23.04c-1.56-10.68-8.07-19.03-16.08-22.27
	c6.11-0.72,12.47-1.45,15.73-1.83l0.31-0.03c0.67-0.08,1.39-0.12,2.02-0.12c5.17,0,10.11,2.4,13.91,6.77
	c3.73,4.29,5.88,10.03,5.88,15.74C124.54,47.44,115.9,52.53,114.17,53.42 M94.88,86.39c-5.52,7.05-22,27.62-22.7,28.5l-0.26,0.32
	l-23.05,11.15c4.69-6.21,18.66-24.47,21.89-28.8c4.42-5.93,10.25-16.78,8.32-32.84c1.45,0.29,3.27,0.41,4.94,0.25
	c1.15-0.1,2.26-0.31,3.32-0.6c0.01,0,0.02,0,0.04-0.01l0.06-0.02c0.24-0.07,0.48-0.14,0.72-0.22l15.06-4.52
	C103.5,69.93,100.7,78.94,94.88,86.39 M94.96,121.26c2.87,0.52,5.55,2.27,7.54,4.93c1.87,2.5,2.94,5.57,2.95,8.4v1.44
	c0,2.49,0,7.11,0,7.92c0,0.3-0.07,0.71-0.39,0.9c-6.11,3.77-16.91,10.29-21.91,13.29c0-2.37,0.05-6.66,0.01-8.98
	c-0.12-7.21-5.66-14.96-12.66-16.37c-4.77-0.96-15.96-3.23-20.58-4.17l23.2-11.28l0.3,0.05C77.99,118.22,89.24,120.22,94.96,121.26
	 M48.42,23.21l14.92-1.93c-1.54,2.24-2.74,4.81-3.53,7.59C55.97,26.12,52.14,24.28,48.42,23.21 M29.25,70.12
	c-0.1-0.32-0.2-0.65-0.26-0.96c-2.92-13.83,6.07-19.66,11.83-19c6.37,0.73,11.76,6.32,13.17,13.17L29.25,70.12z M79.12,29.72
	c4.01-0.43,8.22,3.23,8.88,8.38c0.65,4.97-1.89,9.63-6.64,10.17c-3.95,0.45-8.18-3.35-8.85-8.44
	C71.85,34.76,74.66,30.19,79.12,29.72 M120.51,17.08c-4.27-4.91-9.87-7.62-15.76-7.62c-0.73,0-1.54,0.05-2.3,0.14l-0.31,0.03
	c-5.1,0.6-17.73,2.05-25.19,2.95c0,0-0.01,0-0.01,0c-4.47,0.58-8.36,2.74-11.38,5.92L37.6,22.14c-11.59,1.02-21.91,8.86-25.38,20.55
	c-3.74,12.57,0.95,27.62,12.51,30.33c1.59,0.37,2.85,0.13,3.58-0.09c0.01,0,0.02,0,0.03-0.01l25.98-7.13
	c0.17,2.84-0.35,5.81-1.75,8.68c-2.17,4.43-9.63,15.02-12.15,18.69c-2.53,3.67-25.7,38.44-29.14,44.2
	c-0.81,1.36-1.54,3.39-1.07,5.19c0.43,1.6,1.87,3.04,3.99,3.58c7.9,2.03,64.36,15.4,66.05,15.8c0.65,0.16,1.24,0.07,1.71-0.2
	c0.01-0.01,0.02-0.01,0.03-0.02c2.09-1.24,16.81-10.1,24.36-14.76c0.97-0.6,1.54-1.69,1.55-2.98c0.01-0.82,0-5.45,0-7.94v-1.44
	c0-3.35-1.25-6.95-3.44-9.87c-2.36-3.16-5.57-5.24-9.06-5.87c-5.27-0.95-15.23-2.73-20.34-3.64c3.71-4.63,16.92-21.14,21.75-27.31
	c6.31-8.08,9.28-17.84,8.83-29.03c4.88-1.48,6.19-1.88,6.42-1.94c1.14-0.33,2.46-0.92,3.24-1.33c1.95-1,11.69-6.74,11.69-21.16
	C126.98,28.14,124.62,21.81,120.51,17.08"/>
</svg>
