<svg xmlns="http://www.w3.org/2000/svg" width="1199" height="465" viewBox="0 0 1199 465" version="1.1"><path d="M 926 396.500 L 926 462 939.500 462 L 953 462 953 455.768 L 953 449.536 955.407 453.079 C 958.473 457.591, 963.821 461.673, 969.110 463.539 C 975.489 465.789, 989.611 465.463, 996.279 462.912 C 1007.771 458.514, 1016.409 447.674, 1020.122 432.990 C 1021.921 425.876, 1022.171 422.687, 1021.728 412.531 C 1020.756 390.271, 1012.779 376.100, 997 368.600 C 991.206 365.845, 989.523 365.513, 981.500 365.540 C 973.611 365.565, 971.821 365.919, 967 368.403 C 963.975 369.961, 959.700 373.151, 957.500 375.490 L 953.500 379.744 953.784 355.372 L 954.068 331 940.034 331 L 926 331 926 396.500 M 1028 343.500 L 1028 356 1042.500 356 L 1057 356 1057 343.500 L 1057 331 1042.500 331 L 1028 331 1028 343.500 M 1068 397.027 L 1068 463.055 1082.250 462.777 L 1096.500 462.500 1096.757 396.750 L 1097.014 331 1082.507 331 L 1068 331 1068 397.027 M 717.112 366.581 C 710.886 368.255, 704.683 372.470, 700.750 377.700 L 698 381.356 698 374.650 L 698 367.944 684.250 368.222 L 670.500 368.500 670.240 415.250 L 669.980 462 684.436 462 L 698.892 462 699.196 431.750 C 699.499 401.584, 699.507 401.488, 702 397.099 C 705.291 391.307, 709.980 388.744, 716.283 389.295 C 721.964 389.791, 725.535 392.668, 726.996 397.926 C 727.552 399.927, 727.991 414.813, 727.994 431.750 L 728 462 742.500 462 L 757 462 757 432.649 C 757 413.358, 757.390 402.133, 758.139 399.899 C 761.694 389.283, 774.031 385.571, 781.372 392.909 L 784.500 396.036 784.789 429.018 L 785.078 462 799.596 462 L 814.114 462 813.796 425.750 C 813.492 390.965, 813.389 389.276, 811.249 383.968 C 805.593 369.934, 789.735 362.390, 774.235 366.361 C 766.623 368.311, 761.557 371.424, 756.328 377.364 L 752.324 381.913 749.213 377.500 C 745.075 371.629, 739.014 367.383, 732.900 366.072 C 726.521 364.704, 723.760 364.793, 717.112 366.581 M 860.763 366.033 C 841.062 369.350, 826.833 381.822, 821.441 400.500 C 818.916 409.249, 819.162 423.634, 821.980 432 C 824.733 440.170, 827.136 444.129, 833.377 450.771 C 842.846 460.849, 853.385 465, 869.500 465 C 885.984 465, 896.361 460.778, 906.322 450.019 C 915.278 440.346, 919.178 429.798, 919.145 415.342 C 919.086 389.185, 903.135 369.968, 878.283 366.112 C 870.326 364.877, 867.696 364.865, 860.763 366.033 M 1142.244 366.109 C 1125.973 368.821, 1111.934 380.957, 1105.838 397.581 C 1102.711 406.111, 1102.711 424.889, 1105.838 433.419 C 1113.385 454.002, 1129.994 465, 1153.529 465 C 1173.101 465, 1188.330 456.505, 1195.392 441.646 C 1196.730 438.830, 1197.613 436.183, 1197.354 435.763 C 1197.094 435.343, 1190.885 435, 1183.556 435 C 1170.463 435, 1170.201 435.044, 1168.600 437.487 C 1164.373 443.939, 1151.502 446.084, 1143.020 441.750 C 1137.754 439.059, 1135.373 436.010, 1132.950 428.852 L 1131.137 423.500 1165.213 423.237 L 1199.289 422.973 1198.717 413.237 C 1197.233 387.995, 1184.006 371.077, 1162.131 366.440 C 1154.779 364.882, 1150.081 364.804, 1142.244 366.109 M 1028.240 415.250 L 1028.500 462.500 1042.500 462.500 L 1056.500 462.500 1056.760 415.250 L 1057.020 368 1042.500 368 L 1027.980 368 1028.240 415.250 M 863.256 387.069 C 858.490 388.516, 853.488 394.081, 851.014 400.688 C 849.174 405.604, 848.890 408.131, 849.169 417.077 C 849.465 426.521, 849.824 428.287, 852.523 433.558 C 856.304 440.943, 861.007 443.959, 868.782 443.984 C 875.518 444.005, 879.713 442.230, 883.723 437.663 C 887.847 432.966, 890 425.548, 890 416.036 C 890 402.944, 885.980 392.782, 879.221 388.790 C 875.634 386.671, 867.467 385.790, 863.256 387.069 M 1141.907 388.287 C 1138.526 390.042, 1136.860 391.830, 1134.750 395.967 C 1133.237 398.932, 1132 402.403, 1132 403.679 L 1132 406 1151.111 406 L 1170.223 406 1169.537 402.250 C 1167.055 388.681, 1153.929 382.048, 1141.907 388.287 M 967.655 388.459 C 960.124 391.144, 955.884 397.262, 953.981 408.187 C 952.686 415.623, 953.924 424.991, 956.988 430.946 C 965.024 446.563, 985.510 445.561, 991.131 429.275 C 992.854 424.284, 992.854 407.719, 991.132 401.792 C 989.323 395.568, 983.931 389.353, 979.201 388.039 C 974.417 386.710, 972.347 386.786, 967.655 388.459" stroke="none" fill="#141424" fill-rule="evenodd"/><path d="M 1044.219 27.001 L 1044.500 54.001 930.338 54.001 C 800.877 54, 807.052 53.659, 791 61.693 C 783.238 65.579, 779.939 68.008, 772.969 74.974 C 760.347 87.590, 760.482 86.924, 768.392 97.610 C 776.053 107.960, 783.744 123, 787.426 134.829 C 791.864 149.092, 793.138 158.901, 792.831 176.437 L 792.552 192.375 796.026 193.819 C 807.073 198.412, 806.043 198.348, 877.575 198.938 L 945.649 199.500 949.668 202.161 C 958.556 208.045, 959.952 222.304, 952.316 229.214 C 946.924 234.093, 948.722 234, 860.096 234 L 777.127 234 772.325 241.158 C 761.076 257.924, 746.635 271.565, 729.377 281.727 C 724.495 284.603, 719.825 287.389, 719 287.919 C 718.033 288.540, 758.863 288.901, 834 288.934 C 947.302 288.985, 950.730 288.931, 958.876 286.978 C 985.123 280.686, 1005.682 260.408, 1013.052 233.541 C 1016.152 222.241, 1015.527 205.016, 1011.598 193.500 C 1004.777 173.508, 988.658 156.716, 969.197 149.328 C 955.968 144.306, 952.243 144.072, 884.718 144.035 C 816.509 143.997, 818.196 144.130, 812.814 138.373 C 805.198 130.228, 806.975 117.029, 816.434 111.486 L 820.676 109 932.838 109 L 1045 109 1045 162.428 C 1045 219.784, 1045.423 226.398, 1049.898 239.044 C 1053.986 250.596, 1058.476 257.470, 1068.584 267.647 C 1076.352 275.469, 1079.032 277.452, 1087.084 281.335 C 1103.742 289.368, 1103.130 289.287, 1150.750 289.737 L 1193 290.136 1193 262.068 L 1193 234 1155.750 233.978 C 1114.093 233.953, 1112.914 233.778, 1107.772 226.859 C 1103.056 220.512, 1103 219.766, 1103 162.861 L 1103 109.021 1147.750 108.760 L 1192.500 108.500 1192.500 81.500 L 1192.500 54.500 1147.250 54.240 L 1102 53.980 1102 26.990 L 1102 0 1072.969 0 L 1043.937 0 1044.219 27.001 M -0 113.312 C -0 223.835, 0.033 225.750, 2.079 233.561 C 9.016 260.045, 29.532 280.626, 56.558 288.213 C 64.320 290.392, 65.723 290.443, 118.500 290.465 C 177.991 290.490, 181.654 290.200, 200.172 283.996 C 223.182 276.287, 244.604 261.070, 258.128 242.828 L 263.258 235.907 258.745 226.204 C 256.264 220.867, 253.516 214.250, 252.640 211.500 C 242.700 180.296, 245.030 144.998, 258.871 117.101 C 260.592 113.632, 261.996 110.278, 261.990 109.647 C 261.972 107.482, 252.135 95.394, 244.296 87.905 C 225.814 70.248, 200.641 58.834, 174 56.033 C 168.775 55.484, 140.313 55.027, 110.750 55.017 L 57 55 57 28 L 57 1 28.500 1 L 0 1 -0 113.312 M 369.500 57.561 C 343.936 62.368, 322.793 73.316, 305.173 90.870 C 290.240 105.746, 279.875 123.455, 274.371 143.500 C 271.835 152.733, 271.625 154.919, 271.625 172 C 271.625 189.054, 271.839 191.282, 274.360 200.500 C 277.879 213.365, 286.079 230.344, 293.679 240.500 C 331.466 290.997, 404.886 303.440, 459.043 268.526 C 468.187 262.631, 469.625 261.298, 534.500 198.563 C 611.298 124.298, 610.785 124.776, 618.127 120.682 C 626.937 115.770, 637.592 113, 647.681 113 C 658.712 113, 664.876 114.406, 675 119.232 C 690.947 126.833, 703.549 142.488, 707.622 159.757 C 709.688 168.512, 708.949 182.083, 705.931 190.858 C 703.353 198.352, 695.522 210.457, 690.267 215.071 C 683.809 220.741, 675.486 225.565, 667.868 228.055 C 661.767 230.049, 658.437 230.466, 648.500 230.481 C 626.078 230.516, 617.236 226.011, 592.746 202.076 L 575.941 185.651 571.721 189.557 C 569.399 191.705, 560.002 200.852, 550.837 209.883 L 534.174 226.304 550.720 242.402 C 559.821 251.256, 570.567 261.034, 574.601 264.132 C 597.324 281.581, 629.937 290.892, 658.361 288.045 C 689.240 284.953, 713.120 273.914, 734.084 253.042 C 749.611 237.582, 759.098 221.227, 764.753 200.170 C 767.065 191.559, 767.355 188.584, 767.405 173 C 767.453 158.073, 767.133 154.200, 765.228 146.660 C 754.901 105.783, 725.356 73.992, 686.196 61.622 C 671.924 57.113, 660.444 55.678, 643.571 56.291 C 617.648 57.234, 595.614 64.557, 575.075 79.057 C 567.276 84.562, 565.679 86.065, 495.500 153.959 C 424.670 222.483, 427.234 220.116, 419.495 224.105 C 409.114 229.456, 401.225 231.344, 389.500 231.284 C 362.138 231.143, 339.310 213.925, 331.395 187.457 C 329.007 179.474, 329.003 164.565, 331.386 156.500 C 337.497 135.816, 355.903 118.821, 377 114.381 C 387.473 112.177, 402.250 112.978, 411.120 116.230 C 422.081 120.249, 426.650 123.597, 444.810 140.915 C 454.376 150.037, 462.606 157.650, 463.100 157.833 C 463.593 158.016, 473.233 149.258, 484.522 138.370 L 505.046 118.574 492.273 105.704 C 463.481 76.692, 447.665 66.522, 420.085 59.287 C 407.752 56.051, 382.169 55.178, 369.500 57.561 M 57 160.818 C 57 219.463, 57.040 219.833, 64.146 227.542 C 71.525 235.547, 71.170 235.500, 123.500 235.500 C 175.161 235.500, 175.414 235.472, 190.500 228.059 C 224.933 211.139, 234.342 164.649, 209.892 132.244 C 202.323 122.212, 190.114 114.482, 176.234 110.932 C 169.212 109.136, 164.750 109, 112.840 109 L 57 109 57 160.818" stroke="none" fill="#fc5404" fill-rule="evenodd"/></svg>