<svg xmlns="http://www.w3.org/2000/svg" height="800" width="1200" viewBox="-23.73168 -21.620075 205.67456 129.72045"><path d="M128.785 56.0803c-1.4937 1.495-3.915 1.495-5.4137 0-1.4413-1.44-2.7063-2.71-2.7063-2.71l4.0938-4.095-5.1488-5.1475-4.095 4.0975-4.0975-4.0975-5.15 5.1475 4.0975 4.095s-1.27 1.27-2.7075 2.71c-1.4962 1.495-3.9237 1.495-5.4175 0-1.495-1.4937-1.495-3.9212 0-5.415 1.5725-1.57 13.2188-13.3287 13.2188-13.3287s11.7562 11.7587 13.3262 13.3287c1.4975 1.4938 1.4975 3.9213 0 5.415zm-26.545-42.26c-1.495-1.495-1.495-3.9212 0-5.415 1.4938-1.4962 3.9213-1.4962 5.4175 0 1.4375 1.44 2.7075 2.7075 2.7075 2.7075l-4.0975 4.0975 5.15 5.145 4.0975-4.095 4.095 4.095 5.1488-5.145-4.0938-4.0975s1.265-1.2675 2.7063-2.7075c1.4987-1.4962 3.92-1.4962 5.4137 0 1.4975 1.4938 1.4975 3.92 0 5.415-1.57 1.5688-13.3262 13.3275-13.3262 13.3275S103.8125 15.3891 102.24 13.8203zm18.42 18.4225s12.07-12.0662 13.275-13.2725c4.34-4.3425 4.34-11.375 0-15.7162-4.3362-4.3388-11.3737-4.3388-15.7125 0-1.705 1.7025-2.7075 2.7075-2.7075 2.7075s-1.0075-1.005-2.7075-2.7075c-4.3437-4.3388-11.3762-4.3388-15.7175 0-4.34 4.3412-4.34 11.3737 0 15.7162 1.2063 1.2063 13.275 13.2725 13.275 13.2725S98.2963 44.3116 97.09 45.5153c-4.34 4.34-4.34 11.375 0 15.715 4.3413 4.34 11.3738 4.34 15.7175 0 1.7-1.7012 2.7075-2.71 2.7075-2.71s1.0025 1.0088 2.7075 2.71c4.3388 4.34 11.3763 4.34 15.7125 0 4.34-4.34 4.34-11.375 0-15.715-1.205-1.2037-13.275-13.2725-13.275-13.2725zm29.1475 2.7075c-1.495 1.4938-3.9212 1.4938-5.4175 0a4902.0982 4902.0982 0 00-2.7075-2.7075l2.7075-2.7075c1.4963-1.4962 3.9225-1.4962 5.4175 0 .7475.7475 1.1213 1.7263 1.1213 2.7075 0 .9813-.3738 1.96-1.1213 2.7075zm5.15-10.565c-4.3412-4.3425-11.3787-4.3425-15.7175 0-1.2425 1.2438-2.7075 2.7075-2.7075 2.7075l-4.0962-4.0937-5.1475 5.1462 4.0975 4.0975-4.0975 4.095 5.1475 5.1475 4.0962-4.095 2.7075 2.71c4.3388 4.3388 11.3763 4.3388 15.7175 0 2.1688-2.17 3.2538-5.0125 3.2538-7.8575 0-2.8462-1.085-5.6875-3.2538-7.8575zm-68.43 10.565c-1.4975 1.4938-3.9237 1.4938-5.4175 0-.7475-.7475-1.1187-1.7262-1.1187-2.7075 0-.9812.3712-1.96 1.1187-2.7075 1.4938-1.4962 3.92-1.4962 5.4175 0l2.7075 2.7075s-1.4925 1.4913-2.7075 2.7075zm11.9525 6.535l5.15-5.1475-4.1-4.095 4.1-4.0975-5.15-5.1462-4.095 4.0937-2.7075-2.7075c-4.34-4.3425-11.3787-4.3425-15.7175 0-2.1687 2.17-3.2537 5.0113-3.2537 7.8575 0 2.845 1.085 5.6875 3.2537 7.8575 4.3388 4.3388 11.3775 4.3388 15.7175 0 1.2438-1.2437 2.7075-2.71 2.7075-2.71l4.095 4.095" fill="#d91920"/><path d="M56.3963 64.674c-.6813.7188-1.575 1.0638-2.665 1.0638-1.0288 0-1.8825-.3687-2.56-1.1012-.6625-.7313-.9913-1.68-.9913-2.8513 0-1.08.3363-1.9962 1.0125-2.7437.6875-.7388 1.5338-1.09 2.5575-1.09 1.0913 0 1.965.3512 2.6463 1.085.6762.735 1.01 1.6837 1.01 2.8137 0 1.14-.3338 2.0813-1.01 2.8238zm.8375-8.9624v1.4262c-1.185-1.1662-2.5275-1.7475-4.0313-1.7475-1.7312 0-3.175.615-4.3275 1.8225-1.1525 1.2225-1.7312 2.7638-1.7312 4.6 0 1.8463.5787 3.415 1.7312 4.6488 1.165 1.23 2.6288 1.835 4.4138 1.835 1.4175 0 2.725-.5388 3.945-1.6463v1.2875h2.9987V55.7116h-2.9987m-41.22-5.5313h3.1037v6.945s1.1588-1.6025 3.57-1.6025c2.2338 0 4.265 1.485 4.265 5.2238v7.2662h-2.8287v-7.4712c0-1.2825-.5175-2.905-2.3513-2.905-1.7462 0-2.645 1.31-2.655 2.905v7.4712h-3.1037V50.1803M14.895 64.9678c-.6887.9763-1.55 1.7588-2.6112 2.3588-1.2513.71-2.655 1.075-4.1713 1.075-2.2412 0-4.15-.8-5.735-2.37C.7913 64.4566 0 62.5553 0 60.2966c0-2.4125.8938-4.4275 2.685-6.0225 1.5713-1.4138 3.375-2.11 5.4138-2.11 1.475 0 2.8562.3612 4.1587 1.0925 1.0675.6062 1.9488 1.3775 2.6325 2.3412l-2.6625 1.91c-.1875-.4575-.4587-.85-.7712-1.2237-.8863-1.0213-2.01-1.5325-3.3913-1.5325-1.3412 0-2.4562.5112-3.355 1.5562-.8887 1.0363-1.3337 2.3588-1.3337 3.975 0 1.6713.44 3.0063 1.3262 4.0463.875 1.0275 1.9913 1.5387 3.3513 1.5387 1.3525 0 2.475-.5175 3.3762-1.5687a4.718 4.718 0 00.7975-1.2525s1.9788 1.4237 2.6675 1.9212m26.5237-9.445c-2.955-.0425-3.9137 1.6025-3.9137 1.6025l-.1463-1.4412h-2.665v12.3125h3.0888v-7.47c.0162-1.58.9287-2.9038 2.6637-2.9038 1.84 0 2.37 1.6313 2.37 2.9038v7.47h2.8663v-7.25c0-3.75-2.0413-5.21-4.2638-5.2238" fill="#231f20"/><path d="M29.2813 67.9966h2.8962V55.644h-2.8963zm1.4275-13.6063c-1.0063 0-1.6763-.745-1.6763-1.63 0-.95.7-1.6587 1.7025-1.6587 1.0363 0 1.6788.7087 1.705 1.6587 0 .885-.6687 1.63-1.705 1.63h-.0263m.0001 18.1875c-1.0063 0-1.6763-.73-1.6763-1.6137 0-.9475.7-1.665 1.7025-1.665 1.0363 0 1.6788.7175 1.705 1.665 0 .8837-.6687 1.6137-1.705 1.6137h-.0263" fill="#d91920"/><path d="M74.5925 73.7666c-1.8375-.0412-3.1112.7162-4.19 1.91-.7287-1.3225-1.935-1.875-3.2037-1.91-2.6013-.065-3.7413 1.5887-3.7413 1.5887l-.1012-1.4912h-2.7988v12.3137h3.1175v-7.4337c.0113-1.58.8388-2.8763 2.4475-2.8763 1.6788 0 2.1638 1.615 2.1638 2.8925v7.4175h2.8275v-7.2687.015c.007-2.0675.9725-3.0563 2.4012-3.0563 1.685 0 2.1625 1.615 2.1625 2.8925v7.4175h2.8288v-7.2137c0-3.725-1.875-5.1488-3.9138-5.1975" fill="#231f20"/><path d="M29.2813 86.1778h2.8962V73.8641h-2.8963z" fill="#d91920"/><path d="M52.8825 75.7353c-.9913 0-1.8138.405-2.4663 1.2013-.655.8037-.9887 1.835-.9887 3.0887 0 1.2775.3262 2.3275.9762 3.12.6538.795 1.465 1.1938 2.465 1.1938 1 0 1.8188-.3988 2.4775-1.2063.6675-.805.9888-1.845.9888-3.1075 0-1.265-.3213-2.2962-.97-3.1025-.6475-.7825-1.47-1.1875-2.4825-1.1875zm-.225-2.1512c1.155 0 2.24.2975 3.25.87 1.0187.5812 1.8137 1.3662 2.3775 2.34.575.9987.8612 2.0675.8612 3.2012 0 1.15-.2862 2.2438-.8675 3.2463-.5675 1.0025-1.35 1.7912-2.3387 2.345-.9913.58-2.0838.8512-3.2675.8512-1.7638 0-3.2588-.6187-4.5-1.8687-1.245-1.24-1.8563-2.7563-1.8563-4.5438 0-1.9062.705-3.5037 2.0963-4.7725 1.24-1.1062 2.645-1.6687 4.245-1.6687m-29.97.1175c-2.9362-.0375-3.9063 1.5937-3.9063 1.5937l-.1487-1.4312h-2.665v12.3137h3.1v-7.46c.007-1.5875.915-2.8975 2.6613-2.8975 1.8275 0 2.355 1.615 2.355 2.8975v7.46h2.8687v-7.24c0-3.7537-2.0313-5.1975-4.265-5.2362M6.7763 86.3428c2.9487.04 3.9112-1.6025 3.9112-1.6025l.1488 1.4375h2.6675V73.8641h-3.095v7.4612c-.0125 1.5888-.9125 2.905-2.6625 2.905-1.8338 0-2.5588-1.625-2.5588-2.905v-7.4612h-3.095v7.2425c0 3.7525 2.4563 5.2087 4.6838 5.2362m39.3125-2.5788c-.5488.7738-1.2363 1.4-2.0713 1.8638-.9975.5738-2.1075.8438-3.315.8438-1.7662 0-3.28-.6113-4.5475-1.86-1.2587-1.2563-1.8775-2.77-1.8775-4.5575 0-1.9025.7088-3.4913 2.1325-4.7713 1.2375-1.1075 2.665-1.6625 4.2875-1.6625 1.1638 0 2.26.2825 3.2938.8625.8462.4775 1.545 1.0925 2.0862 1.8488l-2.3037 1.6562c-.1463-.3312-.3338-.635-.5675-.9-.6375-.77-1.4538-1.1537-2.445-1.1537-.9763 0-1.7763.3975-2.43 1.1537-.6413.7713-.97 1.76-.97 2.9663 0 1.2337.3287 2.2462.9625 3.0025.6375.7712 1.4462 1.145 2.4262 1.145.9738 0 1.7875-.3738 2.4375-1.1588.2438-.2787.44-.5862.5863-.9325l2.315 1.6538m91.2812-9.6225c-1.1575-1.5275-2.3462-2.36-2.3462-2.36l-1.1588.835 1.9463 2.6662zm7.235 2.3375h2.3325v.9937h-2.3325zm2.3325 0zm0 3.4062h-2.3325v-.995h2.3325zm-4.3425-2.4125h-2.3312v-.9937h2.3312zm0 2.4125h-2.3312v-.995h2.3312zm.6875-5.45c-.955-.6487-2.0237-1.1437-2.0237-1.1437l-.7963 1.0162.7988.695h-3.0075v8.8488h.62c.6312 0 1.39-.4238 1.39-1.33v-1.2188h2.3312v2.5488h.62c.785 0 1.3338-.3925 1.39-1.3338v-1.215h2.3325v.5938c0 .295-.3225.4812-.5887.4812h-.9338l.4225 1.4738h1.4538c.9775 0 1.7687-.79 1.7687-1.7688v-5.8687c0-.6675-.5412-1.2113-1.2062-1.2113h-2.34l3.0762-1.8562v-1.695h-10.45v1.475h7.64zm-5.285 10.1063a.9568.9568 0 01-.9575-.9575v-7.64h-3.3237v1.475h1.1062v6.7487c0 1.15 1.0125 1.8488 1.7875 1.8488h12.68v-1.475h-11.2925m-8.715-4.8663h2.5463v-1.4762h-2.8538v-2.2675h2.8538v-1.4738h-1.8513l1.6925-2.1125-1.6025-1.15-2.1137 3.2625h-1.5113l1.2325-.8887c-1.0675-1.47-1.9587-2.3688-1.9587-2.3688l-1.1825.6963 1.5137 2.5612h-1.8537v1.4738h2.4537v2.2675h-2.4537v1.4762h2.1825l-2.5825 6.6213h1.1112c.5863 0 1.185-.405 1.4275-.9363l1.5763-3.95 2.1825 4.8863h2.1587zm-8.125-1.115h-1.7925v-1.8187h1.7925zm-.005 3.2725l-1.7875.5v-2.3012h1.7925zm3.1075-.8725l-.9987.28v-8.2612c0-.9088-.5525-1.4763-1.2438-1.4763h-5.2562v1.4763h4.3962v2.2887h-1.7925v-1.5187h-1.9937v9.1425l-.88.2512v1.66l4.6612-1.31v2.9875h.8275c.6888 0 1.1263-.4112 1.2813-1.1975v-2.3775l.9987-.2812v-1.6638M94.1813 79.799c0 .53-.4288.9538-.9525.9538h-2.975v-6.02h3.9275zm.9225-6.5424h-4.85v-2.0563H87.74v2.0563h-3.1575v1.4762H87.74v6.02h-3.93v-7.4962h-2.5162v8.9725H87.74v4.2512h.4088c1.4112-.0425 2.0487-.6675 2.105-1.74v-2.5112h4.265c1.1737 0 2.1312-.9263 2.18-2.0888v-5.375c-.0487-.84-.7438-1.5087-1.595-1.5087m15.9374 8.385h-1.1162l.735-.9113c-1.0012-.9012-1.75-1.385-1.75-1.385l-.905.9025 1.2675 1.3938h-1.71v-2.47h3.4175v-1.4738h-3.4175v-1.8325h3.4175v-1.4712h-8.8462v1.4712h3.1037v1.8325h-3.1037v1.4738h3.1037v2.47h-3.1625v1.4762h8.9663zm1.4988-10.19h-10.465v1.475h9.74V83.629c0 .5275-.4288.955-.9575.955h-9.5563V71.4516H98.975v14.6087h13.0612c1.1638 0 2.1063-.9412 2.1063-2.105V73.0466c-.002-.8813-.72-1.595-1.6025-1.595" fill="#231f20"/></svg>