<?xml version="1.0" encoding="UTF-8" standalone="no"?>
<!-- Created with Inkscape (http://www.inkscape.org/) -->

<svg
   xmlns:dc="http://purl.org/dc/elements/1.1/"
   xmlns:cc="http://creativecommons.org/ns#"
   xmlns:rdf="http://www.w3.org/1999/02/22-rdf-syntax-ns#"
   xmlns:svg="http://www.w3.org/2000/svg"
   xmlns="http://www.w3.org/2000/svg"
   xmlns:sodipodi="http://sodipodi.sourceforge.net/DTD/sodipodi-0.dtd"
   xmlns:inkscape="http://www.inkscape.org/namespaces/inkscape"
   id="svg2985"
   version="1.1"
   inkscape:version="0.48.2 r9819"
   width="1000"
   height="347.94974"
   xml:space="preserve"
   sodipodi:docname="A.svg"><metadata
     id="metadata2991"><rdf:RDF><cc:Work
         rdf:about=""><dc:format>image/svg+xml</dc:format><dc:type
           rdf:resource="http://purl.org/dc/dcmitype/StillImage" /><dc:title></dc:title></cc:Work></rdf:RDF></metadata><defs
     id="defs2989"><clipPath
       clipPathUnits="userSpaceOnUse"
       id="clipPath3001"><path
         d="m 0,0 595.276,0 0,807.874 L 0,807.874 0,0 z"
         id="path3003"
         inkscape:connector-curvature="0" /></clipPath><clipPath
       clipPathUnits="userSpaceOnUse"
       id="clipPath3141"><path
         d="m 370.904,610.105 13.322,-13.324 15.956,15.956 -13.322,13.324 -15.956,-15.956 z"
         id="path3143"
         inkscape:connector-curvature="0" /></clipPath><clipPath
       clipPathUnits="userSpaceOnUse"
       id="clipPath3153"><path
         d="m 0,0 595.276,0 0,807.874 L 0,807.874 0,0 z"
         id="path3155"
         inkscape:connector-curvature="0" /></clipPath><clipPath
       clipPathUnits="userSpaceOnUse"
       id="clipPath3165"><path
         d="m 327.434,660.565 23.896,-11.143 9.266,19.868 -23.898,11.144 -9.264,-19.869 z"
         id="path3167"
         inkscape:connector-curvature="0" /></clipPath><clipPath
       clipPathUnits="userSpaceOnUse"
       id="clipPath3185"><path
         d="m 0,0 595.276,0 0,807.874 L 0,807.874 0,0 z"
         id="path3187"
         inkscape:connector-curvature="0" /></clipPath><clipPath
       clipPathUnits="userSpaceOnUse"
       id="clipPath3209"><path
         d="m 138.143,689.623 21.963,-38.041 28.903,16.688 -21.963,38.041 -28.903,-16.688 z"
         id="path3211"
         inkscape:connector-curvature="0" /></clipPath><clipPath
       clipPathUnits="userSpaceOnUse"
       id="clipPath3225"><path
         d="m 0,0 595.276,0 0,807.874 L 0,807.874 0,0 z"
         id="path3227"
         inkscape:connector-curvature="0" /></clipPath><clipPath
       clipPathUnits="userSpaceOnUse"
       id="clipPath3245"><path
         d="m 55.473,581.377 54.272,-19.754 10.734,29.492 -54.271,19.754 -10.735,-29.492 z"
         id="path3247"
         inkscape:connector-curvature="0" /></clipPath><clipPath
       clipPathUnits="userSpaceOnUse"
       id="clipPath3257"><path
         d="m 0,0 595.276,0 0,807.874 L 0,807.874 0,0 z"
         id="path3259"
         inkscape:connector-curvature="0" /></clipPath><clipPath
       clipPathUnits="userSpaceOnUse"
       id="clipPath3281"><path
         d="m 106.823,233.867 43.391,-30.383 58.363,83.351 -43.391,30.383 -58.363,-83.351 z"
         id="path3283"
         inkscape:connector-curvature="0" /></clipPath><clipPath
       clipPathUnits="userSpaceOnUse"
       id="clipPath3305"><path
         d="m 0,0 595.276,0 0,807.874 L 0,807.874 0,0 z"
         id="path3307"
         inkscape:connector-curvature="0" /></clipPath><clipPath
       clipPathUnits="userSpaceOnUse"
       id="clipPath3317"><path
         d="m 45.513,424.188 53.717,-25.049 30.04,64.42 -53.718,25.049 -30.039,-64.42 z"
         id="path3319"
         inkscape:connector-curvature="0" /></clipPath><clipPath
       clipPathUnits="userSpaceOnUse"
       id="clipPath3337"><path
         d="m 0,0 595.276,0 0,807.874 L 0,807.874 0,0 z"
         id="path3339"
         inkscape:connector-curvature="0" /></clipPath><clipPath
       clipPathUnits="userSpaceOnUse"
       id="clipPath3357"><path
         d="m 240.083,692.139 31.448,-18.157 12.158,21.059 -31.448,18.156 -12.158,-21.058 z"
         id="path3359"
         inkscape:connector-curvature="0" /></clipPath><clipPath
       clipPathUnits="userSpaceOnUse"
       id="clipPath3373"><path
         d="m 0,0 595.276,0 0,807.874 L 0,807.874 0,0 z"
         id="path3375"
         inkscape:connector-curvature="0" /></clipPath><clipPath
       clipPathUnits="userSpaceOnUse"
       id="clipPath3389"><path
         d="m 0,0 595.276,0 0,807.874 L 0,807.874 0,0 z"
         id="path3391"
         inkscape:connector-curvature="0" /></clipPath><radialGradient
       fx="0"
       fy="0"
       cx="0"
       cy="0"
       r="1"
       gradientUnits="userSpaceOnUse"
       gradientTransform="matrix(19.632492,0,0,-19.632492,410.51602,563.08694)"
       spreadMethod="pad"
       id="radialGradient3493"><stop
         style="stop-opacity:1;stop-color:#f36494"
         offset="0"
         id="stop3495" /><stop
         style="stop-opacity:1;stop-color:#e61c2a"
         offset="0.478027"
         id="stop3497" /><stop
         style="stop-opacity:1;stop-color:#e61c2a"
         offset="0.478027"
         id="stop3499" /><stop
         style="stop-opacity:1;stop-color:#931018"
         offset="0.978027"
         id="stop3501" /><stop
         style="stop-opacity:1;stop-color:#931018"
         offset="1"
         id="stop3503" /></radialGradient><clipPath
       clipPathUnits="userSpaceOnUse"
       id="clipPath3511"><path
         d="m 0,0 595.276,0 0,807.874 L 0,807.874 0,0 z"
         id="path3513"
         inkscape:connector-curvature="0" /></clipPath><clipPath
       clipPathUnits="userSpaceOnUse"
       id="clipPath18726"><path
         inkscape:connector-curvature="0"
         d="m 784,603.886 67.198,0 0,15.781 -67.198,0 0,-15.781 z"
         id="path18728" /></clipPath></defs><sodipodi:namedview
     pagecolor="#ffffff"
     bordercolor="#666666"
     borderopacity="1"
     objecttolerance="10"
     gridtolerance="10"
     guidetolerance="10"
     inkscape:pageopacity="0"
     inkscape:pageshadow="2"
     inkscape:window-width="1211"
     inkscape:window-height="1023"
     id="namedview2987"
     showgrid="false"
     fit-margin-left="0.5"
     fit-margin-bottom="0.5"
     fit-margin-top="0.5"
     fit-margin-right="0.5"
     inkscape:zoom="0.66100286"
     inkscape:cx="444.70882"
     inkscape:cy="-51.296772"
     inkscape:window-x="700"
     inkscape:window-y="-9"
     inkscape:window-maximized="0"
     inkscape:current-layer="g2993" /><g
     id="g2993"
     inkscape:groupmode="layer"
     inkscape:label="2008-2009_Coca-Cola_China_Sustainability_Report_CN"
     transform="matrix(1.25,0,0,-1.25,-1290.6188,1561.7169)"><path
       inkscape:connector-curvature="0"
       d="m 1246.6464,1079.2792 c -17.1373,0 -31.1007,13.9296 -31.1007,31.092 0,17.1454 13.9634,31.1007 31.1007,31.1007 17.2213,0 31.1678,-13.9465 31.1678,-31.1007 0,-17.1536 -13.9465,-31.092 -31.1678,-31.092 m 0,85.6174 c -30.0425,0 -54.5085,-24.466 -54.5085,-54.5254 0,-30.0257 24.466,-54.449 54.5085,-54.449 30.1103,0 54.5675,24.4233 54.5675,54.449 0,30.0682 -24.4572,54.5254 -54.5675,54.5254"
       style="fill:#8dc63f;fill-opacity:1;fill-rule:nonzero;stroke:none"
       id="path20772" /><path
       inkscape:connector-curvature="0"
       d="m 1602.0708,1079.2792 c -17.1623,0 -31.1427,13.9296 -31.1427,31.092 0,17.1454 13.9804,31.1007 31.1427,31.1007 17.2131,0 31.1515,-13.9465 31.1515,-31.1007 0,-17.1536 -13.9384,-31.092 -31.1515,-31.092 m 0,85.6174 c -30.0507,0 -54.5167,-24.466 -54.5167,-54.5254 0,-30.0257 24.466,-54.449 54.5167,-54.449 30.0852,0 54.5336,24.4233 54.5336,54.449 0,30.0682 -24.4484,54.5254 -54.5336,54.5254"
       style="fill:#8dc63f;fill-opacity:1;fill-rule:nonzero;stroke:none"
       id="path20774" /><path
       inkscape:connector-curvature="0"
       d="m 1178.471,1052.3428 c 4.104,0 7.5399,3.3512 7.5399,7.5149 l 0,9.7321 c 0,4.2144 -3.4359,7.6076 -7.5399,7.6076 l -4.8746,0 c -18.2882,0 -33.039,14.7759 -33.039,33.0133 0,18.1948 14.7508,32.9788 33.039,32.9788 l 4.8746,0 c 4.104,0 7.5399,3.3939 7.5399,7.5995 l 0,9.6982 c 0,4.1637 -3.4359,7.5149 -7.5399,7.5149 l -4.8746,0 c -31.947,0 -57.9186,-25.9466 -57.9186,-57.7914 0,-31.9639 25.9716,-57.851 57.9186,-57.851"
       style="fill:#8dc63f;fill-opacity:1;fill-rule:nonzero;stroke:none"
       id="path20776" /><path
       inkscape:connector-curvature="0"
       d="m 1178.471,1011.8742 c 4.104,0 7.5399,3.3851 7.5399,7.5487 l 0,9.7402 c 0,4.1556 -3.4359,7.5488 -7.5399,7.5488 l -5.8224,0 c -40.5282,0 -73.5239,32.9794 -73.5239,73.4731 0,40.4855 32.9957,73.4988 73.5239,73.4988 l 5.8224,0 c 4.104,0 7.5399,3.3932 7.5399,7.5657 l 0,9.7233 c 0,4.1893 -3.4359,7.5575 -7.5399,7.5575 l -5.8224,0 c -54.2628,0 -98.3453,-44.1164 -98.3453,-98.3623 0,-54.1862 44.0825,-98.3107 98.3453,-98.3107"
       style="fill:#c3da47;fill-opacity:1;fill-rule:nonzero;stroke:none"
       id="path20778" /><path
       inkscape:connector-curvature="0"
       d="m 1178.471,971.4137 c 4.104,0 7.5399,3.37695 7.5399,7.52367 l 0,9.75715 c 0,4.23135 -3.4359,7.5995 -7.5399,7.5995 l -6.7878,0 c -62.7505,0 -113.9499,51.08088 -113.9499,113.89098 0,62.827 51.1994,113.9079 113.9499,113.9079 l 6.7878,0.068 c 4.104,0 7.5399,3.3512 7.5399,7.5487 l 0,9.749 c 0,4.1806 -3.4359,7.5149 -7.5399,7.5149 l -6.7878,0 c -76.5359,0 -138.7882,-62.2773 -138.7882,-138.7801 0,-76.477 62.2523,-138.77128 138.7882,-138.77128"
       style="fill:#c3da47;fill-opacity:1;fill-rule:nonzero;stroke:none"
       id="path20780" /><path
       inkscape:connector-curvature="0"
       d="m 1368.1193,1055.9222 c 18.2625,0 33.0722,14.8097 33.0722,32.9964 0,18.2875 -14.8097,33.1399 -33.0722,33.1399 l -23.4755,0 c -5.3654,0 -9.7321,4.3071 -9.7321,9.7233 0,5.3064 4.3667,9.6474 9.7321,9.6474 l 38.7422,0 c 4.1894,0 7.5826,3.4447 7.5826,7.5914 l 0,8.2847 c 0,4.1467 -3.3932,7.5656 -7.5826,7.5656 l -38.7422,0 c -18.2287,0 -33.0892,-14.8517 -33.0892,-33.0891 0,-18.2964 14.8605,-33.1481 33.0892,-33.1481 l 23.4755,0 c 5.3741,0 9.6901,-4.2821 9.6901,-9.7151 0,-5.3146 -4.316,-9.6475 -9.6901,-9.6475 l -43.6926,0 c -4.1894,0 -7.5914,-3.3851 -7.5914,-7.5657 l 0,-8.2596 c 0,-4.2232 3.402,-7.5318 7.5914,-7.5318"
       style="fill:#8dc63f;fill-opacity:1;fill-rule:nonzero;stroke:none"
       id="path20782" /><path
       inkscape:connector-curvature="0"
       d="m 1487.291,1132.5434 c 0.6363,5.0695 5.1033,9.1059 10.5614,9.1059 5.8393,0 10.6461,-4.6884 10.6461,-10.3157 l 0,-67.9555 c 0,-4.1467 3.3431,-7.5318 7.5487,-7.5318 l 9.0043,0 c 4.2401,0 7.5826,3.3763 7.5826,7.5318 l 0,67.9555 c 0,18.5245 -15.5714,33.6389 -34.7817,33.6389 -8.6401,0 -16.5781,-3.0886 -22.6712,-8.1919 -6.0762,5.0525 -13.9892,8.158 -22.6205,8.158 -19.1257,0 -34.7058,-15.1144 -34.7058,-33.6558 l 0,-67.9047 c 0,-4.1467 3.3174,-7.5318 7.5318,-7.5318 l 9.0551,0 c 4.1298,0 7.5318,3.3763 7.5318,7.5318 l 0,67.9047 c 0,5.6612 4.7221,10.3157 10.5865,10.3157 5.4926,0 9.9521,-4.1041 10.5445,-9.2325 l -0.068,-68.9879 c 0,-4.1467 3.3938,-7.5318 7.5737,-7.5318 l 9.1912,0 c 4.1548,0 7.5399,3.3763 7.5399,7.5318"
       style="fill:#8dc63f;fill-opacity:1;fill-rule:nonzero;stroke:none"
       id="path20784" /><path
       inkscape:connector-curvature="0"
       d="m 1718.2047,1063.454 c 0,-4.1379 -3.3939,-7.5318 -7.5575,-7.5318 l -8.2934,0 c -4.1549,0 -7.523,3.3851 -7.523,7.5318 l 0,77.984 -28.0962,0 c -4.1636,0 -7.5575,3.444 -7.5575,7.5907 l 0,8.2854 c 0,4.1467 3.3939,7.5656 7.5575,7.5656 l 79.5744,0 c 4.1636,0 7.5237,-3.4189 7.5237,-7.5656 l 0,-8.2854 c 0,-4.1467 -3.3601,-7.5907 -7.5237,-7.5907 l -28.1043,0"
       style="fill:#8dc63f;fill-opacity:1;fill-rule:nonzero;stroke:none"
       id="path20786" /><path
       inkscape:connector-curvature="0"
       d="m 1824.5801,1055.9222 c 4.1386,0 7.5149,3.3092 7.5149,7.5318 l 0,8.2596 c 0,4.1805 -3.3763,7.5656 -7.5149,7.5656 l -11.7794,0 c -12.9824,0 -24.0597,7.913 -28.7731,19.2442 l 27.6215,0.068 c 4.1556,0 7.4729,3.3512 7.4729,7.5237 l 0,8.3354 c 0,4.1386 -3.3173,7.5236 -7.4729,7.5236 l -27.7238,0 c 4.6207,11.4416 15.8084,19.5062 28.8748,19.5062 l 11.78,0 c 4.1386,0 7.5149,3.4108 7.5149,7.5657 l 0,8.2853 c 0,4.1887 -3.3763,7.5826 -7.5149,7.5826 l -11.78,0 c -30.0507,0 -54.5675,-24.466 -54.5675,-54.5255 0,-30.0257 24.5168,-54.449 54.5675,-54.449"
       style="fill:#8dc63f;fill-opacity:1;fill-rule:nonzero;stroke:none"
       id="path20788" /></g></svg>