<?xml version="1.0" encoding="UTF-8"?>
<!DOCTYPE svg PUBLIC "-//W3C//DTD SVG 1.1//EN" "http://www.w3.org/Graphics/SVG/1.1/DTD/svg11.dtd">
<!-- Creator: CorelDRAW X7 -->
<svg xmlns="http://www.w3.org/2000/svg" xml:space="preserve" width="4.72441in" height="4.72197in" version="1.1" style="shape-rendering:geometricPrecision; text-rendering:geometricPrecision; image-rendering:optimizeQuality; fill-rule:evenodd; clip-rule:evenodd"
viewBox="0 0 4724 4722"
 xmlns:xlink="http://www.w3.org/1999/xlink">
 <defs>
  <style type="text/css">
   <![CDATA[
    .fil0 {fill:#373435}
    .fil2 {fill:#373435;fill-rule:nonzero}
    .fil1 {fill:#373435;fill-rule:nonzero}
    .fil6 {fill:url(#id0);fill-rule:nonzero}
    .fil5 {fill:url(#id1);fill-rule:nonzero}
    .fil4 {fill:url(#id2);fill-rule:nonzero}
    .fil3 {fill:url(#id3);fill-rule:nonzero}
   ]]>
  </style>
  <linearGradient id="id0" gradientUnits="userSpaceOnUse" x1="2647.91" y1="1211" x2="1854.33" y2="49.5551">
   <stop offset="0" style="stop-opacity:1; stop-color:#995C44"/>
   <stop offset="0.231373" style="stop-opacity:1; stop-color:#CB8B39"/>
   <stop offset="1" style="stop-opacity:1; stop-color:#FDBA2D"/>
  </linearGradient>
  <linearGradient id="id1" gradientUnits="userSpaceOnUse" x1="2114.39" y1="1114.12" x2="1362.89" y2="1627.63">
   <stop offset="0" style="stop-opacity:1; stop-color:#894043"/>
   <stop offset="0.231373" style="stop-opacity:1; stop-color:#A93C40"/>
   <stop offset="1" style="stop-opacity:1; stop-color:#CA373C"/>
  </linearGradient>
  <linearGradient id="id2" gradientUnits="userSpaceOnUse" x1="2170.06" y1="1562.35" x2="2546.98" y2="2186.61">
   <stop offset="0" style="stop-opacity:1; stop-color:#31624C"/>
   <stop offset="0.231373" style="stop-opacity:1; stop-color:#20865A"/>
   <stop offset="1" style="stop-opacity:1; stop-color:#0FAA68"/>
  </linearGradient>
  <linearGradient id="id3" gradientUnits="userSpaceOnUse" x1="3568.17" y1="1542.07" x2="2406.21" y2="747.055">
   <stop offset="0" style="stop-opacity:1; stop-color:#424363"/>
   <stop offset="0.231373" style="stop-opacity:1; stop-color:#21578C"/>
   <stop offset="1" style="stop-opacity:1; stop-color:#006CB5"/>
  </linearGradient>
 </defs>
 <g id="Layer_x0020_1">
  <metadata id="CorelCorpID_0Corel-Layer"/>
  <g id="_776811184">
   <g>
    <g>
     <g>
      <polygon class="fil0" points="3107,4312 3059,4312 3059,4064 3123,4064 3186,4245 3249,4064 3313,4064 3313,4312 3265,4312 3267,4132 3204,4312 3168,4312 3105,4132 "/>
      <path class="fil0" d="M3487 4186c0,10 2,20 5,29 4,10 9,18 16,26 7,8 16,14 26,19 9,4 19,7 30,7 21,0 39,-8 54,-24 15,-15 22,-34 22,-57 0,-21 -7,-39 -22,-54 -15,-15 -33,-23 -53,-23 -22,0 -40,8 -55,23 -16,14 -23,32 -23,54zm-51 2l0 0c0,-14 2,-27 5,-39 4,-12 9,-23 16,-34 13,-18 28,-32 47,-41 18,-10 38,-15 60,-15 17,0 32,3 48,10 15,6 29,15 41,27 12,12 22,26 28,42 7,15 10,31 10,48 0,18 -3,35 -9,50 -6,16 -15,30 -27,42 -12,12 -26,22 -42,29 -16,6 -32,10 -49,10 -19,0 -36,-3 -51,-10 -16,-7 -30,-16 -42,-29 -11,-12 -20,-26 -26,-42 -6,-15 -9,-31 -9,-48z"/>
      <path class="fil0" d="M3862 4164l5 0c14,0 24,-3 30,-8 7,-4 10,-12 10,-21 0,-10 -3,-17 -9,-21 -6,-4 -16,-7 -29,-7l-7 0 0 57zm0 104l0 0 14 0c15,0 26,-2 33,-7 7,-5 10,-13 10,-23 0,-11 -3,-20 -11,-26 -7,-6 -18,-8 -32,-8l-14 0 0 64zm-47 44l0 0 0 -248 53 0c11,0 20,0 26,1 6,1 12,2 17,4 13,6 24,14 31,24 7,11 11,23 11,37 0,12 -2,21 -6,30 -5,8 -11,14 -19,18 12,4 21,11 29,21 7,10 10,23 10,37 0,12 -2,23 -6,33 -5,10 -11,18 -18,25 -8,6 -16,11 -26,14 -9,2 -23,4 -40,4l-62 0z"/>
      <g>
       <polygon class="fil1" points="4086,4064 4135,4064 4135,4312 4086,4312 "/>
      </g>
      <polygon class="fil0" points="4395,4311 4269,4311 4269,4064 4317,4064 4317,4268 4395,4268 "/>
      <polygon class="fil0" points="4649,4311 4515,4311 4515,4064 4649,4063 4649,4107 4563,4107 4563,4164 4649,4163 4649,4206 4563,4206 4563,4268 4649,4268 "/>
     </g>
     <path class="fil2" d="M4542 3853c-207,156 -502,115 -658,-92 -156,-207 -115,-502 92,-658 207,-156 502,-115 658,92 13,18 25,36 36,55l10 18 -369 279c-38,29 -93,22 -122,-17 -29,-38 -21,-93 17,-122l226 -170c-102,-74 -245,-76 -351,4 -130,98 -156,283 -58,414 98,130 284,156 414,58 63,-48 101,-116 113,-188l1 -6c7,-48 51,-82 98,-75 48,6 81,50 75,98 -17,119 -79,232 -182,310zm-1093 95l0 0c-260,0 -470,-210 -470,-469l0 -501 0 -8c0,-48 39,-87 87,-87 48,0 87,40 87,88l-1 7 1 500c0,163 133,296 296,296 79,0 150,-31 203,-82l5 -5c34,-33 89,-34 123,0 34,34 34,89 1,123 -85,85 -203,138 -332,138zm-1519 -110l0 0c1,48 -38,87 -87,87 -48,0 -87,-39 -87,-87l0 -355c0,-116 -69,-227 -183,-274 -151,-62 -323,9 -386,160 -62,151 10,324 160,386 73,30 150,29 218,3 33,-19 77,-15 106,14 34,34 34,89 0,123 -10,9 -21,16 -32,20 -111,47 -239,50 -358,1 -240,-99 -354,-374 -255,-614 99,-239 374,-353 614,-254 178,74 287,246 290,427l0 363zm820 -356l0 0c0,-163 -133,-295 -296,-295 -163,0 -295,132 -295,295 0,163 132,296 296,296 163,0 295,-133 295,-296zm-702 536l0 0c8,-9 20,-23 36,-29 45,-19 96,2 114,47 12,28 7,60 -9,83 -19,39 -30,83 -30,129 0,164 133,296 296,296 163,0 295,-133 295,-296 0,-163 -132,-295 -295,-295 -261,-2 -470,-212 -470,-471 0,-259 210,-469 469,-469 259,-1 470,210 470,469 0,158 -78,298 -198,383 120,85 198,225 198,383 1,259 -210,470 -469,470 -259,0 -470,-210 -470,-469 0,-76 18,-148 50,-211 0,0 5,-9 13,-20z"/>
     <path class="fil2" d="M753 3855c-207,156 -502,115 -658,-92 -156,-207 -115,-502 92,-658 207,-156 501,-115 658,92 13,18 25,36 36,56l9 17 -368 279c-38,29 -93,22 -122,-17 -29,-38 -21,-93 17,-122l226 -170c-103,-74 -245,-76 -351,4 -131,98 -156,284 -58,414 98,130 283,156 414,58 63,-48 101,-116 113,-188l1 -6c6,-48 50,-82 98,-75 48,6 81,50 74,98 -16,119 -78,232 -181,310z"/>
    </g>
   </g>
   <path class="fil3" d="M2982 992c208,-206 241,-521 99,-762l-1 -2c44,31 88,66 129,104l41 41 42 43c396,438 427,1088 94,1559 -240,142 -556,109 -762,-99l-264 -267 356 -352 266 -265z"/>
   <path class="fil4" d="M1321 1939l690 -691 354 354 266 265c207,207 522,239 763,96l2 -2c-31,45 -66,88 -103,130l-41 41 -43 43c-491,447 -1252,434 -1728,-40 -61,-61 -114,-127 -160,-196z"/>
   <path class="fil5" d="M2099 637l266 266 -354 354 -265 266c-208,207 -224,524 -79,765 -45,-32 -103,-66 -145,-104l-83 -83c-398,-437 -432,-1086 -102,-1559 240,-143 555,-111 762,95z"/>
   <path class="fil6" d="M2099 637c-207,-206 -522,-238 -762,-95l-3 1c32,-44 66,-88 104,-129l40 -41 43 -43c437,-398 1086,-432 1559,-102 143,241 111,556 -95,763l-266 266 -354 -354 -266 -266z"/>
  </g>
 </g>
</svg>
