<?xml version="1.0" encoding="UTF-8" standalone="no"?>
<!-- Created with Inkscape (http://www.inkscape.org/) -->

<svg
   xmlns:dc="http://purl.org/dc/elements/1.1/"
   xmlns:cc="http://creativecommons.org/ns#"
   xmlns:rdf="http://www.w3.org/1999/02/22-rdf-syntax-ns#"
   xmlns:svg="http://www.w3.org/2000/svg"
   xmlns="http://www.w3.org/2000/svg"
   version="1.1"
   width="286"
   height="133"
   id="svg2985">
  <metadata
     id="metadata2991">
    <rdf:RDF>
      <cc:Work
         rdf:about="">
        <dc:format>image/svg+xml</dc:format>
        <dc:type
           rdf:resource="http://purl.org/dc/dcmitype/StillImage" />
        <dc:title></dc:title>
      </cc:Work>
    </rdf:RDF>
  </metadata>
  <defs
     id="defs2989" />
  <rect
     width="288.47488"
     height="134.43489"
     x="0"
     y="-0.034534395"
     id="rect3164"
     style="fill:#ff0000;fill-opacity:1;fill-rule:nonzero;stroke:none" />
  <g
     transform="translate(0.93357568,0)"
     id="g3166">
    <path
       d="m 25.541812,9.539989 c -5.989367,3.2e-5 -9.922643,0.580958 -11.798789,1.721711 -1.876161,1.140811 -3.210881,2.173975 -4.025767,3.088954 -0.814892,0.915035 -1.355554,1.714752 -1.620434,2.405332 -0.264885,0.690629 -0.405111,1.479684 -0.405109,2.380013 -2e-6,2.130458 0.686542,3.781381 2.050862,4.937262 1.364314,1.155912 2.471151,1.918789 3.342147,2.278736 l 7.342593,2.886399 c 1.098843,0.420421 1.804665,0.757699 2.126821,1.012771 0.322122,0.255097 0.481049,0.551548 0.481066,0.911495 -1.7e-5,0.540407 -0.502313,0.918964 -1.544476,1.114048 -1.042195,0.195101 -2.967832,0.278521 -5.772798,0.278513 -0.379405,8e-6 -1.363944,-0.02617 -2.937038,-0.101278 -1.573106,-0.07511 -3.04182,-0.126588 -4.405556,-0.126596 l 0,9.671961 6.810889,0 c 7.391248,0 13.174392,-0.94038 17.343713,-2.86108 4.169267,-1.92068 6.253832,-4.58389 6.253864,-7.975568 -3.2e-5,-2.670825 -0.997619,-4.706066 -2.987676,-6.101949 -1.990117,-1.39585 -3.547066,-2.310067 -4.684068,-2.759803 l -5.443648,-1.949585 c -1.401929,-0.540374 -2.101518,-1.002352 -2.101501,-1.392561 -1.7e-5,-0.180419 0.08938,-0.335738 0.278513,-0.455747 0.189101,-0.119961 0.367308,-0.177211 0.557024,-0.177235 l 13.014115,0 0,-8.785793 z m 14.989019,0 0,8.785793 8.254088,0 0,23.673528 13.925609,0 0,-23.673528 8.178131,0 0,-8.785793 z m 44.283437,0 c -1.023685,1.590991 -1.620832,2.530065 -1.77235,2.785122 -0.151535,0.255113 -0.939941,1.605137 -2.380013,4.051086 -1.440089,2.445997 -2.812597,5.172216 -4.101725,8.20345 -1.289137,3.031265 -2.471163,6.753808 -3.57002,11.165803 l -1.4432,6.25386 13.495182,0 c 0.264868,-2.40064 0.582724,-4.55037 0.962133,-6.45641 0.379384,-1.90604 0.766773,-3.474383 1.164687,-4.734708 0.397889,-1.260301 0.849156,-2.464746 1.341922,-3.620659 0.492734,-1.15588 0.849148,-2.053674 1.114049,-2.683844 l 1.316603,-2.658526 c 0.529744,0.83992 0.981594,1.593049 1.341922,2.253417 0.360288,0.6604 0.684375,1.324746 0.987453,2.000224 0.303029,0.67551 0.589141,1.360727 0.835536,2.050862 0.246355,0.69016 0.417173,1.245766 0.531705,1.696393 l -8.005562,-0.02528 c -0.378258,0.870141 -0.614112,1.477698 -0.70894,1.822989 -0.09487,0.345314 -0.234509,0.828163 -0.405109,1.443202 -0.170632,0.61505 -0.284953,1.18132 -0.379789,1.72171 -0.09487,0.5404 -0.178021,1.12179 -0.253193,1.72171 l 11.676859,0.0759 c 0.151503,0.30043 0.278682,0.53917 0.35447,0.73426 0.07576,0.19509 0.215388,0.56391 0.405105,1.08873 0.18968,0.52483 0.3486,1.0858 0.48107,1.67108 0.13241,0.58527 0.27888,1.20834 0.43043,1.89894 l 12.938157,0 c -0.26493,-1.47097 -0.52571,-2.78991 -0.81022,-3.97513 -0.28458,-1.1852 -0.74209,-2.87296 -1.36724,-5.063857 -0.62523,-2.190884 -1.61035,-4.708513 -2.93704,-7.545148 -1.32676,-2.836603 -2.36914,-4.975674 -3.16491,-6.431099 -0.79584,-1.455386 -1.62826,-2.862652 -2.48129,-4.228322 -0.853087,-1.365613 -2.029457,-3.114613 -3.5447,-5.215773 z m 31.497192,0 0,32.459321 13.92561,-0.25319 0,-23.673531 2.45597,-0.202554 c 2.27404,2.4e-5 4.06002,0.388791 5.36769,1.139368 1.30762,0.750618 1.94956,1.773112 1.94959,3.063634 -3e-5,1.199883 -0.64821,2.218383 -1.97491,3.088953 -1.32675,0.870603 -5.68545,1.316619 -7.46673,1.316603 l -1.08873,-0.05064 0,9.089627 c 1.25151,0.72083 2.82828,0.83317 3.37773,1.11802 0.54941,0.28485 3.49593,1.0601 4.59539,1.5405 1.09941,0.4804 2.3385,0.9628 3.72193,1.4432 1.38338,0.4804 2.85151,0.93218 4.40556,1.36724 1.55398,0.43506 2.62168,0.72575 3.19023,0.86086 0.56848,0.13509 1.62429,0.32195 3.13959,0.5317 l 2.60789,0.2532 0,-9.39346 c -0.98554,-0.11998 -1.69702,-0.239377 -2.15214,-0.329149 -0.4552,-0.08976 -0.99528,-0.220217 -1.62044,-0.430428 -0.62522,-0.210195 -1.15908,-0.422772 -1.59511,-0.632982 -0.43611,-0.210195 -0.96372,-0.480476 -1.5698,-0.810218 5.04083,-2.190884 7.57043,-5.336479 7.57047,-9.418775 -4e-5,-3.481407 -1.66547,-6.352744 -4.96258,-8.633878 -3.29719,-2.281078 -7.41548,-3.443391 -12.38113,-3.443423 z m 62.8678,0 c -5.98937,3.2e-5 -9.92265,0.580958 -11.79879,1.721711 -1.87617,1.140811 -3.23621,2.173975 -4.05109,3.088954 -0.81489,0.915035 -1.35555,1.714752 -1.62043,2.405332 -0.26489,0.690629 -0.37979,1.479684 -0.37979,2.380013 0,2.130458 0.66122,3.781381 2.02554,4.937262 1.36432,1.155912 2.49647,1.918789 3.36747,2.278736 l 7.34259,2.886399 c 1.09884,0.420421 1.80466,0.757699 2.12682,1.012771 0.32212,0.255097 0.48105,0.551548 0.48107,0.911495 -2e-5,0.540407 -0.52763,0.918964 -1.5698,1.114048 -1.04219,0.195101 -2.96783,0.278521 -5.7728,0.278513 -0.3794,8e-6 -1.33862,-0.02617 -2.91172,-0.101278 -1.57311,-0.07511 -3.04182,-0.126588 -4.40555,-0.126596 l 0,9.671961 6.81089,0 c 7.39124,0 13.17439,-0.94038 17.34371,-2.86108 4.16926,-1.92068 6.25383,-4.58389 6.25386,-7.975568 -3e-5,-2.670825 -0.99762,-4.706066 -2.98767,-6.101949 -1.99012,-1.39585 -3.54707,-2.310067 -4.68407,-2.759803 l -5.46897,-1.949585 c -1.40192,-0.540374 -2.10151,-1.002352 -2.1015,-1.392561 -1e-5,-0.180419 0.0894,-0.335738 0.27851,-0.455747 0.18911,-0.119961 0.39264,-0.177211 0.58235,-0.177235 l 13.01411,0 0,-8.785793 z m 19.77436,0 0,32.459321 13.92561,0 0,-15.824548 1.49384,-0.455747 c 0.56792,0.540406 1.21609,1.153725 1.9749,1.873627 0.26486,0.300437 0.77378,0.850282 1.49384,1.645754 0.72002,0.795495 1.44454,1.781611 2.20278,2.937037 0.75818,1.155447 1.4572,2.303097 2.1015,3.443427 0.64425,1.14033 1.2414,2.3186 1.77235,3.51937 l 1.19001,2.86108 15.24221,0 c -0.49279,-1.56073 -0.93101,-2.76073 -1.29129,-3.64597 -0.36035,-0.88523 -0.83031,-1.96989 -1.41788,-3.21555 -0.58764,-1.24565 -1.59203,-3.010613 -3.01299,-5.291731 -1.42103,-2.281102 -3.20703,-4.690453 -5.36769,-7.241317 l -2.68384,-2.962357 c 2.00914,-0.90033 3.5914,-1.704956 4.70938,-2.380013 1.11791,-0.675016 2.15405,-1.433445 3.13959,-2.304055 0.98547,-0.870563 1.79238,-1.664519 2.38002,-2.354694 0.58756,-0.690119 1.31889,-1.712613 2.2281,-3.063634 l -17.26776,0 c -1.59279,1.410556 -3.01613,2.515157 -4.22832,3.266188 -0.6443,0.449744 -1.28001,0.844733 -1.92427,1.190007 -0.64429,0.34533 -1.52151,0.755819 -2.65852,1.265964 l -0.0759,-5.722159 -13.92561,0 z m 41.80215,0 0.12659,0.32915 c 0.41641,1.260342 0.89377,2.569078 1.4432,3.94981 0.54943,1.38078 0.99446,2.377104 1.31661,2.962356 0.32213,0.585301 0.8815,1.540799 1.69639,2.86108 0.81488,1.320322 1.78696,2.795055 2.8864,4.430876 1.09942,1.635861 2.4844,3.281874 4.15236,4.96258 l 1.79767,1.772351 c -0.64429,0.329742 -1.19742,0.589814 -1.67107,0.784898 -0.47368,0.1951 -0.88658,0.361089 -1.26597,0.481066 l -3.19023,0.810217 c -1.36375,0.239977 -2.97834,0.354477 -4.83598,0.354467 l 0,8.76047 4.05108,0 c 0.37824,0 0.93818,-0.016 1.6964,-0.0759 0.7582,-0.06 1.74956,-0.16383 2.96235,-0.32915 1.21279,-0.16533 2.25516,-0.3677 3.16491,-0.60767 0.90973,-0.23997 2.42247,-0.78498 4.50684,-1.59511 2.08434,-0.81013 3.89584,-1.82287 5.46896,-3.03831 1.57308,-1.21543 2.56443,-1.99427 2.96236,-2.3547 0.39788,-0.36041 1.48428,-1.44015 3.26619,-3.240866 1.78185,-1.8007 3.70749,-4.822049 5.7728,-9.038987 2.06523,-4.216897 3.11423,-7.887481 3.11427,-11.03921 l 0,-1.139368 -13.87497,0 c -0.22789,1.290571 -0.44389,2.344137 -0.63298,3.139592 -0.18915,0.795512 -0.3288,1.304531 -0.40511,1.544477 l -1.19001,3.696616 c -0.30308,0.810614 -0.55763,1.412411 -0.7849,1.77235 -0.22731,0.35998 -0.62093,0.821957 -1.19,1.392561 -2.12255,-2.190868 -3.57822,-4.075239 -4.35492,-5.620882 -0.77674,-1.545595 -1.67304,-3.523133 -2.65853,-5.924714 z M 145.25141,50.9117 c -2.57713,4e-5 -4.68721,0.2126 -6.35514,0.63299 -1.66797,0.42043 -3.14233,1.04395 -4.43088,1.89894 -1.28856,0.85505 -2.26121,1.82075 -2.8864,2.8864 -0.62519,1.0657 -0.93682,2.17653 -0.93681,3.31683 -1e-5,0.81061 0.12717,1.49583 0.35447,2.05086 0.22728,0.55507 0.647,1.24029 1.29128,2.05086 -4.05536,2.34113 -6.07663,5.31099 -6.07663,8.91239 0,2.79084 0.91558,5.01824 2.73449,6.6843 1.81889,1.66607 3.90345,2.90159 6.25386,3.69661 2.35038,0.79503 4.61316,1.19001 6.81089,1.19001 1.55457,0 3.00343,-0.19216 4.3296,-0.58235 1.32612,-0.39018 2.69863,-1.04923 4.10172,-1.94958 0.90914,0.5404 1.55166,0.91896 1.94959,1.11405 0.39787,0.19509 1.14148,0.45471 2.20278,0.7849 1.06123,0.33018 2.24326,0.48106 3.57002,0.48106 0.64424,0 1.18432,-0.0262 1.62043,-0.10127 0.43603,-0.0751 1.17907,-0.26151 2.20278,-0.53171 l 0,-7.0894 c -1.21341,-0.15021 -2.19795,-0.5026 -2.93704,-1.01277 -0.73916,-0.51016 -1.11408,-1.10706 -1.11405,-1.79767 -3e-5,-0.65945 0.37489,-1.20578 1.11405,-1.67108 0.73909,-0.46527 1.67338,-0.70892 2.81044,-0.70894 l 0,-7.24131 c -0.34126,-0.0596 -0.79253,-0.13763 -1.34192,-0.22788 -0.54947,-0.0902 -1.20445,-0.12658 -2.00022,-0.12659 -2.12257,10e-6 -3.74963,0.26984 -4.88663,0.81022 -1.13706,0.54041 -2.11594,1.16393 -2.91172,1.89894 -0.79582,0.73505 -1.34156,1.44114 -1.64575,2.1015 l -1.87363,4.12705 c -0.49277,1.19987 -1.58541,1.82299 -3.2915,1.82299 -2.15957,0 -3.24089,-0.95019 -3.24087,-2.81045 -2e-5,-1.05055 0.66121,-1.93368 2.02554,-2.68384 1.3643,-0.75012 3.05467,-1.13935 5.06386,-1.13937 l 0,-4.93726 c -2.805,2e-5 -4.20302,-0.67944 -4.203,-2.00022 -2e-5,-1.26029 1.82999,-1.87361 5.46896,-1.87363 l 2.70917,0.17723 0,-7.51982 c -1.47713,-0.27017 -2.57092,-0.45657 -3.29151,-0.53171 -0.72064,-0.0751 -1.78835,-0.10124 -3.19023,-0.10128 z m 44.99238,40.51087 c -1.47828,3e-5 -3.04828,0.0937 -4.73471,0.30383 -1.68648,0.21023 -3.40293,0.55817 -5.16514,1.03809 -1.76223,0.47997 -3.67482,1.26903 -5.72216,2.38001 -2.53894,1.59008 -4.26163,3.04929 -5.19045,4.35492 -0.92883,1.30567 -1.58304,2.41159 -1.92427,3.34215 -0.34122,0.93059 -0.58273,1.86967 -0.73426,2.78512 -0.15152,0.91549 -0.22787,1.78841 -0.22787,2.65852 0,2.5811 0.74984,5.01086 2.2281,7.29196 1.47825,2.28112 3.91242,4.44106 7.34259,6.48174 3.43016,2.04067 8.58441,3.06363 15.44477,3.06363 1.06181,-0.0595 2.05317,-0.0964 2.96236,-0.1266 0.90912,-0.0302 1.76025,-0.0506 2.55724,-0.0506 l 0,-9.54537 c -1.70614,0.21068 -2.93901,0.32916 -3.69661,0.32915 -3.75234,1e-5 -6.70107,-0.69541 -8.86175,-2.07618 -2.16072,-1.38075 -3.24089,-3.25445 -3.24087,-5.59556 -2e-5,-2.64151 0.85792,-4.42243 2.58256,-5.36769 1.72461,-0.94522 3.04628,-1.49552 3.97513,-1.64575 0.9288,-0.15019 2.46024,-0.22785 4.58279,-0.22788 1.40189,3e-5 2.94014,0.0777 4.60811,0.22788 l 0,-9.19091 c -2.65347,-0.30038 -4.92795,-0.43039 -6.78556,-0.43042 z m -143.712287,0.48106 0,32.45933 13.925609,0 0,-32.45933 z m 23.065872,0 0,8.7858 -10.432245,0 0,7.11472 10.887992,0 0,16.55881 13.925609,0 0,-32.45933 z m 21.850547,0 0,19.62245 c 0,1.47099 0.400433,3.23019 1.215326,5.24109 0.814884,2.01092 2.168692,3.60015 4.025767,4.78535 1.857058,1.18521 3.941625,2.04217 6.253865,2.58257 2.31221,0.5404 4.81649,0.81021 7.54514,0.81021 3.90382,0 7.29135,-0.51922 10.15304,-1.56979 2.86162,-1.05056 4.83809,-2.3065 5.89939,-3.74726 1.06123,-1.44074 1.7988,-2.8431 2.25342,-4.25364 0.45454,-1.41051 0.68358,-2.70819 0.68362,-3.84853 l 0,-19.62245 -13.97625,0 0,18.05266 c -2e-5,3.4219 -1.67734,5.13982 -5.01322,5.13981 -3.4111,10e-6 -5.11451,-1.71791 -5.11449,-5.13981 l 0,-18.05266 z m 41.371718,0 0,8.7858 8.22877,0 0,23.67353 13.92561,0 0,-23.67353 8.20345,0 0,-8.7858 z m 70.41294,0 0,32.45933 13.92561,0 0,-32.45933 z m 23.09119,0 0,8.7858 -10.8587,0 0,7.11472 11.31445,0 0,16.55881 13.92561,0 0,-32.45933 z"
       id="text2995" />
    <path
       d="m 24.444083,8.4580719 c -5.989367,3.2e-5 -9.922643,0.580958 -11.798789,1.7217111 -1.876161,1.140811 -3.2108809,2.173975 -4.0257669,3.088954 -0.814892,0.915035 -1.355554,1.714752 -1.620434,2.405332 -0.264885,0.690629 -0.405111,1.479684 -0.405109,2.380013 -2e-6,2.130458 0.686542,3.781381 2.050862,4.937262 1.3643139,1.155912 2.4711509,1.918789 3.3421469,2.278736 l 7.342593,2.886399 c 1.098843,0.420421 1.804665,0.757699 2.126821,1.012771 0.322122,0.255097 0.481049,0.551548 0.481066,0.911495 -1.7e-5,0.540407 -0.502313,0.918964 -1.544476,1.114048 -1.042195,0.195101 -2.967832,0.278521 -5.772798,0.278513 -0.379405,8e-6 -1.363944,-0.02617 -2.937038,-0.101278 -1.573106,-0.07511 -3.0418199,-0.126588 -4.4055559,-0.126596 l 0,9.671961 6.8108889,0 c 7.391248,0 13.174392,-0.94038 17.343713,-2.86108 4.169267,-1.92068 6.253832,-4.58389 6.253864,-7.975568 -3.2e-5,-2.670825 -0.997619,-4.706066 -2.987676,-6.101949 -1.990117,-1.39585 -3.547066,-2.310067 -4.684068,-2.759803 l -5.443648,-1.949585 c -1.401929,-0.540374 -2.101518,-1.002352 -2.101501,-1.392561 -1.7e-5,-0.180419 0.08938,-0.335738 0.278513,-0.455747 0.189101,-0.119961 0.367308,-0.177211 0.557024,-0.177235 l 13.014115,0 0,-8.7857931 z m 14.989019,0 0,8.7857931 8.254088,0 0,23.673528 13.925609,0 0,-23.673528 8.178131,0 0,-8.7857931 z m 44.283437,0 c -1.023685,1.5909911 -1.620832,2.5300651 -1.77235,2.7851221 -0.151535,0.255113 -0.939941,1.605137 -2.380013,4.051086 -1.440089,2.445997 -2.812597,5.172216 -4.101725,8.20345 -1.289137,3.031265 -2.471163,6.753808 -3.57002,11.165803 l -1.4432,6.25386 13.495182,0 c 0.264868,-2.40064 0.582724,-4.55037 0.962133,-6.45641 0.379384,-1.90604 0.766773,-3.474383 1.164687,-4.734708 0.397889,-1.260301 0.849156,-2.464746 1.341922,-3.620659 0.492734,-1.15588 0.849148,-2.053674 1.114049,-2.683844 l 1.316603,-2.658526 c 0.529744,0.83992 0.981594,1.593049 1.341922,2.253417 0.360288,0.6604 0.684375,1.324746 0.987453,2.000224 0.303029,0.67551 0.589141,1.360727 0.835536,2.050862 0.246355,0.69016 0.417173,1.245766 0.531705,1.696393 l -8.005562,-0.02528 c -0.378258,0.870141 -0.614112,1.477698 -0.70894,1.822989 -0.09487,0.345314 -0.234509,0.828163 -0.405109,1.443202 -0.170632,0.61505 -0.284953,1.18132 -0.379789,1.72171 -0.09487,0.5404 -0.178021,1.12179 -0.253193,1.72171 l 11.676859,0.0759 c 0.151503,0.30043 0.278682,0.53917 0.35447,0.73426 0.07576,0.19509 0.215388,0.56391 0.405105,1.08873 0.18968,0.52483 0.3486,1.0858 0.48107,1.67108 0.13241,0.58527 0.27888,1.20834 0.43043,1.89894 l 12.938156,0 c -0.26493,-1.47097 -0.52571,-2.78991 -0.81022,-3.97513 -0.28458,-1.1852 -0.74209,-2.87296 -1.36724,-5.063857 -0.62523,-2.190884 -1.61035,-4.708513 -2.93704,-7.545148 -1.32676,-2.836603 -2.36914,-4.975674 -3.16491,-6.431099 -0.79584,-1.455386 -1.62826,-2.862652 -2.481289,-4.228322 -0.853087,-1.365613 -2.029457,-3.114613 -3.5447,-5.2157731 z m 31.497191,0 0,32.4593211 13.92561,-0.25319 0,-23.673531 2.45597,-0.202554 c 2.27404,2.4e-5 4.06002,0.388791 5.36769,1.139368 1.30762,0.750618 1.94956,1.773112 1.94959,3.063634 -3e-5,1.199883 -0.64821,2.218383 -1.97491,3.088953 -1.32675,0.870603 -5.68545,1.316619 -7.46673,1.316603 l -1.08873,-0.05064 0,9.089627 c 1.25151,0.72083 2.82828,0.83317 3.37773,1.11802 0.54941,0.28485 3.49593,1.0601 4.59539,1.5405 1.09941,0.4804 2.3385,0.9628 3.72193,1.4432 1.38338,0.4804 2.85151,0.93218 4.40556,1.36724 1.55398,0.43506 2.62168,0.72575 3.19023,0.86086 0.56848,0.13509 1.62429,0.32195 3.13959,0.5317 l 2.60789,0.2532 0,-9.39346 c -0.98554,-0.11998 -1.69702,-0.239377 -2.15214,-0.329149 -0.4552,-0.08976 -0.99528,-0.220217 -1.62044,-0.430428 -0.62522,-0.210195 -1.15908,-0.422772 -1.59511,-0.632982 -0.43611,-0.210195 -0.96372,-0.480476 -1.5698,-0.810218 5.04083,-2.190884 7.57043,-5.336479 7.57047,-9.418775 -4e-5,-3.481407 -1.66547,-6.352744 -4.96258,-8.633878 -3.29719,-2.2810781 -7.41548,-3.4433911 -12.38113,-3.4434231 z m 62.8678,0 c -5.98937,3.2e-5 -9.92265,0.580958 -11.79879,1.7217111 -1.87617,1.140811 -3.23621,2.173975 -4.05109,3.088954 -0.81489,0.915035 -1.35555,1.714752 -1.62043,2.405332 -0.26489,0.690629 -0.37979,1.479684 -0.37979,2.380013 0,2.130458 0.66122,3.781381 2.02554,4.937262 1.36432,1.155912 2.49647,1.918789 3.36747,2.278736 l 7.34259,2.886399 c 1.09884,0.420421 1.80466,0.757699 2.12682,1.012771 0.32212,0.255097 0.48105,0.551548 0.48107,0.911495 -2e-5,0.540407 -0.52763,0.918964 -1.5698,1.114048 -1.04219,0.195101 -2.96783,0.278521 -5.7728,0.278513 -0.3794,8e-6 -1.33862,-0.02617 -2.91172,-0.101278 -1.57311,-0.07511 -3.04182,-0.126588 -4.40555,-0.126596 l 0,9.671961 6.81089,0 c 7.39124,0 13.17439,-0.94038 17.34371,-2.86108 4.16926,-1.92068 6.25383,-4.58389 6.25386,-7.975568 -3e-5,-2.670825 -0.99762,-4.706066 -2.98767,-6.101949 -1.99012,-1.39585 -3.54707,-2.310067 -4.68407,-2.759803 l -5.46897,-1.949585 c -1.40192,-0.540374 -2.10151,-1.002352 -2.1015,-1.392561 -1e-5,-0.180419 0.0894,-0.335738 0.27851,-0.455747 0.18911,-0.119961 0.39264,-0.177211 0.58235,-0.177235 l 13.01411,0 0,-8.7857931 z m 19.77436,0 0,32.4593211 13.92561,0 0,-15.824548 1.49384,-0.455747 c 0.56792,0.540406 1.21609,1.153725 1.9749,1.873627 0.26486,0.300437 0.77378,0.850282 1.49384,1.645754 0.72002,0.795495 1.44454,1.781611 2.20278,2.937037 0.75818,1.155447 1.4572,2.303097 2.1015,3.443427 0.64425,1.14033 1.2414,2.3186 1.77235,3.51937 l 1.19001,2.86108 15.24221,0 c -0.49279,-1.56073 -0.93101,-2.76073 -1.29129,-3.64597 -0.36035,-0.88523 -0.83031,-1.96989 -1.41788,-3.21555 -0.58764,-1.24565 -1.59203,-3.010613 -3.01299,-5.291731 -1.42103,-2.281102 -3.20703,-4.690453 -5.36769,-7.241317 l -2.68384,-2.962357 c 2.00914,-0.90033 3.5914,-1.704956 4.70938,-2.380013 1.11791,-0.675016 2.15405,-1.433445 3.13959,-2.304055 0.98547,-0.870563 1.79238,-1.664519 2.38002,-2.354694 0.58756,-0.690119 1.31889,-1.7126131 2.2281,-3.0636341 l -17.26776,0 c -1.59279,1.410556 -3.01613,2.5151571 -4.22832,3.2661881 -0.6443,0.449744 -1.28001,0.844733 -1.92427,1.190007 -0.64429,0.34533 -1.52151,0.755819 -2.65852,1.265964 l -0.0759,-5.7221591 -13.92561,0 z m 41.80215,0 0.12659,0.32915 c 0.41641,1.2603421 0.89377,2.5690781 1.4432,3.9498101 0.54943,1.38078 0.99446,2.377104 1.31661,2.962356 0.32213,0.585301 0.8815,1.540799 1.69639,2.86108 0.81488,1.320322 1.78696,2.795055 2.8864,4.430876 1.09942,1.635861 2.4844,3.281874 4.15236,4.96258 l 1.79767,1.772351 c -0.64429,0.329742 -1.19742,0.589814 -1.67107,0.784898 -0.47368,0.1951 -0.88658,0.361089 -1.26597,0.481066 l -3.19023,0.810217 c -1.36375,0.239977 -2.97834,0.354477 -4.83598,0.354467 l 0,8.76047 4.05108,0 c 0.37824,0 0.93818,-0.016 1.6964,-0.0759 0.7582,-0.06 1.74956,-0.16383 2.96235,-0.32915 1.21279,-0.16533 2.25516,-0.3677 3.16491,-0.60767 0.90973,-0.23997 2.42247,-0.78498 4.50684,-1.59511 2.08434,-0.81013 3.89584,-1.82287 5.46896,-3.03831 1.57308,-1.21543 2.56443,-1.99427 2.96236,-2.3547 0.39788,-0.36041 1.48428,-1.44015 3.26619,-3.240866 1.78185,-1.8007 3.70749,-4.822049 5.7728,-9.038987 2.06523,-4.216897 3.11423,-7.887481 3.11427,-11.0392101 l 0,-1.139368 -13.87497,0 c -0.22789,1.290571 -0.44389,2.3441371 -0.63298,3.1395921 -0.18915,0.795512 -0.3288,1.304531 -0.40511,1.544477 l -1.19001,3.696616 c -0.30308,0.810614 -0.55763,1.412411 -0.7849,1.77235 -0.22731,0.35998 -0.62093,0.821957 -1.19,1.392561 -2.12255,-2.190868 -3.57822,-4.075239 -4.35492,-5.620882 -0.77674,-1.545595 -1.67304,-3.523133 -2.65853,-5.9247141 z M 144.15368,49.829783 c -2.57713,4e-5 -4.68721,0.2126 -6.35514,0.63299 -1.66797,0.42043 -3.14233,1.04395 -4.43088,1.89894 -1.28856,0.85505 -2.26121,1.82075 -2.8864,2.8864 -0.62519,1.0657 -0.93682,2.17653 -0.93681,3.31683 -1e-5,0.81061 0.12717,1.49583 0.35447,2.05086 0.22728,0.55507 0.647,1.24029 1.29128,2.05086 -4.05536,2.34113 -6.07663,5.31099 -6.07663,8.91239 0,2.79084 0.91558,5.01824 2.73449,6.6843 1.81889,1.66607 3.90345,2.90159 6.25386,3.69661 2.35038,0.79503 4.61316,1.19001 6.81089,1.19001 1.55457,0 3.00343,-0.19216 4.3296,-0.58235 1.32612,-0.39018 2.69863,-1.04923 4.10172,-1.94958 0.90914,0.5404 1.55166,0.91896 1.94959,1.11405 0.39787,0.19509 1.14148,0.45471 2.20278,0.7849 1.06123,0.33018 2.24326,0.48106 3.57002,0.48106 0.64424,0 1.18432,-0.0262 1.62043,-0.10127 0.43603,-0.0751 1.17907,-0.26151 2.20278,-0.53171 l 0,-7.0894 c -1.21341,-0.15021 -2.19795,-0.5026 -2.93704,-1.01277 -0.73916,-0.51016 -1.11408,-1.10706 -1.11405,-1.79767 -3e-5,-0.65945 0.37489,-1.20578 1.11405,-1.67108 0.73909,-0.46527 1.67338,-0.70892 2.81044,-0.70894 l 0,-7.24131 c -0.34126,-0.0596 -0.79253,-0.13763 -1.34192,-0.22788 -0.54947,-0.0902 -1.20445,-0.12658 -2.00022,-0.12659 -2.12257,1e-5 -3.74963,0.26984 -4.88663,0.81022 -1.13706,0.54041 -2.11594,1.16393 -2.91172,1.89894 -0.79582,0.73505 -1.34156,1.44114 -1.64575,2.1015 l -1.87363,4.12705 c -0.49277,1.19987 -1.58541,1.82299 -3.2915,1.82299 -2.15957,0 -3.24089,-0.95019 -3.24087,-2.81045 -2e-5,-1.05055 0.66121,-1.93368 2.02554,-2.68384 1.3643,-0.75012 3.05467,-1.13935 5.06386,-1.13937 l 0,-4.93726 c -2.805,2e-5 -4.20302,-0.67944 -4.203,-2.00022 -2e-5,-1.26029 1.82999,-1.87361 5.46896,-1.87363 l 2.70917,0.17723 0,-7.51982 c -1.47713,-0.27017 -2.57092,-0.45657 -3.29151,-0.53171 -0.72064,-0.0751 -1.78835,-0.10124 -3.19023,-0.10128 z m 44.99238,40.51087 c -1.47828,3e-5 -3.04828,0.0937 -4.73471,0.30383 -1.68648,0.21023 -3.40293,0.55817 -5.16514,1.03809 -1.76223,0.47997 -3.67482,1.26903 -5.72216,2.38001 -2.53894,1.59008 -4.26163,3.04929 -5.19045,4.35492 -0.92883,1.30567 -1.58304,2.411587 -1.92427,3.342147 -0.34122,0.93059 -0.58273,1.86967 -0.73426,2.78512 -0.15152,0.91549 -0.22787,1.78841 -0.22787,2.65852 0,2.5811 0.74984,5.01086 2.2281,7.29196 1.47825,2.28112 3.91242,4.44106 7.34259,6.48174 3.43016,2.04067 8.58441,3.06363 15.44477,3.06363 1.06181,-0.0595 2.05317,-0.0964 2.96236,-0.1266 0.90912,-0.0302 1.76025,-0.0506 2.55724,-0.0506 l 0,-9.54537 c -1.70614,0.21068 -2.93901,0.32916 -3.69661,0.32915 -3.75234,1e-5 -6.70107,-0.69541 -8.86175,-2.07618 -2.16072,-1.38075 -3.24089,-3.25445 -3.24087,-5.59556 -2e-5,-2.64151 0.85792,-4.42243 2.58256,-5.36769 1.72461,-0.94522 3.04628,-1.49552 3.97513,-1.645747 0.9288,-0.15019 2.46024,-0.22785 4.58279,-0.22788 1.40189,3e-5 2.94014,0.0777 4.60811,0.22788 l 0,-9.19091 c -2.65347,-0.30038 -4.92795,-0.43039 -6.78556,-0.43042 z m -143.712286,0.48106 0,32.459327 13.925609,0 0,-32.459327 z m 23.065872,0 0,8.7858 -10.432245,0 0,7.114717 10.887992,0 0,16.55881 13.925609,0 0,-32.459327 z m 21.850547,0 0,19.622447 c 0,1.47099 0.400433,3.23019 1.215326,5.24109 0.814884,2.01092 2.168692,3.60015 4.025767,4.78535 1.857058,1.18521 3.941625,2.04217 6.253864,2.58257 2.31221,0.5404 4.81649,0.81021 7.54514,0.81021 3.90382,0 7.29135,-0.51922 10.15304,-1.56979 2.86162,-1.05056 4.83809,-2.3065 5.89939,-3.74726 1.06123,-1.44074 1.7988,-2.8431 2.25342,-4.25364 0.45454,-1.41051 0.68358,-2.70819 0.68362,-3.84853 l 0,-19.622447 -13.97625,0 0,18.052657 c -2e-5,3.4219 -1.67734,5.13982 -5.01322,5.13981 -3.4111,1e-5 -5.11451,-1.71791 -5.11449,-5.13981 l 0,-18.052657 z m 41.371717,0 0,8.7858 8.22877,0 0,23.673527 13.92561,0 0,-23.673527 8.20345,0 0,-8.7858 z m 70.41294,0 0,32.459327 13.92561,0 0,-32.459327 z m 23.09119,0 0,8.7858 -10.8587,0 0,7.114717 11.31445,0 0,16.55881 13.92561,0 0,-32.459327 z"
       id="text2995-3"
       style="fill:#ffffff" />
  </g>
</svg>
