<?xml version="1.0" encoding="UTF-8" standalone="no"?>
<!-- Created with Inkscape (http://www.inkscape.org/) -->

<svg
   width="147.75795mm"
   height="51.488266mm"
   viewBox="0 0 147.75795 51.488266"
   version="1.1"
   id="svg603"
   inkscape:version="1.1.2 (0a00cf5339, 2022-02-04)"
   sodipodi:docname="Logo of KPN Telecom (2000).svg"
   xmlns:inkscape="http://www.inkscape.org/namespaces/inkscape"
   xmlns:sodipodi="http://sodipodi.sourceforge.net/DTD/sodipodi-0.dtd"
   xmlns="http://www.w3.org/2000/svg"
   xmlns:svg="http://www.w3.org/2000/svg">
  <sodipodi:namedview
     id="namedview605"
     pagecolor="#ffffff"
     bordercolor="#666666"
     borderopacity="1.0"
     inkscape:pageshadow="2"
     inkscape:pageopacity="0.0"
     inkscape:pagecheckerboard="0"
     inkscape:document-units="mm"
     showgrid="false"
     fit-margin-top="0"
     fit-margin-left="0"
     fit-margin-right="0"
     fit-margin-bottom="0"
     inkscape:zoom="0.49166796"
     inkscape:cx="777.96406"
     inkscape:cy="381.35493"
     inkscape:window-width="1850"
     inkscape:window-height="1136"
     inkscape:window-x="70"
     inkscape:window-y="27"
     inkscape:window-maximized="1"
     inkscape:current-layer="layer1" />
  <defs
     id="defs600">
    <clipPath
       clipPathUnits="userSpaceOnUse"
       id="clipPath246">
      <path
         d="m 142.92,459.84 h 56.51 v -145.4 h -56.51 z"
         clip-rule="evenodd"
         id="path244" />
    </clipPath>
    <clipPath
       clipPathUnits="userSpaceOnUse"
       id="clipPath252">
      <path
         d="M 7,835 H 571 V 7 H 7 Z"
         id="path250" />
    </clipPath>
    <clipPath
       clipPathUnits="userSpaceOnUse"
       id="clipPath258">
      <path
         d="M 0.03,841.98 H 595.05 V 0 H 0.03 Z"
         id="path256" />
    </clipPath>
  </defs>
  <g
     inkscape:label="Layer 1"
     inkscape:groupmode="layer"
     id="layer1"
     transform="translate(-34.708995,-132.82658)">
    <g
       id="g240"
       transform="matrix(0,-1.0840275,-1.0840275,0,530.71836,344.64079)">
      <g
         id="g242"
         clip-path="url(#clipPath246)">
        <g
           id="g248"
           clip-path="url(#clipPath252)">
          <g
             id="g254"
             clip-path="url(#clipPath258)">
            <path
               d="m 178.585,321.257 h -23.939 v 95.869 l 5.923,0.859 2.359,6.881 h 15.634 l 0.023,-103.609"
               style="fill:#5fb424;fill-opacity:1;fill-rule:nonzero;stroke:none"
               id="path260" />
            <path
               d="m 152.534,417.633 15.739,-15.757 26.774,26.774 -26.774,26.774 -13.341,-13.34 6.707,-6.707 -1.186,-1.186 -6.717,6.716 -1.095,-1.095 6.716,-6.717 -1.096,-1.096 -6.716,6.716 -1.096,-1.096 6.716,-6.717 -1.096,-1.096 -6.717,6.717 -1.096,-1.096 6.717,-6.717 -0.054,-0.054 v -0.059 l 0.039,-0.039 -6.702,-6.701 1.096,-1.096 6.702,6.701 1.096,-1.096 -6.701,-6.702 1.096,-1.095 6.701,6.701 1.096,-1.096 -6.701,-6.701 1.095,-1.097 6.702,6.702 -1.229,1.229 -6.675,-6.674"
               style="fill:#ffffff;fill-opacity:1;fill-rule:nonzero;stroke:none"
               id="path262" />
            <path
               d="m 152.534,417.633 15.739,-15.757 26.774,26.774 -26.774,26.774 -13.341,-13.34 6.707,-6.707 -1.186,-1.186 -6.717,6.716 -1.095,-1.095 6.716,-6.717 -1.096,-1.096 -6.716,6.716 -1.096,-1.096 6.716,-6.717 -1.096,-1.096 -6.717,6.717 -1.096,-1.096 6.717,-6.717 -0.054,-0.054 v -0.059 l 0.039,-0.039 -6.702,-6.701 1.096,-1.096 6.702,6.701 1.096,-1.096 -6.701,-6.702 1.096,-1.095 6.701,6.701 1.096,-1.096 -6.701,-6.701 1.095,-1.097 6.702,6.702 -1.229,1.229 z"
               style="fill:none;stroke:#fcfbfd;stroke-width:0.493;stroke-linecap:butt;stroke-linejoin:miter;stroke-miterlimit:4;stroke-dasharray:none;stroke-opacity:1"
               id="path264" />
            <path
               d="m 154.955,416.991 13.308,-13.326 26.774,26.773 -26.774,26.775 -13.34,-13.34 6.707,-6.707 -1.186,-1.187 -6.717,6.717 -1.096,-1.096 6.716,-6.716 -1.096,-1.097 -6.716,6.717 -1.096,-1.096 6.717,-6.717 -1.096,-1.096 -6.717,6.717 -1.096,-1.096 6.716,-6.717 -0.053,-0.054 v -0.059 l 0.038,-0.039 -6.701,-6.701 1.096,-1.097 6.701,6.702 1.096,-1.096 -6.701,-6.702 1.096,-1.096 6.702,6.701 1.095,-1.095 -6.701,-6.702 1.096,-1.096 6.701,6.701 1.202,-1.201 -6.675,-6.674"
               style="fill:#244f9b;fill-opacity:1;fill-rule:nonzero;stroke:none"
               id="path266" />
            <path
               d="m 154.955,416.991 13.308,-13.326 26.774,26.773 -26.774,26.775 -13.34,-13.34 6.707,-6.707 -1.186,-1.187 -6.717,6.717 -1.096,-1.096 6.716,-6.716 -1.096,-1.097 -6.716,6.717 -1.096,-1.096 6.717,-6.717 -1.096,-1.096 -6.717,6.717 -1.096,-1.096 6.716,-6.717 -0.053,-0.054 v -0.059 l 0.038,-0.039 -6.701,-6.701 1.096,-1.097 6.701,6.702 1.096,-1.096 -6.701,-6.702 1.096,-1.096 6.702,6.701 1.095,-1.095 -6.701,-6.702 1.096,-1.096 6.701,6.701 1.202,-1.201 z"
               style="fill:none;stroke:#244f9b;stroke-width:0.493;stroke-linecap:butt;stroke-linejoin:miter;stroke-miterlimit:4;stroke-dasharray:none;stroke-opacity:1"
               id="path268" />
            <path
               d="m 189.522,429.793 h 1.367 v 1.093 h -1.367 v 1.094 h -1.049 v -3.281 h 1.049 v 1.094"
               style="fill:#ffffff;fill-opacity:1;fill-rule:nonzero;stroke:none"
               id="path270" />
            <path
               d="m 179.229,430.339 c 0,-2.313 -0.288,-4.189 -0.644,-4.189 -0.356,0 -0.645,1.876 -0.645,4.189 0,2.314 0.289,4.19 0.645,4.19 0.356,0 0.644,-1.876 0.644,-4.19"
               style="fill:#ffffff;fill-opacity:1;fill-rule:nonzero;stroke:none"
               id="path272" />
            <path
               d="m 181.148,431.798 c 0,-0.384 -0.311,-0.695 -0.694,-0.695 -0.385,0 -0.695,0.311 -0.695,0.695 0,0.383 0.31,0.694 0.695,0.694 0.383,0 0.694,-0.311 0.694,-0.694"
               style="fill:#ffffff;fill-opacity:1;fill-rule:nonzero;stroke:none"
               id="path274" />
            <path
               d="m 180.761,434.19 c 0,-0.384 -0.312,-0.694 -0.695,-0.694 -0.384,0 -0.694,0.31 -0.694,0.694 0,0.384 0.31,0.695 0.694,0.695 0.383,0 0.695,-0.311 0.695,-0.695"
               style="fill:#ffffff;fill-opacity:1;fill-rule:nonzero;stroke:none"
               id="path276" />
            <path
               d="m 181.148,428.835 c 0,0.384 -0.311,0.695 -0.694,0.695 -0.385,0 -0.695,-0.311 -0.695,-0.695 0,-0.383 0.31,-0.694 0.695,-0.694 0.383,0 0.694,0.311 0.694,0.694"
               style="fill:#ffffff;fill-opacity:1;fill-rule:nonzero;stroke:none"
               id="path278" />
            <path
               d="m 180.761,426.443 c 0,0.384 -0.312,0.694 -0.695,0.694 -0.384,0 -0.694,-0.31 -0.694,-0.694 0,-0.384 0.31,-0.694 0.694,-0.694 0.383,0 0.695,0.31 0.695,0.694"
               style="fill:#ffffff;fill-opacity:1;fill-rule:nonzero;stroke:none"
               id="path280" />
            <path
               d="m 181.878,429.951 c 0.318,-0.182 0.82,-0.519 1.413,-0.861 0.316,-0.182 1.13,-0.738 1.954,-0.738 0.87,0 0.855,0.619 0.855,0.817 0,0.198 -0.141,0.564 -0.363,0.782 h 1.506 c 0.365,-0.593 0.342,-0.683 0.342,-1.093 0,-0.41 -0.206,-2.05 -2.005,-2.05 -1.8,0 -3.042,1.162 -3.702,1.526 v 1.617"
               style="fill:#ffffff;fill-opacity:1;fill-rule:nonzero;stroke:none"
               id="path282" />
            <path
               d="m 185.899,426.124 c 0.228,-0.866 -0.086,-2.438 -1.868,-2.438 -1.527,0 -2.461,1.162 -3.008,1.846 0.137,0.273 0.409,0.832 0.524,1.288 0.661,-0.661 1.322,-1.749 2.279,-1.779 0.842,-0.026 0.865,0.81 0.728,1.106 l 1.345,-0.023"
               style="fill:#ffffff;fill-opacity:1;fill-rule:nonzero;stroke:none"
               id="path284" />
            <path
               d="m 181.878,430.728 c 0.318,0.182 0.82,0.519 1.413,0.86 0.316,0.183 1.13,0.738 1.954,0.738 0.87,0 0.855,-0.618 0.855,-0.816 0,-0.198 -0.141,-0.564 -0.363,-0.782 h 1.506 c 0.365,0.593 0.342,0.682 0.342,1.093 0,0.409 -0.206,2.05 -2.005,2.05 -1.8,0 -3.042,-1.162 -3.702,-1.526 v -1.617"
               style="fill:#ffffff;fill-opacity:1;fill-rule:nonzero;stroke:none"
               id="path286" />
            <path
               d="m 185.899,434.555 c 0.228,0.866 -0.086,2.438 -1.868,2.438 -1.527,0 -2.461,-1.163 -3.008,-1.846 0.137,-0.273 0.409,-0.833 0.524,-1.288 0.661,0.661 1.322,1.749 2.279,1.779 0.842,0.026 0.865,-0.81 0.728,-1.106 l 1.345,0.023"
               style="fill:#ffffff;fill-opacity:1;fill-rule:nonzero;stroke:none"
               id="path288" />
            <path
               d="m 165.278,442.052 v 2.348 h 12.041 v -2.348 h -6.507 l 3.388,-2.951 v -2.884 l -3.455,3.152 -5.467,-3.236 v 2.817 l 3.824,2.13 -1.007,0.972 h -2.817"
               style="fill:#ffffff;fill-opacity:1;fill-rule:nonzero;stroke:none"
               id="path290" />
            <path
               d="m 172.908,431.27 v -0.033 c 0.704,-0.436 1.526,-1.09 1.526,-2.666 0,-1.962 -1.509,-3.706 -4.594,-3.706 -2.449,0 -4.797,1.106 -4.797,3.756 0,1.643 0.889,2.23 1.376,2.515 v 0.034 h -4.612 v 2.347 H 174.2 v -2.247 z m -5.936,-2.062 c 0,-1.509 1.643,-1.929 2.7,-1.929 1.408,0 2.733,0.504 2.733,1.996 0,1.61 -1.442,1.995 -2.867,1.995 -1.326,0 -2.566,-0.57 -2.566,-2.062"
               style="fill:#ffffff;fill-opacity:1;fill-rule:nonzero;stroke:none"
               id="path292" />
            <path
               d="m 165.278,413.816 v 2.347 h 5.416 c 0.655,0 1.761,0.034 1.761,1.526 0,1.04 -0.704,1.845 -2.062,1.845 h -5.115 v 2.348 h 8.922 v -2.247 h -1.308 v -0.034 c 0.536,-0.319 1.542,-0.989 1.542,-2.683 0,-1.744 -1.023,-3.102 -2.985,-3.102 h -6.171"
               style="fill:#ffffff;fill-opacity:1;fill-rule:nonzero;stroke:none"
               id="path294" />
            <path
               d="m 174.2,394.322 v -1.459 h -1.677 v 1.459 h -4.847 c -0.52,0 -0.721,-0.017 -0.721,-0.972 0,-0.151 0.12,-0.577 0.137,-0.745 h -1.778 c -0.017,0.369 -0.136,0.996 -0.136,1.365 v 0.302 c 0,2.029 0.771,2.398 1.928,2.398 h 5.417 v 1.207 h 1.677 v -1.207 h 1.174 l 1.396,-2.348 h -2.57"
               style="fill:#ffffff;fill-opacity:1;fill-rule:nonzero;stroke:none"
               id="path296" />
            <path
               d="m 167.894,381.866 c -2.147,0.621 -2.851,2.398 -2.851,3.924 0,2.516 1.208,4.444 4.881,4.444 1.073,0 4.51,-0.369 4.51,-4.276 0,-1.761 -0.838,-4.192 -4.913,-4.192 h -0.419 v 6.121 c -0.671,-0.068 -2.181,-0.202 -2.181,-2.097 0,-0.654 0.336,-1.324 0.973,-1.509 z m 2.734,2.315 c 1.442,0.134 1.878,1.056 1.878,1.81 0,1.107 -0.704,1.694 -1.878,1.828 v -3.638"
               style="fill:#ffffff;fill-opacity:1;fill-rule:nonzero;stroke:none"
               id="path298" />
            <path
               d="m 165.278,378.631 h 12.041 v -2.348 h -12.041 z"
               style="fill:#ffffff;fill-opacity:1;fill-rule:nonzero;stroke:none"
               id="path300" />
            <path
               d="m 167.894,364.866 c -2.147,0.62 -2.851,2.398 -2.851,3.924 0,2.515 1.208,4.444 4.881,4.444 1.073,0 4.51,-0.369 4.51,-4.276 0,-1.761 -0.838,-4.193 -4.913,-4.193 h -0.419 v 6.121 c -0.671,-0.067 -2.181,-0.201 -2.181,-2.096 0,-0.654 0.336,-1.325 0.973,-1.509 z m 2.734,2.314 c 1.442,0.134 1.878,1.056 1.878,1.811 0,1.107 -0.704,1.694 -1.878,1.828 v -3.639"
               style="fill:#ffffff;fill-opacity:1;fill-rule:nonzero;stroke:none"
               id="path302" />
            <path
               d="m 168.532,354.017 c -0.923,0.084 -3.489,0.805 -3.489,4.075 0,3.354 2.566,4.126 4.444,4.126 2.885,0 4.947,-1.258 4.947,-4.277 0,-1.408 -0.637,-3.722 -3.421,-3.94 v 2.381 c 0.587,0.1 1.51,0.469 1.442,1.559 0,1.476 -1.475,1.862 -2.582,1.862 -0.973,0 -2.901,-0.034 -2.901,-1.811 0,-1.191 1.14,-1.593 1.56,-1.593 v -2.382"
               style="fill:#ffffff;fill-opacity:1;fill-rule:nonzero;stroke:none"
               id="path304" />
            <path
               d="m 165.043,346.824 c 0,2.398 1.476,4.562 4.696,4.562 3.219,0 4.695,-2.164 4.695,-4.562 0,-2.397 -1.476,-4.561 -4.695,-4.561 -3.22,0 -4.696,2.164 -4.696,4.561 z m 7.412,0 c 0,1.811 -1.576,2.147 -2.716,2.147 -1.14,0 -2.717,-0.336 -2.717,-2.147 0,-1.811 1.577,-2.146 2.717,-2.146 1.14,0 2.716,0.335 2.716,2.146"
               style="fill:#ffffff;fill-opacity:1;fill-rule:nonzero;stroke:none"
               id="path306" />
            <path
               d="m 165.278,326.854 v 2.348 h 5.416 c 1.326,0 1.761,0.587 1.761,1.275 0,1.174 -0.771,1.593 -1.827,1.593 h -5.35 v 2.347 h 5.367 c 0.754,0 1.81,0 1.81,1.409 0,1.107 -0.771,1.459 -1.744,1.459 h -5.433 v 2.347 h 8.922 v -2.246 h -1.308 v -0.034 c 0.587,-0.302 1.542,-0.956 1.542,-2.532 0,-1.291 -0.469,-1.878 -1.425,-2.482 0.436,-0.302 1.425,-0.956 1.425,-2.381 0,-1.744 -1.023,-3.103 -2.985,-3.103 h -6.171"
               style="fill:#ffffff;fill-opacity:1;fill-rule:nonzero;stroke:none"
               id="path308" />
            <path
               d="m 160.658,394.627 c 0,-0.771 -0.624,-1.395 -1.395,-1.395 -0.77,0 -1.396,0.624 -1.396,1.395 0,0.771 0.626,1.396 1.396,1.396 0.771,0 1.395,-0.625 1.395,-1.396"
               style="fill:#ffffff;fill-opacity:1;fill-rule:nonzero;stroke:none"
               id="path310" />
            <path
               d="m 160.658,378.89 c 0,-0.771 -0.624,-1.396 -1.395,-1.396 -0.77,0 -1.396,0.625 -1.396,1.396 0,0.771 0.626,1.395 1.396,1.395 0.771,0 1.395,-0.624 1.395,-1.395"
               style="fill:#ffffff;fill-opacity:1;fill-rule:nonzero;stroke:none"
               id="path312" />
            <path
               d="m 160.658,363.153 c 0,-0.771 -0.624,-1.396 -1.395,-1.396 -0.77,0 -1.396,0.625 -1.396,1.396 0,0.77 0.626,1.395 1.396,1.395 0.771,0 1.395,-0.625 1.395,-1.395"
               style="fill:#ffffff;fill-opacity:1;fill-rule:nonzero;stroke:none"
               id="path314" />
            <path
               d="m 160.658,347.416 c 0,-0.771 -0.624,-1.396 -1.395,-1.396 -0.77,0 -1.396,0.625 -1.396,1.396 0,0.77 0.626,1.395 1.396,1.395 0.771,0 1.395,-0.625 1.395,-1.395"
               style="fill:#ffffff;fill-opacity:1;fill-rule:nonzero;stroke:none"
               id="path316" />
            <path
               d="m 160.658,331.679 c 0,-0.771 -0.624,-1.396 -1.395,-1.396 -0.77,0 -1.396,0.625 -1.396,1.396 0,0.77 0.626,1.395 1.396,1.395 0.771,0 1.395,-0.625 1.395,-1.395"
               style="fill:#ffffff;fill-opacity:1;fill-rule:nonzero;stroke:none"
               id="path318" />
          </g>
        </g>
      </g>
    </g>
  </g>
</svg>
