<?xml version="1.0" encoding="UTF-8"?>
<svg id="Layer_2" data-name="Layer 2" xmlns="http://www.w3.org/2000/svg" viewBox="0 0 34.54 34.55">
  <defs>
    <style>
      .cls-1 {
        fill: none;
      }

      .cls-1, .cls-2, .cls-3 {
        stroke-width: 0px;
      }

      .cls-2 {
        fill: #00c34f;
      }

      .cls-3 {
        fill: #fdf3e6;
        fill-rule: evenodd;
      }
    </style>
  </defs>
  <g id="Layer_1-2" data-name="Layer 1">
    <g>
      <rect class="cls-1" width="34.54" height="34.54"/>
      <g>
        <g>
          <path class="cls-2" d="M30.87,13.6c0,7.51-6.09,13.6-13.6,13.6S3.68,21.1,3.68,13.6,9.76,0,17.27,0s13.6,6.09,13.6,13.6"/>
          <path class="cls-3" d="M12.37,7.62l-1.53,11.3c-.08.63,2.17.94,2.25.31l1.53-11.3c.08-.63-2.17-.94-2.25-.31"/>
          <path class="cls-3" d="M16.13,7.94v11.39c0,.63,2.27.63,2.27,0V7.94c0-.63-2.27-.63-2.27,0"/>
          <path class="cls-3" d="M19.92,7.93l1.53,11.3c.08.63,2.34.32,2.25-.31l-1.53-11.3c-.08-.63-2.33-.32-2.25.31"/>
        </g>
        <g>
          <path class="cls-2" d="M8.91,31.9c-.12.75-.77,1.23-1.67,1.23-1.08,0-1.8-.86-1.8-1.91s.67-1.86,1.74-1.86,1.7.74,1.7,1.71c0,.08,0,.2-.01.25h-2.86c.04.75.54,1.29,1.23,1.29.59,0,.97-.26,1.09-.72h.59ZM6.04,30.86h2.25c-.04-.62-.46-1.01-1.11-1.01-.62,0-1.03.36-1.14,1.01Z"/>
          <path class="cls-2" d="M9.66,29.42h.58v.7c.19-.51.64-.76,1.2-.76.83,0,1.36.59,1.36,1.48v2.23h-.58v-2.14c0-.62-.36-1.04-.91-1.04-.62,0-1.07.5-1.07,1.21v1.97h-.58v-3.65Z"/>
          <path class="cls-2" d="M17.03,31.9c-.12.75-.77,1.23-1.67,1.23-1.08,0-1.8-.86-1.8-1.91s.67-1.86,1.74-1.86,1.7.74,1.7,1.71c0,.08,0,.2-.01.25h-2.86c.04.75.54,1.29,1.23,1.29.59,0,.97-.26,1.09-.72h.59ZM14.15,30.86h2.25c-.04-.62-.46-1.01-1.11-1.01-.62,0-1.03.36-1.14,1.01Z"/>
          <path class="cls-2" d="M19.3,29.94c-.74,0-.95.67-.95,1.53v1.61h-.58v-3.65h.58v.74c.15-.5.46-.74.99-.74h.46v.51h-.51Z"/>
          <path class="cls-2" d="M23.63,29.42v3.81c0,.78-.56,1.32-1.35,1.32h-1.73v-.5h1.69c.47,0,.8-.36.8-.84v-.65c-.17.34-.66.57-1.21.57-1.14,0-1.76-.82-1.76-1.88s.62-1.88,1.76-1.88c.49,0,.99.25,1.21.59v-.54h.58ZM23.1,31.25c0-.83-.48-1.36-1.21-1.36s-1.22.54-1.22,1.36.48,1.36,1.22,1.36,1.21-.54,1.21-1.36Z"/>
          <path class="cls-2" d="M25.24,27.92v.81h-.67v-.81h.67ZM24.61,29.42h.58v3.65h-.58v-3.65Z"/>
          <path class="cls-2" d="M29.11,30.72v2.36h-.58v-.63c-.2.42-.68.69-1.25.69-.77,0-1.27-.43-1.27-1.1s.57-1.14,1.46-1.14h.83c.16,0,.23-.08.23-.2,0-.5-.35-.84-.98-.84-.54,0-.96.33-.99.73h-.55c.07-.7.73-1.22,1.55-1.22.95,0,1.54.54,1.54,1.36ZM28.53,31.43v-.09h-1.02c-.54,0-.9.26-.9.69,0,.38.3.62.76.62.73,0,1.16-.46,1.16-1.21Z"/>
        </g>
      </g>
    </g>
  </g>
</svg>