<?xml version="1.0" standalone="no"?>
<!DOCTYPE svg PUBLIC "-//W3C//DTD SVG 20010904//EN"
 "http://www.w3.org/TR/2001/REC-SVG-20010904/DTD/svg10.dtd">
<svg version="1.0" xmlns="http://www.w3.org/2000/svg"
 width="2936.000000pt" height="708.000000pt" viewBox="0 0 2936.000000 708.000000"
 preserveAspectRatio="xMidYMid meet">

<g transform="translate(0.000000,708.000000) scale(0.100000,-0.100000)"
fill="#000000" stroke="none">
<path d="M2460 6031 l0 -979 -104 54 c-118 62 -297 123 -436 150 -145 28 -428
26 -578 -4 -312 -63 -576 -201 -805 -422 -357 -343 -532 -783 -514 -1285 10
-255 59 -456 167 -680 292 -606 929 -976 1577 -916 227 21 382 64 578 162 161
80 288 172 420 304 282 283 449 643 485 1045 6 72 10 751 10 1833 l0 1717
-400 0 -400 0 0 -979z m-617 -1545 c160 -41 283 -111 403 -230 113 -113 185
-235 236 -406 25 -83 36 -303 19 -392 -83 -441 -440 -748 -867 -748 -151 0
-303 44 -452 132 -90 52 -238 208 -295 308 -88 157 -137 363 -123 519 32 362
254 667 571 787 162 61 343 72 508 30z"/>
<path d="M7530 4475 l0 -2535 400 0 400 0 0 2535 0 2535 -400 0 -400 0 0
-2535z"/>
<path d="M170 6248 c0 -589 1 -615 20 -657 23 -50 62 -99 99 -123 23 -16 54
-18 264 -18 l237 0 0 280 c0 307 2 321 59 374 24 23 42 30 85 34 73 6 134 -28
165 -91 20 -41 21 -60 21 -320 l0 -277 106 0 105 0 -3 318 -3 317 -26 55 c-41
85 -90 135 -176 177 -70 35 -82 37 -162 37 -57 0 -99 -6 -125 -17 -21 -9 -40
-17 -42 -17 -2 0 -4 122 -4 270 l0 270 -100 0 -100 0 0 -250 0 -250 -105 0
-105 0 0 250 0 250 -105 0 -105 0 0 -612z m420 -343 l0 -245 -105 0 -105 0 0
245 0 245 105 0 105 0 0 -245z"/>
<path d="M6900 6619 c-72 -14 -167 -67 -225 -124 -184 -184 -184 -496 0 -680
177 -177 467 -175 638 4 97 102 137 200 137 336 0 136 -40 234 -137 336 -105
110 -259 158 -413 128z"/>
<path d="M1731 6384 c-154 -41 -284 -176 -327 -339 -66 -246 89 -516 331 -580
157 -41 308 0 431 117 46 44 114 149 114 177 0 7 -36 11 -111 11 -107 0 -112
-1 -155 -31 -122 -83 -239 -93 -313 -26 -24 22 -81 105 -81 118 0 4 127 9 283
11 314 4 338 8 377 70 17 26 20 45 18 94 -7 122 -103 264 -228 337 -93 54
-229 71 -339 41z m199 -225 c66 -30 130 -98 130 -139 0 -7 -75 -10 -225 -10
-150 0 -225 3 -225 10 0 20 28 65 57 92 42 40 111 68 168 68 29 0 69 -9 95
-21z"/>
<path d="M4800 5279 c-720 -69 -1305 -619 -1442 -1356 -28 -155 -31 -439 -5
-583 70 -385 234 -694 507 -953 216 -205 481 -344 783 -409 87 -19 133 -22
307 -22 175 0 220 3 310 23 202 43 387 118 543 220 43 28 80 51 82 51 3 0 5
-67 5 -150 l0 -150 340 0 341 0 -4 943 c-4 1026 -2 986 -63 1202 -146 518
-559 950 -1063 1115 -111 36 -219 57 -356 70 -122 11 -161 11 -285 -1z m383
-793 c316 -94 542 -338 624 -674 25 -103 22 -294 -5 -406 -44 -178 -133 -329
-270 -457 -165 -154 -355 -230 -577 -230 -226 0 -422 77 -587 230 -346 320
-388 863 -95 1236 134 171 324 285 545 325 89 17 269 4 365 -24z"/>
<path d="M13665 5274 c-507 -54 -968 -354 -1230 -799 -292 -495 -312 -1113
-53 -1629 496 -989 1778 -1211 2554 -441 171 169 275 322 369 542 161 376 177
819 44 1218 -81 241 -212 449 -403 641 -237 236 -508 383 -823 444 -105 21
-362 34 -458 24z m322 -778 c291 -62 535 -270 644 -550 106 -273 75 -591 -80
-828 -159 -244 -401 -388 -678 -405 -314 -19 -606 130 -780 400 -169 259 -193
596 -65 879 114 251 350 444 615 502 83 19 260 19 344 2z"/>
<path d="M18125 5274 c-440 -47 -850 -280 -1119 -635 -544 -717 -431 -1750
254 -2324 533 -446 1289 -496 1871 -124 42 27 79 49 82 49 4 0 7 -63 7 -140
l0 -140 340 0 340 0 0 873 c0 517 -4 909 -10 962 -32 284 -122 532 -281 771
-97 146 -294 344 -434 437 -273 180 -539 265 -855 272 -85 2 -173 1 -195 -1z
m325 -778 c94 -20 215 -69 290 -118 99 -63 236 -208 293 -308 174 -309 161
-679 -34 -970 -154 -230 -396 -371 -666 -387 -319 -19 -617 137 -788 412 -193
309 -183 709 26 1010 124 180 322 313 534 360 80 17 264 18 345 1z"/>
<path d="M24157 5270 c-564 -71 -1038 -419 -1281 -942 -114 -245 -163 -496
-153 -783 20 -525 258 -981 677 -1295 108 -80 331 -195 455 -233 463 -143 959
-75 1354 187 47 31 86 56 88 56 2 0 3 -187 3 -415 0 -394 -1 -419 -21 -478
-71 -214 -262 -363 -547 -428 -127 -29 -320 -36 -402 -15 -109 27 -219 88
-305 168 -173 161 -265 354 -265 555 l0 83 -405 0 -405 0 0 -129 c0 -144 17
-258 55 -376 109 -334 373 -668 695 -878 190 -123 402 -209 598 -242 138 -23
416 -16 543 13 502 118 896 463 1049 920 68 205 65 134 65 1507 l0 1240 -23
124 c-124 682 -631 1209 -1290 1342 -111 22 -378 33 -485 19z m386 -784 c160
-41 283 -111 403 -230 167 -166 251 -361 261 -603 8 -185 -17 -303 -98 -464
-254 -509 -927 -637 -1345 -255 -297 271 -384 701 -214 1063 99 212 277 380
485 459 162 61 343 72 508 30z"/>
<path d="M21170 5264 c-318 -39 -613 -185 -832 -412 -187 -195 -297 -399 -364
-682 -16 -69 -18 -160 -21 -1142 l-4 -1068 375 0 375 0 3 1033 c3 973 4 1035
22 1087 35 104 77 173 150 245 116 115 237 166 397 166 287 1 533 -189 616
-476 16 -55 18 -147 21 -1057 l3 -998 385 0 385 0 -4 1063 c-3 1031 -4 1065
-24 1157 -29 132 -56 208 -118 337 -180 371 -533 641 -950 728 -77 16 -339 28
-415 19z"/>
<path d="M16595 5239 c-33 -5 -100 -20 -148 -34 -477 -136 -833 -523 -948
-1030 -23 -100 -23 -100 -26 -1167 l-4 -1068 366 0 365 0 0 1018 c0 1104 -2
1061 56 1181 38 78 159 197 249 243 77 40 186 73 278 83 l57 6 0 390 0 389
-92 -1 c-51 -1 -120 -5 -153 -10z"/>
<path d="M27366 5235 c-399 -65 -762 -280 -1011 -600 -646 -828 -377 -2064
550 -2525 198 -99 350 -141 578 -161 444 -40 901 127 1230 449 84 83 181 201
240 295 77 121 174 335 163 362 -5 13 -53 15 -358 15 -206 0 -368 -4 -389 -10
-20 -6 -52 -21 -70 -35 -313 -225 -506 -313 -709 -322 -176 -9 -344 31 -453
106 -103 70 -196 189 -279 356 -25 50 -48 100 -52 112 l-7 22 903 4 c603 3
925 9 968 16 257 45 391 126 466 286 62 130 69 235 25 406 -155 616 -623 1075
-1233 1210 -124 27 -432 35 -562 14z m444 -784 c145 -49 231 -102 341 -211 95
-95 147 -167 194 -274 l25 -56 -815 0 -815 0 10 24 c85 226 303 436 530 511
118 39 155 44 300 41 121 -3 145 -6 230 -35z"/>
<path d="M6670 3580 l0 -1640 380 0 380 0 0 1640 0 1640 -380 0 -380 0 0
-1640z"/>
<path d="M8443 4143 c4 -1154 2 -1111 63 -1304 75 -237 221 -461 402 -615 308
-263 698 -377 1089 -318 123 18 248 53 340 94 36 17 70 30 74 30 5 0 9 -145 9
-322 0 -245 -4 -340 -15 -393 -66 -315 -384 -515 -693 -437 -133 34 -205 75
-303 172 -131 130 -189 265 -189 442 l0 88 -392 0 -391 0 7 -151 c11 -246 51
-409 145 -597 184 -365 515 -622 926 -718 65 -15 120 -19 290 -19 196 0 217 2
318 28 546 138 949 578 1032 1127 13 80 15 394 15 2023 l0 1927 -375 0 -374 0
-3 -1037 -3 -1038 -24 -65 c-66 -185 -218 -328 -398 -375 -75 -20 -219 -19
-297 1 -179 46 -333 172 -415 340 -63 128 -61 93 -61 1182 l0 992 -391 0 -390
0 4 -1057z"/>
</g>
</svg>
