<?xml version="1.0" encoding="UTF-8"?>
<svg viewBox="0 0 1551.5 358.76" xmlns="http://www.w3.org/2000/svg">
<defs>
<style>.cls-1{fill:#00afe4;}</style>
</defs>
<g data-name="Capa 2">
<g data-name="Layer 1">
<path class="cls-1" d="m1471.5 0h44.88v242.6c0.11 1.78 0 3.82 1.19 5.31 1.58 1.67 4.09 1.49 6.22 1.64h27.72q0 18.51 0 37-22.35 0-44.67 0c-9.19-0.06-19-2.55-25.44-9.5-6.87-7.38-9.09-17.74-9.78-27.48-0.5-8.66-0.15-17.34-0.25-26q0.12-111.75 0.13-223.57z"/>
<path class="cls-1" d="M84.93,77.82c16.84-6.43,35.75-6.23,52.94-1.25,17.8,5.17,33.34,16.94,43.92,32.09,13.9,19.73,20.14,44,21,67.92.82,23.49-3.53,47.5-14.62,68.37-8.14,15.38-20.28,28.89-35.62,37.32-17,9.5-37.42,12.18-56.54,8.89A64.39,64.39,0,0,1,56.4,268.08c-4.31-5-7.24-10.95-10.73-16.51a9.87,9.87,0,0,0-.76,4.08q.09,51.55,0,103.1H.06Q.14,218.38,0,78c13,0,26,0,39.05,0,.38,13.31.3,26.63,1,39.92,2.17-1.26,3-3.71,4.31-5.72C53.69,96.8,68,84.19,84.93,77.82Zm10.36,36.57c-17.42,2-32.43,14.17-40.1,29.63-9,17.58-10.61,38.29-6.85,57.5,2.93,14.7,10,29.23,22.22,38.37,13.32,10.08,31.62,12,47.34,7.13,12.9-3.93,23.75-13.36,30.16-25.14,9-16.42,10.64-36,7.77-54.31-2.69-16.28-9.73-32.65-22.83-43.22C122.6,115.8,108.51,112.56,95.29,114.39Z"/>
<path class="cls-1" d="M320.8,73.65c19.65-2.27,40.23.69,57.73,10.19A86.75,86.75,0,0,1,413,118.32c9.4,16.83,13.61,36.19,13.94,55.36.11,9.18,0,18.35.07,27.53-51.63.12-103.26,0-154.89.06a52.72,52.72,0,0,0,18.92,34.1c16.15,13.33,38.36,17.86,58.79,14.79,18.16-2.8,34.16-13.33,46.71-26.37,8,8,16,16.06,24.07,24,.74.88,1.83,1.61,2.23,2.75a107.13,107.13,0,0,1-39.78,31.38c-32.77,14.87-72.75,13.57-104-4.61a100.27,100.27,0,0,1-39.4-41.61c-9.66-19.07-12.95-41-11.2-62.14,2.13-25.67,13-50.67,31-69.19A102.22,102.22,0,0,1,320.8,73.65Zm-28.49,54.4a58.62,58.62,0,0,0-20.16,38q55.58,0,111.15,0c-.44-12.46-3.9-25.21-11.95-34.95-7.27-9-18.19-14.62-29.54-16.36C324.42,111.74,305.74,116.49,292.31,128.05Z"/>
<path class="cls-1" d="M624.56,86.39c16.13-10.78,36-15.31,55.22-14.06,17.31.89,34.57,6.41,48.49,16.9,12.41,9.18,21.84,21.94,28.21,35.92-10.87,5.71-21.85,11.21-32.76,16.85a56.17,56.17,0,0,0-26.82-27.38c-11.06-5.23-24-6.94-35.88-3.8-6.83,1.84-13.51,5.62-17.31,11.78-4.9,7.78-3.85,18.89,2.76,25.39,6.25,6.21,14.76,9.27,22.89,12.2,20,6.78,40.95,11.61,59.1,22.77,10.86,6.61,20.41,16.32,24.33,28.66a57.23,57.23,0,0,1-6,46.95c-8,12.78-20.95,21.78-34.86,27.11-31.53,11.95-68.52,8-96.9-10.21a110.14,110.14,0,0,1-33.3-32.91q14-11.94,28.08-23.84c9.62,11.73,20.89,22.5,34.59,29.33a68.33,68.33,0,0,0,43.39,6.16c6.73-1.39,13.57-4.14,18.12-9.5a19.83,19.83,0,0,0,.43-24.53c-5.48-7-13.8-10.91-21.84-14.21-12.48-4.86-25.56-8-38-13-15.06-5.92-30.28-13.57-40.51-26.53-10.62-13.28-12.92-32.1-7.32-48C603.29,105.21,613,94.11,624.56,86.39Z"/>
<path class="cls-1" d="m871.19 73.3c27.48-4 56.57 2.45 79.18 18.74 27.44 19.35 44.32 52.12 45.35 85.56 1.61 33.55-13.42 67.19-39.08 88.76a107.89 107.89 0 0 1-135.74 4.1c-25.9-19.36-42.72-50.46-44.13-82.86-1.77-30.53 10.58-61.26 32.23-82.72a111.05 111.05 0 0 1 62.19-31.58zm2.18 41.06c-22 4-40.87 20.17-48.79 40.92a73.64 73.64 0 0 0 2.79 59.81 67 67 0 0 0 29.45 29.51 65.62 65.62 0 0 0 85-24c13.14-20.61 14.57-48 3.78-70a67.11 67.11 0 0 0-30.19-30.6 66.21 66.21 0 0 0-42.04-5.64z"/>
<path class="cls-1" d="M1095.28,84c16.51-11.46,37.93-14.09,57.33-10.1a62,62,0,0,1,37.29,23.75c11.88,16,16.23,36.37,16.4,56q0,66.51,0,133h-44.87q0-63,0-126c-.14-10.83-1.68-22-7-31.61a31.86,31.86,0,0,0-18.65-15.23c-15.73-4.63-33.82-.36-45.5,11.24-13.92,13.58-20,33.5-20.31,52.58q0,54.51,0,109-22.44,0-44.87,0,0-104.31-.12-208.62h41c.08,13.33-.15,26.66.12,40C1073.8,105.16,1082.62,92.43,1095.28,84Z"/>
<path class="cls-1" d="m1272 94.85c27-21.93 65.48-27.51 98.16-16.47 14.38 5 27.4 14.34 35.88 27.08a76.28 76.28 0 0 1 11.92 32.24c1.24 8.26 0.9 16.63 0.94 25q0 40 0 80c0 2.38 0 5.9 3 6.54 6.12 0.79 12.35 0.15 18.52 0.37v37.08c-9.88-0.08-19.75 0-29.61-0.05-6.88-0.09-14-2.06-19.2-6.68-5-4.33-7.8-10.68-9-17.09s-0.64-13.16-0.79-19.73c-1.91 0-2.62 1.72-3.33 3.17a81.21 81.21 0 0 1-33.17 34.92 82.22 82.22 0 0 1-62.71 6.74c-14.95-4.38-28.57-14.41-35.56-28.52a63.77 63.77 0 0 1-3.82-45.73c4.78-15.84 17.24-28.32 31.66-35.87 19.23-10.18 41.41-13.36 63-12.88h36.11c-0.15-9.66 0.91-19.7-2.7-28.92a32.57 32.57 0 0 0-20.37-19.76c-15.66-5.16-33.33-1.5-46.72 7.75-11.11 7.51-19.7 18.38-25.34 30.47q-18.94-9.18-37.89-18.36c7.02-15.92 17.38-30.44 31.02-41.3zm20.74 114.73c-8 8.29-9.32 21.95-3.71 31.89 4 7.11 11.92 11.23 19.84 12.28 15.3 2.05 31-3.7 42.54-13.62 13-10.95 20.94-27.19 22.66-44h-38.23c-15.1 0.19-31.99 2.22-43.13 13.45z"/>
<path class="cls-1" d="m462.43 78h41c0.17 13-0.32 25.92 0.27 38.85 2.6-4.06 3.88-8.79 6.37-12.92 5.09-9.58 13.11-17.9 23.39-21.8 12.47-5.09 26.17-4 39.34-4.14q0 22.41 0 44.83h-30c-8 0.11-16.4 1.91-22.76 7.06-5.9 4.68-9.32 11.79-11 19-2.28 9.41-1.69 19.15-1.76 28.74 0 36.31-0.06 72.62 0.05 108.92-15 0.15-29.95 0-44.93 0.07q0.03-104.29 0.03-208.61z"/>
</g>
</g>
</svg>
