<?xml version="1.0" encoding="UTF-8" standalone="no"?>
<!-- Created with Inkscape (http://www.inkscape.org/) -->

<svg
   width="57.879192mm"
   height="16.283163mm"
   viewBox="0 0 57.879192 16.283163"
   version="1.1"
   id="svg16017"
   inkscape:version="1.3 (0e150ed6c4, 2023-07-21)"
   sodipodi:docname="Telemach_logo.svg"
   xmlns:inkscape="http://www.inkscape.org/namespaces/inkscape"
   xmlns:sodipodi="http://sodipodi.sourceforge.net/DTD/sodipodi-0.dtd"
   xmlns="http://www.w3.org/2000/svg"
   xmlns:svg="http://www.w3.org/2000/svg"
   xmlns:rdf="http://www.w3.org/1999/02/22-rdf-syntax-ns#"
   xmlns:cc="http://creativecommons.org/ns#"
   xmlns:dc="http://purl.org/dc/elements/1.1/">
  <defs
     id="defs16011">
    <clipPath
       id="clipPath15801"
       clipPathUnits="userSpaceOnUse">
      <path
         inkscape:connector-curvature="0"
         id="path15799"
         d="M 0,841.89 H 595.276 V 0 H 0 Z" />
    </clipPath>
    <clipPath
       id="clipPath15767"
       clipPathUnits="userSpaceOnUse">
      <path
         inkscape:connector-curvature="0"
         id="path15765"
         d="M 0,0 H 595.276 V 841.89 H 0 Z" />
    </clipPath>
  </defs>
  <sodipodi:namedview
     id="base"
     pagecolor="#ffffff"
     bordercolor="#666666"
     borderopacity="1.0"
     inkscape:pageopacity="0.0"
     inkscape:pageshadow="2"
     inkscape:zoom="3.6661851"
     inkscape:cx="109.10524"
     inkscape:cy="29.867559"
     inkscape:document-units="mm"
     inkscape:current-layer="layer1"
     showgrid="false"
     fit-margin-top="0"
     fit-margin-left="0"
     fit-margin-right="0"
     fit-margin-bottom="0"
     inkscape:window-width="1920"
     inkscape:window-height="1001"
     inkscape:window-x="2391"
     inkscape:window-y="-9"
     inkscape:window-maximized="1"
     inkscape:showpageshadow="2"
     inkscape:pagecheckerboard="0"
     inkscape:deskcolor="#d1d1d1" />
  <metadata
     id="metadata16014">
    <rdf:RDF>
      <cc:Work
         rdf:about="">
        <dc:format>image/svg+xml</dc:format>
        <dc:type
           rdf:resource="http://purl.org/dc/dcmitype/StillImage" />
        <dc:title />
      </cc:Work>
    </rdf:RDF>
  </metadata>
  <g
     inkscape:label="Layer 1"
     inkscape:groupmode="layer"
     id="layer1"
     transform="translate(31.207453,1.6192844)">
    <path
       inkscape:connector-curvature="0"
       id="path15793"
       style="fill:#1f232b;fill-opacity:1;fill-rule:nonzero;stroke:none;stroke-width:0.352778"
       d="M -31.207453,14.663878 H 26.671739 V -1.6192844 h -57.879192 z" />
    <path
       d="M 20.884244,10.07424 V 6.5665702 c 0,-1.2435416 -0.712258,-2.011186 -1.933222,-2.011186 -0.818445,0 -1.296106,0.4141611 -1.668992,0.8692444 V 2.8500564 H 15.668777 V 10.07424 H 17.28203 V 7.0523452 c 0,-0.7281333 0.393347,-1.1024305 1.009297,-1.1024305 0.616656,0 0.9779,0.3742972 0.9779,1.1024305 V 10.07424 Z M 11.294686,7.3751369 v -0.020108 c 0,-0.798336 0.573617,-1.4760221 1.380772,-1.4760221 0.573617,0 0.934156,0.2328333 1.295047,0.5968999 L 14.958636,5.4648453 C 14.428058,4.900048 13.759191,4.5553842 12.686041,4.5553842 c -1.743075,0 -2.9852043,1.2728222 -2.9852043,2.8197527 v 0.019756 c 0,1.5476361 1.2534183,2.7996441 2.9640383,2.7996441 1.136297,0 1.773766,-0.413808 2.325864,-0.9895414 L 14.045294,8.2948285 C 13.6523,8.6490174 13.28153,8.8712674 12.738958,8.8712674 c -0.881592,0 -1.444272,-0.66675 -1.444272,-1.4961305 M 7.3580395,10.07424 H 8.919434 V 6.9302841 C 8.919434,6.2039147 8.7285812,5.6056036 8.3031312,5.2023786 7.900259,4.8178508 7.2627895,4.5963064 6.3804923,4.5963064 c -0.9659055,0 -1.5822083,0.17145 -2.2090944,0.434975 L 4.5749757,6.2039147 C 5.0963813,6.0211758 5.5310035,5.909698 6.1473062,5.909698 c 0.8078611,0 1.2213167,0.3538361 1.2213167,0.9906 V 6.990962 C 6.9646923,6.8604341 6.550884,6.7697702 5.9772674,6.7697702 c -1.3490222,0 -2.2948194,0.5446889 -2.2948194,1.7279055 v 0.020108 c 0,1.069975 0.8819444,1.6573503 1.9550944,1.6573503 0.7863416,0 1.3271499,-0.271992 1.7204971,-0.6872115 z m 0.03175,-1.9109976 c 0,0.5570361 -0.5090583,0.9514417 -1.2632972,0.9514417 -0.5214055,0 -0.8822972,-0.2434167 -0.8822972,-0.6575778 v -0.019756 c 0,-0.4861277 0.4247445,-0.7492999 1.1154834,-0.7492999 0.3933472,0 0.7542388,0.081139 1.030111,0.2032 z M 1.2941425,10.07424 h 1.614311 V 6.5457563 c 0,-1.3038666 -0.7214305,-1.9903721 -1.92193326,-1.9903721 -0.77575832,0 -1.37018886,0.3033888 -1.8693694,0.8590138 C -1.1809464,4.8690036 -1.7436269,4.5553842 -2.4872825,4.5553842 c -0.8170333,0 -1.3056305,0.4141611 -1.677811,0.8692444 v -0.76835 H -5.7794046 V 10.07424 h 1.6143111 V 7.0523452 c 0,-0.7281333 0.3721805,-1.1024305 0.9771944,-1.1024305 0.6053666,0 0.9450916,0.3742972 0.9450916,1.1024305 V 10.07424 h 1.61501666 V 7.0523452 c 0,-0.7281333 0.37218055,-1.1024305 0.97648887,-1.1024305 0.60571943,0 0.94544447,0.3742972 0.94544447,1.1024305 z M -6.670874,7.9018341 c 0.010936,-0.1425222 0.021167,-0.2843389 0.021167,-0.4049889 0,-1.5367 -0.8710083,-2.941461 -2.7724805,-2.941461 -1.6566455,0 -2.8141095,1.2728222 -2.8141095,2.8197527 v 0.020814 c 0,1.6573499 1.26365,2.7985861 2.9735651,2.7985861 1.0311694,0 1.7956388,-0.382764 2.3258638,-1.0100028 l -0.9235722,-0.777875 c -0.4455583,0.3940528 -0.8396111,0.5552722 -1.3807722,0.5552722 -0.7217833,0 -1.2326065,-0.3637139 -1.3910035,-1.0600972 z M -8.2220379,6.9408674 h -2.4313451 c 0.127353,-0.6977944 0.563386,-1.1525249 1.2311951,-1.1525249 0.67945,0 1.1059583,0.4649611 1.20015,1.1525249 M -18.447655,4.5553842 c -1.656645,0 -2.814814,1.2728222 -2.814814,2.8197527 v 0.020814 c 0,1.65735 1.262944,2.7985862 2.973564,2.7985862 1.031169,0 1.795286,-0.382764 2.326216,-1.0100028 l -0.924277,-0.777875 c -0.445206,0.3940528 -0.838906,0.5552722 -1.379714,0.5552722 -0.722842,0 -1.232606,-0.3637139 -1.392414,-1.0600972 h 3.962047 c 0.01094,-0.1425222 0.02081,-0.2843389 0.02081,-0.4049889 0,-1.5367 -0.870303,-2.941461 -2.771422,-2.941461 m 0,1.2329583 c 0.67945,0 1.1049,0.4649611 1.199444,1.1525249 h -2.431697 c 0.127706,-0.6977944 0.562328,-1.1525249 1.232253,-1.1525249 m -4.677833,0.1813277 h 1.338086 V 4.6562786 h -1.338086 V 3.2712731 h -1.614664 v 1.3850055 h -0.679803 v 1.3133916 h 0.679803 v 2.5678694 c 0,1.2530667 0.669572,1.6273634 1.656997,1.6273634 0.541514,0 0.935919,-0.120297 1.274939,-0.3125606 V 8.6186785 c -0.233539,0.1210028 -0.500239,0.1922639 -0.796572,0.1922639 -0.360892,0 -0.5207,-0.1718028 -0.5207,-0.5259916 z m 9.983258,-3.1196138 h -1.61537 V 10.07424 h 1.61537 z"
       style="fill:#ffffff;fill-opacity:1;fill-rule:nonzero;stroke:none;stroke-width:0.352778"
       id="path15805"
       inkscape:connector-curvature="0" />
  </g>
</svg>
