<?xml version="1.0" encoding="UTF-8" standalone="no"?>
<svg
   xmlns:dc="http://purl.org/dc/elements/1.1/"
   xmlns:cc="http://creativecommons.org/ns#"
   xmlns:rdf="http://www.w3.org/1999/02/22-rdf-syntax-ns#"
   xmlns:svg="http://www.w3.org/2000/svg"
   xmlns="http://www.w3.org/2000/svg"
   viewBox="0 0 452.26999 162.70465"
   height="162.70465"
   width="452.26999"
   xml:space="preserve"
   id="svg2"
   version="1.1"><metadata
     id="metadata8"><rdf:RDF><cc:Work
         rdf:about=""><dc:format>image/svg+xml</dc:format><dc:type
           rdf:resource="http://purl.org/dc/dcmitype/StillImage" /><dc:title></dc:title></cc:Work></rdf:RDF></metadata><defs
     id="defs6"><clipPath
       id="clipPath52"
       clipPathUnits="userSpaceOnUse"><path
         id="path50"
         d="M 0,360 H 504 V 0 H 0 Z" /></clipPath><clipPath
       id="clipPath68"
       clipPathUnits="userSpaceOnUse"><path
         id="path66"
         d="M 0,360 H 504 V 0 H 0 Z" /></clipPath></defs><g
     transform="matrix(1.3333333,0,0,-1.3333333,-225.43017,380.65008)"
     id="g10"><path
       d="m 216.00122,246.54018 h 12.87213 l 0.46581,-5.50344 c 1.11833,1.4918 2.65937,2.92204 4.61697,4.29277 1.95965,1.36662 4.49181,2.04993 7.60057,2.04993 1.18195,0 2.19358,-0.0616 3.03284,-0.18673 0.83927,-0.12517 1.66417,-0.34268 2.4706,-0.65253 l -2.14433,-11.84408 c -1.36868,0.43091 -2.98565,0.65048 -4.84885,0.65048 -3.17238,0 -5.73737,-0.94802 -7.69496,-2.84406 -1.95965,-1.89809 -2.9405,-4.5862 -2.9405,-8.06842 v -21.63824 h -13.43028 z"
       style="fill:#273691;fill-opacity:1;fill-rule:nonzero;stroke:none;stroke-width:2.05198956"
       id="path76" /><path
       d="m 274.76241,222.10262 c -0.3119,0.0616 -0.90082,0.13954 -1.77292,0.23393 -0.87004,0.0923 -1.86321,0.13954 -2.98359,0.13954 -3.73257,0 -6.37553,-0.52942 -7.92889,-1.58414 -1.55541,-1.05883 -2.33106,-2.55267 -2.33106,-4.47744 0,-3.6074 2.17511,-5.4111 6.52738,-5.4111 1.05677,0 2.09918,0.17032 3.12518,0.513 1.02599,0.34063 1.92682,0.82285 2.70657,1.4446 0.77566,0.62175 1.41382,1.40151 1.91041,2.33311 0.49658,0.93366 0.74692,2.02121 0.74692,3.26267 z m 0,-15.20319 c -1.49385,-1.74214 -3.37552,-3.07798 -5.64297,-4.00958 -2.27155,-0.93366 -4.80371,-1.39946 -7.60262,-1.39946 -1.55336,0 -3.18674,0.21751 -4.89605,0.65253 -1.71136,0.43502 -3.2955,1.16553 -4.75651,2.19153 -1.46307,1.02599 -2.67375,2.41108 -3.63613,4.15117 -0.96649,1.74009 -1.44665,3.91725 -1.44665,6.52738 0,2.55062 0.51094,4.82012 1.53694,6.81055 1.02599,1.98838 2.44187,3.65255 4.24557,4.98839 1.80164,1.3379 3.93161,2.34748 6.38784,3.03079 2.45828,0.68536 5.11561,1.02805 7.97608,1.02805 1.55336,0 3.12518,-0.0328 4.70932,-0.0944 1.58619,-0.0636 2.62655,-0.15595 3.12518,-0.27907 v 0.93366 c 0,1.11833 -0.23393,2.0643 -0.69973,2.84406 -0.46785,0.7777 -1.08961,1.43023 -1.86526,1.9576 -0.7777,0.52736 -1.66621,0.90082 -2.65732,1.12038 -0.99727,0.21751 -2.05405,0.32627 -3.17238,0.32627 -2.98359,0 -5.45624,-0.37346 -7.41589,-1.12039 -1.9576,-0.74487 -3.62176,-1.58413 -4.98839,-2.51779 l -5.50343,8.20796 c 0.9316,0.68331 1.98837,1.36662 3.17032,2.05404 1.18195,0.68126 2.57935,1.30301 4.19837,1.86526 1.61492,0.55814 3.43503,1.00958 5.45624,1.35226 2.01916,0.34063 4.33586,0.51095 6.94804,0.51095 6.6546,0 11.56501,-1.78729 14.73739,-5.36391 3.17032,-3.57456 4.75651,-8.37827 4.75651,-14.40907 v -25.46314 h -12.59101 z"
       style="fill:#273691;fill-opacity:1;fill-rule:nonzero;stroke:none;stroke-width:2.05198956"
       id="path80" /><path
       d="m 332.92154,208.5794 c -1.8037,-1.99043 -4.18195,-3.70179 -7.13477,-5.12998 -2.95486,-1.43023 -6.4535,-2.14433 -10.49182,-2.14433 -3.54584,0 -6.76336,0.57251 -9.65461,1.72368 -2.89125,1.14911 -5.3639,2.76608 -7.41589,4.8509 -2.05199,2.08277 -3.65254,4.55336 -4.80371,7.41384 -1.14911,2.86047 -1.72367,6.00002 -1.72367,9.42068 0,3.23189 0.59097,6.26473 1.77087,9.09442 1.18194,2.82969 2.81327,5.30029 4.8981,7.41384 2.08071,2.11355 4.56978,3.77976 7.45898,4.99044 2.8933,1.21478 6.04926,1.82011 9.46993,1.82011 3.97881,0 7.4282,-0.65253 10.35229,-1.95965 2.92203,-1.30506 5.37826,-3.0472 7.36869,-5.22231 l -8.11562,-8.76815 c -0.99521,1.12038 -2.20588,2.11355 -3.63612,2.98564 -1.43229,0.87005 -3.32833,1.30507 -5.69017,1.30507 -1.61902,0 -3.06362,-0.32627 -4.3379,-0.98085 -1.27429,-0.65254 -2.3639,-1.50616 -3.26472,-2.56294 -0.90082,-1.05883 -1.58414,-2.28592 -2.05199,-3.68537 -0.4658,-1.39946 -0.69973,-2.87689 -0.69973,-4.43025 0,-1.43023 0.23393,-2.842 0.69973,-4.24351 0.46785,-1.39946 1.15117,-2.64502 2.05199,-3.73052 0.90082,-1.08961 1.99043,-1.97401 3.26472,-2.65938 1.27428,-0.68331 2.71888,-1.02599 4.3379,-1.02599 2.30028,0 4.2271,0.45143 5.78251,1.35431 1.55335,0.89877 2.79891,1.87962 3.73052,2.9364 z"
       style="fill:#273691;fill-opacity:1;fill-rule:nonzero;stroke:none;stroke-width:2.05198956"
       id="path84" /><path
       d="m 414.6724,196.20939 c -0.96238,-1.00137 -1.98017,-1.95144 -3.05541,-2.8338 -2.00069,-1.7052 -4.18811,-3.20726 -6.52943,-4.44461 -4.67649,-2.49317 -9.9501,-3.92751 -15.35709,-4.15323 -5.407,-0.35499 -10.95353,0.48838 -16.12864,2.56909 -2.5773,1.0301 -5.05611,2.36595 -7.38717,3.95419 -2.36594,1.56361 -4.56157,3.38168 -6.56841,5.46855 l -0.0164,0.0164 c -0.22162,0.22982 -0.58277,0.2606 -0.83516,0.0574 -0.28318,-0.20725 -0.32832,-0.60739 -0.11902,-0.8844 1.7996,-2.32901 3.88237,-4.49386 6.17239,-6.39811 2.31259,-1.87347 4.84475,-3.49043 7.52464,-4.80986 5.35775,-2.64912 11.34135,-4.07936 17.35779,-4.16554 6.01848,-0.006 12.02465,1.34405 17.45627,3.93366 2.71478,1.2907 5.29413,2.8851 7.65187,4.74831 2.34543,1.88167 4.46718,4.0301 6.33655,6.37553 0,0 0.23392,0.30575 0.43091,0.56635 z"
       style="fill:#88c65b;fill-opacity:1;fill-rule:nonzero;stroke:none;stroke-width:2.05198956"
       id="path88" /><path
       d="m 434.11213,196.20939 c -4.1286,-7.85091 -10.33792,-14.67173 -17.90977,-19.537 -7.80782,-5.02942 -17.02535,-7.88169 -26.49734,-8.13408 -9.37759,-0.34063 -18.99527,1.92682 -27.36944,6.61356 -8.38032,4.67033 -15.57049,11.65735 -20.51989,20.1095 -0.13133,0.23187 -0.42682,0.31806 -0.65869,0.20109 -0.24829,-0.11901 -0.35705,-0.42476 -0.23393,-0.67305 l 0.004,-0.0103 c 2.18127,-4.47744 4.98429,-8.68607 8.30851,-12.45968 3.355,-3.7654 7.22506,-7.08757 11.48704,-9.84339 8.54038,-5.53422 18.65874,-8.69839 29.02744,-8.99388 10.27432,-0.29753 20.79076,2.28592 29.89544,7.4754 4.55337,2.58756 8.77226,5.79482 12.49252,9.52534 3.7141,3.74898 6.92341,8.00071 9.51918,12.62589 l 0.0841,0.16211 c 0.48016,0.94802 0.96238,1.92476 1.32148,2.93845 z"
       style="fill:#88c65b;fill-opacity:1;fill-rule:nonzero;stroke:none;stroke-width:2.05198956"
       id="path92" /><path
       d="m 382.56902,263.13339 c 2.5732,0.79002 4.10603,0.89877 7.19838,1.02805 5.32081,0.35089 10.9289,-0.49248 16.07529,-2.56499 2.58345,-1.0342 5.06841,-2.36595 7.39947,-3.96034 2.35774,-1.55746 4.56158,-3.37963 6.56637,-5.47061 l 0.0226,-0.0123 c 0.21341,-0.22777 0.57456,-0.2565 0.83516,-0.0574 0.26881,0.21135 0.33242,0.61149 0.11286,0.88646 -1.80575,2.329 -3.88442,4.49591 -6.16623,6.38579 -2.31875,1.88167 -4.85501,3.50069 -7.5349,4.82423 -5.3639,2.65322 -11.31878,4.07935 -17.3701,4.15733 -3.8208,0.002 -7.66418,-0.55814 -11.35776,-1.63339 z"
       style="fill:#88c65b;fill-opacity:1;fill-rule:nonzero;stroke:none;stroke-width:2.05198956"
       id="path96" /><path
       d="m 438.52678,254.15901 h -0.004 c -2.16896,4.48155 -4.98018,8.69223 -8.31467,12.46789 -3.34474,3.75719 -7.2189,7.07937 -11.48498,9.83519 -8.52192,5.53421 -18.66695,8.70249 -28.99256,9.00413 -10.32767,0.28523 -20.80513,-2.29207 -29.91186,-7.48566 -3.13749,-1.77702 -6.11082,-3.85774 -8.87896,-6.19496 0.0657,0.0205 0.12517,0.0513 0.19084,0.0718 2.81738,0.93981 5.72915,1.41177 8.65939,1.41177 1.49796,0 3.01643,-0.11286 4.5349,-0.33037 7.56979,4.60877 16.3995,7.22711 25.40569,7.46514 9.42478,0.34063 19.00347,-1.92477 27.3879,-6.61356 8.38033,-4.67854 15.56024,-11.65736 20.51785,-20.10745 0.13748,-0.23187 0.42271,-0.32011 0.66484,-0.20315 0.24419,0.11902 0.355,0.42271 0.22572,0.67921"
       style="fill:#88c65b;fill-opacity:1;fill-rule:nonzero;stroke:none;stroke-width:2.05198956"
       id="path100" /><path
       d="m 341.88299,236.00075 h -7.09167 v 10.53902 h 7.09167 v 2.23872 c 0,3.10876 0.513,5.78251 1.53899,8.02123 1.026,2.23872 2.37826,4.08756 4.05679,5.54858 1.67852,1.46101 3.59098,2.55062 5.73531,3.26677 2.14638,0.71204 4.3379,1.07113 6.57663,1.07113 2.36184,0 4.75651,-0.34268 7.18196,-1.02599 2.42545,-0.68331 4.63134,-1.86526 6.62177,-3.54379 -0.9316,-1.43229 -1.88167,-2.84611 -2.84611,-4.24351 -0.96238,-1.39946 -1.9104,-2.81328 -2.84201,-4.24352 -0.93365,0.68332 -1.95965,1.21068 -3.07798,1.58414 -1.12039,0.37346 -2.27155,0.56019 -3.45145,0.56019 -1.86526,0 -3.3591,-0.59097 -4.47744,-1.77292 -1.12038,-1.18194 -1.67853,-2.86047 -1.67853,-5.03558 v -2.42545 h 10.35229 v -10.53902 h -10.35229 v -33.2053 h -13.33793 z"
       style="fill:#273691;fill-opacity:1;fill-rule:nonzero;stroke:none;stroke-width:2.05198956"
       id="path104" /><path
       d="m 389.26405,212.96286 c 1.67853,0 3.17032,0.32626 4.47744,0.9788 1.30507,0.65253 2.40698,1.53899 3.30986,2.65732 0.90082,1.12039 1.57182,2.38031 2.00479,3.77772 0.43502,1.39945 0.65254,2.84611 0.65254,4.3379 0,1.49385 -0.21752,2.93845 -0.65254,4.33586 -0.43297,1.39945 -1.10397,2.64296 -2.00479,3.73257 -0.90288,1.0855 -2.00479,1.95759 -3.30986,2.61013 -1.30712,0.65458 -2.79891,0.9788 -4.47744,0.9788 -1.67853,0 -3.18879,-0.32422 -4.52464,-0.9788 -1.3379,-0.65254 -2.44187,-1.52463 -3.30986,-2.61013 -0.87209,-1.08961 -1.53899,-2.33312 -2.00684,-3.73257 -0.46375,-1.39741 -0.69973,-2.84201 -0.69973,-4.33586 0,-1.49179 0.23598,-2.93845 0.69973,-4.3379 0.46785,-1.39741 1.13475,-2.65733 2.00684,-3.77772 0.86799,-1.11833 1.97196,-2.00479 3.30986,-2.65732 1.33585,-0.65254 2.84611,-0.9788 4.52464,-0.9788 m -23.50554,11.75174 c 0,3.23189 0.57455,6.26473 1.72572,9.09442 1.14911,2.82969 2.75172,5.30029 4.80371,7.41384 2.05199,2.11355 4.52464,3.77771 7.41384,4.99044 2.8933,1.21272 6.07799,1.81806 9.56227,1.81806 3.48017,0 6.65255,-0.60534 9.51302,-1.81806 2.85842,-1.21273 5.31671,-2.87689 7.3687,-4.99044 2.05199,-2.11355 3.65254,-4.58415 4.80371,-7.41384 1.14911,-2.82969 1.72367,-5.86253 1.72367,-9.09442 0,-3.23393 -0.57456,-6.26472 -1.72367,-9.09442 -1.15117,-2.82969 -2.75172,-5.30029 -4.80371,-7.41383 -2.05199,-2.11561 -4.51028,-3.79413 -7.3687,-5.03764 -2.86047,-1.24145 -6.03285,-1.86526 -9.51302,-1.86526 -3.48428,0 -6.66897,0.62381 -9.56227,1.86526 -2.8892,1.24351 -5.36185,2.92203 -7.41384,5.03764 -2.05199,2.11354 -3.6546,4.58414 -4.80371,7.41383 -1.15117,2.8297 -1.72572,5.86049 -1.72572,9.09442"
       style="fill:#88c65b;fill-opacity:1;fill-rule:nonzero;stroke:none;stroke-width:2.05198956"
       id="path108" /><path
       d="m 416.96386,246.54018 h 12.87213 l 0.37346,-4.75651 c 1.42818,1.74009 3.30986,3.13954 5.64297,4.19632 2.33106,1.05677 4.77088,1.58618 7.3215,1.58618 5.03764,0 9.03081,-1.49384 11.98567,-4.47744 2.95076,-2.98359 4.4282,-7.39947 4.4282,-13.24559 v -27.04728 h -13.42822 v 25.18407 c 0,2.4234 -0.60739,4.35022 -1.82012,5.78046 -1.21273,1.43024 -2.90767,2.14638 -5.08278,2.14638 -1.49179,0 -2.79891,-0.26471 -3.91725,-0.79207 -1.12038,-0.52941 -2.05199,-1.22914 -2.79891,-2.09918 -0.74692,-0.8721 -1.30507,-1.88168 -1.67853,-3.03079 -0.37346,-1.15117 -0.56019,-2.37826 -0.56019,-3.68332 v -23.50555 h -13.33793 z"
       style="fill:#273691;fill-opacity:1;fill-rule:nonzero;stroke:none;stroke-width:2.05198956"
       id="path112" /><path
       d="m 495.59179,229.28459 c 0,0.93365 -0.18673,1.87962 -0.55814,2.84406 -0.37551,0.96443 -0.93571,1.85089 -1.68058,2.65937 -0.74692,0.80644 -1.68058,1.47539 -2.79891,2.0048 -1.11834,0.52736 -2.45623,0.79207 -4.00959,0.79207 -1.55541,0 -2.92409,-0.26471 -4.10398,-0.79207 -1.18195,-0.52941 -2.16075,-1.19836 -2.93845,-2.0048 -0.7777,-0.80848 -1.36868,-1.69494 -1.77292,-2.65937 -0.40424,-0.96444 -0.60534,-1.91041 -0.60534,-2.84406 z m 11.75175,-21.73262 c -0.49864,-0.31191 -1.24351,-0.82285 -2.23872,-1.53694 -0.99727,-0.71615 -2.28387,-1.41588 -3.87006,-2.09919 -1.58619,-0.68536 -3.46581,-1.2907 -5.64297,-1.81806 -2.17921,-0.52942 -4.66212,-0.79412 -7.46308,-0.79412 -3.73052,0 -7.08758,0.57661 -10.07322,1.72572 -2.9836,1.14911 -5.5178,2.75172 -7.60057,4.80166 -2.08277,2.05199 -3.67101,4.52463 -4.75651,7.41589 -1.08961,2.89125 -1.63339,6.07799 -1.63339,9.56022 0,3.0472 0.513,5.98565 1.54105,8.81534 1.02599,2.8297 2.49932,5.30029 4.43024,7.41384 1.92477,2.11355 4.28866,3.8085 7.08757,5.08483 2.79687,1.27224 5.96924,1.91041 9.51303,1.91041 3.54378,0 6.65255,-0.62176 9.32834,-1.86321 2.67169,-1.24556 4.92683,-2.97333 6.76131,-5.17717 1.83448,-2.20794 3.21752,-4.8509 4.15117,-7.92889 0.93366,-3.07798 1.39741,-6.45145 1.39741,-10.11836 v -2.24077 h -31.15126 c 0.0595,-2.36184 1.10192,-4.43025 3.12313,-6.20317 2.02121,-1.77086 4.80371,-2.65732 8.34955,-2.65732 3.48017,0 6.30987,0.51299 8.48703,1.53899 2.17716,1.02599 3.76129,1.91245 4.75651,2.65733 z"
       style="fill:#273691;fill-opacity:1;fill-rule:nonzero;stroke:none;stroke-width:2.05198956"
       id="path116" /><path
       d="m 189.21906,252.60299 h -20.14643 v 12.40428 h 54.37567 v -12.40428 h -20.05204 v -49.80795 h -14.1772 z"
       style="fill:#273691;fill-opacity:1;fill-rule:nonzero;stroke:none;stroke-width:2.05198956"
       id="path120" /></g></svg>