<?xml version="1.0" encoding="UTF-8" standalone="no"?>
<!-- Created with Inkscape (http://www.inkscape.org/) -->

<svg
   width="151.27214mm"
   height="72.434052mm"
   viewBox="0 0 151.27214 72.434052"
   version="1.1"
   id="svg530"
   inkscape:version="1.2.2 (b0a8486541, 2022-12-01)"
   sodipodi:docname="Logo of Vodacom Group Limited (old).svg"
   xmlns:inkscape="http://www.inkscape.org/namespaces/inkscape"
   xmlns:sodipodi="http://sodipodi.sourceforge.net/DTD/sodipodi-0.dtd"
   xmlns="http://www.w3.org/2000/svg"
   xmlns:svg="http://www.w3.org/2000/svg">
  <sodipodi:namedview
     id="namedview532"
     pagecolor="#ffffff"
     bordercolor="#000000"
     borderopacity="0.25"
     inkscape:showpageshadow="2"
     inkscape:pageopacity="0.0"
     inkscape:pagecheckerboard="0"
     inkscape:deskcolor="#d1d1d1"
     inkscape:document-units="mm"
     showgrid="false"
     inkscape:zoom="0.62019112"
     inkscape:cx="296.68274"
     inkscape:cy="391.81471"
     inkscape:window-width="1866"
     inkscape:window-height="1011"
     inkscape:window-x="0"
     inkscape:window-y="0"
     inkscape:window-maximized="1"
     inkscape:current-layer="layer1" />
  <defs
     id="defs527">
    <clipPath
       clipPathUnits="userSpaceOnUse"
       id="clipPath42">
      <path
         d="M 705,564.6 H 812.29 V 356.25 H 705 Z"
         clip-rule="evenodd"
         id="path40" />
    </clipPath>
    <clipPath
       clipPathUnits="userSpaceOnUse"
       id="clipPath48">
      <path
         d="M -1,1990 H 849 V -2 H -1 Z"
         id="path46" />
    </clipPath>
    <clipPath
       clipPathUnits="userSpaceOnUse"
       id="clipPath54">
      <path
         d="m 0.5,1989 h 847 V 0 H 0.5 Z"
         id="path52" />
    </clipPath>
  </defs>
  <g
     inkscape:label="Layer 1"
     inkscape:groupmode="layer"
     id="layer1"
     transform="translate(-32.596593,-52.816342)">
    <g
       id="g36"
       transform="matrix(0,-0.80808469,-0.80808469,0,478.89197,700.90592)">
      <g
         id="g38"
         clip-path="url(#clipPath42)">
        <g
           id="g44"
           clip-path="url(#clipPath48)">
          <g
             id="g50"
             clip-path="url(#clipPath54)">
            <path
               d="m 749.984,521.467 c 2.185,1.037 4.469,1.634 7.016,1.978 l -0.644,7.438 c -2.521,-0.378 -4.786,-1.322 -6.904,-2.546 z"
               style="fill:#00a650;fill-opacity:1;fill-rule:nonzero;stroke:#00a650;stroke-width:0.213;stroke-linecap:butt;stroke-linejoin:miter;stroke-miterlimit:3.864;stroke-dasharray:none;stroke-opacity:1"
               id="path56" />
            <path
               d="m 750.347,518.791 0.507,-7.172 7.339,0.719 -0.898,8.473 c -2.497,-0.328 -4.842,-1.009 -6.948,-2.02 z"
               style="fill:#00a650;fill-opacity:1;fill-rule:nonzero;stroke:#00a650;stroke-width:0.213;stroke-linecap:butt;stroke-linejoin:miter;stroke-miterlimit:3.864;stroke-dasharray:none;stroke-opacity:1"
               id="path58" />
            <path
               d="m 747.749,520.567 -0.555,6.384 c -4.701,-3.612 -7.747,-9.236 -7.747,-15.591 0,-0.125 0.02,-0.741 0.022,-0.866 1.532,3.945 4.483,7.716 8.28,10.073 z"
               style="fill:#00a650;fill-opacity:1;fill-rule:nonzero;stroke:#00a650;stroke-width:0.213;stroke-linecap:butt;stroke-linejoin:miter;stroke-miterlimit:3.864;stroke-dasharray:none;stroke-opacity:1"
               id="path60" />
            <path
               d="m 768.93,522.427 -0.507,6.31 c 4.997,-2.682 9.047,-8.135 10.312,-13.789 -2.368,2.977 -5.964,6.033 -9.805,7.479 z"
               style="fill:#00a650;fill-opacity:1;fill-rule:nonzero;stroke:#00a650;stroke-width:0.323;stroke-linecap:butt;stroke-linejoin:miter;stroke-miterlimit:3.864;stroke-dasharray:none;stroke-opacity:1"
               id="path62" />
            <path
               d="m 741.62,510.469 c 1.356,2.835 3.605,5.111 6.464,6.949 l 0.517,-6.105 z"
               style="fill:#00a650;fill-opacity:1;fill-rule:nonzero;stroke:#00a650;stroke-width:0.213;stroke-linecap:butt;stroke-linejoin:miter;stroke-miterlimit:3.864;stroke-dasharray:none;stroke-opacity:1"
               id="path64" />
            <path
               d="m 767.152,520.165 c -2.091,0.604 -4.327,0.889 -6.666,0.889 -0.313,0 -0.619,0.011 -0.929,0 l 0.849,-8.524 7.361,0.888 z"
               style="fill:#00a650;fill-opacity:1;fill-rule:nonzero;stroke:#00a650;stroke-width:0.213;stroke-linecap:butt;stroke-linejoin:miter;stroke-miterlimit:3.864;stroke-dasharray:none;stroke-opacity:1"
               id="path66" />
            <path
               d="m 776.734,514.311 c -1.958,2.162 -4.515,3.867 -7.481,5.046 l 0.646,-5.817 z"
               style="fill:#00a650;fill-opacity:1;fill-rule:nonzero;stroke:#00a650;stroke-width:0.213;stroke-linecap:butt;stroke-linejoin:miter;stroke-miterlimit:3.864;stroke-dasharray:none;stroke-opacity:1"
               id="path68" />
            <path
               d="m 766.869,522.75 -0.617,7.136 c -2.15,0.788 -4.475,1.219 -6.901,1.219 -0.249,0 -0.498,0.009 -0.745,0 l 0.629,-7.486 c 0.338,0.013 0.678,0.02 1.021,0.02 2.331,0 4.557,-0.326 6.613,-0.889 z"
               style="fill:#00a650;fill-opacity:1;fill-rule:nonzero;stroke:#00a650;stroke-width:0.081;stroke-linecap:butt;stroke-linejoin:miter;stroke-miterlimit:3.864;stroke-dasharray:none;stroke-opacity:1"
               id="path70" />
            <path
               d="m 766.186,546.221 c 1.329,-1.695 2.299,-5.409 2.475,-9.897 0.177,-2.102 0.206,-4.182 0.068,-6.416 l -1.738,0.862 c 0.647,7.209 -0.59,12.784 -3.216,13.294 -2.327,0.452 -5.324,-3.14 -7.391,-8.795 -0.714,-2.063 -1.192,-3.202 -1.83,-5.29 -0.739,-2.417 -1.082,-3.804 -1.63,-6.271 -0.634,-2.848 -0.87,-4.48 -1.324,-7.362 -0.602,-3.83 -0.767,-6.015 -1.258,-9.862 l -0.401,0.613 c 0.424,3.854 0.55,6.042 1.086,9.882 0.403,2.889 0.585,4.531 1.194,7.384 0.559,2.612 0.96,4.07 1.738,6.624 0.585,1.922 0.968,2.805 1.646,4.881 1.146,3.361 2.603,6.186 4.064,8.218 1.551,2.336 3.215,3.602 4.707,3.313 0.702,-0.111 1.315,-0.551 1.81,-1.178"
               style="fill:#0066b3;fill-opacity:1;fill-rule:nonzero;stroke:none"
               id="path72" />
            <path
               d="M 760.563,490.237 Z"
               style="fill:none;stroke:#6c6e70;stroke-width:0.213;stroke-linecap:butt;stroke-linejoin:miter;stroke-miterlimit:3.864;stroke-dasharray:none;stroke-opacity:1"
               id="path74" />
            <path
               d="m 770.021,533.293 c 0.002,0.154 0.002,0.31 0.002,0.465 0,6.626 -1.27,12.231 -3.116,14.353 -0.626,0.696 -1.334,1.122 -2.096,1.216 -0.864,0.106 -1.738,-0.215 -2.575,-0.884 -2.607,-1.412 -5.713,-6.92 -7.342,-11.744 -0.641,-2.086 -1.08,-3.241 -1.644,-5.35 -0.654,-2.441 -0.948,-3.84 -1.411,-6.324 -0.533,-2.868 -0.684,-4.511 -1.065,-7.404 -0.501,-3.799 -0.774,-5.899 -1.13,-9.76 l -0.423,0.598 c 0.289,3.866 0.524,5.969 0.957,9.774 0.331,2.899 0.468,4.542 0.937,7.422 0.368,2.261 0.591,3.535 1.106,5.766 0.897,3.879 1.394,5.334 2.941,9.775 1.961,4.879 5.14,9.508 7.589,10.671 0.743,0.353 1.484,0.49 2.211,0.388 4.614,-0.648 7.147,-11.098 6.155,-23.765 l -1.086,0.868 c 0.033,1.228 0.034,2.677 -0.01,3.935"
               style="fill:#0066b3;fill-opacity:1;fill-rule:nonzero;stroke:none"
               id="path76" />
            <path
               d="m 751.998,499.274 c 2.353,-0.56 4.597,-0.642 7.16,-0.449 l 0.818,-7.41 c -2.545,-0.155 -5.002,0.367 -7.328,1.123 z"
               style="fill:#00a650;fill-opacity:1;fill-rule:nonzero;stroke:#00a650;stroke-width:0.213;stroke-linecap:butt;stroke-linejoin:miter;stroke-miterlimit:3.864;stroke-dasharray:none;stroke-opacity:1"
               id="path78" />
            <path
               d="m 751.865,501.994 -0.813,7.149 7.145,0.795 0.884,-8.475 c -2.51,-0.199 -4.946,-0.02 -7.216,0.531 z"
               style="fill:#00a650;fill-opacity:1;fill-rule:nonzero;stroke:#00a650;stroke-width:0.213;stroke-linecap:butt;stroke-linejoin:miter;stroke-miterlimit:3.864;stroke-dasharray:none;stroke-opacity:1"
               id="path80" />
            <path
               d="m 749.634,499.806 0.65,-6.146 c -5.349,2.555 -9.122,7.119 -10.444,13.336 -0.026,0.122 -0.135,0.729 -0.158,0.851 2.318,-3.54 5.748,-6.525 9.952,-8.041 z"
               style="fill:#00a650;fill-opacity:1;fill-rule:nonzero;stroke:#00a650;stroke-width:0.213;stroke-linecap:butt;stroke-linejoin:miter;stroke-miterlimit:3.864;stroke-dasharray:none;stroke-opacity:1"
               id="path82" />
            <path
               d="m 770.861,502.065 0.58,-6.573 c 4.33,3.664 7.393,10.135 7.455,15.929 -1.698,-3.404 -4.579,-7.142 -8.035,-9.356 z"
               style="fill:#00a650;fill-opacity:1;fill-rule:nonzero;stroke:#00a650;stroke-width:0.323;stroke-linecap:butt;stroke-linejoin:miter;stroke-miterlimit:3.864;stroke-dasharray:none;stroke-opacity:1"
               id="path84" />
            <path
               d="m 741.781,508.32 c 1.915,-2.491 4.438,-4.119 7.616,-5.323 l -0.613,5.949 z"
               style="fill:#00a650;fill-opacity:1;fill-rule:nonzero;stroke:#00a650;stroke-width:0.213;stroke-linecap:butt;stroke-linejoin:miter;stroke-miterlimit:3.864;stroke-dasharray:none;stroke-opacity:1"
               id="path86" />
            <path
               d="m 768.604,504.061 c -1.919,-1.026 -3.882,-1.685 -6.169,-2.171 -0.306,-0.066 -0.795,-0.14 -1.1,-0.193 l -0.752,8.514 7.371,0.823 z"
               style="fill:#00a650;fill-opacity:1;fill-rule:nonzero;stroke:#00a650;stroke-width:0.213;stroke-linecap:butt;stroke-linejoin:miter;stroke-miterlimit:3.864;stroke-dasharray:none;stroke-opacity:1"
               id="path88" />
            <path
               d="m 777.055,511.979 c -1.465,-2.521 -3.802,-4.837 -6.458,-6.606 l -0.577,5.825 z"
               style="fill:#00a650;fill-opacity:1;fill-rule:nonzero;stroke:#00a650;stroke-width:0.213;stroke-linecap:butt;stroke-linejoin:miter;stroke-miterlimit:3.864;stroke-dasharray:none;stroke-opacity:1"
               id="path90" />
            <path
               d="m 768.795,501.321 0.695,-7.188 c -1.938,-1.218 -3.938,-2.044 -6.311,-2.548 -0.244,-0.052 -0.773,-0.127 -1.016,-0.17 l -0.655,7.468 c 0.333,0.057 0.668,0.122 1.003,0.193 2.28,0.485 4.389,1.267 6.284,2.245 z"
               style="fill:#00a650;fill-opacity:1;fill-rule:nonzero;stroke:#00a650;stroke-width:0.081;stroke-linecap:butt;stroke-linejoin:miter;stroke-miterlimit:3.864;stroke-dasharray:none;stroke-opacity:1"
               id="path92" />
            <path
               d="m 760.869,490.119 c -0.838,-3.477 -1.64,-6.087 -2.585,-9.728 -0.895,-3.45 -1.424,-5.391 -2.421,-8.811 -1.207,-4.14 -2.042,-6.459 -3.326,-10.575 8.937,9.7 18.727,22.51 26.44,33.944 10.815,16.035 18.394,32.926 23.03,48.665 l -0.663,-0.227 c -4.556,-14.378 -10.561,-28.053 -19.98,-42.436 -0.483,-0.738 -1.896,-3.017 -2.393,-3.754 -6.893,-10.22 -14.781,-20.591 -22.692,-29.659 0.491,1.699 0.7,2.462 1.133,4.042 0.945,3.436 1.525,5.362 2.421,8.811 1.007,3.873 1.477,6.083 2.421,9.973 -0.498,-0.093 -0.874,-0.193 -1.385,-0.245"
               style="fill:#0066b3;fill-opacity:1;fill-rule:nonzero;stroke:none"
               id="path94" />
            <path
               d="m 758.851,472.392 c 6.382,7.458 13.208,16.285 18.653,24.358 10.158,15.059 17.537,30.575 22.25,45.453 l -0.788,-0.337 c -4.74,-14.268 -11.493,-28.065 -21.195,-42.449 -4.464,-6.617 -10.533,-14.068 -15.473,-20.006 0.238,0.881 0.351,1.635 0.634,2.723 0.911,3.51 1.42,5.698 2.205,8.965 -0.508,-0.183 -0.929,-0.352 -1.456,-0.491 -0.739,-3.091 -1.32,-5.175 -2.202,-8.571 -0.895,-3.45 -1.654,-6.217 -2.628,-9.645"
               style="fill:#0066b3;fill-opacity:1;fill-rule:nonzero;stroke:none"
               id="path96" />
            <path
               d="m 728.933,487.678 c 1.918,-2.639 1.68,-6.081 -0.532,-7.688 -2.212,-1.607 -5.559,-0.769 -7.477,1.87 -1.917,2.64 -1.679,6.082 0.533,7.688 2.211,1.607 5.559,0.77 7.476,-1.87 z m -13.873,-6.406 c -2.833,4.02 -3.03,9.719 -0.372,13.377 3.49,4.804 10.718,4.919 16.372,0.811 5.654,-4.108 7.408,-11.332 3.919,-16.135 -0.36,-0.495 -0.761,-0.945 -1.198,-1.349 l 16.211,-3.114 v -7.804 l -36.698,6.41 v 8.303 l 1.766,-0.499"
               style="fill:#0066b3;fill-opacity:1;fill-rule:evenodd;stroke:none"
               id="path98" />
            <path
               d="m 728.396,459.076 c 1.824,-2.511 1.543,-5.825 -0.627,-7.402 -2.17,-1.576 -5.409,-0.819 -7.233,1.692 -1.824,2.511 -1.544,5.824 0.627,7.401 2.17,1.577 5.408,0.819 7.233,-1.691 z m 5.152,-9.483 1.858,-0.372 v -8.268 l -22.298,4.366 v 7.804 l 2.274,-0.298 c -3.329,4.185 -3.906,9.667 -1.039,13.472 3.526,4.679 10.925,5.05 16.527,0.828 5.602,-4.221 7.285,-11.436 3.759,-16.115 -0.32,-0.424 -0.702,-1.064 -1.081,-1.417"
               style="fill:#0066b3;fill-opacity:1;fill-rule:evenodd;stroke:none"
               id="path100" />
            <path
               d="m 727.771,415.627 c 3.6,-2.687 4.883,-7.356 2.865,-10.428 -2.019,-3.073 -6.573,-3.385 -10.174,-0.698 -3.6,2.688 -4.882,7.357 -2.864,10.429 2.018,3.072 6.573,3.384 10.173,0.697 z m 2.388,3.447 c 5.534,-4.131 7.329,-11.575 4.009,-16.628 -3.319,-5.053 -10.496,-5.801 -16.029,-1.671 -5.534,4.131 -7.329,11.575 -4.01,16.628 3.32,5.053 10.497,5.801 16.03,1.671"
               style="fill:#00a650;fill-opacity:1;fill-rule:evenodd;stroke:none"
               id="path102" />
            <path
               d="m 727.771,415.627 c 3.6,-2.687 4.883,-7.356 2.865,-10.428 -2.019,-3.073 -6.573,-3.385 -10.174,-0.698 -3.6,2.688 -4.882,7.357 -2.864,10.429 2.018,3.072 6.573,3.384 10.173,0.697 z m 2.388,3.447 c 5.534,-4.131 7.329,-11.575 4.009,-16.628 -3.319,-5.053 -10.496,-5.801 -16.029,-1.671 -5.534,4.131 -7.329,11.575 -4.01,16.628 3.32,5.053 10.497,5.801 16.03,1.671 z"
               style="fill:none;stroke:#00a650;stroke-width:0.184;stroke-linecap:butt;stroke-linejoin:miter;stroke-miterlimit:3.864;stroke-dasharray:none;stroke-opacity:1"
               id="path104" />
            <path
               d="m 724.76,539.103 11.496,3.513 v 9.366 l -23.276,-7.728 v -6.141 l 23.276,-15.615 v 8.835 l -11.496,7.77"
               style="fill:#0066b3;fill-opacity:1;fill-rule:nonzero;stroke:none"
               id="path106" />
            <path
               d="m 732.844,390.321 c 0.371,-0.352 0.717,-0.745 1.03,-1.177 2.437,-3.353 2.034,-7.8 -0.9,-9.932 -0.432,-0.313 -0.921,-0.564 -1.403,-0.745 0.862,-0.545 1.651,-1.273 2.303,-2.17 2.437,-3.354 2.034,-7.8 -0.9,-9.931 -1.33,-0.967 -2.917,-1.359 -4.52,-1.113 l -15.434,2.739 0.04,4.485 13.289,-2.357 c 2.177,-0.361 4.13,0.291 4.829,1.789 0.924,1.982 -0.699,4.695 -3.625,6.059 -0.617,0.288 -1.244,0.493 -1.856,0.618 l -12.682,2.167 v 4.645 l 13.334,-2.293 c 2.177,-0.36 4.13,0.292 4.829,1.79 0.924,1.982 -0.699,4.694 -3.625,6.059 -0.452,0.211 -0.908,0.377 -1.36,0.5 l -13.178,2.491 v 4.367 l 21.647,-3.624 0.012,-4.679 z"
               style="fill:#00a650;fill-opacity:1;fill-rule:nonzero;stroke:#00a650;stroke-width:0.184;stroke-linecap:butt;stroke-linejoin:miter;stroke-miterlimit:3.864;stroke-dasharray:none;stroke-opacity:1"
               id="path108" />
            <path
               d="m 719.834,423.831 c -0.082,0.071 -0.178,0.126 -0.257,0.201 -3.218,3.001 -3.749,7.662 -1.185,10.412 2.564,2.749 7.251,2.545 10.47,-0.456 3.218,-3.001 3.749,-7.663 1.185,-10.412 -0.585,-0.627 -1.28,-1.1 -2.043,-1.423 l 6.101,-1.081 c 1.892,3.225 2.189,8.185 0.537,11.934 -0.906,1.996 -2.332,3.809 -4.24,5.145 -5.455,3.821 -12.573,3.068 -15.898,-1.68 -2.407,-3.436 -2.072,-8.291 0.312,-12.012 z"
               style="fill:#00a650;fill-opacity:1;fill-rule:nonzero;stroke:#00a650;stroke-width:0.184;stroke-linecap:butt;stroke-linejoin:miter;stroke-miterlimit:3.864;stroke-dasharray:none;stroke-opacity:1"
               id="path110" />
            <path
               d="m 728.64,515.894 c 1.889,-2.6 1.681,-5.971 -0.464,-7.529 -2.145,-1.558 -5.415,-0.714 -7.304,1.885 -1.889,2.6 -1.681,5.971 0.464,7.529 2.146,1.558 5.416,0.715 7.304,-1.885 z m -8.569,10.947 c 6.203,2.137 13.333,-2.238 15.927,-9.772 2.593,-7.532 -0.333,-15.371 -6.536,-17.507 -6.203,-2.136 -13.334,2.239 -15.927,9.772 -2.593,7.533 0.333,15.371 6.536,17.507"
               style="fill:#0066b3;fill-opacity:1;fill-rule:evenodd;stroke:none"
               id="path112" />
          </g>
        </g>
      </g>
    </g>
  </g>
</svg>
