<?xml version="1.0" encoding="UTF-8" standalone="no"?>
<!DOCTYPE svg PUBLIC "-//W3C//DTD SVG 1.1//EN" "http://www.w3.org/Graphics/SVG/1.1/DTD/svg11.dtd">
<!-- Created with Inkscape (http://www.inkscape.org/) -->

<svg
   xmlns:dc="http://purl.org/dc/elements/1.1/"
   xmlns:cc="http://creativecommons.org/ns#"
   xmlns:rdf="http://www.w3.org/1999/02/22-rdf-syntax-ns#"
   xmlns:svg="http://www.w3.org/2000/svg"
   xmlns="http://www.w3.org/2000/svg"
   xmlns:sodipodi="http://sodipodi.sourceforge.net/DTD/sodipodi-0.dtd"
   xmlns:inkscape="http://www.inkscape.org/namespaces/inkscape"
   width="134.71754"
   height="78.578369"
   id="svg"
   version="1.1"
   inkscape:version="0.48.1 "
   sodipodi:docname="新規ドキュメント 11">
  <defs
     id="defs" />
  <sodipodi:namedview
     id="base"
     pagecolor="#ffffff"
     bordercolor="#666666"
     borderopacity="1.0"
     inkscape:pageopacity="0.0"
     inkscape:pageshadow="2"
     inkscape:zoom="0.98994949"
     inkscape:cx="159.01333"
     inkscape:cy="35.221657"
     inkscape:document-units="px"
     inkscape:current-layer="svg"
     showgrid="false"
     fit-margin-top="4"
     fit-margin-left="4"
     fit-margin-bottom="4"
     fit-margin-right="4"
     inkscape:window-width="1280"
     inkscape:window-height="738"
     inkscape:window-x="-8"
     inkscape:window-y="-8"
     inkscape:window-maximized="1" />
  <path
     id="au"
     style="fill:#ff0000;fill-opacity:1;fill-rule:nonzero;stroke:none"
     d="m 130.71755,42.158555 0,31.651052 -9.09143,0 0,-4.101917 c -1.24042,1.652651 -4.2319,4.852109 -10.21487,4.852109 -5.72857,0 -11.25474,-2.37499 -11.25474,-12.903676 l 0,-19.497568 9.29013,-0.0015 0,17.102153 c 0,6.608747 2.58296,7.849163 5.47046,7.745176 2.89306,-0.109632 6.50661,-2.272859 6.50661,-9.908478 l 0,-14.938851 9.29384,0.0015 m -37.270061,24.171413 0,-24.19741 C 80.904053,39.503171 63.62178,44.440698 63.62178,60.755521 c 0,11.451571 7.115684,13.828418 12.274184,13.804278 3.819666,-0.01857 7.687612,-1.988752 9.187997,-4.207761 0.118842,0.921028 0.245112,2.776082 0.434517,3.44457 l 8.86118,0 c -0.523649,-1.864339 -0.932169,-4.265325 -0.932169,-7.46664 z m -14.766158,1.147571 c -3.197602,0.295249 -5.468604,-1.975753 -5.672864,-6.415628 -0.2284,-4.974665 3.505848,-12.695702 11.661402,-13.042945 l 0,10.155448 c 0,7.225242 -3.61912,9.08401 -5.988538,9.303125 M 28.039647,23.167923 c -3.153035,0 -5.715573,2.556967 -5.715573,5.706288 0,3.16232 2.562538,5.719287 5.715573,5.719287 3.158606,0 5.711859,-2.556967 5.711859,-5.719287 0,-3.149321 -2.553253,-5.706288 -5.711859,-5.706288 m 0.026,-10.563967 c 2.590391,-0.02421 4.879963,0.982305 7.00984,3.089899 4.920815,4.870679 7.748891,14.223941 8.794332,23.289381 l 8.651349,0 C 52.082934,34.691914 51.301174,30.467441 50.213024,26.623635 48.122142,19.207132 45.063809,13.471133 41.129015,9.5827612 37.389195,5.8782233 32.843477,3.9526063 27.980226,4.000886 22.210803,4.0585245 14.213086,6.8066789 8.8521834,19.537662 6.5923224,24.924561 5.0362307,31.743139 4.3733134,38.983236 l 8.6272096,0 C 14.39692,24.959843 19.510854,12.689374 28.065644,12.603956 M 44.3359,46.941958 c 0,6.592035 -1.845769,11.629835 -5.485316,14.964848 -2.822505,2.586677 -6.770298,4.068492 -10.825792,4.068492 -2.35642,0 -6.842718,-0.536647 -10.433984,-4.1242 -3.310873,-3.312729 -4.987664,-8.32639 -4.987664,-14.90914 0,-1.596944 0.04828,-3.195744 0.137411,-4.783403 l -8.60864,0 C 4.0464971,43.740643 4,45.3413 4,46.941958 c 0,11.145181 4.0852047,17.564523 7.503778,20.988668 4.285751,4.287608 10.157305,6.647742 16.52094,6.647742 6.575322,0 12.901819,-2.564395 17.365834,-7.028409 4.94124,-4.939384 7.546487,-12.062496 7.546487,-20.608001 0,-1.582089 -0.05378,-3.180889 -0.152267,-4.783403 l -8.617925,0 c 0.118842,1.632224 0.168979,3.234739 0.168979,4.783403"
     inkscape:connector-curvature="0" />
  <metadata
     id="metadata22583">
    <rdf:RDF>
      <cc:Work
         rdf:about="">
        <dc:title></dc:title>
      </cc:Work>
    </rdf:RDF>
  </metadata>
</svg>
