<?xml version="1.0" encoding="UTF-8" standalone="no"?>
<svg
   xmlns:svg="http://www.w3.org/2000/svg"
   xmlns="http://www.w3.org/2000/svg"
   version="1.1"
   width="446.5563"
   height="446.56976"
   id="svg3172">
  <defs
     id="defs3174" />
  <g
     transform="translate(-182.43613,-317.64873)"
     id="layer1">
    <path
       d="m 405.72438,763.21849 -222.28825,0 0,-222.29497 c 0,-121.78952 100.40452,-222.27479 222.28825,-222.27479 123.71403,0 222.26806,100.48527 222.26806,222.27479 0,123.73422 -98.55403,222.29497 -222.26806,222.29497"
       id="path64"
       style="fill:#2db34a;fill-opacity:1;fill-rule:nonzero;stroke:none" />
    <path
       d="m 314.19201,620.36053 c -6.02252,0 -10.96684,4.98464 -10.96684,11.00716 l 0,10.96685 10.96684,0 c 6.12346,0 11.00717,-4.84339 11.00717,-10.96685 0,-6.02252 -4.88371,-11.00716 -11.00717,-11.00716 z m 111.92633,0 c -6.11673,0 -11.00717,4.98464 -11.00717,11.00716 l 0,10.96685 11.00717,0 c 6.02252,0 10.92652,-4.84339 10.92652,-10.96685 0,-6.02252 -4.904,-11.00716 -10.92652,-11.00716 z m -220.8287,1.29022 0,119.66762 44.47216,0 c 23.83439,-0.36336 43.14163,-19.83129 43.14163,-43.74642 0,-24.02279 -19.34756,-43.45029 -43.18195,-43.78674 l -0.68542,0 c -8.59303,0 -16.56864,2.46709 -23.38519,6.73332 l 0,-38.86778 -20.36123,0 z m 140.55301,0.0403 0,34.83586 -9.91854,0 0,18.06304 9.91854,0 0,66.80905 20.40156,0 0,-66.80905 12.21674,0 0,-18.06304 -12.21674,0 0,-34.83586 -20.40156,0 z m 81.24335,31.97319 c -25.5301,0.0942 -45.23823,20.81065 -45.23823,46.0043 0,24.75627 20.24666,44.79472 45.07695,44.79472 l 0.16128,0 c 17.09185,-0.1076 33.81287,-11.12895 39.87577,-25.28019 l -23.74806,0 c -4.53539,3.72118 -10.42145,5.96726 -16.12771,5.96726 l -0.16128,0 c -9.2592,0 -20.12825,-5.89743 -23.4255,-17.65985 l 23.58678,0 42.81908,0 c 0.43738,-3.00116 0.96766,-6.02357 0.96766,-9.07184 0,-23.84784 -19.40068,-44.7544 -43.7061,-44.7544 l -0.0806,0 z m -123.86083,2.86267 0,84.87209 20.48219,0 0,-84.87209 -20.48219,0 z M 249.7618,672.574 c 13.63984,0.006 24.71572,11.06916 24.71572,24.71572 0,13.62638 -11.1162,24.71572 -24.75604,24.71572 l -24.79635,0 0,-24.6754 c 0,-13.66002 11.10264,-24.75604 24.83667,-24.75604 z m 177.3242,0.0403 c 11.3183,0 20.83409,7.55918 23.94965,17.90176 l -47.8993,0 c 3.02809,-10.34258 12.64481,-17.90176 23.94965,-17.90176 z"
       id="path68"
       style="fill:#ffffff;fill-opacity:1;fill-rule:nonzero;stroke:none" />
  </g>
</svg>
