<?xml version="1.0" encoding="UTF-8"?>
<!DOCTYPE svg  PUBLIC '-//W3C//DTD SVG 20010904//EN'  'http://www.w3.org/TR/2001/REC-SVG-20010904/DTD/svg10.dtd'>
<svg width="623px" height="200px" version="1.0" viewBox="0 0 6230 2000" xmlns="http://www.w3.org/2000/svg">
<g>
<path d="m5817 1988c-37-8-48-15-53-33-6-25-26-31-135-41-61-6-68-5-78 15-8 15-21 21-46 21-38 0-93-27-100-50-8-26-25-241-25-321 0-88-19-152-57-191-68-71-202 4-244 137-7 22-15 116-18 210l-6 169-26 15c-24 14-31 13-82-14-54-27-58-27-118-16-34 7-70 18-79 24-30 18-98-8-107-41-4-15-7-159-7-320-1-269 0-294 17-303 9-6 17-17 17-25 0-9-26 12-58 45-63 67-92 76-130 41-28-27-28-71-1-96 22-19 184-200 269-298 329-385 388-445 477-490 18-9 45-16 60-16 24 0 31 6 41 33 7 18 12 42 12 53 0 13 18 30 53 51 173 103 434 319 608 501 83 87 99 109 99 136 0 18-5 37-12 44-26 26-135 6-177-32-18-17-19-17-26 5-4 12-3 24 1 28 15 10 17 30 20 216 2 99 9 241 15 316 13 154 8 202-24 224-12 8-24 14-27 14-3-1-26-6-53-11zm-1040-185c-2-16-4-3-4 27s2 43 4 28c2-16 2-40 0-55zm770-110c-3-10-5-2-5 17s2 27 5 18c2-10 2-26 0-35zm-780-230c-1-43-3-10-3 72 0 83 2 118 3 78 2-40 2-107 0-150zm10-160c-3-10-5-2-5 17s2 27 5 18c2-10 2-26 0-35z"/>
<path d="m1796 1949c-21-5-69-25-107-45-131-69-229-208-280-399-32-116-32-364 0-480 45-167 127-292 239-369 88-60 172-87 294-93 162-9 284 26 372 107l46 42 2-348 3-349h140 140l6 925c4 509 8 936 10 950l4 25-147 3-148 3v-33c0-18-3-49-6-68l-6-35-48 47c-93 90-207 128-375 127-55-1-117-5-139-10zm354-230c143-62 220-250 206-499-15-283-134-440-332-440-223 0-335 157-336 470 0 230 63 383 187 456 81 47 185 52 275 13z"/>
<path d="m3300 1944c-164-35-318-149-392-289-70-134-83-197-83-395 0-155 3-183 23-250 58-184 155-306 303-379 104-51 194-71 326-71 328 0 549 158 635 455 20 69 23 103 23 245s-3 176-23 245c-68 235-232 393-457 440-87 18-269 18-355-1zm340-247c111-55 168-155 191-337 26-200-26-408-122-495-69-62-119-79-229-80-84 0-102 3-152 28-106 52-168 149-195 305-26 147-5 340 48 444 82 161 285 221 459 135z"/>
<path d="m167 1913c-4-3-7-253-7-555v-548h-80-81l3-107 3-108 78-3 77-3v-87c0-108 21-207 56-273 56-102 177-184 309-208 87-16 250-14 264 3 8 9 11 54 9 132l-3 119-96 6c-180 12-239 71-239 242v67h159c124 0 161 3 170 14 8 9 11 47 9 107l-3 94-167 3-168 2v555 555h-143c-79 0-147-3-150-7z"/>
<path d="m922 1258l3-663 120-3c66-1 130 0 143 3l22 5v660 660h-145-145l2-662z"/>
<path d="m6060 1880c0-29-4-40-15-40-8 0-15-4-15-10 0-5 20-10 45-10s45 5 45 10c0 6-7 10-15 10-11 0-15 11-15 40s-4 40-15 40-15-11-15-40z"/>
<path d="m6130 1870c0-53 18-68 40-32 10 16 10 16 20 0 22-36 40-21 40 32 0 38-4 50-15 50-9 0-15-9-15-22 0-19-2-20-10-8-9 13-12 12-25-4-14-19-15-19-15 7 0 15-4 27-10 27-5 0-10-22-10-50z"/>
<path d="m1e3 319c-61-25-100-85-100-154 0-101 63-165 161-165 62 0 105 22 143 73 31 42 30 140-3 186-42 58-135 86-201 60z"/>
</g>
<g fill="#ffe600">
<path d="m5643 1917c-97-12-89 9-98-247-7-190-19-247-66-316-33-48-96-107-141-130-94-50-280 13-359 120-56 76-72 158-73 357l-1 177-42 6c-24 3-53 8-66 11l-23 6-1-308-1-307-27-23c-14-13-37-23-51-23-17 0-24-5-24-19 0-15 169-215 275-327 5-6 48-55 95-110 99-115 185-204 199-204 5 0 12 8 15 18 4 9 30 34 59 55 236 171 369 285 535 460 49 52 51 58 40 82-10 22-9 28 3 37 11 8 10 9-6 5-11-3-34-11-51-18-42-17-91 3-101 39-7 29 14 615 23 650 7 25 15 24-113 9z"/>
</g>
</svg>
