<?xml version="1.0" encoding="UTF-8" standalone="no"?>
<!-- Created with Inkscape (http://www.inkscape.org/) -->

<svg
   xmlns:dc="http://purl.org/dc/elements/1.1/"
   xmlns:cc="http://creativecommons.org/ns#"
   xmlns:rdf="http://www.w3.org/1999/02/22-rdf-syntax-ns#"
   xmlns:svg="http://www.w3.org/2000/svg"
   xmlns="http://www.w3.org/2000/svg"
   xmlns:sodipodi="http://sodipodi.sourceforge.net/DTD/sodipodi-0.dtd"
   xmlns:inkscape="http://www.inkscape.org/namespaces/inkscape"
   width="230.61909"
   height="64.763878"
   viewBox="0 0 61.017967 17.135442"
   version="1.1"
   id="svg2537"
   inkscape:version="0.92.0 r15299"
   sodipodi:docname="whidbey telecom.svg">
  <defs
     id="defs2531">
    <clipPath
       id="clipPath628"
       clipPathUnits="userSpaceOnUse">
      <path
         inkscape:connector-curvature="0"
         id="path626"
         d="M 0,0 H 810 V 630 H 0 Z" />
    </clipPath>
    <clipPath
       id="clipPath524"
       clipPathUnits="userSpaceOnUse">
      <path
         inkscape:connector-curvature="0"
         id="path522"
         d="M 0,0 H 810 V 630 H 0 Z" />
    </clipPath>
  </defs>
  <sodipodi:namedview
     id="base"
     pagecolor="#ffffff"
     bordercolor="#666666"
     borderopacity="1.0"
     inkscape:pageopacity="0.0"
     inkscape:pageshadow="2"
     inkscape:zoom="3.9064696"
     inkscape:cx="114.80955"
     inkscape:cy="31.881941"
     inkscape:document-units="mm"
     inkscape:current-layer="layer1"
     showgrid="false"
     fit-margin-top="0"
     fit-margin-left="0"
     fit-margin-right="0"
     fit-margin-bottom="0"
     units="px"
     inkscape:window-width="1280"
     inkscape:window-height="744"
     inkscape:window-x="-4"
     inkscape:window-y="-4"
     inkscape:window-maximized="1" />
  <metadata
     id="metadata2534">
    <rdf:RDF>
      <cc:Work
         rdf:about="">
        <dc:format>image/svg+xml</dc:format>
        <dc:type
           rdf:resource="http://purl.org/dc/dcmitype/StillImage" />
        <dc:title></dc:title>
      </cc:Work>
    </rdf:RDF>
  </metadata>
  <g
     inkscape:label="Layer 1"
     inkscape:groupmode="layer"
     id="layer1"
     transform="translate(-69.409013,-140.13332)">
    <g
       id="g2870"
       transform="translate(0.13229218,-0.13228969)">
      <g
         style="fill:#231f20;fill-opacity:1"
         id="g2836">
        <path
           inkscape:connector-curvature="0"
           id="path528"
           style="fill:#231f20;fill-opacity:1;fill-rule:nonzero;stroke:none;stroke-width:0.35277778"
           d="m 108.96009,149.34419 c 1.41464,0 2.88149,0.0695 3.76837,-1.38642 0.53975,-0.86712 0.54963,-2.32233 -0.0596,-3.27025 -0.89711,-1.41569 -2.09444,-1.45591 -4.058,-1.26576 v 5.92243 z m -1.24707,0.50976 c 0.17956,-0.20143 0.15981,-0.31961 0.15981,-0.49988 v -5.89245 c 0,-0.17992 0.0198,-0.31962 -0.14923,-0.58879 h 1.94381 c 1.33667,0 2.91253,-0.009 3.82023,1.72579 0.5775,1.08585 0.56691,2.58163 -0.061,3.61915 -0.94756,1.5561 -2.85221,1.63618 -3.59869,1.63618 0,0 -2.1149,0.009 -2.1149,0" />
        <path
           inkscape:connector-curvature="0"
           id="path532"
           style="fill:#231f20;fill-opacity:1;stroke:#231f20;stroke-width:0.16968611;stroke-linecap:butt;stroke-linejoin:miter;stroke-miterlimit:4;stroke-dasharray:none;stroke-opacity:1"
           d="m 108.96009,149.34419 c 1.41464,0 2.88149,0.0695 3.76837,-1.38642 0.53975,-0.86712 0.54963,-2.32233 -0.0596,-3.27025 -0.89711,-1.41569 -2.09444,-1.45591 -4.058,-1.26576 v 5.92243 z m -1.24707,0.50976 c 0.17956,-0.20143 0.15981,-0.31961 0.15981,-0.49988 v -5.89245 c 0,-0.17992 0.0198,-0.31962 -0.14923,-0.58879 h 1.94381 c 1.33667,0 2.91253,-0.009 3.82023,1.72579 0.5775,1.08585 0.56691,2.58163 -0.061,3.61915 -0.94756,1.5561 -2.85221,1.63618 -3.59869,1.63618 0,0 -2.1149,0.009 -2.1149,0 z" />
        <path
           inkscape:connector-curvature="0"
           id="path536"
           style="fill:#231f20;fill-opacity:1;fill-rule:nonzero;stroke:none;stroke-width:0.35277778"
           d="m 115.79015,149.34419 c 0.69815,0 1.60514,0.0505 2.12478,-0.47801 0.33831,-0.33938 0.41839,-1.07668 0.30762,-1.4658 -0.16898,-0.56903 -0.5468,-0.84807 -1.10596,-1.01776 -0.30938,-0.0794 -0.85689,-0.0399 -1.32644,-0.0497 z m 1.7847,-3.33022 c 0.4886,0.0896 1.19662,0.508 1.38642,1.20685 0.12982,0.44873 0.16969,1.276 -0.32808,1.86478 -0.6791,0.78776 -1.80623,0.76835 -2.49379,0.76835 h -1.23684 c 0.17957,-0.17039 0.14887,-0.24059 0.14887,-0.52881 v -6.11293 c 0,-0.17957 -0.0589,-0.23919 -0.14887,-0.33938 h 1.32786 c 0.70661,0 1.68451,-0.0797 2.13289,0.72743 0.23848,0.43992 0.27905,1.18675 0.0893,1.63619 -0.1591,0.35807 -0.46919,0.62759 -0.87771,0.77752 m -1.40546,-0.15981 c 0.50835,0 1.2065,0.0702 1.57585,-0.67804 0.14852,-0.29845 0.16969,-0.96661 -0.0801,-1.34585 -0.35877,-0.50941 -0.94826,-0.45896 -1.87501,-0.45896 v 2.48285 z" />
        <path
           inkscape:connector-curvature="0"
           id="path540"
           style="fill:#231f20;fill-opacity:1;stroke:#231f20;stroke-width:0.16968611;stroke-linecap:butt;stroke-linejoin:miter;stroke-miterlimit:4;stroke-dasharray:none;stroke-opacity:1"
           d="m 115.79015,149.34419 c 0.69815,0 1.60514,0.0505 2.12478,-0.47801 0.33831,-0.33938 0.41839,-1.07668 0.30762,-1.4658 -0.16898,-0.56903 -0.5468,-0.84807 -1.10596,-1.01776 -0.30938,-0.0794 -0.85689,-0.0399 -1.32644,-0.0497 z m 1.7847,-3.33022 c 0.4886,0.0896 1.19662,0.508 1.38642,1.20685 0.12982,0.44873 0.16969,1.276 -0.32808,1.86478 -0.6791,0.78776 -1.80623,0.76835 -2.49379,0.76835 h -1.23684 c 0.17957,-0.17039 0.14887,-0.24059 0.14887,-0.52881 v -6.11293 c 0,-0.17957 -0.0589,-0.23919 -0.14887,-0.33938 h 1.32786 c 0.70661,0 1.68451,-0.0797 2.13289,0.72743 0.23848,0.43992 0.27905,1.18675 0.0893,1.63619 -0.1591,0.35807 -0.46919,0.62759 -0.87771,0.77752 z m -1.40546,-0.15981 c 0.50835,0 1.2065,0.0702 1.57585,-0.67804 0.14852,-0.29845 0.16969,-0.96661 -0.0801,-1.34585 -0.35877,-0.50941 -0.94826,-0.45896 -1.87501,-0.45896 v 2.48285 z" />
        <path
           inkscape:connector-curvature="0"
           id="path544"
           style="fill:#231f20;fill-opacity:1;fill-rule:nonzero;stroke:none;stroke-width:0.35277778"
           d="m 116.20385,154.46907 c 0.61313,0 1.19062,-0.48189 1.19062,-1.19345 0,-0.7119 -0.57749,-1.19344 -1.19062,-1.19344 -0.61313,0 -1.18992,0.48154 -1.18992,1.19344 0,0.71156 0.57679,1.19345 1.18992,1.19345 m 0,-2.74355 c 1.01953,0 1.59314,0.8068 1.59314,1.5501 0,0.74401 -0.57361,1.55011 -1.59314,1.55011 -1.01917,0 -1.59173,-0.8061 -1.59173,-1.55011 0,-0.7433 0.57256,-1.5501 1.59173,-1.5501" />
        <path
           inkscape:connector-curvature="0"
           id="path548"
           style="fill:#231f20;fill-opacity:1;stroke:#231f20;stroke-width:0.16968611;stroke-linecap:butt;stroke-linejoin:miter;stroke-miterlimit:4;stroke-dasharray:none;stroke-opacity:1"
           d="m 116.20385,154.46907 c 0.61313,0 1.19062,-0.48189 1.19062,-1.19345 0,-0.7119 -0.57749,-1.19344 -1.19062,-1.19344 -0.61313,0 -1.18992,0.48154 -1.18992,1.19344 0,0.71156 0.57679,1.19345 1.18992,1.19345 z m 0,-2.74355 c 1.01953,0 1.59314,0.8068 1.59314,1.5501 0,0.74401 -0.57361,1.55011 -1.59314,1.55011 -1.01917,0 -1.59173,-0.8061 -1.59173,-1.55011 0,-0.7433 0.57256,-1.5501 1.59173,-1.5501 z" />
        <path
           inkscape:connector-curvature="0"
           id="path552"
           style="fill:#231f20;fill-opacity:1;fill-rule:nonzero;stroke:none;stroke-width:0.35277778"
           d="m 87.361303,142.87277 h 1.205794 c -0.08855,0.11924 -0.109361,0.31891 -0.03881,0.50835 l 1.734961,4.74663 1.446036,-3.86856 c -0.339725,-0.92781 -0.349603,-1.06751 -0.658989,-1.38642 h 1.137708 c -0.140052,0.24941 -0.07055,0.33937 0.02963,0.61807 l 1.694744,4.63691 1.676047,-4.55683 c 0.108656,-0.30974 0.159103,-0.4191 0.04974,-0.69815 h 0.947208 c -0.190147,0.17886 -0.259291,0.31891 -0.359127,0.57891 l -2.413353,6.50063 -1.824567,-4.90572 -1.83515,4.90572 -2.402769,-6.49075 c -0.09948,-0.24942 -0.160514,-0.37924 -0.389114,-0.58879" />
        <path
           inkscape:connector-curvature="0"
           id="path556"
           style="fill:#231f20;fill-opacity:1;stroke:#231f20;stroke-width:0.16968611;stroke-linecap:butt;stroke-linejoin:miter;stroke-miterlimit:4;stroke-dasharray:none;stroke-opacity:1"
           d="m 87.361303,142.87277 h 1.205794 c -0.08855,0.11924 -0.109361,0.31891 -0.03881,0.50835 l 1.734961,4.74663 1.446036,-3.86856 c -0.339725,-0.92781 -0.349603,-1.06751 -0.658989,-1.38642 h 1.137708 c -0.140052,0.24941 -0.07055,0.33937 0.02963,0.61807 l 1.694744,4.63691 1.676047,-4.55683 c 0.108656,-0.30974 0.159103,-0.4191 0.04974,-0.69815 h 0.947208 c -0.190147,0.17886 -0.259291,0.31891 -0.359127,0.57891 l -2.413353,6.50063 -1.824567,-4.90572 -1.83515,4.90572 -2.402769,-6.49075 c -0.09948,-0.24942 -0.160514,-0.37924 -0.389114,-0.58879 z" />
        <path
           inkscape:connector-curvature="0"
           id="path560"
           style="fill:#231f20;fill-opacity:1;fill-rule:nonzero;stroke:none;stroke-width:0.35277778"
           d="m 102.29837,146.25336 h -3.818819 v 3.07164 c 0,0.2286 -0.02999,0.37853 0.14993,0.52916 h -1.047044 c 0.179211,-0.20179 0.159103,-0.34043 0.159103,-0.5207 v -5.94219 c 0,-0.17921 0.02011,-0.31891 -0.159103,-0.51858 h 1.047044 c -0.179916,0.15981 -0.14993,0.33937 -0.14993,0.52846 v 2.35303 h 3.818819 v -2.36291 c 0,-0.17921 0.0303,-0.31891 -0.1584,-0.51858 h 1.04564 c -0.17992,0.15981 -0.14852,0.33937 -0.14852,0.52846 v 5.92385 c 0,0.2286 -0.0314,0.37853 0.14852,0.52916 h -1.04564 c 0.18874,-0.20179 0.1584,-0.34043 0.1584,-0.5207 z" />
        <path
           inkscape:connector-curvature="0"
           id="path564"
           style="fill:#231f20;fill-opacity:1;stroke:#231f20;stroke-width:0.16968611;stroke-linecap:butt;stroke-linejoin:miter;stroke-miterlimit:4;stroke-dasharray:none;stroke-opacity:1"
           d="m 102.29837,146.25336 h -3.818819 v 3.07164 c 0,0.2286 -0.02999,0.37853 0.14993,0.52916 h -1.047044 c 0.179211,-0.20179 0.159103,-0.34043 0.159103,-0.5207 v -5.94219 c 0,-0.17921 0.02011,-0.31891 -0.159103,-0.51858 h 1.047044 c -0.179916,0.15981 -0.14993,0.33937 -0.14993,0.52846 v 2.35303 h 3.818819 v -2.36291 c 0,-0.17921 0.0303,-0.31891 -0.1584,-0.51858 h 1.04564 c -0.17992,0.15981 -0.14852,0.33937 -0.14852,0.52846 v 5.92385 c 0,0.2286 -0.0314,0.37853 0.14852,0.52916 h -1.04564 c 0.18874,-0.20179 0.1584,-0.34043 0.1584,-0.5207 z" />
        <path
           inkscape:connector-curvature="0"
           id="path568"
           style="fill:#231f20;fill-opacity:1;fill-rule:nonzero;stroke:none;stroke-width:0.35277778"
           d="m 105.10013,143.39124 c 0,-0.17886 0.0205,-0.31891 -0.1591,-0.51858 h 1.04739 c -0.17956,0.15981 -0.15028,0.33972 -0.15028,0.52846 v 5.92384 c 0,0.2286 -0.0293,0.37853 0.15028,0.52917 h -1.04739 c 0.17956,-0.20179 0.1591,-0.34008 0.1591,-0.5207 z" />
        <path
           inkscape:connector-curvature="0"
           id="path572"
           style="fill:#231f20;fill-opacity:1;stroke:#231f20;stroke-width:0.16968611;stroke-linecap:butt;stroke-linejoin:miter;stroke-miterlimit:4;stroke-dasharray:none;stroke-opacity:1"
           d="m 105.10013,143.39124 c 0,-0.17886 0.0205,-0.31891 -0.1591,-0.51858 h 1.04739 c -0.17956,0.15981 -0.15028,0.33972 -0.15028,0.52846 v 5.92384 c 0,0.2286 -0.0293,0.37853 0.15028,0.52917 h -1.04739 c 0.17956,-0.20179 0.1591,-0.34008 0.1591,-0.5207 z" />
        <path
           inkscape:connector-curvature="0"
           id="path576"
           style="fill:#231f20;fill-opacity:1;fill-rule:nonzero;stroke:none;stroke-width:0.35277778"
           d="m 120.45757,143.39124 c 0,-0.17886 0.0293,-0.31891 -0.14993,-0.51858 h 3.51931 v 0.65793 c -0.25859,-0.15911 -0.32844,-0.15911 -0.59866,-0.15911 h -2.02354 v 2.38267 h 2.6222 v 0.6484 c -0.25859,-0.14922 -0.32844,-0.14922 -0.59866,-0.14922 h -2.02354 v 3.03106 h 2.08457 c 0.61771,0 0.81738,0 1.25553,-0.18944 l -0.21872,0.75918 c 0,0 -4.01849,0.008 -4.01849,0 0.17921,-0.20179 0.14993,-0.34008 0.14993,-0.5207 z" />
        <path
           inkscape:connector-curvature="0"
           id="path580"
           style="fill:#231f20;fill-opacity:1;stroke:#231f20;stroke-width:0.16968611;stroke-linecap:butt;stroke-linejoin:miter;stroke-miterlimit:4;stroke-dasharray:none;stroke-opacity:1"
           d="m 120.45757,143.39124 c 0,-0.17886 0.0293,-0.31891 -0.14993,-0.51858 h 3.51931 v 0.65793 c -0.25859,-0.15911 -0.32844,-0.15911 -0.59866,-0.15911 h -2.02354 v 2.38267 h 2.6222 v 0.6484 c -0.25859,-0.14922 -0.32844,-0.14922 -0.59866,-0.14922 h -2.02354 v 3.03106 h 2.08457 c 0.61771,0 0.81738,0 1.25553,-0.18944 l -0.21872,0.75918 c 0,0 -4.01849,0.008 -4.01849,0 0.17921,-0.20179 0.14993,-0.34008 0.14993,-0.5207 z" />
        <path
           inkscape:connector-curvature="0"
           id="path584"
           style="fill:#231f20;fill-opacity:1;fill-rule:nonzero;stroke:none;stroke-width:0.35277778"
           d="m 127.59593,149.32497 c 0,0.2286 -0.0296,0.37853 0.14993,0.52917 h -1.03646 c 0.17921,-0.20179 0.14922,-0.34008 0.14922,-0.5207 v -2.9905 l -1.94451,-3.12208 c -0.1598,-0.24801 -0.1598,-0.25859 -0.26846,-0.3482 h 1.07668 c -0.0596,0.1196 -0.0212,0.17922 0.12876,0.47802 l 1.49507,2.40347 1.54729,-2.46309 c 0.16898,-0.27905 0.18944,-0.31821 0.14852,-0.4184 h 0.88758 c -0.11923,0.10019 -0.17885,0.21943 -0.30868,0.4184 l -2.02494,3.05188 z" />
        <path
           inkscape:connector-curvature="0"
           id="path588"
           style="fill:#231f20;fill-opacity:1;stroke:#231f20;stroke-width:0.16968611;stroke-linecap:butt;stroke-linejoin:miter;stroke-miterlimit:4;stroke-dasharray:none;stroke-opacity:1"
           d="m 127.59593,149.32497 c 0,0.2286 -0.0296,0.37853 0.14993,0.52917 h -1.03646 c 0.17921,-0.20179 0.14922,-0.34008 0.14922,-0.5207 v -2.9905 l -1.94451,-3.12208 c -0.1598,-0.24801 -0.1598,-0.25859 -0.26846,-0.3482 h 1.07668 c -0.0596,0.1196 -0.0212,0.17922 0.12876,0.47802 l 1.49507,2.40347 1.54729,-2.46309 c 0.16898,-0.27905 0.18944,-0.31821 0.14852,-0.4184 h 0.88758 c -0.11923,0.10019 -0.17885,0.21943 -0.30868,0.4184 l -2.02494,3.05188 z" />
        <path
           inkscape:connector-curvature="0"
           id="path592"
           style="fill:#231f20;fill-opacity:1;fill-rule:nonzero;stroke:none;stroke-width:0.35277778"
           d="m 93.664315,152.12876 h -0.750006 v -0.35489 h 1.881012 v 0.35489 h -0.751064 v 2.64936 h -0.379942 z" />
        <path
           inkscape:connector-curvature="0"
           id="path596"
           style="fill:#231f20;fill-opacity:1;stroke:#231f20;stroke-width:0.16968611;stroke-linecap:butt;stroke-linejoin:miter;stroke-miterlimit:4;stroke-dasharray:none;stroke-opacity:1"
           d="m 93.664315,152.12876 h -0.750006 v -0.35489 h 1.881012 v 0.35489 h -0.751064 v 2.64936 h -0.379942 z" />
        <path
           inkscape:connector-curvature="0"
           id="path600"
           style="fill:#231f20;fill-opacity:1;fill-rule:nonzero;stroke:none;stroke-width:0.35277778"
           d="m 97.313387,151.77401 h 1.553281 v 0.35489 h -1.174045 v 0.9525 h 1.174045 v 0.35596 h -1.174045 v 0.9846 h 1.174045 v 0.35595 h -1.553281 z" />
        <path
           inkscape:connector-curvature="0"
           id="path604"
           style="fill:#231f20;fill-opacity:1;stroke:#231f20;stroke-width:0.16968611;stroke-linecap:butt;stroke-linejoin:miter;stroke-miterlimit:4;stroke-dasharray:none;stroke-opacity:1"
           d="m 97.313387,151.77401 h 1.553281 v 0.35489 h -1.174045 v 0.9525 h 1.174045 v 0.35596 h -1.174045 v 0.9846 h 1.174045 v 0.35595 h -1.553281 z" />
        <path
           inkscape:connector-curvature="0"
           id="path608"
           style="fill:#231f20;fill-opacity:1;fill-rule:nonzero;stroke:none;stroke-width:0.35277778"
           d="m 101.49881,151.77401 h 0.37994 v 2.64795 h 1.05622 v 0.35595 h -1.43616 z" />
        <path
           inkscape:connector-curvature="0"
           id="path612"
           style="fill:#231f20;fill-opacity:1;stroke:#231f20;stroke-width:0.16968611;stroke-linecap:butt;stroke-linejoin:miter;stroke-miterlimit:4;stroke-dasharray:none;stroke-opacity:1"
           d="m 101.49881,151.77401 h 0.37994 v 2.64795 h 1.05622 v 0.35595 h -1.43616 z" />
        <path
           inkscape:connector-curvature="0"
           id="path616"
           style="fill:#231f20;fill-opacity:1;fill-rule:nonzero;stroke:none;stroke-width:0.35277778"
           d="m 105.46414,151.77401 h 1.55399 v 0.35489 h -1.17405 v 0.9525 h 1.17405 v 0.35596 h -1.17405 v 0.9846 h 1.17405 v 0.35595 h -1.55399 z" />
        <path
           inkscape:connector-curvature="0"
           id="path620"
           style="fill:#231f20;fill-opacity:1;stroke:#231f20;stroke-width:0.16968611;stroke-linecap:butt;stroke-linejoin:miter;stroke-miterlimit:4;stroke-dasharray:none;stroke-opacity:1"
           d="m 105.46414,151.77401 h 1.55399 v 0.35489 h -1.17405 v 0.9525 h 1.17405 v 0.35596 h -1.17405 v 0.9846 h 1.17405 v 0.35595 h -1.55399 z" />
        <path
           inkscape:connector-curvature="0"
           id="path632"
           style="fill:#231f20;fill-opacity:1;fill-rule:nonzero;stroke:none;stroke-width:0.35277778"
           d="m 111.91502,152.38993 c -0.21202,-0.19297 -0.48683,-0.30762 -0.77435,-0.30762 -0.62935,0 -1.18992,0.502 -1.18992,1.19344 0,0.69956 0.5768,1.19345 1.18992,1.19345 0.33161,0 0.59338,-0.12206 0.80292,-0.32032 l 0.2406,0.27305 c -0.26917,0.24483 -0.66358,0.40393 -1.04352,0.40393 -1.02023,0 -1.59385,-0.80645 -1.59385,-1.55011 0,-0.7433 0.57362,-1.5501 1.59385,-1.5501 0.39829,0 0.79093,0.16298 1.03152,0.38382 z" />
        <path
           inkscape:connector-curvature="0"
           id="path636"
           style="fill:#231f20;fill-opacity:1;stroke:#231f20;stroke-width:0.16968611;stroke-linecap:butt;stroke-linejoin:miter;stroke-miterlimit:4;stroke-dasharray:none;stroke-opacity:1"
           d="m 111.91502,152.38993 c -0.21202,-0.19297 -0.48683,-0.30762 -0.77435,-0.30762 -0.62935,0 -1.18992,0.502 -1.18992,1.19344 0,0.69956 0.5768,1.19345 1.18992,1.19345 0.33161,0 0.59338,-0.12206 0.80292,-0.32032 l 0.2406,0.27305 c -0.26917,0.24483 -0.66358,0.40393 -1.04352,0.40393 -1.02023,0 -1.59385,-0.80645 -1.59385,-1.55011 0,-0.7433 0.57362,-1.5501 1.59385,-1.5501 0.39829,0 0.79093,0.16298 1.03152,0.38382 z" />
        <path
           inkscape:connector-curvature="0"
           id="path640"
           style="fill:#231f20;fill-opacity:1;fill-rule:nonzero;stroke:none;stroke-width:0.35277778"
           d="m 123.25274,151.77401 h 0.37924 v 3.0039 h -0.37924 v -2.22603 h -0.009 l -1.21356,2.25743 -1.21249,-2.25743 h -0.008 v 2.22603 h -0.38064 v -3.0039 h 0.38064 l 1.22026,2.26871 z" />
        <path
           inkscape:connector-curvature="0"
           id="path644"
           style="fill:#231f20;fill-opacity:1;stroke:#231f20;stroke-width:0.16968611;stroke-linecap:butt;stroke-linejoin:miter;stroke-miterlimit:4;stroke-dasharray:none;stroke-opacity:1"
           d="m 123.25274,151.77401 h 0.37924 v 3.0039 h -0.37924 v -2.22603 h -0.009 l -1.21356,2.25743 -1.21249,-2.25743 h -0.008 v 2.22603 h -0.38064 v -3.0039 h 0.38064 l 1.22026,2.26871 z" />
      </g>
      <g
         style="fill:#19388a;fill-opacity:1"
         id="g2806">
        <path
           inkscape:connector-curvature="0"
           id="path656"
           style="fill:#19388a;fill-opacity:1;fill-rule:nonzero;stroke:none;stroke-width:0.35277778"
           d="m 79.007708,144.05088 c 2.055283,0.5521 3.771194,2.96298 3.635022,5.57706 -0.144992,2.77848 -2.003425,4.959 -4.404078,4.97029 v -7.90328 c -2.256013,0.2413 -3.974747,2.39854 -4.113036,5.11422 -0.100894,1.98967 0.674159,3.73274 1.906059,4.69865 0.585258,0.47589 1.50883,0.76094 2.343502,0.76094 3.838575,0 6.852003,-2.73086 7.032978,-6.22018 0.186267,-3.58458 -2.626078,-6.66009 -6.400447,-6.9977" />
        <path
           inkscape:connector-curvature="0"
           id="path660"
           style="fill:#19388a;fill-opacity:1;fill-rule:nonzero;stroke:none;stroke-width:0.35277778"
           d="m 71.364107,150.29755 c 0.174978,-3.44629 3.110089,-6.13869 6.87458,-6.28721 v -3.61244 c -4.806597,-0.001 -8.829674,3.77296 -8.829674,8.42504 0,4.52085 3.390547,7.83978 7.663391,8.35519 -3.393016,-0.64911 -5.877278,-3.54119 -5.708297,-6.88058" />
      </g>
    </g>
  </g>
</svg>
