<?xml version="1.0" encoding="utf-8"?>
<!-- Generator: Adobe Illustrator 16.0.0, SVG Export Plug-In . SVG Version: 6.00 Build 0)  -->
<!DOCTYPE svg PUBLIC "-//W3C//DTD SVG 1.1//EN" "http://www.w3.org/Graphics/SVG/1.1/DTD/svg11.dtd">
<svg version="1.1" id="圖層_1" xmlns="http://www.w3.org/2000/svg" xmlns:xlink="http://www.w3.org/1999/xlink" x="0px" y="0px"
	 width="289.63px" height="183.002px" viewBox="6.225 5.977 289.63 183.002" enable-background="new 6.225 5.977 289.63 183.002"
	 xml:space="preserve">
<g id="圖層_1_拷貝">
	<g>
		<path fill="#FAA61A" d="M70.118,66.474c10.973,0.184,21.543,2.123,31.577,6.639c1.317,0.593,2.617,1.3,3.771,2.164
			c1.816,1.358,2.632,3.186,2.071,5.525c-1.112,4.632-2.121,9.291-3.264,13.915c-1.065,4.31-3.541,5.529-7.788,4.205
			c-5.08-1.583-10.126-3.438-15.329-4.419c-10.867-2.05-21.551-1.466-30.877,5.309c-11.591,8.421-15.933,20.12-13.56,34.039
			c2.316,13.596,10.796,22.197,23.841,25.982c11.653,3.381,23.113,1.587,34.045-3.219c4.776-2.1,9.291-4.863,13.737-7.625
			c4.245-2.635,4.817-2.724,8.709,0.337c7.13,5.606,14.825,10.302,23.946,11.573c4.963,0.692,10.197,0.932,15.11,0.14
			c6.156-0.989,9.055-6.124,7.06-11.195c-0.695-1.763-2.118-3.584-3.708-4.576c-2.985-1.863-6.264-3.321-9.549-4.627
			c-8.977-3.565-17.75-7.493-24.924-14.161c-15.983-14.856-13.766-40.819,4.5-52.823c9.326-6.13,19.757-7.952,30.626-6.688
			c5.888,0.686,11.689,2.31,17.445,3.827c2.292,0.604,4.438,1.932,6.509,3.166c3.356,2.001,4.008,3.747,3.074,7.511
			c-1.127,4.547-2.25,9.096-3.476,13.616c-0.976,3.601-3.055,4.692-6.587,3.421c-4.468-1.609-8.762-3.95-13.354-4.884
			c-4.251-0.865-8.838-0.702-13.197-0.237c-4.726,0.503-7.23,3.826-6.698,8.407c0.198,1.708,1.287,3.875,2.661,4.77
			c3.079,2.003,6.505,3.56,9.945,4.902c9.299,3.626,18.286,7.73,25.966,14.313c5.915,5.068,9.406,11.451,10.661,19.033
			c2.129,12.856-1.073,24.091-10.938,32.935c-6.649,5.96-14.746,8.885-23.5,10.019c-15.53,2.018-30.07-0.974-43.523-8.991
			c-1.893-1.13-3.334-1.134-5.297-0.073c-10.249,5.544-21.338,8.149-32.882,9.245c-12.076,1.147-23.807-0.177-34.801-5.302
			c-20.773-9.681-33.188-25.741-35.525-48.861c-1.956-19.343,3.896-36.059,17.861-49.704c10.073-9.844,22.397-15.088,36.253-16.882
			C63.823,66.794,66.979,66.707,70.118,66.474z"/>
		<path fill="#FAA61A" d="M201.6,83.103c0-22.951,0-45.901,0.004-68.852c0-1.05-0.03-2.106,0.073-3.148
			c0.298-3.024,2.164-4.998,5.187-5.048c6.705-0.109,13.413-0.102,20.117,0.009c2.965,0.049,4.511,1.801,4.667,4.797
			c0.049,0.967,0.024,1.939,0.024,2.909c0.001,45.335,0,90.671,0.001,136.006c0,9.162,3.063,13.432,11.712,16.351
			c3.229,1.09,4.167,4.193,1.794,6.656c-4.709,4.889-9.561,9.64-14.378,14.42c-1.436,1.425-3.107,1.771-5.121,1.181
			c-13.693-4.013-23.255-15.822-23.579-30.148c-0.392-17.201-0.298-34.413-0.384-51.62c-0.039-7.837-0.007-15.675-0.007-23.513
			C201.673,83.103,201.637,83.103,201.6,83.103z"/>
		<path fill="#FAA61A" d="M276.537,149.877c1.901,0.762,4.021,1.349,5.877,2.404c4.551,2.593,8.225,6.172,11.154,10.546
			c2.988,4.46,3.075,8.87,0.099,13.32c-3.05,4.558-6.875,8.307-11.629,11.095c-3.908,2.292-7.825,2.339-11.68,0.002
			c-4.98-3.02-9.042-7.003-12.028-12.027c-1.997-3.356-2.354-6.813-0.477-10.354c3.203-6.042,7.96-10.509,14.023-13.567
			C273.212,150.62,274.777,150.397,276.537,149.877z"/>
	</g>
</g>
</svg>
