<svg width="74" height="15" viewBox="0 0 74 15" fill="none" xmlns="http://www.w3.org/2000/svg">
<path d="M24.82 9.79C24.82 12.62 26.86 14.84 30.09 14.84H33.07V12.16H30.36C28.63 12.16 27.67 11.13 27.67 9.79C27.67 8.45 28.63 7.42 30.36 7.42H33.07V4.74H30.09C26.86 4.74 24.82 6.96 24.82 9.79Z" fill="#2C74B8"/>
<path d="M57.49 4.62C56.4 4.62 55.38 4.84 54.06 5.73C52.74 4.84 51.72 4.62 50.63 4.62C48.2 4.62 46.51 6.29 46.51 8.69V14.84H49.36V8.83C49.36 7.8 49.99 7.29 51.02 7.29C52.11 7.29 52.64 7.83 52.64 8.7V14.83H55.49V8.7C55.49 7.83 56.03 7.29 57.11 7.29C58.14 7.29 58.76 7.8 58.76 8.83V14.84H61.61V8.69C61.61 6.29 59.91 4.62 57.49 4.62Z" fill="#2C74B8"/>
<path d="M68.46 4.62C65.08 4.62 63.16 7.26 63.16 9.8C63.16 12.34 65.07 14.97 68.46 14.97C71.85 14.97 73.75 12.33 73.75 9.8C73.75 7.27 71.84 4.62 68.46 4.62ZM68.45 12.29C66.86 12.29 66.01 11.05 66.01 9.79C66.01 8.53 66.87 7.29 68.45 7.29C70.03 7.29 70.9 8.53 70.9 9.79C70.9 11.05 70.04 12.29 68.45 12.29Z" fill="#2C74B8"/>
<path d="M8.45 0.18V5.26C7.76 4.86 6.94 4.62 5.98 4.62C2.56 4.62 0.75 7.28 0.75 9.8C0.75 12.31 2.57 14.97 5.98 14.97C8.55 14.97 9.51 13.73 11.3 12.91V0.19H8.45V0.18ZM3.6 9.79C3.6 8.53 4.46 7.29 6.04 7.29C7.62 7.29 8.46 8.48 8.48 9.72V9.85C8.45 11.1 7.62 12.28 6.04 12.28C4.45 12.28 3.6 11.04 3.6 9.78" fill="#2C74B8"/>
<path d="M19.75 0.18V0.87H18.75V3.38H18.01V0.87H17.01V0.18H19.75Z" fill="#2C74B8"/>
<path d="M23.04 0.18V0.87H22.04V3.38H21.3V0.87H20.3V0.18H23.04Z" fill="#2C74B8"/>
<path d="M14.22 0.18L15.68 2.23V0.18H16.38V3.38H15.61L14.16 1.33V3.38H13.45V0.18H14.22Z" fill="#2C74B8"/>
<path d="M18.2 4.62C14.82 4.62 12.9 7.26 12.9 9.8C12.9 12.34 14.81 14.97 18.2 14.97C21.58 14.97 23.49 12.33 23.49 9.8C23.49 7.26 21.58 4.62 18.2 4.62ZM18.2 12.29C16.61 12.29 15.76 11.05 15.76 9.79C15.76 8.53 16.62 7.29 18.2 7.29C19.78 7.29 20.65 8.53 20.65 9.79C20.65 11.05 19.79 12.29 18.2 12.29Z" fill="#2C74B8"/>
<path d="M39.68 4.62C36.3 4.62 34.38 7.26 34.38 9.8C34.38 12.34 36.29 14.97 39.68 14.97C43.07 14.97 44.97 12.33 44.97 9.8C44.97 7.26 43.06 4.62 39.68 4.62ZM39.68 12.29C38.09 12.29 37.23 11.05 37.23 9.79C37.23 8.53 38.09 7.29 39.68 7.29C41.27 7.29 42.13 8.53 42.13 9.79C42.13 11.05 41.27 12.29 39.68 12.29Z" fill="#2C74B8"/>
</svg>
