<?xml version="1.0" encoding="UTF-8" standalone="no"?>
<svg
   width="999.99994"
   height="241.78764"
   viewBox="0 0 999.99994 241.78764"
   fill="none"
   version="1.1"
   id="svg39"
   sodipodi:docname="Maxis_2022_Wordmark.svg"
   inkscape:version="1.1.1 (3bf5ae0d25, 2021-09-20)"
   xmlns:inkscape="http://www.inkscape.org/namespaces/inkscape"
   xmlns:sodipodi="http://sodipodi.sourceforge.net/DTD/sodipodi-0.dtd"
   xmlns="http://www.w3.org/2000/svg"
   xmlns:svg="http://www.w3.org/2000/svg">
  <sodipodi:namedview
     id="namedview41"
     pagecolor="#ffffff"
     bordercolor="#666666"
     borderopacity="1.0"
     inkscape:pageshadow="2"
     inkscape:pageopacity="0.0"
     inkscape:pagecheckerboard="0"
     showgrid="false"
     inkscape:zoom="0.5"
     inkscape:cx="480"
     inkscape:cy="91"
     inkscape:window-width="1366"
     inkscape:window-height="705"
     inkscape:window-x="-8"
     inkscape:window-y="-8"
     inkscape:window-maximized="1"
     inkscape:current-layer="svg39" />
  <g
     id="g975">
    <path
       d="m 230.57432,71.0682 c -31.90087,0 -50.37824,14.84467 -62.85499,33.63797 C 155.40108,85.59693 144.50401,71.0682 111.97128,71.0682 c -31.90192,0 -47.378768,13.10756 -58.749638,33.63797 V 74.22648 H 0 v 164.24438 h 54.48506 l 5.527573,-110.07494 54.800997,-5.84424 -1.8956,115.91918 h 58.43401 V 128.39592 l 57.95959,-3.00084 6.31657,113.07578 h 57.95959 l -3.00084,-96.494 C 289.48171,92.23048 274.79448,71.0682 230.57432,71.0682 Z"
       fill="#100f5d"
       id="path20"
       style="stroke-width:10.4961" />
    <path
       d="m 451.03908,74.38392 v 30.63819 C 440.93237,85.43949 417.40111,71.0682 388.02666,71.0682 c -52.27489,0 -76.27953,34.1124 -76.27953,85.75437 0,50.37929 23.21533,84.80763 78.01664,84.80763 27.16291,0 51.64197,-17.21469 61.27531,-33.32309 v 30.16375 H 507.5775 V 74.22648 h -56.53842 z m -0.31593,113.23428 -79.59525,3.00084 0.15849,-66.96107 79.43676,4.73795 z"
       fill="#100f5d"
       id="path22"
       style="stroke-width:10.4961" />
    <path
       d="m 726.30621,74.38392 h -65.53989 l -21.95265,33.32309 -9.94927,17.0562 -10.26521,-17.37213 -20.53042,-33.1646 h -66.64618 l 59.85519,82.4376 -62.38161,81.96528 h 64.90803 l 22.26752,-34.90276 9.6344,-16.42434 9.94927,16.74027 23.05788,34.58683 h 65.22396 l -57.80215,-81.96528 z"
       fill="#100f5d"
       id="path24"
       style="stroke-width:10.4961" />
    <path
       d="m 999.68403,184.93329 c 0,36.48137 -32.05936,56.85435 -87.33404,56.85435 -50.06336,0 -83.22796,-20.68891 -83.22796,-54.01095 l 62.69754,-0.63187 2.05304,18.31889 48.64113,-1.57862 1.26374,-24.32162 c -22.11009,-3.15828 -57.32773,-6.00063 -57.32773,-6.00063 -34.9017,-4.26458 -52.1164,-23.84719 -52.1164,-51.32709 0,-33.00611 30.32225,-53.06315 80.22817,-53.06315 53.22164,0 85.43844,18.63482 85.43844,54.48537 l -59.06483,0.31489 -1.26374,-17.0562 -51.80046,1.8956 1.10629,20.05704 c 9.94927,1.73711 57.64366,6.15912 57.64366,6.15912 31.74342,2.52642 53.06315,22.89939 53.06315,49.90487 z"
       fill="#100f5d"
       id="path28"
       style="stroke-width:10.4961" />
    <path
       id="path30"
       style="fill:#100f5d;fill-opacity:1;stroke-width:10.4961"
       d="m 776.69075,60.01263 c 19.45036,0 35.21764,-13.43399 35.21764,-30.00631 C 811.90839,13.43399 796.14111,0 776.69075,0 757.24038,0 741.4731,13.43399 741.4731,30.00632 c 0,16.57232 15.76728,30.00631 35.21765,30.00631 z M 747.46954,74.38392 V 238.62936 H 806.061 V 74.38392 Z" />
  </g>
  <defs
     id="defs37">
    <clipPath
       id="clip0_4083_4587">
      <rect
         width="100"
         height="95"
         fill="#ffffff"
         id="rect34"
         x="0"
         y="0" />
    </clipPath>
  </defs>
</svg>
