<?xml version="1.0" encoding="UTF-8" standalone="no"?>
<svg
   xmlns:dc="http://purl.org/dc/elements/1.1/"
   xmlns:cc="http://creativecommons.org/ns#"
   xmlns:rdf="http://www.w3.org/1999/02/22-rdf-syntax-ns#"
   xmlns:svg="http://www.w3.org/2000/svg"
   xmlns="http://www.w3.org/2000/svg"
   viewBox="0 0 4839.6772 1989.9548"
   height="1989.9548"
   width="4839.6772"
   xml:space="preserve"
   id="svg2"
   version="1.1"><metadata
     id="metadata8"><rdf:RDF><cc:Work
         rdf:about=""><dc:format>image/svg+xml</dc:format><dc:type
           rdf:resource="http://purl.org/dc/dcmitype/StillImage" /></cc:Work></rdf:RDF></metadata><defs
     id="defs6" /><g
     transform="matrix(1.3333333,0,0,-1.3333333,-0.1403414,1990.611)"
     id="g10"><g
       transform="scale(0.1)"
       id="g12"><g
         transform="scale(1.80024)"
         id="g14"><path
           id="path16"
           style="fill:#e10070;fill-opacity:1;fill-rule:nonzero;stroke:none"
           d="m 3158.12,2778.79 v -0.02 0.02 -0.02 z M 13928,2772.97 c -95.9,0 -174.4,-75.57 -174.4,-171.5 0,-93.02 78.5,-168.59 171.5,-168.59 95.9,0 168.6,72.66 168.6,168.59 0,93.02 -72.7,171.5 -165.7,171.5 z m 1811,-720.9 c 174.4,0 276.1,-200.57 273.2,-531.96 l -558.1,-0.03 v 0.03 c 2.9,325.58 113.4,531.96 284.9,531.96 z m -8967.65,-206.38 -436.03,-0.02 v -433.1 l 436.03,-0.02 z m 1313.88,0 -433.1,-0.02 v -433.1 l 433.1,-0.02 z m -4604.45,191.86 c 197.67,0 302.32,-209.3 302.32,-619.16 0,-427.314 -107.55,-651.133 -308.12,-651.133 -223.84,0 -340.12,226.725 -340.12,642.403 0,203.47 26.17,348.82 93.02,459.27 58.15,104.67 156.97,168.62 252.9,168.62 z m 9421.12,0 c 197.7,0 299.4,-209.3 299.4,-619.16 0,-427.314 -104.6,-651.133 -305.2,-651.133 -223.8,0 -343,226.725 -343,642.403 0,203.47 29,348.82 93,459.27 61,104.67 159.9,168.62 255.8,168.62 z m -1470.8,23.24 c 113.3,-0.02 209.2,-69.78 261.5,-186.04 49.5,-107.54 69.8,-258.71 69.8,-470.9 0,-441.847 -107.5,-656.946 -328.5,-656.946 -218,0 -322.6,215.099 -322.6,662.756 0,206.38 20.3,351.74 69.7,465.09 49.4,110.44 148.3,186.02 250,186.04 z m -3363.29,773.22 -1709.23,-0.02 -23.26,-755.73 116.28,-17.47 c 29.06,430.21 238.35,665.68 593,671.5 V 1148.05 c 0,-287.793 -49.43,-334.293 -357.55,-337.199 V 691.662 l 1052.27,-0.022 v 119.211 c -308.12,2.906 -357.53,49.406 -357.53,337.199 v 1584.24 c 351.73,-5.84 563.92,-241.29 593,-671.5 l 116.26,17.47 z m 1215.05,-75.57 -598.79,-0.03 v -98.81 l 55.22,-0.02 c 0.06,0 0.13,0 0.19,0 165.52,0 194.55,-37.84 194.55,-247.06 V 1214.9 c 0,-191.84 -8.7,-267.44 -37.78,-325.565 -29.07,-58.13 -95.93,-98.837 -162.78,-98.837 l -49.4,-0.021 v -98.815 l 636.58,-0.022 v 98.858 l -37.79,-0.021 c -81.37,0.021 -148.25,32 -183.14,95.948 -37.78,61.035 -46.5,116.285 -46.5,328.475 v 1354.61 l 543.59,-1877.848 95.93,-0.022 v 0.022 L 10242.1,2569.51 V 1092.8 c 0,-159.854 -8.7,-220.913 -46.5,-255.802 -29.1,-29.056 -93,-46.5 -162.8,-46.5 l -29,-0.021 v -98.815 l 776.1,-0.022 v 98.858 l -40.7,-0.021 c -72.7,0.021 -136.6,17.465 -165.7,46.521 -37.8,34.889 -46.5,95.948 -46.5,255.802 v 1261.59 c 0,162.78 8.7,220.91 46.5,258.71 32,26.17 93,46.5 165.7,46.5 l 40.7,-0.02 v 98.86 l -601.7,-0.03 -453.5,-1523.16 z m 4793.44,-622.05 -453.5,-20.36 v -95.95 l 34.9,-0.02 c 0,0 0,0 0.1,0 130.7,0 156.8,-43.61 156.8,-247.03 v -735.45 c 0,-203.492 -26.1,-249.992 -156.9,-249.992 l -49.4,-0.021 v -95.905 l 674.4,-0.022 v 95.948 l -49.5,-0.021 c -130.8,0.021 -156.9,43.638 -156.9,250.013 z m 784.8,642.4 -453.5,-20.35 v -95.93 l 34.9,-0.03 c 0.1,0 0.1,0 0.2,0 127.8,0 156.8,-43.65 156.8,-249.96 V 1037.58 c 0,-206.375 -29.1,-249.992 -157,-249.992 l -52.3,-0.021 v -95.905 l 677.3,-0.022 v 95.948 l -49.4,-0.021 c -130.8,0.021 -157,43.638 -157,250.013 z m -11702.98,0 -438.93,-20.35 v -95.91 l 20.35,-0.05 c 0.06,0 0.11,0 0.17,0 130.67,0 159.7,-43.65 159.7,-249.96 V 996.892 c 0,-180.225 -5.81,-229.635 -31.96,-305.23 l 101.72,-0.022 c 78.48,122.117 95.93,145.358 127.92,145.358 14.53,0 270.34,-177.298 409.86,-177.298 334.28,0 575.55,322.656 575.55,770.32 0,427.3 -223.82,717.99 -558.11,717.99 -174.41,0 -299.39,-81.39 -366.27,-232.56 z m 9421.08,0 -441.8,-20.35 v -95.91 l 23.3,-0.05 c 0,0 0.1,0 0.1,0 130.7,0 156.8,-43.65 156.8,-249.96 V 996.892 c 0,-180.225 -5.8,-229.635 -29.1,-305.23 l 101.8,-0.022 c 75.6,122.095 95.9,145.358 125,145.358 17.4,0 32,-5.793 55.2,-26.147 151.2,-125.004 215.1,-151.151 354.7,-151.151 334.2,0 578.4,322.656 578.4,770.32 0,427.3 -223.8,717.97 -558.1,717.97 -174.4,0 -302.3,-81.39 -366.3,-232.54 z m -1133.6,-619.17 c -386.6,0 -636.6,-296.48 -636.6,-758.68 0,-450.57 250,-752.873 624.9,-752.873 380.8,0 630.8,302.303 630.8,755.783 0,447.65 -250,755.77 -619.1,755.77 z m 4278.9,0.03 c -325.6,0 -561.1,-313.96 -561.1,-747.08 0,-468.015 232.6,-764.503 593,-764.503 232.6,0 392.5,119.19 526.2,389.513 l -93,49.43 c -107.6,-229.659 -218.1,-319.753 -383.8,-319.753 -247,0 -351.7,191.836 -354.6,645.313 l 0.2,-0.04 848.6,0.02 v 0.02 c -14.5,459.27 -238.4,747.08 -575.5,747.08 z M 4719.11,2116.03 c -55.23,-2.91 -110.47,-5.81 -162.78,-8.72 -55.22,0 -110.47,-2.91 -165.69,-2.91 -55.25,0 -110.47,2.91 -165.69,2.91 -55.25,2.91 -110.47,2.91 -165.69,5.81 v -78.48 l 52.32,-5.81 c 29.07,-2.91 55.22,-11.63 78.47,-31.99 23.27,-17.42 46.53,-55.22 69.77,-107.56 L 4730.74,741.089 4666.8,566.679 c -26.17,-63.948 -63.97,-142.431 -113.38,-232.547 -49.43,-87.204 -116.28,-136.631 -197.67,-142.47 l -5.82,0.024 c -17.44,0 -40.68,8.743 -69.76,20.351 -29.07,14.538 -52.31,29.052 -69.76,46.478 l -34.89,0.044 -69.76,-215.1209 c 17.44,-8.7206 37.79,-17.4412 63.94,-26.1444 29.08,-11.64993 55.25,-14.5597 78.48,-14.5597 122.11,0 212.22,31.9835 273.26,98.836 61.05,63.97 113.37,148.268 159.87,249.988 l 575.57,1334.262 c 52.32,125 95.91,215.09 133.71,264.52 34.89,52.32 69.76,78.49 104.65,81.4 l 78.48,5.81 v 78.48 c -46.5,-2.91 -90.11,-2.91 -133.7,-5.81 -46.52,-2.91 -90.12,-2.91 -136.64,-2.91 -46.5,0 -90.11,0 -133.7,2.91 -46.53,2.9 -90.12,2.9 -136.64,5.81 v -81.39 l 75.58,-5.81 c 37.79,0 66.85,-8.73 87.2,-20.36 20.36,-11.63 31.99,-29.05 31.99,-55.22 0,-8.72 -2.91,-20.35 -5.82,-31.98 -2.91,-11.63 -5.81,-23.26 -11.63,-34.87 l -337.19,-834.29 -328.47,790.67 c -8.73,26.15 -17.45,46.5 -20.36,63.95 -2.9,20.35 -5.81,34.89 -5.81,49.43 0,26.14 8.72,46.5 26.17,55.22 17.44,8.7 40.7,14.54 66.85,17.45 l 107.56,5.81 z" /></g><g
         transform="scale(2.22691)"
         id="g18"><path
           id="path20"
           style="fill:#451a6c;fill-opacity:1;fill-rule:nonzero;stroke:none"
           d="m 16097.9,5703.11 c 25.8,0 37.6,-11.75 37.6,-32.9 0,-21.16 -11.8,-32.91 -37.6,-32.93 l -49.3,0.02 v 65.78 z m -84.6,35.25 v -218.57 l 35.3,0.02 v 82.21 l 49.3,0.04 44.7,-82.27 37.6,0.02 -51.8,91.65 c 0,0 40,14.09 40,58.75 0,37.59 -28.2,68.13 -72.8,68.13 v -0.04 z m 72.9,65.77 c 101,0 176.2,-75.18 176.2,-176.21 0,-98.72 -75.2,-176.26 -176.2,-176.26 -98.7,0 -176.3,77.54 -176.3,176.26 0,101.03 77.6,176.21 176.3,176.21 z m 0,35.26 c -119.9,0 -213.9,-93.98 -213.9,-211.47 0,-117.51 94,-211.51 213.9,-211.51 119.8,0 213.8,94 213.8,211.51 0,117.49 -94,211.47 -213.8,211.47 z M 7046.06,5207.28 c 333.68,0 571.03,-279.64 589.82,-618.04 v -0.02 l -1229,0.02 c 58.75,368.94 291.39,618.04 639.18,618.04 z m 7510.34,-86.95 c 460.6,0 603.9,-460.59 603.9,-843.64 0,-385.38 -143.3,-838.9 -603.9,-838.9 -460.6,0 -599.3,453.52 -599.3,838.9 0,383.05 138.7,843.64 599.3,843.64 z m -1771.9,728.47 c -425.3,0 -761.3,-204.45 -907,-589.86 l -11.8,0.03 v 531.06 l -961.1,0.02 V 2768.02 l 989.3,0.05 v 1496.89 c 0,378.32 256.2,714.37 744.9,714.37 134,0 251.5,-21.15 378.4,-56.41 v 902.37 c -75.2,16.45 -157.5,23.51 -232.7,23.51 z m -10471.15,21.15 c -366.59,0 -686.17,-197.39 -867.12,-500.53 l -11.76,-0.02 V 5783 l -961.106,-0.02 v -1988 c 0,-533.43 401.847,-848.33 991.666,-916.47 v 1355.91 c 0,615.65 150.4,820.12 505.24,820.12 v -0.02 c 267.88,0.02 373.62,-220.88 373.62,-575.72 V 2761.02 l 989.32,-0.03 V 4239.1 c 0,488.8 39.94,815.44 465.28,815.44 256.13,0 413.58,-192.7 413.58,-516.99 V 2761.02 l 989.32,-0.03 v 1804.76 c 0,575.72 -105.76,1304.2 -1064.52,1304.2 -408.88,0 -704.96,-169.2 -944.66,-488.78 -162.14,366.59 -500.53,488.78 -878.86,488.78 z m 6706.65,834.22 -0.02,-914.14 -500.52,0.02 V 5148.5 l 500.54,0.04 V 3804.36 c 0,-820.11 216.17,-1064.49 1059.8,-1064.49 180.9,0 361.9,23.5 542.8,28.2 v 728.46 l -0.1,-0.03 c -89.3,0.02 -176.2,-11.72 -256,-11.72 -216.2,0 -357.2,51.7 -357.2,291.39 V 5148.5 l 613.3,0.04 v 641.49 l -613.3,0.02 v 914.1 z M 7046.06,5877 c -890.61,0 -1628.48,-662.67 -1628.48,-1588.54 0,-1012.8 669.72,-1607.34 1651.99,-1607.36 676.77,0 1323,303.15 1503.93,1001.05 l -925.87,0.02 c -93.98,-220.89 -326.63,-331.33 -566.31,-331.33 -418.29,0 -657.97,272.58 -674.44,686.15 v -0.01 l 2218.32,0.03 C 8672.21,5061.57 8129.36,5877 7046.06,5877 Z m 7510.34,0 c -937.6,0 -1588.6,-693.24 -1588.6,-1600.31 0,-909.4 651,-1595.59 1588.6,-1595.59 937.6,0 1595.6,686.19 1595.6,1595.59 0,907.07 -658,1600.31 -1595.6,1600.31 z M 69.1803,3216.88 C -139.96,2439.07 52.746,1158.38 1721.17,958.622 V 1931.48 C 661.367,2020.8 196.092,2413.21 69.1803,3216.88 Z" /></g></g></g></svg>