<svg xmlns="http://www.w3.org/2000/svg" xmlns:xlink="http://www.w3.org/1999/xlink" viewBox="0 0 448.95 37.49">
  <defs>
    <clipPath id="a">
      <rect width="448.95" height="37.49" fill="none"></rect>
    </clipPath>
  </defs>
  <g clip-path="url(#a)">
    <path d="M444.6,26.46c0,5.85-4.45,7.46-7.3,7.46-4.45,0-7.2-4-7.2-9.27s2.75-9.27,7.2-9.27c2.85,0,7.3,1.61,7.3,7.46Zm-7.76-14.65c-6.48,0-11.24,4.92-11.24,12.84s4.76,12.84,11.24,12.84a8.86,8.86,0,0,0,8-4.3v3.68H449V.62H444.6V15.54a9.37,9.37,0,0,0-7.76-3.73M400.92,36.87h4.35V23.56c0-5.12,3.11-8.18,6.58-8.18a5,5,0,0,1,5.23,5.23V36.87h4.35V19.94c0-5.44-3.94-8.13-8.7-8.13a8.61,8.61,0,0,0-7.72,4.3V12.43h-4.09ZM395.6,12.43h-4.35V25.74c0,5.12-3.11,8.18-6.47,8.18a4.87,4.87,0,0,1-5.13-5.23V12.43H375.3V29.36c0,5.44,3.94,8.13,8.6,8.13a8.47,8.47,0,0,0,7.61-4.3v3.68h4.09ZM354.88,36.87V20h15.69V16.36H354.88V4.25h16.78V.62H350.38V36.87Zm-44.53,0h4.35V23.56c0-5.12,3.1-8.18,6.57-8.18a5,5,0,0,1,5.23,5.23V36.87h4.35V19.94c0-5.44-3.93-8.13-8.7-8.13a8.61,8.61,0,0,0-7.71,4.3V12.43h-4.09ZM294,34c-4.87,0-7.25-4.24-7.25-9.37s2.38-9.37,7.25-9.37,7.25,4.24,7.25,9.37S298.86,34,294,34m0-22.21c-7.46,0-11.75,5.43-11.75,12.84S286.53,37.49,294,37.49s11.75-5.44,11.75-12.84S301.45,11.81,294,11.81M273.2,36.87h4.35V12.43H273.2Zm-.67-34a2.85,2.85,0,0,0,5.69,0,2.85,2.85,0,1,0-5.69,0m-19,15.9c0-2.49,2.07-3.68,4.82-3.68,3.36,0,5.12,1.66,5.48,4.45l4.3-.88c-.57-4.24-4.35-6.88-9.63-6.88-5,0-9.32,2.48-9.32,7.2,0,3.93,2.49,6.16,8.7,7.14,4.71.73,6.32,1.71,6.32,4,0,2.54-2.07,4-5.54,4-3.73,0-5.54-1.55-5.86-4.86l-4.29.57c.51,5,4.14,7.66,10.09,7.66,6.17,0,9.95-3,9.95-7.61,0-4.92-4.2-6.53-9.32-7.3-3.84-.57-5.7-1.45-5.7-3.78M239.71,36.87h4.35V12.43h-4.35ZM239,2.9a2.85,2.85,0,0,0,5.7,0,2.85,2.85,0,0,0-5.7,0M204.63.62l13.25,36.25H222L235.44.62h-4.51S223,22,220.16,31h-.1C217.21,22,209.39.62,209.39.62ZM188.52,36.87h5.28L182.57,21.34l9.58-8.91H187l-10.51,9.73V.62h-4.35V36.87h4.35V26.72l2.85-2.64Zm-42.25,0h4.35V23.56c0-5.12,3.11-8.18,6.58-8.18a5,5,0,0,1,5.23,5.23V36.87h4.35V19.94c0-5.44-3.94-8.13-8.7-8.13a8.61,8.61,0,0,0-7.72,4.3V12.43h-4.09Zm-16.36-2.75c-3,0-4.87-1.34-4.87-3.83,0-3.52,4.87-5,11.86-5v2.13c0,4.19-3.42,6.67-7,6.67m7.61,2.75h4.2a9.31,9.31,0,0,1-.57-3.31V20.3c0-5.23-3.68-8.49-9.48-8.49-5,0-9.48,2.48-10,7.4l4.35.62c.16-2.64,1.87-4.71,5.55-4.71s5.38,2.33,5.38,5.59v1.51c-8.6,0-16.26,1.86-16.26,8.38,0,4.2,3.42,6.89,8,6.89A9.91,9.91,0,0,0,137,33.66a8.86,8.86,0,0,0,.57,3.21M96.37,19.94h7.15c5.28,0,9,1.81,9,6.63,0,3.57-2,6.78-8.8,6.78h-7.3Zm7.35-15.8c4.92,0,7.25,1.92,7.25,5.8,0,4.3-2.79,6.48-7.82,6.48H96.37V4.14ZM91.92,36.87h13.31c6.93,0,11.75-4.25,11.75-10.36,0-5.28-3.57-7.92-7.4-8.49a8.42,8.42,0,0,0,5.9-8.44c0-5.59-3.68-9-10.93-9H91.92ZM86,33.09a4.4,4.4,0,0,1-2.44.78,2.48,2.48,0,0,1-2.54-2.8V15.74h5.7V12.43h-5.7v-9l-4.35,2v7H72.57v3.31h4.14V31.48c0,3.22,2,6,6.32,6a9.36,9.36,0,0,0,4.4-1ZM55.52,15.74h4.14V36.87H64V15.74H69.7V12.43H64V8.08c0-2.69,1.34-4.3,3.88-4.3A6,6,0,0,1,71.52,5L73.43,1.5A11.39,11.39,0,0,0,67.58,0c-3.88,0-7.92,2-7.92,7.82v4.61H55.52ZM42.24,34C37.38,34,35,29.78,35,24.65s2.39-9.37,7.25-9.37,7.25,4.24,7.25,9.37S47.11,34,42.24,34m0-22.21c-7.45,0-11.75,5.43-11.75,12.84s4.3,12.84,11.75,12.84S54,32.05,54,24.65,49.7,11.81,42.24,11.81m-36.65-2c0-3.68,2.44-6.21,7.72-6.21s7.82,2.69,8.44,7L26.2,9.53C25.22,3.63,20.56,0,13.36,0,6,0,.93,3.94.93,10.25c0,6,4.25,8.76,12.17,9.89,6.84,1,9.11,2.85,9.11,6.79,0,4.3-2.95,7-8.44,7C7,33.92,4.71,29.83,4.45,26L0,26.67c.26,6.06,5,10.82,13.77,10.82C22.06,37.49,27,33,27,26.57c0-6.74-4.77-9.22-12.79-10.52C7.61,15,5.59,13.57,5.59,9.84"></path>
  </g>
</svg>