<?xml version="1.0" encoding="utf-8"?>
<!-- Generator: Adobe Illustrator 13.0.2, SVG Export Plug-In . SVG Version: 6.00 Build 14948)  -->
<!DOCTYPE svg PUBLIC "-//W3C//DTD SVG 1.0//EN" "http://www.w3.org/TR/2001/REC-SVG-20010904/DTD/svg10.dtd">
<svg version="1.0" id="Layer_1" xmlns="http://www.w3.org/2000/svg" xmlns:xlink="http://www.w3.org/1999/xlink" x="0px" y="0px"
	 width="191.231px" height="109.8px" viewBox="0 0 191.231 109.8" enable-background="new 0 0 191.231 109.8" xml:space="preserve">
<g>
	<path fill-rule="evenodd" clip-rule="evenodd" d="M78.984,109.8h86.832c10.872,0,19.801-8.928,19.801-19.728V76.248
		c0-8.208-5.04-15.192-12.168-18.216l0.936-0.36l1.008-0.432l0.937-0.504l0.936-0.504l0.937-0.576l0.863-0.576l0.792-0.648
		l0.864-0.648l0.792-0.72l0.72-0.792l0.721-0.72l0.647-0.864l0.648-0.864l0.576-0.864l0.575-0.864l0.505-0.936l0.504-0.936
		l0.432-1.008l0.36-1.008l0.359-1.008l0.288-1.08l0.216-1.08l0.217-1.08l0.144-1.08l0.072-1.152v-1.08V22.68V21.6l-0.072-1.152
		l-0.144-1.152l-0.217-1.152l-0.287-1.08l-0.288-1.08l-0.36-1.08l-0.432-1.008l-0.433-1.008l-0.504-1.008l-0.576-0.936l-0.576-0.936
		l-0.647-0.864l-0.648-0.864l-0.72-0.792l-0.72-0.792l-0.792-0.792l-0.864-0.72l-0.864-0.648l-0.863-0.648l-0.937-0.576
		l-0.936-0.576l-1.009-0.504L174.6,1.8l-1.008-0.432l-1.08-0.36l-1.08-0.288l-1.08-0.288L169.2,0.288l-1.08-0.144L166.968,0h-1.152
		H22.752H21.6l-1.152,0.144l-1.152,0.144l-1.08,0.144l-1.08,0.288l-1.08,0.288l-1.08,0.36L13.968,1.8L12.96,2.232l-1.008,0.504
		l-0.936,0.576L10.08,3.888L9.216,4.536L8.352,5.184l-0.864,0.72L6.696,6.696l-0.72,0.792L5.256,8.28l-0.72,0.864L3.96,10.008
		l-0.648,0.936L2.808,11.88l-0.504,1.008L1.8,13.896l-0.36,1.008l-0.36,1.08l-0.36,1.08l-0.216,1.08l-0.216,1.152l-0.144,1.152
		L0.072,21.6L0,22.68v13.968L0.072,37.8l0.072,1.152l0.144,1.152l0.216,1.08l0.216,1.152l0.36,1.08l0.36,1.008l0.36,1.08
		l0.504,1.008l0.504,0.936l0.504,0.936L3.96,49.32l0.576,0.936l0.72,0.792l0.72,0.864l0.72,0.792l0.792,0.72l0.864,0.72l0.864,0.72
		l0.864,0.576l0.936,0.648l0.936,0.504l1.008,0.504l1.008,0.504l1.008,0.36l1.08,0.36l1.08,0.36l1.08,0.216l1.08,0.216l1.152,0.144
		l1.152,0.072l1.152,0.072H68.76c-5.76,3.456-9.576,9.72-9.576,16.848v13.824C59.184,100.872,68.112,109.8,78.984,109.8"/>
	<path fill-rule="evenodd" clip-rule="evenodd" fill="#FFFFFF" d="M22.752,2.88h143.064c10.872,0,19.8,8.928,19.8,19.872v13.896
		c0,10.584-8.353,19.296-18.792,19.8V44.856c0-4.176-2.448-6.048-5.473-2.88L146.88,56.52H98.568l-14.4,14.472
		c-3.024,3.168-5.472,1.368-5.472-2.808V56.52H22.752c-10.872,0-19.872-9-19.872-19.872V22.752C2.88,11.808,11.88,2.88,22.752,2.88"
		/>
	<polygon fill="#FFFFFF" points="96.119,96.48 96.119,96.48 96.119,75.456 89.208,75.456 89.208,70.488 109.079,70.488 
		109.079,75.456 102.023,75.456 102.023,96.48 	"/>
	<path fill="#FFFFFF" d="M122.76,85.392L122.76,85.392v6.552c0,0.936,0,1.8,0.072,2.592c0,0.792,0.071,1.44,0.216,1.944h-5.328
		l-0.288-1.872h-0.144c-0.648,0.792-1.44,1.368-2.305,1.728c-0.936,0.432-2.016,0.576-3.096,0.576c-1.296,0-2.376-0.288-3.312-0.792
		c-0.864-0.576-1.584-1.296-2.089-2.16c-0.432-0.864-0.72-1.8-0.72-2.808c0.072-1.656,0.504-3.024,1.44-4.032
		c0.863-1.08,2.16-1.872,3.815-2.376c1.656-0.576,3.601-0.792,5.832-0.792v-0.216c0-0.432-0.071-0.792-0.216-1.152
		c-0.216-0.36-0.504-0.648-1.008-0.936s-1.224-0.432-2.232-0.432c-0.936,0-1.872,0.144-2.808,0.432s-1.728,0.576-2.376,1.008
		l-1.08-3.744c0.648-0.432,1.656-0.792,2.88-1.152c1.225-0.36,2.736-0.576,4.464-0.576c2.088,0,3.744,0.36,4.896,1.08
		c1.224,0.792,2.088,1.728,2.592,2.952C122.472,82.512,122.76,83.88,122.76,85.392 M117.071,89.64L117.071,89.64v-2.016
		c-1.079,0-2.016,0.072-2.808,0.216c-0.792,0.216-1.439,0.504-1.944,1.008c-0.504,0.36-0.72,1.008-0.72,1.728
		c0,0.72,0.216,1.296,0.648,1.656c0.432,0.36,0.936,0.576,1.655,0.576c0.721,0,1.368-0.216,1.872-0.648
		c0.576-0.36,0.937-0.864,1.152-1.512C117,90.36,117.071,90,117.071,89.64"/>
	<polygon fill="#FFFFFF" points="126.432,96.48 126.432,96.48 126.432,69.048 132.336,69.048 132.336,96.48 	"/>
	<path fill="#FFFFFF" d="M141.911,69.048L141.911,69.048v16.56h0.072c0.433-0.792,0.864-1.584,1.296-2.304l3.889-5.688h7.056
		l-6.768,7.704l7.703,11.16h-7.199l-4.608-7.704l-1.44,1.8v5.904h-5.903V69.048H141.911z"/>
	<path d="M28.944,39.024L28.944,39.024l1.224-4.608c0.792,0.36,1.728,0.72,2.88,1.008c1.224,0.288,2.448,0.504,3.744,0.504
		c1.368,0,2.376-0.288,3.096-0.72c0.72-0.504,1.08-1.152,1.08-1.944s-0.36-1.44-1.008-1.944c-0.72-0.504-1.872-1.08-3.456-1.584
		c-1.44-0.432-2.736-1.008-3.816-1.728c-1.08-0.72-1.944-1.512-2.52-2.448c-0.648-0.864-0.936-1.944-0.936-3.168
		c0-1.44,0.432-2.664,1.224-3.816c0.792-1.152,1.944-2.016,3.456-2.664c1.44-0.648,3.24-0.936,5.328-0.936
		c1.512,0,2.808,0.072,3.888,0.36c1.152,0.216,2.088,0.504,2.88,0.864l-1.368,4.536c-0.504-0.288-1.224-0.576-2.16-0.792
		c-0.936-0.288-2.016-0.432-3.312-0.432s-2.232,0.288-2.88,0.72c-0.648,0.504-1.008,1.008-1.008,1.656
		c0,0.576,0.216,1.008,0.576,1.368c0.288,0.36,0.864,0.72,1.584,1.08c0.72,0.36,1.656,0.648,2.808,1.08
		c2.304,0.792,4.032,1.8,5.112,3.024c1.152,1.152,1.656,2.664,1.656,4.392c0,1.368-0.36,2.664-1.08,3.888
		c-0.792,1.152-1.944,2.016-3.528,2.736c-1.584,0.72-3.6,1.08-5.976,1.08c-1.008,0-2.016-0.072-2.952-0.216s-1.8-0.36-2.592-0.576
		C30.096,39.528,29.448,39.24,28.944,39.024"/>
	<path d="M50.256,18.792L50.256,18.792l5.472-1.512v4.824h4.104v4.176h-4.104v6.48c0,1.152,0.216,1.944,0.504,2.448
		C56.592,35.712,57.168,36,57.96,36c0.432,0,0.72-0.072,0.936-0.072c0.288,0,0.504-0.072,0.792-0.144v4.248
		c-0.36,0.144-0.864,0.288-1.512,0.36c-0.648,0.072-1.296,0.144-2.088,0.144c-0.936,0-1.8-0.144-2.52-0.432s-1.296-0.648-1.8-1.08
		c-1.008-1.08-1.512-2.88-1.512-5.4V26.28h-2.448v-4.176h2.448V18.792z"/>
	<path d="M63,40.176L63,40.176V28.08c0-1.296-0.072-2.448-0.072-3.384s-0.072-1.8-0.144-2.592h4.824l0.216,3.384h0.216
		c0.288-0.936,0.72-1.656,1.224-2.16c0.576-0.576,1.152-1.008,1.8-1.224c0.648-0.288,1.224-0.432,1.872-0.432
		c0.216,0,0.432,0,0.576,0.072c0.216,0,0.36,0,0.576,0.072v5.256c-0.216,0-0.432-0.072-0.72-0.072
		c-0.216-0.072-0.504-0.072-0.792-0.072c-1.08,0-1.944,0.288-2.592,0.792s-1.08,1.152-1.296,2.016
		c-0.072,0.432-0.072,0.864-0.072,1.296v9.144H63z"/>
	<path d="M91.439,29.52L91.439,29.52v6.264c0,0.936,0,1.728,0.072,2.448c0.072,0.792,0.144,1.44,0.216,1.944h-5.04l-0.36-1.8h-0.072
		c-0.648,0.72-1.368,1.224-2.232,1.656c-0.936,0.36-1.944,0.576-2.952,0.576c-1.224-0.072-2.304-0.288-3.168-0.792
		c-0.864-0.576-1.584-1.224-2.016-2.088c-0.432-0.792-0.72-1.728-0.72-2.664c0-1.584,0.504-2.88,1.368-3.888
		c0.864-1.008,2.088-1.8,3.672-2.304s3.456-0.72,5.616-0.72v-0.216c0-0.36-0.072-0.72-0.216-1.08
		c-0.216-0.36-0.504-0.648-1.008-0.936c-0.432-0.216-1.152-0.36-2.088-0.36s-1.872,0.144-2.736,0.432
		c-0.864,0.216-1.656,0.576-2.232,0.936l-1.08-3.6c0.648-0.36,1.584-0.72,2.808-1.08c1.152-0.36,2.592-0.504,4.248-0.576
		c2.016,0.072,3.6,0.36,4.752,1.08c1.152,0.72,1.944,1.656,2.448,2.808C91.224,26.784,91.439,28.08,91.439,29.52 M86.04,33.624
		L86.04,33.624V31.68c-1.008,0-1.944,0.072-2.736,0.216c-0.792,0.216-1.368,0.504-1.872,0.936c-0.432,0.36-0.648,0.936-0.72,1.656
		c0.072,0.72,0.288,1.224,0.648,1.584c0.432,0.36,0.936,0.576,1.584,0.576c0.72-0.072,1.368-0.216,1.872-0.648
		c0.504-0.36,0.864-0.864,1.08-1.44C85.968,34.272,86.04,33.912,86.04,33.624"/>
	<path d="M100.943,40.176L100.943,40.176h-5.688V22.104h5.688V40.176z M98.136,14.328L98.136,14.328c0.937,0,1.656,0.288,2.16,0.792
		s0.792,1.224,0.792,2.016s-0.288,1.44-0.792,1.944c-0.504,0.576-1.296,0.864-2.232,0.864c-0.936,0-1.584-0.288-2.16-0.864
		c-0.504-0.504-0.72-1.152-0.791-1.944c0.071-0.792,0.287-1.512,0.863-2.016C96.479,14.616,97.2,14.328,98.136,14.328"/>
	<path d="M122.399,27.504L122.399,27.504v10.08c0.072,1.728-0.144,3.24-0.576,4.68c-0.432,1.368-1.151,2.52-2.159,3.384
		c-1.009,0.864-2.16,1.44-3.456,1.728c-1.225,0.36-2.521,0.504-3.889,0.504c-1.224,0-2.447-0.144-3.6-0.36
		c-1.08-0.216-2.088-0.576-2.952-1.008l1.152-4.248c0.576,0.288,1.296,0.648,2.231,0.864c0.937,0.288,1.944,0.432,3.024,0.504
		c0.864,0,1.728-0.216,2.376-0.504c0.72-0.36,1.296-0.864,1.656-1.584c0.432-0.648,0.647-1.584,0.647-2.736v-1.08h-0.071
		c-0.505,0.72-1.225,1.296-2.089,1.656c-0.792,0.432-1.728,0.648-2.808,0.648c-1.512,0-2.808-0.432-3.96-1.152
		c-1.152-0.72-2.016-1.728-2.664-3.096c-0.72-1.296-1.008-2.808-1.008-4.536c0-1.944,0.359-3.6,1.08-5.04
		c0.792-1.44,1.8-2.52,3.023-3.312c1.225-0.792,2.593-1.152,4.104-1.152c1.224,0,2.231,0.216,3.096,0.72
		c0.792,0.504,1.44,1.08,1.872,1.872h0.072l0.216-2.232h4.824c0,0.576-0.072,1.296-0.072,2.16
		C122.472,25.128,122.399,26.208,122.399,27.504 M116.784,32.112L116.784,32.112v-2.664c0-0.288,0-0.648-0.072-1.008
		c-0.216-0.72-0.576-1.368-1.152-1.8c-0.504-0.432-1.152-0.648-1.944-0.648c-1.008,0-1.943,0.432-2.592,1.296
		c-0.72,0.864-1.08,2.16-1.08,3.816c0,0.864,0.145,1.728,0.433,2.448c0.288,0.72,0.72,1.296,1.224,1.728
		c0.576,0.36,1.224,0.576,2.016,0.648c0.721-0.072,1.368-0.288,1.944-0.648c0.504-0.432,0.864-1.008,1.08-1.656
		c0.072-0.216,0.072-0.432,0.145-0.72V32.112z"/>
	<path d="M126.504,40.176L126.504,40.176V13.968h5.616v10.368h0.072c0.575-0.864,1.367-1.44,2.231-1.872
		c0.432-0.216,0.864-0.432,1.368-0.576c0.504-0.072,1.08-0.144,1.584-0.144c1.224,0,2.304,0.288,3.24,0.864
		c0.936,0.504,1.728,1.368,2.231,2.592c0.576,1.152,0.864,2.664,0.864,4.464v10.512h-5.616V30.24c0-1.152-0.288-2.16-0.72-2.88
		c-0.432-0.72-1.224-1.08-2.232-1.08c-0.72,0-1.367,0.216-1.8,0.576c-0.504,0.432-0.792,0.864-1.008,1.44
		c-0.072,0.144-0.144,0.36-0.144,0.504c-0.072,0.288-0.072,0.504-0.072,0.648v10.728H126.504z"/>
	<path d="M147.168,18.792L147.168,18.792l5.544-1.512v4.824h4.032v4.176h-4.032v6.48c0,1.152,0.145,1.944,0.504,2.448
		c0.288,0.504,0.937,0.792,1.729,0.792c0.359,0,0.647-0.072,0.936-0.072c0.216,0,0.504-0.072,0.72-0.144l0.072,4.248
		c-0.432,0.144-0.864,0.288-1.512,0.36c-0.648,0.072-1.368,0.144-2.16,0.144c-0.936,0-1.728-0.144-2.448-0.432
		c-0.72-0.288-1.368-0.648-1.8-1.08c-1.08-1.08-1.584-2.88-1.584-5.4V26.28h-2.376v-4.176h2.376V18.792z"/>
	<path d="M183.023,61.272L183.023,61.272v-3.888h-1.296v-0.936h3.672v0.936h-1.296v3.888H183.023z M190.152,61.272L190.152,61.272
		l-0.072-1.8c0-0.288,0-0.648-0.072-0.936v-1.08c-0.072,0.36-0.144,0.648-0.288,0.936c-0.072,0.36-0.144,0.648-0.216,0.936
		l-0.648,1.872h-0.792l-0.575-1.872c-0.072-0.288-0.145-0.576-0.217-0.864c-0.071-0.36-0.144-0.648-0.216-1.008v0.72
		c0,0.216,0,0.432-0.072,0.648v0.648l-0.071,1.8h-1.008l0.288-4.824h1.439l0.504,1.656c0.072,0.288,0.145,0.576,0.216,0.864
		c0.072,0.288,0.145,0.576,0.145,0.864h0.071c0.072-0.288,0.145-0.576,0.217-0.864c0.071-0.36,0.144-0.648,0.216-0.864l0.504-1.656
		h1.44l0.287,4.824H190.152z"/>
</g>
</svg>
