<?xml version="1.0" encoding="utf-8"?>
<!-- Generator: Adobe Illustrator 14.0.0, SVG Export Plug-In . SVG Version: 6.00 Build 43363)  -->
<!DOCTYPE svg PUBLIC "-//W3C//DTD SVG 1.1//EN" "http://www.w3.org/Graphics/SVG/1.1/DTD/svg11.dtd">
<svg version="1.1" id="katman_1" xmlns="http://www.w3.org/2000/svg" xmlns:xlink="http://www.w3.org/1999/xlink" x="0px" y="0px"
	 width="120px" height="65px" viewBox="0 0 120 65" enable-background="new 0 0 120 65" xml:space="preserve">
<rect x="4.979" y="5.074" fill="#009EE0" width="55.066" height="54.551"/>
<path fill="#00559F" d="M13.732,26.518h21.36V13.657l18.874,18.744L35.092,51.144V38.299h-21.36V26.518z M28.045,40.642h-2.474
	v2.338h2.474V40.642z M32.762,40.642h-2.475v2.338h2.475V40.642z M35.092,45.325h-2.469v2.338h2.469V45.325z M30.388,45.325h-2.475
	v2.338h2.475V45.325z M28.045,50.01h-2.474v2.335h2.474V50.01z M32.762,50.01h-2.475v2.335h2.475V50.01z M28.045,21.846h-2.474
	v2.339h2.474V21.846z M32.762,21.846h-2.475v2.339h2.475V21.846z M30.388,17.168h-2.475v2.339h2.475V17.168z M35.12,17.168h-2.478
	v2.339h2.478V17.168z M28.045,12.495h-2.474v2.341h2.474V12.495z M32.762,12.495h-2.475v2.341h2.475V12.495z"/>
<rect x="60.046" y="5.074" fill="#00559F" width="54.925" height="54.551"/>
<path fill="#FFFFFF" d="M30.388,38.297h-2.475v-2.339h2.475V38.297z M35.092,35.958h-2.469v2.339h2.469V35.958z M39.852,35.958
	h-2.477v2.339h2.477V35.958z M44.579,35.958h-2.476v2.339h2.476V35.958z M49.308,35.958h-2.467v2.339h2.467V35.958z M28.045,31.244
	h-2.474v2.34h2.474V31.244z M32.762,31.217h-2.475v2.337h2.475V31.217z M37.569,31.217h-2.477v2.337h2.477V31.217z M42.206,31.217
	h-2.478v2.337h2.478V31.217z M46.925,31.217h-2.477v2.337h2.477V31.217z M51.638,31.217h-2.474v2.337h2.474V31.217z M30.388,26.517
	h-2.475v2.344h2.475V26.517z M35.092,26.517h-2.469v2.344h2.469V26.517z M39.852,26.517h-2.477v2.344h2.477V26.517z M44.579,26.517
	h-2.476v2.344h2.476V26.517z M49.308,26.517h-2.467v2.344h2.467V26.517z M37.569,40.642h-2.477v2.338h2.477V40.642z M42.206,40.642
	h-2.478v2.338h2.478V40.642z M39.852,45.325h-2.477v2.338h2.477V45.325z M37.569,21.846h-2.477v2.339h2.477V21.846z M42.206,21.846
	h-2.478v2.339h2.478V21.846z M39.852,17.168h-2.477v2.339h2.477V17.168z"/>
<polygon fill="#FFFFFF" points="92.048,29.257 90.505,29.257 90.505,36.05 94.348,36.05 94.348,35.29 92.048,35.29 "/>
<polygon fill="#FFFFFF" points="84.861,35.29 82.631,35.29 82.631,33.051 84.116,33.051 84.116,32.25 82.631,32.25 82.631,30.074 
	84.869,30.074 84.869,29.26 81.089,29.26 81.089,36.049 84.861,36.049 "/>
<polygon fill="#FFFFFF" points="73.17,36.049 74.716,36.049 74.716,30.074 76.247,30.074 76.247,29.26 71.701,29.26 71.701,30.074 
	73.17,30.074 "/>
<polygon fill="#FFFFFF" points="104.093,15.567 102.727,15.567 100.295,18.332 100.295,15.567 98.75,15.567 98.75,22.356 
	100.295,22.356 100.295,19.756 102.5,22.356 104.05,22.356 101.04,18.983 "/>
<rect x="80.219" y="15.566" fill="#FFFFFF" width="1.525" height="0.818"/>
<rect x="83.229" y="15.566" fill="#FFFFFF" width="1.528" height="0.818"/>
<polygon fill="#FFFFFF" points="99.828,45.383 96.597,42.144 96.246,42.144 96.246,48.967 97.011,48.967 97.011,44.792 
	97.012,44.792 99.664,47.423 102.311,44.829 102.311,48.967 103.823,48.967 103.823,42.105 103.072,42.105 "/>
<path fill="#FFFFFF" d="M94.029,17.521v-0.222c0-0.876-0.225-1.099-0.579-1.386c-0.361-0.291-0.824-0.346-1.563-0.346h-2.386v6.788
	h1.508v-2.99h0.736c0.248,0,0.729,0.243,0.771,0.62c0.016,0.167,0,2.122,0,2.37h1.513v-2.629c0-0.71-0.601-0.814-1.066-0.784v-0.033
	C92.963,18.909,93.965,18.792,94.029,17.521z M92.512,17.837c-0.004,0.504-0.505,0.757-0.743,0.757H91.01v0.001v-0.001v-2.218h0.759
	c0.472,0,0.743,0.465,0.743,0.806V17.837z"/>
<polygon fill="#FFFFFF" points="103.821,30.074 103.821,29.26 100.047,29.26 100.047,36.049 103.821,36.049 103.821,35.29 
	101.587,35.29 101.587,33.051 103.087,33.051 103.087,32.25 101.587,32.25 101.587,30.074 "/>
<path fill="#FFFFFF" d="M87.467,42.184h-1.35c-1.058,0-1.661,0.66-1.661,1.657l-0.015,3.456c0,1.027,0.618,1.67,1.676,1.67h1.35
	c1.052,0,1.54-0.932,1.54-1.67v-3.456C89.007,43,88.519,42.184,87.467,42.184z M87.477,47.509c0,0.359-0.393,0.696-0.76,0.696
	c-0.356,0-0.751-0.337-0.751-0.696v-3.884c0-0.359,0.395-0.647,0.751-0.647c0.367,0,0.76,0.288,0.76,0.647V47.509z"/>
<polygon fill="#FFFFFF" points="73.17,22.356 74.716,22.356 74.716,16.382 76.247,16.382 76.247,15.567 71.701,15.567 
	71.701,16.382 73.17,16.382 "/>
<polygon fill="#FFFFFF" points="76.003,42.181 73.566,44.943 73.566,42.181 72.024,42.181 72.024,48.966 73.566,48.966 
	73.566,46.363 75.772,48.966 77.323,48.966 74.315,45.595 77.372,42.181 "/>
<path fill="#FFFFFF" d="M82.432,22.381h0.105h0.107c0.902-0.025,1.436-0.022,1.806-0.604c0.208-0.327,0.306-0.798,0.306-1.969
	v-2.961h-1.524v3.17c0,0.98-0.049,1.183-0.188,1.32c-0.147,0.154-0.275,0.239-0.569,0.243c-0.269-0.003-0.395-0.087-0.545-0.243
	c-0.137-0.137-0.188-0.34-0.188-1.32v-3.17h-1.527v2.966c0,1.166,0.103,1.636,0.309,1.964c0.372,0.582,0.896,0.579,1.814,0.604
	H82.432z"/>
</svg>
