<svg xmlns="http://www.w3.org/2000/svg" width="1024" height="315"><path fill="#e20074" d="M572.4 6.9c-16.22 0-29.4 5.77-39.56 17.3-10.7 12.15-16.07 28.82-16.07 50 0 18.04 4.14 33 12.4 44.92 10.22 14.72 24.38 22.08 42.5 22.08 8.38 0 16-1.7 22.83-5.07 7.64-3.82 13.97-9.34 18.98-16.54 8.46-12.23 12.7-27.42 12.7-45.6 0-21.23-5.62-38.1-16.83-50.55C599.5 12.42 587.2 6.9 572.4 6.9zM14.8 9.82v23.5h31.1V138.1h27.54V33.3h31.3V9.83H14.78zm104.92 0V138.1h83v-23.5h-55.46V83.13h49.62V60.76h-49.62V33.3h54.32V9.83h-81.86zm101.64 0V138.1h77.9v-23.87H248.9V9.83h-27.54zm94.5 0V138.1h82.98v-23.5H343.4V83.13H393V60.76h-49.6V33.3h54.3V9.83h-81.85zm101.63 0V138.1H445V93.37l7.8-9.4 33.84 54.13h30.82L470.2 62.73l43.7-52.9H483.2L445.02 58.3V9.83H417.5zm225.8 0V138.1h26.42V50.04l22.37 88.06h22.36l21.9-89.2v89.2h26.4V9.82h-37.02L703.46 97.7 680.63 9.8H643.3zM571.2 30.4c8.76 0 15.46 3.98 20.1 11.93 4.9 8.46 7.33 18.96 7.33 31.5 0 7.44-.97 14.5-2.9 21.13-2.33 7.9-5.6 13.66-9.8 17.3-4.18 3.63-8.88 5.45-14.08 5.45-3.57 0-6.96-.84-10.15-2.53-4.4-2.38-7.7-5.5-9.97-9.4-4.95-8.52-7.42-19.2-7.42-32.05 0-12.28 2.52-22.74 7.53-31.4 4.63-7.94 11.1-11.92 19.36-11.92z"/><path fill="#e20074" d="M74.78 173.6c-12.1 0-21.7 3.58-28.78 10.73-6.15 6.27-9.22 13.92-9.22 22.95 0 11.28 4.45 20.03 13.36 26.24 4.5 3.13 11.63 6.05 21.35 8.75 13.34 3.76 21.78 6.8 25.3 9.12 7 4.63 10.52 11.24 10.52 19.83 0 8.16-2.76 14.74-8.28 19.76-5.07 4.63-12 6.95-20.78 6.95-10.4 0-18.6-3.48-24.55-10.44-4.06-4.76-6.64-10.94-7.7-18.52H35c1.12 10.03 4.23 18.24 9.3 24.64 7.72 9.66 19.16 14.48 34.33 14.48 12.55 0 22.64-3.66 30.3-11 7.08-6.9 10.62-15.55 10.62-25.96 0-15.05-8-25.83-24-32.35-2.68-1.08-8.86-2.96-18.5-5.66-9.6-2.63-16.5-5.52-20.7-8.65-5.4-3.96-8.1-9.6-8.1-16.94 0-6.84 2.36-12.5 7.06-17.03 4.77-4.57 11.3-6.86 19.57-6.86 9.72 0 17.15 2.95 22.3 8.84 3.07 3.52 5.2 8.66 6.4 15.43h11.94c-.93-7.2-3-13.16-6.2-17.87-7.46-10.97-18.97-16.46-34.52-16.46zm212.94.1c-15.42 0-28 6.24-37.7 18.72-9.42 12.04-14.12 28.24-14.12 48.62 0 17.68 3.82 32.58 11.47 44.68 9.4 14.92 22.58 22.38 39.5 22.38 8.16 0 15.56-1.8 22.2-5.45 7.15-3.9 13.05-9.53 17.7-16.93 7.64-12.1 11.46-26.96 11.46-44.58 0-11.54-1.6-21.86-4.8-30.95-4.07-11.67-10.34-20.73-18.8-27.2-8.03-6.2-17-9.3-26.9-9.3zm-146.26 2.9V305h11.48v-54.74h19.94c13.23 0 23.4-2.32 30.47-6.96 10.1-6.65 15.15-16.74 15.15-30.3 0-8.5-1.98-15.66-5.93-21.43-4.2-6.02-9.87-10.2-17.02-12.5-5.02-1.64-12.14-2.46-21.35-2.46h-32.74zm220.3 0V305h11.46v-57.47h20.88c7.4 0 12.92.5 16.56 1.5 7.27 1.9 12.16 5.5 14.67 10.82 1.63 3.33 2.73 9.7 3.3 19.1.56 10.53 1.12 16.86 1.68 19 .5 2.44 1.4 4.8 2.65 7.05h12.98c-1.45-2.07-2.5-4.83-3.2-8.28-.63-3.45-1.22-9.65-1.8-18.62-.43-6.33-.96-11.13-1.6-14.4-1.05-5.95-2.75-10.3-5.07-13.07-3.26-3.88-7.9-6.42-13.92-7.6 4.96-1.4 9.13-3.65 12.5-6.8 6.8-6.38 10.17-14.94 10.17-25.66 0-7.4-1.56-13.6-4.7-18.62-3.82-6.15-9.37-10.48-16.64-13-4.5-1.55-10.6-2.34-18.25-2.34h-41.65zm94.9 0v9.98h37.33V305h11.46V186.58h37.34v-9.97h-86.15zm-170.16 7.07c12.23 0 21.98 5.4 29.25 16.18 7.2 10.66 10.82 24.48 10.82 41.47 0 9.28-1.16 17.72-3.48 25.3-3.27 10.6-8.22 18.6-14.87 24-6.27 5-13.33 7.5-21.17 7.5-5.64 0-10.84-1.3-15.6-3.94-6.03-3.32-10.86-8.02-14.5-14.1-6.26-10.6-9.4-23.83-9.4-39.7 0-16.93 3.67-30.6 11-41 7.34-10.48 16.65-15.7 27.94-15.7zm-133.56 2.9h20.32c5.14 0 8.8.14 11 .4 4.58.62 8.47 1.93 11.66 3.94 7.2 4.65 10.82 12.14 10.82 22.5 0 9.2-2.92 16.17-8.75 20.87-4.9 4-12.96 6.02-24.18 6.02h-20.88v-53.72zm220.28 0h29.82c8.9 0 15.4 1.52 19.47 4.53 5.84 4.32 8.75 10.97 8.75 19.94 0 9.66-2.97 16.87-8.93 21.63-4.45 3.45-12.04 5.17-22.76 5.17h-26.34v-51.26z"/><path fill="#e20074" d="M1009.22 252.88V305H826.5q.42-46.28 15.34-77.2 12.1-24.65 38.06-46.5 9.3-7.78 36.1-27.03 22.94-16.65 31.37-31.35 8.43-14.5 8.43-31.36 0-14.92-7.78-24.44-9.3-11.9-25.74-11.9-18.8 0-27.68 19.47-4.1 8.86-5.2 21.62h-57.5q2.37-36.98 22.7-62.28Q879.68 3.1 922.5 3.1q41.74 0 66.4 25.3 22.7 23.15 22.7 59.92 0 39.35-25.3 66.82-15.58 16.87-49.96 40.44-27.9 19.24-37.84 31.35-9.52 12.1-10.82 25.95z"/></svg>