<?xml version="1.0" encoding="utf-8"?>
<!-- Generator: Adobe Illustrator 27.0.0, SVG Export Plug-In . SVG Version: 6.00 Build 0)  -->
<svg version="1.2" baseProfile="tiny" id="Layer_1" xmlns="http://www.w3.org/2000/svg" xmlns:xlink="http://www.w3.org/1999/xlink"
	 x="0px" y="0px" viewBox="0 0 844 355" overflow="visible" xml:space="preserve">
<g>
	<path fill-rule="evenodd" fill="#00AEEF" d="M144.87,279.15l7.38-35.27h4.36l-4.58,21.85l12.7-12.13h5.74l-10.9,9.53l6.59,16.02
		h-4.76l-5.1-13.11l-5.31,4.59l-1.77,8.52H144.87L144.87,279.15z M169.46,279.15h4.35l2.29-10.97c0.66-3.16,1.4-5.48,2.24-6.96
		c0.78-1.39,1.89-2.51,3.3-3.35c1.42-0.85,2.93-1.27,4.54-1.27c2.24,0,3.37,0.94,3.37,2.84c0,0.61-0.23,2.02-0.7,4.23l-3.23,15.47
		h4.34l3.15-15.09c0.52-2.45,0.77-4.11,0.77-4.96c0-1.95-0.63-3.47-1.9-4.54c-1.2-1.03-2.8-1.54-4.79-1.54
		c-2.86,0-5.81,1.47-8.84,4.4l2.82-13.54h-4.35L169.46,279.15L169.46,279.15z M197.63,269.45c0-4.98,1.47-9.12,4.4-12.39
		c2.42-2.69,5.6-4.04,9.53-4.04c3.18,0,5.69,0.99,7.55,2.98c1.81,1.95,2.72,4.51,2.72,7.7c0,2.85-0.54,5.49-1.63,7.92
		c-1.22,2.68-2.94,4.7-5.16,6.06c-2.22,1.36-4.54,2.04-6.96,2.04c-4.31,0-7.36-1.63-9.14-4.89
		C198.07,273.29,197.63,271.49,197.63,269.45L197.63,269.45z M201.98,269.02c0,2.12,0.49,3.83,1.45,5.12
		c1.09,1.48,2.65,2.22,4.69,2.22c1.99,0,3.76-0.76,5.32-2.28c1.49-1.46,2.6-3.4,3.34-5.82c0.5-1.63,0.75-3.14,0.75-4.57
		c0-2.05-0.5-3.75-1.49-5.07c-1.1-1.48-2.65-2.22-4.64-2.22c-2.67,0-4.92,1.27-6.77,3.83C202.86,262.64,201.98,265.57,201.98,269.02
		L201.98,269.02z M205.55,250.5l6.37-6.62h4.81l2.99,6.62h-3.8l-1.95-4.31L210,250.5H205.55L205.55,250.5z M224.26,279.15
		l5.34-25.55h3.94l-0.94,4.45c3.29-3.36,6.42-5.03,9.39-5.03c1.99,0,3.58,0.53,4.76,1.59c1.26,1.11,1.88,2.64,1.88,4.6
		c0,0.99-0.21,2.49-0.62,4.48l-3.25,15.47h-4.36l3.4-16.19c0.34-1.6,0.51-2.77,0.51-3.48c0-1.91-1.14-2.87-3.42-2.87
		c-5.05,0-8.32,3.56-9.79,10.66l-2.49,11.88H224.26L224.26,279.15z M251.43,281.46l4.4,0.41c-0.05,1.73,0.51,2.86,1.66,3.39
		c0.79,0.35,1.81,0.53,3.05,0.53c2.64,0,4.54-0.68,5.67-2.04c0.76-0.9,1.45-2.88,2.09-5.96l0.44-2.07
		c-2.27,2.29-4.67,3.44-7.22,3.44c-2.95,0-5.24-1.12-6.88-3.34c-1.47-1.99-2.21-4.52-2.21-7.58c0-2.62,0.62-5.12,1.86-7.53
		c1.26-2.5,2.96-4.45,5.1-5.85c1.9-1.22,3.84-1.83,5.85-1.83c3.35,0,5.94,1.59,7.75,4.77l0.85-4.19h3.99l-5.15,24.66
		c-0.51,2.43-1.13,4.34-1.85,5.7c-0.99,1.86-2.38,3.24-4.16,4.16c-1.63,0.83-3.52,1.25-5.65,1.25c-4.27,0-7.14-1.03-8.61-3.1
		c-0.74-1.03-1.11-2.19-1.11-3.51C251.3,282.36,251.34,281.93,251.43,281.46L251.43,281.46z M256.86,267.84
		c0,1.77,0.17,3.08,0.51,3.94c0.98,2.54,2.65,3.8,5.03,3.8c1.73,0,3.31-0.63,4.74-1.9c1.23-1.09,2.22-2.51,2.96-4.26
		c0.87-2.1,1.3-4.11,1.3-6.01c0-1.93-0.52-3.53-1.56-4.81c-1.13-1.38-2.62-2.07-4.5-2.07c-2.21,0-4.16,1.15-5.85,3.44
		c-0.71,0.95-1.31,2.2-1.84,3.76C257.13,265.3,256.86,266.67,256.86,267.84L256.86,267.84z M292.76,279.15l5.34-25.55h3.94
		l-0.94,4.45c3.29-3.36,6.42-5.03,9.39-5.03c1.99,0,3.58,0.53,4.76,1.59c1.26,1.11,1.88,2.64,1.88,4.6c0,0.99-0.21,2.49-0.62,4.48
		l-3.25,15.47h-4.36l3.4-16.19c0.34-1.6,0.51-2.77,0.51-3.48c0-1.91-1.14-2.87-3.42-2.87c-5.05,0-8.32,3.56-9.79,10.66l-2.49,11.88
		H292.76L292.76,279.15z M319.92,281.46l4.4,0.41c-0.05,1.73,0.51,2.86,1.66,3.39c0.79,0.35,1.81,0.53,3.05,0.53
		c2.64,0,4.54-0.68,5.67-2.04c0.76-0.9,1.45-2.88,2.09-5.96l0.44-2.07c-2.27,2.29-4.66,3.44-7.22,3.44c-2.95,0-5.24-1.12-6.88-3.34
		c-1.47-1.99-2.21-4.52-2.21-7.58c0-2.62,0.62-5.12,1.86-7.53c1.26-2.5,2.96-4.45,5.1-5.85c1.9-1.22,3.84-1.83,5.86-1.83
		c3.35,0,5.94,1.59,7.75,4.77l0.85-4.19h3.99l-5.15,24.66c-0.51,2.43-1.13,4.34-1.85,5.7c-0.99,1.86-2.38,3.24-4.16,4.16
		c-1.63,0.83-3.52,1.25-5.65,1.25c-4.27,0-7.14-1.03-8.61-3.1c-0.74-1.03-1.11-2.19-1.11-3.51
		C319.8,282.36,319.84,281.93,319.92,281.46L319.92,281.46z M325.36,267.84c0,1.77,0.17,3.08,0.51,3.94c0.98,2.54,2.65,3.8,5.03,3.8
		c1.73,0,3.31-0.63,4.74-1.9c1.23-1.09,2.22-2.51,2.96-4.26c0.87-2.1,1.3-4.11,1.3-6.01c0-1.93-0.52-3.53-1.56-4.81
		c-1.13-1.38-2.62-2.07-4.5-2.07c-2.21,0-4.16,1.15-5.85,3.44c-0.71,0.95-1.31,2.2-1.84,3.76
		C325.62,265.3,325.36,266.67,325.36,267.84L325.36,267.84z M365,274.53c-3.08,3.45-6.22,5.17-9.4,5.17c-1.85,0-3.38-0.5-4.6-1.51
		c-1.33-1.06-2-2.5-2-4.31c0-1.08,0.27-2.93,0.82-5.53l3.08-14.75h4.33l-3.42,16.33c-0.29,1.38-0.44,2.44-0.44,3.18
		c0,2.04,1.17,3.05,3.49,3.05c2.54,0,4.73-1.1,6.59-3.3c0.81-1.01,1.49-2.2,2.02-3.58c0.39-0.96,0.8-2.51,1.22-4.65l2.32-11.04h4.38
		l-0.48,2.26c0.76-0.57,1.29-1.6,1.61-3.08h-1.85l0.72-3.39h3.39l-0.62,2.96c-0.6,2.82-1.79,4.53-3.59,5.1l-4.55,21.7h-4.02
		L365,274.53L365,274.53z M361.9,250.47h3.39l-2.78-6.62h-5.3L361.9,250.47L361.9,250.47z M374.96,279.15h4.35l2.49-11.88
		c1.47-7.1,4.74-10.66,9.79-10.66c2.27,0,3.42,0.95,3.42,2.87c0,0.72-0.17,1.88-0.51,3.48l-3.4,16.19h4.36l3.25-15.47
		c0.42-1.99,0.62-3.48,0.62-4.48c0-1.95-0.62-3.49-1.88-4.6c-1.18-1.06-2.78-1.59-4.76-1.59c-2.96,0-6.09,1.68-9.39,5.03l0.94-4.45
		h-3.94L374.96,279.15L374.96,279.15z M402.13,281.46l4.4,0.41c-0.05,1.73,0.51,2.86,1.66,3.39c0.79,0.35,1.81,0.53,3.05,0.53
		c2.64,0,4.54-0.68,5.67-2.04c0.76-0.9,1.45-2.88,2.09-5.96l0.44-2.07c-2.27,2.29-4.67,3.44-7.22,3.44c-2.95,0-5.24-1.12-6.88-3.34
		c-1.47-1.99-2.21-4.52-2.21-7.58c0-2.62,0.62-5.12,1.86-7.53c1.26-2.5,2.96-4.45,5.1-5.85c1.9-1.22,3.84-1.83,5.85-1.83
		c3.35,0,5.94,1.59,7.75,4.77l0.85-4.19h3.99l-5.15,24.66c-0.51,2.43-1.13,4.34-1.85,5.7c-0.99,1.86-2.38,3.24-4.16,4.16
		c-1.63,0.83-3.52,1.25-5.65,1.25c-4.27,0-7.14-1.03-8.61-3.1c-0.74-1.03-1.11-2.19-1.11-3.51
		C402,282.36,402.05,281.93,402.13,281.46L402.13,281.46z M407.56,267.84c0,1.77,0.17,3.08,0.51,3.94c0.98,2.54,2.65,3.8,5.03,3.8
		c1.73,0,3.31-0.63,4.74-1.9c1.23-1.09,2.22-2.51,2.96-4.26c0.87-2.1,1.3-4.11,1.3-6.01c0-1.93-0.52-3.53-1.56-4.81
		c-1.13-1.38-2.62-2.07-4.5-2.07c-2.21,0-4.16,1.15-5.85,3.44c-0.71,0.95-1.31,2.2-1.84,3.76
		C407.83,265.3,407.56,266.67,407.56,267.84L407.56,267.84z M449.9,279.15l-4.19-25.55h4.25l2.18,14.07
		c0.25,1.56,0.54,4.07,0.89,7.54c0.85-1.83,1.91-3.92,3.19-6.24l8.55-15.36h4.6l-14.63,25.55H449.9L449.9,279.15z M485.54,274.53
		c-3.08,3.45-6.22,5.17-9.4,5.17c-1.85,0-3.38-0.5-4.6-1.51c-1.33-1.06-2-2.5-2-4.31c0-1.08,0.27-2.93,0.82-5.53l3.08-14.75h4.33
		l-3.42,16.33c-0.29,1.38-0.44,2.44-0.44,3.18c0,2.04,1.17,3.05,3.49,3.05c2.54,0,4.73-1.1,6.59-3.3c0.81-1.01,1.49-2.2,2.02-3.58
		c0.39-0.96,0.8-2.51,1.22-4.65l2.32-11.04h4.38l-0.48,2.26c0.76-0.57,1.29-1.6,1.61-3.08h-1.85l0.72-3.39h3.39l-0.62,2.96
		c-0.6,2.82-1.79,4.53-3.59,5.1l-4.55,21.7h-4.02L485.54,274.53L485.54,274.53z M500.6,269.02c0,2.08,0.48,3.79,1.45,5.12
		c1.11,1.47,2.67,2.21,4.69,2.21c1.96,0,3.73-0.76,5.32-2.28c1.5-1.46,2.62-3.4,3.34-5.82c0.5-1.6,0.75-3.13,0.75-4.57
		c0-2.07-0.5-3.76-1.49-5.07c-1.09-1.48-2.64-2.21-4.64-2.21c-2.66,0-4.92,1.27-6.76,3.82C501.48,262.67,500.6,265.61,500.6,269.02
		L500.6,269.02z M516.69,252.78h1.86c-0.24,1.23-0.66,2.16-1.25,2.77c-1.83-1.68-4.2-2.53-7.13-2.53c-3.92,0-7.1,1.35-9.52,4.05
		c-2.92,3.28-4.38,7.42-4.38,12.38c0,2.02,0.43,3.82,1.27,5.39c1.8,3.24,4.85,4.85,9.15,4.85c2.46,0,4.8-0.67,6.97-2.02
		c2.2-1.36,3.92-3.38,5.15-6.06c1.09-2.39,1.63-5.03,1.63-7.92c0-2.93-0.75-5.32-2.26-7.17c0.96-0.91,1.63-2.31,2.02-4.19l0.6-2.96
		h-3.39L516.69,252.78L516.69,252.78z M522.9,279.15l5.34-25.55h3.94l-0.94,4.45c3.29-3.36,6.42-5.03,9.39-5.03
		c1.99,0,3.58,0.53,4.76,1.59c1.26,1.11,1.88,2.64,1.88,4.6c0,0.99-0.21,2.49-0.62,4.48l-3.25,15.47h-4.36l3.4-16.19
		c0.34-1.6,0.51-2.77,0.51-3.48c0-1.91-1.14-2.87-3.42-2.87c-5.05,0-8.32,3.56-9.79,10.66l-2.49,11.88H522.9L522.9,279.15z
		 M562.28,279.15l11.11-12.97l-6.37-12.58h4.81l2.17,4.55c0.76,1.59,1.47,3.21,2.16,4.88l7.37-9.43h5.31l-10.72,12.92l6.45,12.63
		h-4.82l-2.55-5.2c-0.56-1.14-1.18-2.51-1.86-4.11l-7.6,9.31H562.28L562.28,279.15z M605.85,275.97c-2.9,2.5-5.85,3.75-8.83,3.75
		c-2.27,0-4.15-0.66-5.61-1.97c-1.5-1.36-2.26-3.18-2.26-5.44c0-2.82,1.19-4.98,3.56-6.45c1.06-0.64,2.37-1.12,3.94-1.42
		c0.82-0.16,2.77-0.3,5.85-0.44c2.53-0.12,4.4-0.43,5.6-0.89c0.34-1.19,0.51-2.18,0.51-2.96c0-2.39-1.85-3.58-5.53-3.58
		c-3.58,0-5.92,1.55-7.03,4.66l-4.4-0.39c1.86-5.23,5.74-7.84,11.64-7.84c3.15,0,5.65,0.76,7.51,2.26c1.41,1.14,2.12,2.6,2.12,4.38
		c0,1.36-0.2,2.94-0.6,4.74l-1.42,6.35c-0.45,2.01-0.68,3.65-0.68,4.94c0,0.81,0.18,1.95,0.53,3.47h-4.4
		C606.11,278.31,605.94,277.26,605.85,275.97L605.85,275.97z M607.46,266.21c-1.04,0.42-2.87,0.74-5.47,0.96
		c-2.05,0.17-3.44,0.35-4.16,0.53c-1.72,0.39-2.9,1.04-3.56,1.98c-0.53,0.75-0.8,1.59-0.8,2.5c0,1.36,0.49,2.42,1.45,3.18
		c0.88,0.67,2.02,1.01,3.42,1.01c1.51,0,2.92-0.39,4.24-1.18c1.31-0.78,2.35-1.85,3.1-3.19
		C606.43,270.65,607.03,268.72,607.46,266.21z"/>
	<g>
		<path fill-rule="evenodd" fill="#00AEEF" d="M112.43,152.28l-25.34,67.48H70.13l-25.26-67.48H61.8l16.81,45.88l16.82-45.88H112.43
			L112.43,152.28z M137.47,144.09H120.6v-17.08h16.88V144.09L137.47,144.09z M137.47,219.76H120.6v-67.61h16.88V219.76
			L137.47,219.76z M272.36,219.86h-15.99c-0.51-2.11-1.03-3.86-1.6-6.45c-3.99,4.34-10.34,6.5-19.06,6.5
			c-6.02,0-11.01-1.38-14.89-4.13c-4.56-3.22-6.84-7.9-6.84-14.05c0-8.8,3.45-14.87,10.41-18.17c3.19-1.54,9.69-2.92,19.51-4.12
			c6.93-0.9,10.42-2.74,10.42-5.58c0-2.51-1.06-4.51-3.14-6c-2.09-1.49-4.52-2.25-7.31-2.25c-2.87,0-5.31,0.77-7.35,2.32
			c-2.3,1.67-3.61,4.06-3.92,7.13h-16.42c0.39-5.23,1.63-9.48,3.7-12.69c2.09-3.22,5.45-5.72,10.1-7.49
			c4.32-1.62,9.19-2.43,14.66-2.43c18.48,0.16,27.72,8.93,27.72,26.31V219.86L272.36,219.86z M254.07,187.07
			c-1.7,1.38-4.69,2.47-8.99,3.28c-4.88,0.91-8.03,1.76-9.49,2.57c-2.99,1.53-4.51,4.2-4.51,8c0,4.87,2.57,7.28,7.67,7.28
			c2.35,0,4.77-0.53,7.31-1.63c2.5-1.1,4.4-2.4,5.7-3.94c1.7-2.1,2.57-5.22,2.57-9.34c0-0.75-0.06-1.79-0.14-3.17
			C254.12,188.74,254.07,187.71,254.07,187.07L254.07,187.07z M348.63,186.82c0,9.05-2.22,16.56-6.68,22.5
			c-5.15,6.83-12.51,10.27-22.06,10.36h-0.13c-8.57,0-15.34-3.31-21.58-9.98v27.1h-17.04v-84.26h16.83c0,0-0.09,9.82,0,9.91
			c0,0,8.79-9.84,20.47-9.84c5.82,0,11.26,1.59,16.26,4.75c5.02,3.2,8.59,7.21,10.73,12.1
			C347.57,174.35,348.63,180.14,348.63,186.82L348.63,186.82z M329.76,186.82c0-12.95-5.3-19.47-15.85-19.47
			c-10.31,0-15.46,6.82-15.46,20.4c0,5.7,1.63,10.24,4.86,13.64c2.98,3.09,6.54,4.62,10.75,4.62c4.26,0,7.84-1.59,10.7-4.74
			C328.1,197.73,329.76,192.91,329.76,186.82L329.76,186.82z M416.13,219.92H398.8v-41.52c0-4.46-0.72-7.61-2.15-9.47
			c-1.72-2.16-4.73-3.22-9.03-3.22c-4.21,0-7.51,1.39-9.8,4.18c-2.31,2.8-3.48,6.31-3.48,10.54v39.48h-17.31v-92.95h17.31v34.72
			c1.32-2.8,3.75-5.07,7.32-6.73c3.6-1.72,7.55-2.56,11.87-2.56c6.19,0,11.36,1.6,15.51,4.79c4.73,3.65,7.1,8.89,7.1,15.65V219.92
			L416.13,219.92z M559.76,219.92h-17.32v-41.52c0-4.46-0.72-7.61-2.16-9.47c-1.72-2.16-4.72-3.22-9.03-3.22
			c-4.21,0-7.49,1.39-9.8,4.18c-2.3,2.8-3.47,6.31-3.47,10.54v39.48h-17.31v-67.64h17.31v9.41c1.31-2.8,3.75-5.07,7.33-6.73
			c3.58-1.72,7.53-2.56,11.86-2.56c6.19,0,11.34,1.6,15.51,4.79c4.73,3.65,7.08,8.89,7.08,15.65V219.92L559.76,219.92z
			 M205.02,219.92H187.7v-41.52c0-4.46-0.72-7.61-2.16-9.47c-1.72-2.16-4.73-3.22-9.03-3.22c-4.21,0-7.5,1.39-9.8,4.18
			c-2.3,2.8-3.48,6.31-3.48,10.54v39.48h-17.31v-67.64h17.31v9.41c1.32-2.8,3.76-5.07,7.33-6.73c3.59-1.72,7.54-2.56,11.87-2.56
			c6.17,0,11.34,1.6,15.5,4.79c4.74,3.65,7.1,8.89,7.1,15.65V219.92L205.02,219.92z M627.7,190.45h-43.29
			c0.39,5.26,2.05,9.33,4.97,12.21c2.51,2.38,5.57,3.56,9.17,3.56c2.66,0,5.08-0.62,7.19-1.9c2.12-1.28,3.51-3,4.14-5.17h16.96
			c-1.87,6.52-5.25,11.55-10.14,15.13c-4.86,3.56-10.64,5.36-17.34,5.36c-20.99,0-31.47-11.65-31.47-34.97
			c0-9.83,2.66-17.69,7.95-23.6c5.32-5.88,12.76-8.84,22.36-8.84C617.86,152.23,627.7,165,627.7,190.45L627.7,190.45z
			 M610.72,179.76c-0.42-4.31-1.84-7.71-4.32-10.21c-2.47-2.46-5.33-3.72-8.56-3.72c-3.14,0-5.86,1.18-8.12,3.49
			c-2.53,2.47-4.1,5.98-4.73,10.45H610.72z"/>
		<path fill-rule="evenodd" fill="#00AEEF" d="M492.03,186.03c0,10.28-3,18.51-9.02,24.7c-6.02,6.2-14.17,9.28-24.46,9.28
			c-10.46,0-18.73-3.13-24.77-9.41c-6.07-6.26-9.08-14.45-9.08-24.57c0-10.17,2.99-18.41,9-24.67c6.01-6.28,14.3-9.41,24.85-9.41
			c10.55,0,18.81,3.2,24.84,9.58C489.15,167.76,492.03,175.92,492.03,186.03L492.03,186.03z M474.35,185.98
			c0-13.19-5.28-19.75-15.84-19.75c-10.63,0-15.97,6.56-15.97,19.75c0,13.17,5.33,19.76,15.97,19.76
			C469.07,205.74,474.35,199.15,474.35,185.98L474.35,185.98z M797.71,115.31c-2.95,3.75-6.77,6.7-11.15,8.53
			c-4.4,1.82-9.13,1.63-13.78,1.82c-30.72,1.28-39.33,19.47-43.69,43.94c-0.75,4.19-2.66,8.32-5.25,11.67
			c-2.89,3.66-6.85,6.38-11.3,7.7c-5.01,1.49-10.36,0.93-15.49,1.72c-4.81,0.75-9.83,2.26-13.1,6.14
			c-3.48,4.13-3.91,11.47-2.91,16.58c1.12,5.56-0.11,11.56-3.82,16.27c-2.24,2.89-5.14,4.88-8.26,6.01
			c-1.94,0.72-4.03,1.14-6.22,1.14c-10.26,0-18.57-8.64-18.57-19.3c0-1.74,0.23-3.42,0.65-5.03c0.64-2.7,1.83-5.29,3.62-7.56
			c1.27-1.62,2.8-3.06,4.54-4.17c6.29-4.05,14.48-2.3,20.6-6.77c3.68-2.71,5.84-7.57,6.96-12.37c0.74-2.14,1.13-4.59,1.13-7.36
			c0-5.16-1.18-10.9-2.99-15.69c-7.34-19.32-30.32-29.2-49.31-31.76c-5.42-0.72-10.96-0.57-16.36-0.88h-0.01
			c-2.22,0-4.39-0.23-6.47-0.69c-4.93-0.83-9.61-2.52-13.85-6.17c-12.97-11.17-15.49-30.74-6.2-44.95c0.02-0.02,0.05-0.05,0.07-0.08
			c0.25-0.38,0.5-0.76,0.77-1.12c0.16-0.23,0.33-0.46,0.49-0.68c0.12-0.16,0.22-0.32,0.36-0.47c0.02-0.02,0.03-0.06,0.06-0.08
			c5.85-7.47,14.79-12.23,24.77-12.23c2.07,0,4,0.25,5.91,0.67c5.12,1.02,10.11,3.36,14.43,7.07c7.19,6.17,9.3,14.33,12.13,23.06
			c5.36,16.57,16.33,36.15,30.51,46.42c7.54,5.47,16.67,8.44,25.96,8.44c19.09,0,35.1-11.02,42.22-28.51
			c1.66-4.03,2.86-8.23,3.62-12.52c0.83-4.61,0.5-9.34,1.51-13.96c0.93-4.28,2.71-8.4,5.4-11.85c5.49-6.98,13.45-10.57,21.46-10.57
			c0.08,0,0.13,0,0.21,0c14.73,0,26.77,11.69,27.51,26.4C804.53,101.49,802.53,109.14,797.71,115.31z"/>
	</g>
</g>
</svg>
