<?xml version="1.0" encoding="UTF-8"?>
<svg id="_Слой_1" data-name="Слой 1" xmlns="http://www.w3.org/2000/svg" width="500" height="84" viewBox="0 0 500 84">
  <defs>
    <style>
      .cls-1 {
        fill: #f58220;
      }

      .cls-1, .cls-2 {
        stroke-width: 0px;
      }

      .cls-2 {
        fill: #8a8c8e;
      }
    </style>
  </defs>
  <g>
    <path class="cls-2" d="M17.2,8.1c-1.14.95-1.46,1.86-1.58,2.76-.75,5.63,1.04,11.86,3.01,16.71,1.98,4.87,4.95,10.62,8.37,13.78,3.42,3.15,5.57,2.34,8.07.22,2.49-2.12,6.34-7.66,9.53-12.54,3.19-4.89,5.25-8.46,9.55-14.16,4.28-5.71,6.48-7.1,7.56-7.64,1.07-.54,1.84-.88,3.16-.42-.05-.05-.11-.09-.15-.12C58.16,2.46,50.35,0,41.98,0c-9.28,0-17.83,3.01-24.78,8.1"/>
    <path class="cls-1" d="M10.09,14.66C3.79,22,0,31.55,0,41.99c0,23.2,18.8,42.01,41.98,42.01s41.98-18.81,41.98-42.01c0-11.63-4.73-22.14-12.34-29.75-.07-.07-1.38-1.56-3.92.68-2.3,2.05-3.38,3.49-5.4,6.1-2.03,2.62-8.12,12.47-13.11,21.53-5,9.07-9.19,16.29-11.82,18.86-2.61,2.57-5.14,4.83-10.02.28-4.9-4.54-10-12.2-13.36-20.48-7.66-18.7-3.9-24.55-3.9-24.55"/>
    <path class="cls-1" d="M102.29,31.58h16.71l15.68,26.11,16.11-26.11h16.61l-21.6,32.63c-1.97,3.07-5.61,4.6-10.91,4.6s-9.03-1.53-11-4.6l-21.61-32.63Z"/>
  </g>
  <rect class="cls-1" x="170.52" y="31.58" width="15.8" height="36.72"/>
  <g>
    <path class="cls-1" d="M189.43,31.58h16.71l15.69,26.11,16.11-26.11h16.62l-21.61,32.63c-1.97,3.07-5.62,4.6-10.91,4.6s-9.04-1.53-11.01-4.6l-21.6-32.63Z"/>
    <path class="cls-1" d="M308.15,68.3h-16.71l-15.7-26.11-16.11,26.11h-16.6l21.62-32.64c1.97-3.07,5.61-4.59,10.9-4.59s9.04,1.53,11.02,4.59l21.6,32.64Z"/>
    <path class="cls-2" d="M310.66,59.78v-19.25c0-3.2,1.58-5.92,3.89-7.43,2.28-1.53,3.85-1.47,6.73-1.47h37.34v7.84h-29.45c-1.63,0-2.73,1.31-2.73,2.62v15.64c0,1.31,1.17,2.62,2.67,2.62h29.5v7.95h-38.93c-2.33,0-3.79-.5-5.57-1.8-1.89-1.37-3.46-4.01-3.46-6.71"/>
    <path class="cls-2" d="M414.45,33.1c-2.32-1.53-3.88-1.48-6.75-1.48h-30.41c-2.87,0-4.45-.04-6.72,1.48-2.32,1.52-3.89,4.23-3.89,7.44v19.25c0,2.7,1.57,5.34,3.47,6.71,1.77,1.31,3.22,1.81,5.55,1.81h33.59c2.34,0,3.79-.5,5.56-1.81,1.91-1.37,3.47-4.01,3.47-6.71v-19.25c0-3.21-1.57-5.92-3.86-7.44M402.52,57.72c0,1.31-1.17,2.62-2.66,2.62h-14.73c-1.49,0-2.66-1.32-2.66-2.62v-15.64c0-1.31,1.08-2.62,2.72-2.62h14.61c1.64,0,2.73,1.31,2.73,2.62v15.64Z"/>
    <path class="cls-2" d="M496.39,32.95c-2.51-1.29-5.89-1.95-9.56-1.91-5.2.09-10.19,2.03-11.64,5.07-5.32,11.15-11.14,23.2-11.14,23.2h0s-.01,0-.01,0c0,0-5.81-12.05-11.14-23.2-1.45-3.04-6.44-4.98-11.64-5.07-3.66-.04-7.05.62-9.56,1.91-2.52,1.3-3.61,3.04-3.61,5.08v30.27h15.08v-26.28l10.45,21.81c1.71,3.31,5.17,4.98,10.39,4.98h.06c5.22,0,8.7-1.67,10.39-4.98l10.46-21.81v26.28h15.08v-30.27c0-2.04-1.08-3.78-3.61-5.08"/>
  </g>
</svg>