<?xml version="1.0" encoding="UTF-8" standalone="no"?>
<!-- Created with Inkscape (http://www.inkscape.org/) -->

<svg
   version="1.1"
   id="svg1836"
   width="469.32336"
   height="287.06406"
   viewBox="0 0 469.32336 287.06406"
   sodipodi:docname="Logo of Vodafone (SIM-format, 2005).svg"
   inkscape:version="1.2.2 (b0a8486541, 2022-12-01)"
   xmlns:inkscape="http://www.inkscape.org/namespaces/inkscape"
   xmlns:sodipodi="http://sodipodi.sourceforge.net/DTD/sodipodi-0.dtd"
   xmlns="http://www.w3.org/2000/svg"
   xmlns:svg="http://www.w3.org/2000/svg">
  <defs
     id="defs1840">
    <clipPath
       clipPathUnits="userSpaceOnUse"
       id="clipPath1856">
      <path
         d="M 0,0 H 352 V 216 H 0 Z"
         id="path1854" />
    </clipPath>
    <clipPath
       clipPathUnits="userSpaceOnUse"
       id="clipPath1870">
      <path
         d="M 0,0 H 352 V 216 H 0 Z"
         id="path1868" />
    </clipPath>
    <clipPath
       clipPathUnits="userSpaceOnUse"
       id="clipPath1884">
      <path
         d="M 0,0 H 352 V 216 H 0 Z"
         id="path1882" />
    </clipPath>
    <clipPath
       clipPathUnits="userSpaceOnUse"
       id="clipPath1898">
      <path
         d="M 0,0 H 352 V 216 H 0 Z"
         id="path1896" />
    </clipPath>
    <clipPath
       clipPathUnits="userSpaceOnUse"
       id="clipPath1912">
      <path
         d="M 0,0 H 352 V 216 H 0 Z"
         id="path1910" />
    </clipPath>
    <clipPath
       clipPathUnits="userSpaceOnUse"
       id="clipPath1926">
      <path
         d="M 0,0 H 352 V 216 H 0 Z"
         id="path1924" />
    </clipPath>
    <clipPath
       clipPathUnits="userSpaceOnUse"
       id="clipPath1940">
      <path
         d="M 0,0 H 352 V 216 H 0 Z"
         id="path1938" />
    </clipPath>
    <clipPath
       clipPathUnits="userSpaceOnUse"
       id="clipPath1954">
      <path
         d="M 0,0 H 352 V 216 H 0 Z"
         id="path1952" />
    </clipPath>
    <clipPath
       clipPathUnits="userSpaceOnUse"
       id="clipPath1968">
      <path
         d="M 0,0 H 352 V 216 H 0 Z"
         id="path1966" />
    </clipPath>
    <clipPath
       clipPathUnits="userSpaceOnUse"
       id="clipPath1982">
      <path
         d="M 0,0 H 352 V 216 H 0 Z"
         id="path1980" />
    </clipPath>
  </defs>
  <sodipodi:namedview
     id="namedview1838"
     pagecolor="#ffffff"
     bordercolor="#000000"
     borderopacity="0.25"
     inkscape:showpageshadow="2"
     inkscape:pageopacity="0.0"
     inkscape:pagecheckerboard="0"
     inkscape:deskcolor="#d1d1d1"
     showgrid="false"
     inkscape:zoom="2.8147028"
     inkscape:cx="234.83829"
     inkscape:cy="143.53203"
     inkscape:window-width="1866"
     inkscape:window-height="1011"
     inkscape:window-x="0"
     inkscape:window-y="0"
     inkscape:window-maximized="1"
     inkscape:current-layer="g1844">
    <inkscape:page
       x="0"
       y="0"
       id="page1842"
       width="469.32336"
       height="287.06406" />
  </sodipodi:namedview>
  <g
     id="g1844"
     inkscape:groupmode="layer"
     inkscape:label="Page 1"
     transform="matrix(1.3333333,0,0,1.3333333,0,2.5099352e-6)">
    <g
       id="g1846">
      <g
         id="g1848">
        <g
           id="g1850">
          <g
             id="g1852"
             clip-path="url(#clipPath1856)">
            <g
               id="g1858">
              <path
                 d="m 329.777,210.168 c 9.438,0 17.086,-7.648 17.086,-17.086 V 22.215 c 0,-9.438 -7.648,-17.09 -17.086,-17.09 H 22.211 c -9.434,0 -17.086,7.652 -17.086,17.09 v 153.781 l 34.176,34.172 h 290.476"
                 style="fill:#be0027;fill-opacity:1;fill-rule:nonzero;stroke:none"
                 id="path1860" />
            </g>
          </g>
        </g>
      </g>
      <g
         id="g1862">
        <g
           id="g1864">
          <g
             id="g1866"
             clip-path="url(#clipPath1870)">
            <g
               id="g1872">
              <path
                 d="m 197.895,31.277 c -9.333,2.067 -16.36,10.364 -16.36,20.321 0,0.207 0.035,0.472 0.051,0.687 14.766,3.137 22.203,13.094 22.203,26.231 0,14.757 -12.07,26.726 -26.805,26.726 -14.734,0 -28.488,-12.312 -28.488,-30.57 0,-22.293 19.059,-43.18 46.254,-43.856 0.492,0 1.266,0 2.066,0.051 -5.98,-2.281 -12.5,-3.527 -19.289,-3.527 -29.172,0 -52.824,22.906 -52.824,51.176 0,28.269 23.652,51.175 52.824,51.175 29.164,0 52.809,-22.906 52.809,-51.175 0,-21.274 -13.387,-39.504 -32.441,-47.239"
                 style="fill:#ffffff;fill-opacity:1;fill-rule:nonzero;stroke:none"
                 id="path1874" />
            </g>
          </g>
        </g>
      </g>
      <g
         id="g1876">
        <g
           id="g1878">
          <g
             id="g1880"
             clip-path="url(#clipPath1884)">
            <g
               id="g1886">
              <path
                 d="m 62.742,155.859 -7.558,21.953 -7.743,-21.953 h -9.535 l 11.793,32.102 h 10.477 l 11.867,-32.102 h -9.301"
                 style="fill:#ffffff;fill-opacity:1;fill-rule:nonzero;stroke:none"
                 id="path1888" />
            </g>
          </g>
        </g>
      </g>
      <g
         id="g1890">
        <g
           id="g1892">
          <g
             id="g1894"
             clip-path="url(#clipPath1898)">
            <g
               id="g1900">
              <path
                 d="m 137.465,142.773 v 15.758 c -0.012,-0.008 -0.027,-0.023 -0.039,-0.031 -2.637,-1.945 -5.871,-3.16 -9.356,-3.16 -8.875,0 -16.07,7.41 -16.07,16.555 0,9.14 7.195,16.554 16.07,16.554 3.508,0 6.754,-1.156 9.395,-3.125 v 2.68 h 8.258 v -45.231 z m -16.985,29.18 c 0,-4.793 3.887,-8.672 8.676,-8.672 4.789,0 8.672,3.879 8.672,8.672 0,4.793 -3.883,8.672 -8.672,8.672 -4.789,0 -8.676,-3.879 -8.676,-8.672"
                 style="fill:#ffffff;fill-opacity:1;fill-rule:nonzero;stroke:none"
                 id="path1902" />
            </g>
          </g>
        </g>
      </g>
      <g
         id="g1904">
        <g
           id="g1906">
          <g
             id="g1908"
             clip-path="url(#clipPath1912)">
            <g
               id="g1914">
              <path
                 d="m 176.711,155.898 v 2.633 c -0.023,-0.008 -0.039,-0.023 -0.051,-0.031 -2.633,-1.945 -5.859,-3.16 -9.348,-3.16 -8.871,0 -16.066,7.41 -16.066,16.555 0,9.14 7.195,16.554 16.066,16.554 3.508,0 6.75,-1.156 9.399,-3.125 v 2.68 h 8.246 v -32.106 z m -16.988,16.055 c 0,-4.793 3.882,-8.672 8.675,-8.672 4.79,0 8.672,3.879 8.672,8.672 0,4.793 -3.882,8.672 -8.672,8.672 -4.793,0 -8.675,-3.879 -8.675,-8.672"
                 style="fill:#ffffff;fill-opacity:1;fill-rule:nonzero;stroke:none"
                 id="path1916" />
            </g>
          </g>
        </g>
      </g>
      <g
         id="g1918">
        <g
           id="g1920">
          <g
             id="g1922"
             clip-path="url(#clipPath1926)">
            <g
               id="g1928">
              <path
                 d="m 207.441,155.898 h -4.937 c 0,0 -0.024,-1.031 -0.024,-1.953 0,-2.031 0,-4.617 3.243,-4.617 0.832,0 1.632,0.141 1.632,0.141 v -7.473 c 0,0 -1.359,-0.031 -2.281,0.008 -7.586,0.293 -10.926,2.887 -10.926,10.461 v 3.433 h -3.683 v 7.399 h 3.683 v 24.66 h 8.356 v -24.66 h 4.937 v -7.399"
                 style="fill:#ffffff;fill-opacity:1;fill-rule:nonzero;stroke:none"
                 id="path1930" />
            </g>
          </g>
        </g>
      </g>
      <g
         id="g1932">
        <g
           id="g1934">
          <g
             id="g1936"
             clip-path="url(#clipPath1940)">
            <g
               id="g1942">
              <path
                 d="m 257.379,158.695 c 2.344,-2.14 5.769,-3.472 9.441,-3.472 7.563,0 11.891,4.824 11.918,11.179 v 21.559 h -8.519 v -18.738 c 0,-4.719 -3.281,-6.149 -5.887,-6.149 -2.394,0 -6.969,1.317 -6.711,7.074 v 17.813 h -8.523 v -32.066 h 8.281 v 2.8"
                 style="fill:#ffffff;fill-opacity:1;fill-rule:nonzero;stroke:none"
                 id="path1944" />
            </g>
          </g>
        </g>
      </g>
      <g
         id="g1946">
        <g
           id="g1948">
          <g
             id="g1950"
             clip-path="url(#clipPath1954)">
            <g
               id="g1956">
              <path
                 d="m 308.52,168.234 c -0.715,-3.632 -3.77,-5.73 -7.481,-5.73 -3.828,0 -6.828,2.23 -7.687,5.711 z m -15.387,6.207 c 0.402,4.036 3.773,6.973 7.906,6.973 3.258,0 5.414,-1.289 6.691,-3.621 h 8.926 c -1.437,4.988 -7.051,10.645 -15.332,10.645 -9.965,0 -16.992,-7.422 -16.992,-16.579 0,-9.148 7.535,-16.574 16.992,-16.574 9.461,0 16.199,8.067 16.199,16.574 0,1.778 -0.207,2.571 -0.207,2.571 l -24.183,0.008"
                 style="fill:#ffffff;fill-opacity:1;fill-rule:nonzero;stroke:none"
                 id="path1958" />
            </g>
          </g>
        </g>
      </g>
      <g
         id="g1960">
        <g
           id="g1962">
          <g
             id="g1964"
             clip-path="url(#clipPath1968)">
            <g
               id="g1970">
              <path
                 d="m 96.395,156.352 c -3.047,0.668 -5.344,3.382 -5.344,6.628 0,0.071 0.015,0.153 0.019,0.215 4.821,1.032 7.254,4.285 7.254,8.567 0,4.816 -3.937,8.722 -8.758,8.722 -4.812,0 -9.312,-4.019 -9.312,-9.976 0,-7.27 6.23,-14.094 15.117,-14.309 0.16,-0.004 0.418,0 0.672,0.012 -1.953,-0.734 -4.074,-1.141 -6.301,-1.141 -9.535,0 -17.262,7.473 -17.262,16.696 0,9.222 7.727,16.699 17.262,16.699 9.531,0 17.266,-7.477 17.266,-16.699 0,-6.942 -4.383,-12.891 -10.613,-15.411"
                 style="fill:#ffffff;fill-opacity:1;fill-rule:nonzero;stroke:none"
                 id="path1972" />
            </g>
          </g>
        </g>
      </g>
      <g
         id="g1974">
        <g
           id="g1976">
          <g
             id="g1978"
             clip-path="url(#clipPath1982)">
            <g
               id="g1984">
              <path
                 d="m 226.562,155.203 c -9.539,0 -17.257,7.477 -17.257,16.699 0,6.938 4.371,12.891 10.601,15.41 3.051,-0.667 5.344,-3.382 5.344,-6.624 0,-0.071 -0.02,-0.153 -0.02,-0.223 -4.816,-1.027 -7.25,-4.277 -7.25,-8.563 0,-4.816 3.942,-8.722 8.754,-8.722 4.813,0 9.309,4.019 9.309,9.976 0,7.274 -6.227,14.094 -15.105,14.309 -0.168,0.008 -0.418,0 -0.68,-0.012 1.949,0.742 4.074,1.149 6.304,1.149 9.532,0 17.258,-7.477 17.258,-16.7 0,-9.222 -7.726,-16.699 -17.258,-16.699"
                 style="fill:#ffffff;fill-opacity:1;fill-rule:nonzero;stroke:none"
                 id="path1986" />
            </g>
          </g>
        </g>
      </g>
    </g>
  </g>
</svg>
