<?xml version="1.0" encoding="UTF-8" standalone="no"?>
<!-- Created with Inkscape (http://www.inkscape.org/) -->
<svg
   xmlns:svg="http://www.w3.org/2000/svg"
   xmlns="http://www.w3.org/2000/svg"
   version="1.0"
   width="1062.9921"
   height="682.19757"
   id="svg2">
  <defs
     id="defs4">
    <clipPath
       id="clipPath2714">
      <path
         d="M 0.015,898.59 L 2154.345,898.59 L 2154.345,0 L 0.015,0 L 0.015,898.59 z"
         id="path2716" />
    </clipPath>
    <clipPath
       id="clipPath2706">
      <path
         d="M 19.677,878.449 L 2134.323,878.449 L 2134.323,19.551 L 19.677,19.551 L 19.677,878.449 z"
         id="path2708" />
    </clipPath>
    <clipPath
       id="clipPath2698">
      <path
         d="M 0.015,898.59 L 2154.345,898.59 L 2154.345,0 L 0.015,0 L 0.015,898.59 z"
         id="path2700" />
    </clipPath>
    <clipPath
       id="clipPath2690">
      <path
         d="M 19.677,878.449 L 2134.323,878.449 L 2134.323,19.551 L 19.677,19.551 L 19.677,878.449 z"
         id="path2692" />
    </clipPath>
    <clipPath
       id="clipPath2622">
      <path
         d="M 0.015,898.59 L 2154.345,898.59 L 2154.345,0 L 0.015,0 L 0.015,898.59 z"
         id="path2624" />
    </clipPath>
    <clipPath
       id="clipPath2614">
      <path
         d="M 19.677,878.449 L 2134.323,878.449 L 2134.323,19.551 L 19.677,19.551 L 19.677,878.449 z"
         id="path2616" />
    </clipPath>
    <clipPath
       id="clipPath2606">
      <path
         d="M 1420.837,868.685 L 1520.05,868.685 L 1520.05,805.036 L 1420.837,805.036 L 1420.837,868.685 z"
         id="path2608" />
    </clipPath>
    <clipPath
       id="clipPath2596">
      <path
         d="M 0.015,898.59 L 2154.345,898.59 L 2154.345,0 L 0.015,0 L 0.015,898.59 z"
         id="path2598" />
    </clipPath>
    <clipPath
       id="clipPath2588">
      <path
         d="M 19.677,878.449 L 2134.323,878.449 L 2134.323,19.551 L 19.677,19.551 L 19.677,878.449 z"
         id="path2590" />
    </clipPath>
    <clipPath
       id="clipPath2520">
      <path
         d="M 0.015,898.59 L 2154.345,898.59 L 2154.345,0 L 0.015,0 L 0.015,898.59 z"
         id="path2522" />
    </clipPath>
    <clipPath
       id="clipPath2512">
      <path
         d="M 19.677,878.449 L 2134.323,878.449 L 2134.323,19.551 L 19.677,19.551 L 19.677,878.449 z"
         id="path2514" />
    </clipPath>
    <clipPath
       id="clipPath2504">
      <path
         d="M 1420.837,878.448 L 1520.05,878.448 L 1520.05,813.96 L 1420.837,813.96 L 1420.837,878.448 z"
         id="path2506" />
    </clipPath>
    <clipPath
       id="clipPath2494">
      <path
         d="M 0.015,898.59 L 2154.345,898.59 L 2154.345,0 L 0.015,0 L 0.015,898.59 z"
         id="path2496" />
    </clipPath>
    <clipPath
       id="clipPath2486">
      <path
         d="M 19.677,878.449 L 2134.323,878.449 L 2134.323,19.551 L 19.677,19.551 L 19.677,878.449 z"
         id="path2488" />
    </clipPath>
    <clipPath
       id="clipPath2478">
      <path
         d="M 0.015,898.59 L 2154.345,898.59 L 2154.345,0 L 0.015,0 L 0.015,898.59 z"
         id="path2480" />
    </clipPath>
    <clipPath
       id="clipPath2470">
      <path
         d="M 19.677,878.449 L 2134.323,878.449 L 2134.323,19.551 L 19.677,19.551 L 19.677,878.449 z"
         id="path2472" />
    </clipPath>
    <clipPath
       id="clipPath2462">
      <path
         d="M 0.015,898.59 L 2154.345,898.59 L 2154.345,0 L 0.015,0 L 0.015,898.59 z"
         id="path2464" />
    </clipPath>
    <clipPath
       id="clipPath2454">
      <path
         d="M 19.677,878.449 L 2134.323,878.449 L 2134.323,19.551 L 19.677,19.551 L 19.677,878.449 z"
         id="path2456" />
    </clipPath>
    <clipPath
       id="clipPath2446">
      <path
         d="M 0.015,898.59 L 2154.345,898.59 L 2154.345,0 L 0.015,0 L 0.015,898.59 z"
         id="path2448" />
    </clipPath>
    <clipPath
       id="clipPath2438">
      <path
         d="M 19.677,878.449 L 2134.323,878.449 L 2134.323,19.551 L 19.677,19.551 L 19.677,878.449 z"
         id="path2440" />
    </clipPath>
  </defs>
  <g
     transform="translate(-151.12325,176.15286)"
     id="layer1">
    <g
       transform="matrix(8.5689755,0,0,8.5689755,-1202.4694,-3861.5047)"
       id="g3443">
      <g
         id="g3435">
        <g
           id="g3431">
          <path
             d="M 157.96435,509.6933 L 213.71185,509.6933 L 213.71185,430.0808 L 157.96435,430.0808 L 157.96435,509.6933 z"
             id="path2626"
             style="fill:#ed1639;fill-opacity:1;fill-rule:nonzero;stroke:none" />
          <path
             d="M 264.02685,509.6933 L 282.0156,509.6933 L 282.0156,430.0808 L 264.02685,430.0808 L 264.02685,509.6933 z"
             id="path2628"
             style="fill:#ed1639;fill-opacity:1;fill-rule:nonzero;stroke:none" />
        </g>
        <path
           d="M 213.7106,509.6933 L 264.0256,509.6933 L 264.0256,430.0808 L 213.7106,430.0808 L 213.7106,509.6933 z"
           id="path2630"
           style="fill:#ffffff;fill-opacity:1;fill-rule:nonzero;stroke:none" />
      </g>
      <path
         d="M 255.77435,474.8433 L 255.77435,470.87205 C 255.77435,470.1858 255.86435,467.4883 255.86435,467.4883 L 252.24185,475.23455 L 248.63935,467.4883 C 248.63935,467.4883 248.7106,470.2708 248.7106,470.95705 L 248.7106,474.8433 L 245.8306,474.8433 L 245.8306,462.30455 L 248.6731,462.30455 L 251.3181,467.79955 C 251.7981,468.7983 252.29685,469.9933 252.29685,469.9933 C 252.29685,469.9933 252.77685,468.8008 253.24435,467.79955 L 255.81185,462.30455 L 258.65935,462.30455 L 258.65935,474.8433 L 255.77435,474.8433"
         id="path2634"
         style="fill:#656263;fill-opacity:1;fill-rule:nonzero;stroke:none" />
      <path
         d="M 219.0931,462.30455 L 222.07435,462.30455 L 222.07435,467.52205 L 226.6031,462.30455 L 230.34685,462.30455 L 225.97935,467.0433 L 230.68435,474.8458 L 227.15435,474.8458 L 223.88685,469.1783 L 222.07435,471.16955 L 222.07435,474.8458 L 219.0931,474.8458 L 219.0931,462.30455"
         id="path2638"
         style="fill:#656263;fill-opacity:1;fill-rule:nonzero;stroke:none" />
      <path
         d="M 217.20685,446.3158 L 226.85685,446.3158 L 226.85685,448.79955 L 223.61185,448.79955 L 223.61185,458.8558 L 220.47185,458.8558 L 220.47185,448.79955 L 217.20685,448.79955 L 217.20685,446.3158"
         id="path2642"
         style="fill:#656263;fill-opacity:1;fill-rule:nonzero;stroke:none" />
      <path
         d="M 229.0906,446.3058 L 237.5281,446.3058 L 237.5281,448.7308 L 232.2131,448.7308 L 232.2131,451.03705 L 237.1306,451.03705 L 237.1306,453.4108 L 232.2131,453.4108 L 232.2131,456.38455 L 237.9181,456.38455 L 237.9181,458.8458 L 229.0906,458.8458 L 229.0906,446.3058"
         id="path2646"
         style="fill:#656263;fill-opacity:1;fill-rule:nonzero;stroke:none" />
      <path
         d="M 240.97685,446.3158 L 244.10185,446.3158 L 244.10185,456.2133 L 248.7406,456.2133 L 248.7406,458.8558 L 240.97685,458.8558 L 240.97685,446.3158"
         id="path2650"
         style="fill:#656263;fill-opacity:1;fill-rule:nonzero;stroke:none" />
      <path
         d="M 250.3856,446.3058 L 258.82435,446.3058 L 258.82435,448.7308 L 253.5081,448.7308 L 253.5081,451.03705 L 258.4256,451.03705 L 258.4256,453.4108 L 253.5081,453.4108 L 253.5081,456.38455 L 259.2131,456.38455 L 259.2131,458.8458 L 250.3856,458.8458 L 250.3856,446.3058"
         id="path2654"
         style="fill:#656263;fill-opacity:1;fill-rule:nonzero;stroke:none" />
      <path
         d="M 217.2206,494.7008 L 226.8706,494.7008 L 226.8706,497.1833 L 223.62435,497.1833 L 223.62435,507.24205 L 220.48435,507.24205 L 220.48435,497.1833 L 217.2206,497.1833 L 217.2206,494.7008"
         id="path2658"
         style="fill:#656263;fill-opacity:1;fill-rule:nonzero;stroke:none" />
      <path
         d="M 242.56185,507.24205 L 245.68185,507.24205 L 245.68185,494.7008 L 242.56185,494.7008 L 242.56185,507.24205 z"
         id="path2660"
         style="fill:#656263;fill-opacity:1;fill-rule:nonzero;stroke:none" />
      <path
         d="M 232.69435,486.3108 L 232.6931,479.21705 L 235.85185,479.21705 L 235.85185,486.74955 C 235.85185,488.6308 236.9856,489.36705 238.6206,489.36705 C 240.2556,489.36705 241.38935,488.6308 241.38935,486.74955 L 241.38935,479.21705 L 244.54685,479.21705 L 244.54685,486.3108 C 244.54685,489.57205 242.78935,492.0233 238.6206,492.0233 C 234.45185,492.0233 232.69435,489.57205 232.69435,486.3108"
         id="path2664"
         style="fill:#656263;fill-opacity:1;fill-rule:nonzero;stroke:none" />
      <path
         d="M 247.54935,489.48205 L 249.93185,487.9708 C 250.2506,488.3258 250.5156,488.6133 251.13935,488.9483 C 251.9731,489.3958 252.9481,489.55205 253.67685,489.55205 C 255.3606,489.55205 256.2456,488.86455 256.2456,488.0958 C 256.2456,487.0808 255.18935,486.93455 253.3831,486.7283 C 252.83185,486.66705 252.4981,486.6258 251.8181,486.5333 C 251.0431,486.4283 248.2431,485.7858 248.2431,483.0833 C 248.2431,479.8483 251.24185,478.88955 253.4106,478.88955 C 256.30685,478.88955 258.2006,480.31955 259.28435,481.29705 L 256.93435,482.9158 C 256.09185,482.0733 254.8881,481.35955 253.35685,481.35955 C 251.73935,481.35955 251.3706,482.21955 251.3706,482.67455 C 251.3706,483.72205 252.5131,483.9358 253.0906,484.0058 C 256.7181,484.4508 259.3556,484.71205 259.3556,487.8283 C 259.3556,488.6208 258.93935,489.64955 258.35935,490.33455 C 257.2381,491.6633 255.0156,492.0233 253.3931,492.0233 C 249.8556,492.0233 248.3306,490.3883 247.54935,489.48205"
         id="path2668"
         style="fill:#656263;fill-opacity:1;fill-rule:nonzero;stroke:none" />
      <path
         d="M 240.3706,468.5533 C 240.3706,466.10705 239.2506,464.5333 237.3806,464.5333 C 235.53935,464.5333 234.3906,466.10705 234.3906,468.5533 C 234.3906,471.05955 235.4281,472.57205 237.3731,472.57205 C 239.34935,472.57205 240.3706,471.05955 240.3706,468.5533 z M 243.5156,468.5708 C 243.5156,472.5058 241.26935,475.22455 237.40185,475.22455 C 233.50935,475.22455 231.3006,472.5183 231.3006,468.5708 C 231.3006,464.5333 233.51435,461.9183 237.40185,461.9183 C 241.3156,461.9183 243.5156,464.5333 243.5156,468.5708"
         id="path2672"
         style="fill:#656263;fill-opacity:1;fill-rule:evenodd;stroke:none" />
      <path
         d="M 225.32935,479.21705 L 230.4806,491.75705 L 227.1681,491.75705 L 226.5506,489.76205 L 221.2731,489.76205 L 220.6556,491.75705 L 217.3431,491.75705 L 222.5306,479.21705 L 225.32935,479.21705 z M 223.9856,482.1733 C 223.9856,482.1733 223.44935,483.7108 223.20935,484.3358 L 221.9981,487.5033 L 225.8581,487.50455 L 224.6981,484.3358 C 224.47935,483.73455 223.9856,482.1733 223.9856,482.1733"
         id="path2676"
         style="fill:#656263;fill-opacity:1;fill-rule:evenodd;stroke:none" />
      <path
         d="M 229.17435,494.7008 L 234.0831,494.7008 C 235.39685,494.7008 237.0381,494.7283 238.1831,495.9808 C 238.7756,496.62955 239.1756,497.6333 239.1756,498.7683 C 239.1756,501.2908 237.45435,501.91205 236.6031,502.2333 L 239.4956,507.24205 L 236.07435,507.24205 L 233.5931,502.76455 L 232.26435,502.76455 L 232.26435,507.24205 L 229.17435,507.24205 L 229.17435,494.7008 z M 232.26435,497.0458 L 232.26435,500.4383 L 234.23685,500.4383 C 234.6806,500.4383 236.11685,500.3833 236.11685,498.7158 C 236.11685,497.11705 234.9931,497.0458 234.3081,497.0458 L 232.26435,497.0458"
         id="path2680"
         style="fill:#656263;fill-opacity:1;fill-rule:evenodd;stroke:none" />
      <path
         d="M 255.47185,494.7008 L 260.6231,507.24205 L 257.3106,507.24205 L 256.6931,505.2458 L 251.41685,505.2458 L 250.7981,507.24205 L 247.48685,507.24205 L 252.6731,494.7008 L 255.47185,494.7008 z M 254.1281,497.6583 C 254.1281,497.6583 253.59185,499.19455 253.3531,499.81955 L 252.1406,502.9883 L 256.0006,502.98955 L 254.84185,499.81955 C 254.62185,499.21955 254.1281,497.6583 254.1281,497.6583"
         id="path2684"
         style="fill:#656263;fill-opacity:1;fill-rule:evenodd;stroke:none" />
    </g>
  </g>
</svg>
