<svg width="236" height="101" viewBox="0 0 236 101" fill="none" xmlns="http://www.w3.org/2000/svg">
<path d="M25.2348 77.9987C16.7895 77.9987 10.3659 71.5752 10.3567 62.9461C10.3567 54.3078 16.7803 47.8842 25.2164 47.8842C30.4545 47.8842 34.8196 50.2643 37.1538 54.0964C37.5398 54.7305 38.376 54.9235 39.0193 54.5559L45.5348 50.7698C46.1964 50.3838 46.4262 49.5292 46.031 48.8675C41.96 42.0763 34.1947 37.7113 25.3083 37.7113C10.8346 37.7204 0 48.6561 0 62.9461C0 77.1441 10.853 88.1717 25.3359 88.1625C34.2223 88.1625 41.9876 83.7882 46.2148 76.9144C46.6192 76.2527 46.3894 75.3797 45.7094 74.9937L39.1755 71.2719C38.5506 70.9135 37.7419 71.0881 37.3468 71.6946C34.8748 75.49 30.5005 77.9804 25.2348 77.9804" fill="#EA5B0C"/>
<path d="M61.9934 58.9026C63.427 51.7071 68.7019 47.103 76.4764 47.0939C82.7161 47.0939 88.7537 50.6411 90.1965 58.8842H61.9934V58.9026ZM76.5683 37.6928C61.5064 37.6928 51.2507 48.7296 51.2507 62.9276C51.2507 77.3187 61.5248 88.1533 77.3494 88.1441C86.1255 88.1441 92.981 84.7071 97.4472 78.936C97.9526 78.2836 97.7504 77.3278 97.0336 76.9051L90.8674 73.3028C90.2792 72.9536 89.5349 73.1098 89.0938 73.6336C86.6677 76.5192 82.6426 78.642 77.4413 78.642C69.7679 78.642 63.7211 74.8099 62.0853 67.3295H99.0554C99.763 67.3203 100.342 66.7873 100.434 66.0889C100.553 65.078 100.654 64.012 100.654 63.0012C100.654 49.1891 90.8582 37.6836 76.5683 37.6836" fill="#EA5B0C"/>
<path d="M107.812 86.8946H115.403C116.166 86.8946 116.791 86.2697 116.791 85.507L116.772 18.2479C116.772 17.4851 116.157 16.8602 115.385 16.8602H107.794C107.031 16.8602 106.406 17.4851 106.406 18.2479L106.425 85.507C106.425 86.2697 107.04 86.8854 107.812 86.8854" fill="#EA5B0C"/>
<path d="M128.673 86.8946H136.264C137.026 86.8946 137.651 86.2697 137.651 85.507L137.633 18.2479C137.633 17.4851 137.017 16.8602 136.245 16.8602H128.655C127.892 16.8602 127.267 17.4851 127.267 18.2479L127.285 85.507C127.285 86.2697 127.901 86.8854 128.673 86.8854" fill="#EA5B0C"/>
<path d="M210.168 59.1141C207.182 63.0565 202.302 65.4825 196.898 65.0506C189.538 64.4533 183.619 58.4616 183.105 51.1007C182.489 42.297 189.473 34.9361 198.148 34.9361C202.954 34.9361 207.246 37.1968 210.012 40.7164C210.453 41.277 211.262 41.3873 211.859 40.9921L217.98 36.8659C218.632 36.4248 218.797 35.5243 218.32 34.8902C213.651 28.678 206.189 24.6805 197.817 24.7907C183.932 24.9745 172.684 36.5811 172.923 50.4666C173.162 64.1684 184.382 75.242 198.148 75.242C206.511 75.242 213.927 71.1526 218.522 64.8668C218.981 64.2328 218.816 63.3414 218.173 62.9094L212.052 58.7833C211.437 58.3698 210.609 58.526 210.159 59.1141" fill="#EA5B0C"/>
<path d="M227.086 70.5269C220.553 79.7166 209.764 85.6807 197.615 85.4969C178.675 85.2212 163.126 69.8285 162.676 50.8886C162.189 30.9195 178.289 14.5251 198.148 14.5251C209.966 14.5251 220.451 20.333 226.903 29.247C227.335 29.8443 228.171 29.9913 228.786 29.5778L234.907 25.4516C235.559 25.0105 235.715 24.1283 235.256 23.4851C226.783 11.658 212.796 4.03054 197.082 4.38894C172.684 4.94951 152.88 24.9278 152.531 49.3356C152.163 74.8093 172.775 95.6423 198.157 95.6423C213.55 95.6423 227.187 87.9781 235.458 76.2613C235.908 75.6272 235.752 74.745 235.109 74.3039L228.989 70.1777C228.373 69.755 227.527 69.9112 227.096 70.5177" fill="#EA5B0C"/>
</svg>
