<?xml version="1.0" encoding="UTF-8" standalone="no"?>
<svg
   width="2961.7878"
   height="723.57434"
   viewBox="0 0 2961.7879 723.57431"
   version="1.1"
   id="svg26"
   sodipodi:docname="logo-claro-play.svg"
   inkscape:version="1.1 (c68e22c387, 2021-05-23)"
   xmlns:inkscape="http://www.inkscape.org/namespaces/inkscape"
   xmlns:sodipodi="http://sodipodi.sourceforge.net/DTD/sodipodi-0.dtd"
   xmlns:xlink="http://www.w3.org/1999/xlink"
   xmlns="http://www.w3.org/2000/svg"
   xmlns:svg="http://www.w3.org/2000/svg"
   xmlns:rdf="http://www.w3.org/1999/02/22-rdf-syntax-ns#"
   xmlns:cc="http://creativecommons.org/ns#"
   xmlns:dc="http://purl.org/dc/elements/1.1/">
  <sodipodi:namedview
     id="namedview28"
     pagecolor="#ffffff"
     bordercolor="#666666"
     borderopacity="1.0"
     inkscape:pageshadow="2"
     inkscape:pageopacity="0.0"
     inkscape:pagecheckerboard="0"
     showgrid="false"
     inkscape:zoom="0.10104072"
     inkscape:cx="2182.2886"
     inkscape:cy="2845.3876"
     inkscape:window-width="1920"
     inkscape:window-height="1017"
     inkscape:window-x="-8"
     inkscape:window-y="-8"
     inkscape:window-maximized="1"
     inkscape:current-layer="svg26"
     fit-margin-top="0"
     fit-margin-left="0"
     fit-margin-right="0"
     fit-margin-bottom="0" />
  <title
     id="title2">Group 17</title>
  <defs
     id="defs5">
    <polygon
       id="path-1"
       points="0,-0.00011481481 0,61.418922 247.66244,61.418922 247.66244,-0.00011481481 " />
    <mask
       id="mask-2-1"
       fill="#ffffff">
      <use
         xlink:href="#path-1"
         id="use10-3"
         x="0"
         y="0"
         width="100%"
         height="100%" />
    </mask>
    <mask
       id="mask13937"
       fill="#ffffff">
      <use
         xlink:href="#path-1"
         id="use13935"
         x="0"
         y="0"
         width="100%"
         height="100%" />
    </mask>
    <mask
       id="mask13941"
       fill="#ffffff">
      <use
         xlink:href="#path-1"
         id="use13939"
         x="0"
         y="0"
         width="100%"
         height="100%" />
    </mask>
    <mask
       id="mask13945"
       fill="#ffffff">
      <use
         xlink:href="#path-1"
         id="use13943"
         x="0"
         y="0"
         width="100%"
         height="100%" />
    </mask>
    <mask
       id="mask13949"
       fill="#ffffff">
      <use
         xlink:href="#path-1"
         id="use13947"
         x="0"
         y="0"
         width="100%"
         height="100%" />
    </mask>
  </defs>
  <g
     id="Page-1"
     stroke="none"
     stroke-width="1"
     fill="none"
     fill-rule="evenodd"
     transform="matrix(11.722945,0,0,11.722945,-0.00538387,0.00134597)">
    <g
       id="Desktop-HD-Copy-15"
       transform="translate(-589,-242)">
      <g
         id="Group-17"
         transform="translate(589,242)">
        <path
           d="m 109.41507,45.349326 c -4.27225,0 -7.73507,-3.463963 -7.73507,-7.735074 0,-4.272259 3.46282,-7.736222 7.73507,-7.736222 4.27226,0 7.73508,3.463963 7.73508,7.736222 0,4.271111 -3.46282,7.735074 -7.73508,7.735074 m -0.0356,-22.379704 c -8.06689,0 -14.604443,6.538704 -14.604443,14.604445 0,8.06574 6.537553,14.604444 14.604443,14.604444 8.06574,0 14.60445,-6.538704 14.60445,-14.604444 0,-8.065741 -6.53871,-14.604445 -14.60445,-14.604445"
           id="Fill-1"
           fill="#e02b2d" />
        <path
           d="m 94.150559,23.379741 v 6.800481 c -5.457148,0 -6.868222,1.747482 -7.869407,3.630445 -0.559148,1.05974 -0.933445,2.514444 -0.933445,4.716592 V 51.666667 H 78.045485 V 24.50837 h 7.167889 v 2.892186 c 2.605148,-3.333075 5.956593,-4.13563 8.937185,-4.020815"
           id="Fill-3"
           fill="#e02b2d" />
        <path
           d="m 66.363996,37.850541 c -0.45237,0.285889 -0.909333,0.515518 -1.368592,0.692333 -0.462704,0.175667 -1.094186,0.338704 -1.899037,0.490259 l -1.607408,0.301963 c -1.508666,0.267519 -2.59137,0.595889 -3.248111,0.980519 -1.113704,0.654444 -1.669407,1.669407 -1.669407,3.043741 0,1.223925 0.339852,2.109148 1.019555,2.65337 0.679704,0.54537 1.506371,0.817481 2.48,0.817481 1.543111,0 2.966815,-0.45237 4.266519,-1.357111 1.300852,-0.905889 1.977111,-2.558074 2.026481,-4.956555 z m -4.320481,-3.345704 c 1.315778,-0.16763 2.256111,-0.376593 2.822148,-0.628037 1.016111,-0.436296 1.523593,-1.116 1.523593,-2.036815 0,-1.124037 -0.389223,-1.900185 -1.168815,-2.327296 -0.778445,-0.428259 -1.922,-0.641815 -3.429519,-0.641815 -1.69237,0 -2.891037,0.419074 -3.593704,1.257222 -0.504036,0.62 -0.839296,1.459297 -1.005777,2.515593 h -6.818852 c 0.149259,-2.397333 0.812889,-4.367556 1.993185,-5.910667 1.874926,-2.414555 5.095482,-3.622407 9.661667,-3.622407 2.971407,0 5.609852,0.595889 7.917629,1.786518 2.307778,1.19063 3.461667,3.437556 3.461667,6.740778 v 12.576815 c 0,0.872593 -0.01378,7.553667 -0.01378,7.553667 l -7.027815,0.122851 c 0,-0.602777 0,-1.897888 -0.0011,-2.514444 -2.080444,1.917407 -5.214889,2.660259 -8.355074,2.660259 -2.460481,0 -4.492704,-0.708407 -6.097815,-2.125222 -1.603963,-1.416815 -2.406518,-3.424926 -2.406518,-6.023185 0,-3.372111 1.290518,-5.811926 3.871555,-7.320593 1.415667,-0.822074 3.49726,-1.408778 6.244778,-1.760111 z"
           id="Fill-5"
           fill="#e02b2d" />
        <mask
           id="mask-2"
           fill="#ffffff">
          <use
             xlink:href="#path-1"
             id="use10"
             x="0"
             y="0"
             width="100%"
             height="100%" />
        </mask>
        <g
           id="Clip-8" />
        <polygon
           id="Fill-7"
           fill="#e02b2d"
           mask="url(#mask-2)"
           points="106.85585,17.924774 113.37504,17.924774 113.37504,-0.00011481481 106.85585,-0.00011481481 " />
        <polygon
           id="Fill-9"
           fill="#e02b2d"
           mask="url(#mask-2)"
           points="128.32967,37.471996 144.54496,37.471996 144.54496,31.042367 128.32967,31.042367 " />
        <polygon
           id="Fill-10"
           fill="#e02b2d"
           mask="url(#mask-2)"
           points="125.1338,24.460607 120.48609,19.811756 135.54176,4.7560889 140.18946,9.4049407 " />
        <path
           d="m 18.024089,44.796607 c -5.994482,0 -10.8534446,-4.940481 -10.8534446,-11.033703 0,-6.094371 4.8589626,-11.033704 10.8534446,-11.033704 4.435296,0 8.243704,2.707333 9.926889,6.582333 h 7.586963 c -1.913963,-8.029 -9.025593,-13.993629 -17.513852,-13.993629 -9.9544446,0 -18.02362974074,8.203518 -18.02362974074,18.322148 0,10.120926 8.06918514074,18.323296 18.02362974074,18.323296 8.219592,0 15.147518,-5.593778 17.31637,-13.239296 h -7.629444 c -1.788815,3.599444 -5.450259,6.072555 -9.686926,6.072555"
           id="Fill-11"
           fill="#e02b2d"
           mask="url(#mask-2)" />
        <polygon
           id="Fill-12"
           fill="#e02b2d"
           mask="url(#mask-2)"
           points="38.583518,51.963922 45.711222,51.963922 45.711222,16.258811 38.583518,16.258811 " />
      </g>
    </g>
  </g>
  <metadata
     id="metadata845">
    <rdf:RDF>
      <cc:Work
         rdf:about="">
        <dc:title>Group 17</dc:title>
      </cc:Work>
    </rdf:RDF>
  </metadata>
  <path
     id="rect3732"
     style="fill:#000000;fill-opacity:0.996078;stroke-width:11.3785"
     d="M 2095.6514,203.43467 V 606.56795 H 2171.61 V 432.73611 c 0,-14.23233 3.8006,-25.23868 11.3786,-33.00182 7.7634,-7.94792 18.6662,-11.91169 32.7128,-11.91169 14.7874,0 26.1657,3.88185 34.1135,11.64499 8.1323,7.76316 12.2011,18.66535 12.2011,32.7129 v 174.38746 h 75.9591 V 431.8916 c 0,-37.33697 -8.3213,-66.16153 -24.9566,-86.49361 -16.6351,-20.51686 -40.1132,-30.7795 -70.4266,-30.7795 -18.2986,0 -33.5366,4.52157 -45.7354,13.57855 -9.4611,7.1322 -17.8481,17.18626 -25.2465,29.93499 V 203.43467 Z m -184.3667,111.18382 c -24.9528,0 -46.2213,3.59206 -63.7803,10.80062 -17.5605,7.02377 -30.9607,17.39051 -40.2022,31.06838 -9.2427,13.67785 -13.8454,30.11306 -13.8454,49.33608 0,21.99547 4.4172,38.8247 13.2889,50.46937 9.0572,11.45986 20.0635,19.22379 33.0018,23.29021 12.9385,4.06644 30.1175,7.49472 51.5591,10.26722 0.7395,0 1.4826,0.0795 2.2222,0.26622 0.9216,0 1.7715,0.10231 2.5112,0.28903 3.5112,0.3698 6.9182,0.71912 10.2453,1.08891 3.5112,0.36979 6.9396,0.74186 10.2666,1.11167 12.0144,1.10938 21.3481,2.4104 28.0022,3.88914 6.6541,1.29383 12.1044,3.6066 16.3564,6.93366 4.2511,3.32704 6.3775,8.22044 6.3775,14.68976 0,7.02376 -4.8924,12.5789 -14.6895,16.64532 -9.7967,3.88152 -23.5692,5.82258 -41.3138,5.82258 -13.6778,0 -28.0898,-2.41692 -43.2459,-7.22269 -15.157,-4.80577 -29.6737,-11.64008 -43.5359,-20.51218 l -46.8699,58.51435 c 10.9062,8.31761 23.4817,15.41967 37.7135,21.33451 14.2322,5.91471 29.4928,10.43626 45.7585,13.5784 16.2655,2.95749 32.9904,4.44476 50.1797,4.44476 26.0623,0 48.3208,-3.69607 66.8037,-11.08951 18.4842,-7.57825 32.5468,-18.48046 42.1583,-32.71291 9.6113,-14.23245 14.4005,-31.32941 14.4005,-51.29168 0,-23.65911 -4.9747,-41.58157 -14.9559,-53.78072 -9.7967,-12.19923 -21.7328,-20.33501 -35.7803,-24.40142 -14.0469,-4.06631 -32.2376,-7.39062 -54.6028,-9.97829 -0.7396,-0.18444 -1.5874,-0.28902 -2.5111,-0.28902 -0.9217,0 -1.7502,-0.0795 -2.4885,-0.26626 l -4.978,-0.55527 -5.0009,-0.55526 c -12.9383,-1.47875 -22.8295,-2.78009 -29.6681,-3.88913 -6.6542,-1.29383 -12.291,-3.23489 -16.9118,-5.82256 -4.4364,-2.77257 -6.6448,-6.55045 -6.6448,-11.35623 0,-6.2844 4.2314,-11.19997 12.7334,-14.71181 8.503,-3.51195 20.439,-5.26696 35.7795,-5.26696 12.5697,0 25.6798,1.94093 39.3578,5.82246 13.6781,3.88161 26.811,9.33269 39.3806,16.35646 l 45.202,-55.15851 c -11.2749,-7.76314 -23.5828,-14.43385 -36.8911,-19.97891 -13.3083,-5.54512 -27.266,-9.77665 -41.8679,-12.73403 -14.4176,-2.95734 -28.9126,-4.44472 -43.5146,-4.44472 z m 617.4343,0 c -26.2465,0 -48.6905,4.89341 -67.3589,14.68975 -18.4844,9.61146 -32.6288,23.75606 -42.4246,42.42449 -9.6112,18.48366 -14.4231,40.76406 -14.4231,66.82594 v 46.84706 c 0,26.43156 4.8119,49.0837 14.4231,67.93701 9.7958,18.66855 23.9402,32.89497 42.4246,42.6912 18.6684,9.79636 41.1124,14.68974 67.3589,14.68974 26.2464,0 48.6085,-4.89338 67.0928,-14.68974 18.6686,-9.79623 32.8129,-23.94084 42.4243,-42.42449 9.7968,-18.66854 14.6895,-41.13473 14.6895,-67.38153 v -47.66925 c 0,-26.06188 -4.8927,-48.34228 -14.6895,-66.82594 -9.6114,-18.66843 -23.7557,-32.81303 -42.4243,-42.42449 -18.4843,-9.79634 -40.8464,-14.68975 -67.0928,-14.68975 z m 336.3068,0 c -15.3403,0 -29.3813,4.62568 -42.1353,13.86743 -9.65,6.95358 -17.8503,16.22767 -24.6672,27.75716 v -37.46872 h -75.9828 v 404.79998 h 75.9828 V 569.9881 c 5.7507,11.57274 13.4527,20.97392 23.2894,27.97937 12.1998,8.5024 26.6938,12.75621 43.5131,12.75621 20.332,0 37.7196,-4.89338 52.1369,-14.68974 14.602,-9.79623 25.6903,-23.94084 33.2683,-42.42449 7.5779,-18.66854 11.3569,-41.13473 11.3569,-67.38153 v -46.02475 c 0,-26.43158 -3.779,-49.06149 -11.3569,-67.91481 -7.578,-18.85334 -18.6663,-33.18376 -33.2683,-42.98012 -14.4173,-9.79634 -31.8049,-14.68975 -52.1369,-14.68975 z m -24.1117,70.42617 c 14.2319,0 25.2382,4.89329 33.0017,14.68963 7.9478,9.61156 11.912,23.19841 11.912,40.7578 v 45.73583 c 0,17.18981 -3.9642,30.50892 -11.912,39.93559 -7.7635,9.42666 -18.7698,14.13414 -33.0017,14.13414 -9.0575,0 -16.8208,-1.75513 -23.2907,-5.26695 -6.2843,-3.51197 -11.095,-8.59128 -14.4221,-15.24537 -3.327,-6.65409 -4.978,-14.68575 -4.978,-24.11243 v -64.6035 c 0,-9.79635 1.651,-18.11806 4.978,-24.95693 3.3271,-6.83899 8.1378,-12.02231 14.4221,-15.53425 6.4699,-3.69673 14.2332,-5.53356 23.2907,-5.53356 z m -312.4612,2.77794 c 15.3413,0 27.2546,4.41743 35.7566,13.28963 8.503,8.87207 12.7561,21.36569 12.7561,37.44644 v 47.66925 c 0,16.26566 -4.2531,28.94518 -12.7561,38.00217 -8.502,8.87206 -20.4153,13.28962 -35.7566,13.28962 -15.3415,0 -27.174,-4.41756 -35.4918,-13.28962 -8.3175,-9.05699 -12.4888,-21.73651 -12.4888,-38.00217 v -47.66925 c 0,-16.08075 4.1713,-28.57437 12.4888,-37.44644 8.5032,-8.8722 20.3344,-13.28963 35.4918,-13.28963 z" />
  <text
     xml:space="preserve"
     style="font-size:49.9031px;line-height:1.25;font-family:sans-serif;stroke-width:2.33921"
     x="2225.3059"
     y="-806.40363"
     id="text10175"><tspan
       sodipodi:role="line"
       id="tspan10173"
       x="2225.3059"
       y="-806.40363"
       style="font-style:normal;font-variant:normal;font-weight:bold;font-stretch:normal;font-size:49.9031px;font-family:Bahnschrift;-inkscape-font-specification:'Bahnschrift, Bold';font-variant-ligatures:normal;font-variant-caps:normal;font-variant-numeric:normal;font-variant-east-asian:normal;stroke-width:2.33921">shop </tspan></text>
</svg>
