<?xml version="1.0" encoding="UTF-8" standalone="no"?>
<!-- Created with Inkscape (http://www.inkscape.org/) -->

<svg
   xmlns:dc="http://purl.org/dc/elements/1.1/"
   xmlns:cc="http://creativecommons.org/ns#"
   xmlns:rdf="http://www.w3.org/1999/02/22-rdf-syntax-ns#"
   xmlns:svg="http://www.w3.org/2000/svg"
   xmlns="http://www.w3.org/2000/svg"
   xmlns:sodipodi="http://sodipodi.sourceforge.net/DTD/sodipodi-0.dtd"
   xmlns:inkscape="http://www.inkscape.org/namespaces/inkscape"
   width="21.000154mm"
   height="21.000154mm"
   viewBox="0 0 21.000154 21.000154"
   version="1.1"
   id="svg16732"
   inkscape:version="0.92.0 r15299"
   sodipodi:docname="cna telecom.svg">
  <defs
     id="defs16726">
    <clipPath
       id="clipPath16350"
       clipPathUnits="userSpaceOnUse">
      <path
         inkscape:connector-curvature="0"
         id="path16348"
         d="M 0,0 H 595.276 V 841.89 H 0 Z" />
    </clipPath>
  </defs>
  <sodipodi:namedview
     id="base"
     pagecolor="#ffffff"
     bordercolor="#666666"
     borderopacity="1.0"
     inkscape:pageopacity="0.0"
     inkscape:pageshadow="2"
     inkscape:zoom="6.7153274"
     inkscape:cx="39.685332"
     inkscape:cy="39.685332"
     inkscape:document-units="mm"
     inkscape:current-layer="layer1"
     showgrid="false"
     fit-margin-top="0"
     fit-margin-left="0"
     fit-margin-right="0"
     fit-margin-bottom="0"
     inkscape:window-width="1280"
     inkscape:window-height="744"
     inkscape:window-x="-4"
     inkscape:window-y="-4"
     inkscape:window-maximized="1" />
  <metadata
     id="metadata16729">
    <rdf:RDF>
      <cc:Work
         rdf:about="">
        <dc:format>image/svg+xml</dc:format>
        <dc:type
           rdf:resource="http://purl.org/dc/dcmitype/StillImage" />
        <dc:title></dc:title>
      </cc:Work>
    </rdf:RDF>
  </metadata>
  <g
     inkscape:label="Layer 1"
     inkscape:groupmode="layer"
     id="layer1"
     transform="translate(-105.91659,-206.36897)">
    <g
       id="g16344"
       transform="matrix(0.35277777,0,0,-0.35277777,84.916434,489.36906)">
      <g
         id="g16346"
         clip-path="url(#clipPath16350)">
        <g
           id="g16352"
           transform="translate(105.203,779.3881)">
          <path
             d="m 0,0 h -0.089 c -1.398,0 -2.536,-1.138 -2.536,-2.536 v -3.866 h 5.162 v 3.866 C 2.537,-1.138 1.399,0 0,0"
             style="fill:#ec0382;fill-opacity:1;fill-rule:nonzero;stroke:none"
             id="path16354"
             inkscape:connector-curvature="0" />
        </g>
        <g
           id="g16356"
           transform="translate(73.4607,779.2455)">
          <path
             d="M 0,0 H -2.617 V -13.576 H 0 c 1.405,0 2.545,1.139 2.545,2.544 v 8.487 C 2.545,-1.139 1.405,0 0,0"
             style="fill:#ec0382;fill-opacity:1;fill-rule:nonzero;stroke:none"
             id="path16358"
             inkscape:connector-curvature="0" />
        </g>
        <path
           d="m 59.528,742.677 h 59.528 v 59.528 H 59.528 Z M 73.41,761.93 h -6.305 v 21.055 h 6.304 c 3.499,0 6.336,-2.837 6.336,-6.336 l 10e-4,-8.383 c 0,-3.499 -2.837,-6.336 -6.336,-6.336 m 22.103,0 h -3.739 v 14.778 c 0,1.401 -1.136,2.537 -2.537,2.537 H 86.612 V 761.93 h -3.739 v 21.055 h 6.364 c 3.461,0 6.276,-2.816 6.276,-6.276 z m 15.966,0 h -3.739 v 7.532 h -5.162 v -7.532 h -3.74 v 14.922 c 0,3.46 2.816,6.275 6.276,6.275 h 0.089 c 3.461,0 6.276,-2.815 6.276,-6.275 z"
           style="fill:#ec0382;fill-opacity:1;fill-rule:nonzero;stroke:none"
           id="path16360"
           inkscape:connector-curvature="0" />
      </g>
    </g>
  </g>
</svg>
