<?xml version="1.0" encoding="UTF-8" ?>
<!DOCTYPE svg PUBLIC "-//W3C//DTD SVG 1.1//EN" "http://www.w3.org/Graphics/SVG/1.1/DTD/svg11.dtd">
<svg width="1200pt" height="1200pt" viewBox="0 0 1200 1200" version="1.1" xmlns="http://www.w3.org/2000/svg">
  <g/>
  <g>
    <path fill="#361f63" opacity="1.00" d=" M 358.10 213.12 C 390.04 200.74 426.00 199.14 458.90 208.70 C 438.09 220.94 417.57 233.73 398.03 247.93 C 379.29 261.60 361.23 276.41 345.57 293.57 C 334.34 305.94 324.35 319.75 318.26 335.41 C 297.69 342.85 277.24 350.63 257.02 358.97 C 256.94 327.43 267.29 296.08 285.28 270.23 C 303.12 244.49 328.81 224.26 358.10 213.12 Z"/>
    <path fill="#361f63" opacity="1.00" d=" M 449.34 240.32 C 459.66 232.09 470.35 224.33 481.31 216.98 C 511.44 231.05 537.19 254.51 553.27 283.69 C 574.56 321.62 579.08 368.41 565.48 409.72 C 551.07 407.80 536.69 405.64 522.42 402.93 C 531.00 385.49 539.04 367.31 541.40 347.83 C 542.71 336.33 541.30 323.66 533.69 314.44 C 525.56 304.42 512.55 300.14 500.20 298.35 C 482.16 295.96 463.85 297.50 445.94 300.21 C 427.54 303.01 409.41 307.30 391.44 312.08 C 394.36 300.53 400.62 290.17 407.79 280.79 C 419.69 265.45 434.23 252.41 449.34 240.32 Z"/>
    <path fill="#361f63" opacity="1.00" d=" M 446.54 515.72 C 456.84 502.60 466.92 489.32 476.66 475.78 C 488.60 479.22 500.64 482.30 512.71 485.23 C 493.44 500.38 470.59 510.98 446.54 515.72 Z"/>
    <path fill="#361f63" opacity="1.00" d=" M 634.24 481.01 C 647.83 480.99 661.41 481.00 675.00 481.00 C 675.03 541.70 674.94 602.39 675.04 663.08 C 704.22 635.21 733.30 607.22 762.38 579.25 C 780.80 579.26 799.22 579.22 817.63 579.27 C 783.94 610.08 750.01 640.62 716.22 671.34 C 766.57 722.05 816.94 772.75 867.27 823.48 C 850.14 823.52 833.01 823.49 815.88 823.50 C 768.95 775.86 721.89 728.34 675.02 680.63 C 674.98 716.42 675.01 752.21 675.00 788.00 C 661.41 787.99 647.83 788.01 634.24 787.99 C 634.25 685.66 634.25 583.34 634.24 481.01 Z"/>
    <path fill="#361f63" opacity="1.00" d=" M 103.92 503.97 C 125.66 496.09 149.33 495.48 172.09 498.13 C 185.83 499.77 199.48 502.58 212.57 507.14 C 210.54 519.68 208.48 532.22 206.53 544.77 C 199.27 542.28 192.12 539.44 184.72 537.39 C 170.85 533.30 156.21 532.24 141.82 533.23 C 130.23 534.30 118.19 537.36 109.24 545.19 C 99.99 553.26 96.64 566.74 99.42 578.48 C 101.57 587.14 107.78 594.13 114.83 599.29 C 125.77 607.37 138.37 612.74 150.60 618.51 C 168.90 626.93 187.58 635.65 202.49 649.52 C 215.14 661.04 223.66 677.00 225.83 694.00 C 228.40 713.68 225.72 734.80 214.90 751.78 C 206.11 765.83 192.11 775.94 176.91 782.10 C 156.72 790.26 134.67 792.70 113.04 792.23 C 93.53 791.54 74.64 786.12 56.07 780.55 C 57.42 767.74 59.04 754.96 60.33 742.14 C 80.04 749.66 100.72 755.58 121.92 756.22 C 136.36 756.09 151.10 752.35 162.98 743.92 C 170.31 738.77 176.15 731.36 178.87 722.78 C 182.95 709.83 180.81 694.67 171.81 684.24 C 161.62 672.25 146.96 665.51 133.02 658.93 C 113.86 650.09 93.79 642.23 77.42 628.56 C 65.59 618.88 56.84 605.22 54.09 590.08 C 50.69 571.30 53.09 550.85 63.60 534.60 C 72.82 519.95 87.84 509.78 103.92 503.97 Z"/>
    <path fill="#361f63" opacity="1.00" d=" M 1028.50 531.02 C 1042.09 526.93 1055.66 522.78 1069.24 518.66 C 1069.26 538.85 1069.24 559.05 1069.25 579.24 C 1088.49 579.26 1107.74 579.25 1126.99 579.24 C 1127.00 589.58 1127.00 599.91 1127.00 610.25 C 1107.75 610.25 1088.50 610.25 1069.25 610.25 C 1069.24 648.17 1069.27 686.09 1069.23 724.01 C 1068.99 732.42 1071.10 741.08 1075.98 748.02 C 1080.85 754.95 1088.65 759.66 1097.02 760.89 C 1108.56 762.41 1120.54 759.87 1130.51 753.87 C 1130.48 764.81 1130.52 775.75 1130.49 786.69 C 1118.89 789.80 1107.03 792.63 1094.94 792.26 C 1078.34 792.34 1060.75 789.15 1047.45 778.58 C 1038.01 771.05 1032.12 759.78 1029.97 748.01 C 1027.95 738.14 1028.59 728.02 1028.50 718.02 C 1028.49 682.09 1028.52 646.17 1028.49 610.24 C 1015.59 610.25 1002.70 610.26 989.81 610.24 C 986.17 603.23 981.12 596.99 975.17 591.80 C 973.96 590.59 972.45 589.61 971.58 588.13 C 971.36 585.17 971.52 582.20 971.52 579.24 C 990.51 579.25 1009.50 579.24 1028.49 579.25 C 1028.51 563.17 1028.49 547.09 1028.50 531.02 Z"/>
    <path fill="#361f63" opacity="1.00" d=" M 1156.48 529.57 C 1162.57 527.84 1169.38 528.80 1174.70 532.28 C 1180.72 536.05 1184.69 542.85 1185.00 549.95 C 1185.50 558.00 1181.33 566.22 1174.35 570.34 C 1169.24 573.59 1162.82 574.25 1156.99 572.95 C 1147.27 570.62 1139.78 561.11 1140.20 551.05 C 1139.95 541.31 1147.12 532.08 1156.48 529.57 M 1158.41 534.52 C 1146.26 537.75 1143.14 555.11 1151.49 563.66 C 1156.30 569.06 1165.07 569.99 1171.01 565.92 C 1180.24 559.81 1180.77 544.68 1172.44 537.59 C 1168.66 534.29 1163.20 533.18 1158.41 534.52 Z"/>
    <path fill="#361f63" opacity="1.00" d=" M 1153.50 538.51 C 1158.50 538.65 1163.64 537.97 1168.54 539.31 C 1173.02 540.49 1174.11 546.41 1172.07 550.05 C 1170.92 551.94 1168.61 552.38 1166.68 553.02 C 1168.76 556.53 1170.94 559.98 1173.03 563.50 C 1171.08 563.49 1169.15 563.50 1167.23 563.50 C 1165.11 560.11 1163.51 556.41 1161.20 553.16 C 1160.66 553.08 1159.56 552.93 1159.01 552.85 C 1158.99 556.40 1158.99 559.95 1159.00 563.50 C 1157.16 563.50 1155.31 563.49 1153.50 563.50 C 1153.49 555.17 1153.49 546.84 1153.50 538.51 M 1159.00 542.99 C 1158.99 544.91 1158.99 546.83 1159.01 548.76 C 1162.05 548.68 1167.88 549.90 1167.48 545.05 C 1165.78 541.98 1161.82 543.22 1159.00 542.99 Z"/>
    <path fill="#361f63" opacity="1.00" d=" M 329.44 574.57 C 352.25 572.48 375.92 575.27 396.68 585.33 C 412.02 592.62 425.42 603.91 435.23 617.77 C 446.04 633.13 452.27 651.46 454.04 670.11 C 455.86 687.56 453.99 705.48 447.94 721.99 C 441.05 741.07 428.57 758.14 412.31 770.30 C 396.07 782.59 376.24 789.84 356.01 791.76 C 337.44 793.42 318.39 791.56 300.89 784.91 C 283.91 778.58 268.54 767.88 256.90 753.98 C 245.03 739.90 237.04 722.66 233.69 704.57 C 230.37 686.52 231.23 667.70 236.08 650.00 C 241.46 630.42 252.54 612.28 268.20 599.25 C 285.32 584.75 307.24 576.66 329.44 574.57 M 332.52 605.76 C 312.86 608.68 295.63 621.81 286.11 639.04 C 275.70 657.28 272.56 679.24 276.13 699.84 C 278.93 716.19 285.98 732.23 298.01 743.90 C 309.83 755.54 326.58 761.58 343.08 761.27 C 356.24 761.56 369.62 758.01 380.48 750.46 C 393.41 741.62 402.29 727.79 407.03 713.03 C 413.46 692.96 413.35 670.71 405.88 650.94 C 399.99 635.22 389.24 620.92 374.38 612.74 C 361.77 605.64 346.72 603.55 332.52 605.76 Z"/>
    <path fill="#361f63" opacity="1.00" d=" M 539.08 578.31 C 557.61 573.24 577.20 572.86 596.13 575.71 C 605.09 577.07 614.02 578.93 622.53 582.10 C 621.31 592.72 620.23 603.36 619.03 613.98 C 602.40 607.54 584.41 603.54 566.52 605.41 C 551.38 607.13 536.89 614.29 526.58 625.55 C 513.55 639.38 506.58 658.19 505.33 676.98 C 504.09 697.72 509.09 719.45 522.00 736.05 C 531.45 748.44 545.70 756.81 560.95 759.75 C 581.36 763.73 603.29 760.07 621.17 749.38 C 622.25 760.87 623.11 772.37 624.28 783.85 C 607.83 790.87 589.65 792.54 571.94 792.26 C 540.16 792.48 508.16 778.89 487.61 754.38 C 473.23 737.45 464.52 715.92 462.60 693.82 C 461.36 677.73 462.72 661.32 467.69 645.91 C 472.68 630.23 481.36 615.66 493.18 604.17 C 505.80 591.64 521.96 582.94 539.08 578.31 Z"/>
    <path fill="#361f63" opacity="1.00" d=" M 857.99 583.05 C 871.85 577.20 886.98 574.49 902.00 574.74 C 919.25 574.53 936.90 577.62 952.19 585.89 C 966.31 593.52 977.57 605.96 984.47 620.39 C 995.51 642.75 997.98 668.15 998.27 692.75 C 951.43 692.76 904.60 692.73 857.77 692.77 C 858.40 683.18 858.91 673.58 859.55 664.00 C 891.47 664.00 923.38 664.00 955.30 664.00 C 955.07 649.76 951.16 635.16 941.98 624.03 C 932.24 611.85 916.46 605.39 901.03 605.72 C 887.39 605.43 873.38 609.85 863.24 619.18 C 850.94 630.33 844.37 646.63 842.38 662.86 C 841.70 672.56 841.00 682.32 842.16 692.01 C 842.17 705.38 845.75 718.85 853.15 730.04 C 863.50 745.98 880.67 757.03 899.25 760.64 C 917.76 764.29 936.82 760.48 954.39 754.40 C 963.87 750.98 973.29 747.00 981.51 741.10 C 981.49 753.99 981.52 766.88 981.49 779.78 C 974.32 782.22 967.27 784.99 959.97 787.02 C 944.73 791.39 928.82 793.22 913.00 793.00 C 892.43 793.30 871.44 790.12 852.75 781.20 C 840.49 775.32 829.49 766.69 821.20 755.88 C 811.08 742.88 804.98 727.12 801.94 711.02 C 799.39 697.22 798.61 683.08 799.66 669.09 C 801.23 649.26 807.56 629.54 819.44 613.45 C 829.18 600.03 842.73 589.50 857.99 583.05 Z"/>
  </g>
  <g>
    <path fill="#fbb831" opacity="1.00" d=" M 391.20 333.35 C 412.61 329.86 434.51 326.81 456.19 329.68 C 465.91 331.16 476.44 334.14 482.81 342.18 C 488.54 349.50 488.44 359.58 486.28 368.21 C 484.31 376.61 480.37 384.34 476.54 392.02 C 462.28 388.27 448.37 383.10 435.05 376.77 C 421.84 370.25 408.90 362.19 399.71 350.45 C 395.69 345.42 392.91 339.53 391.20 333.35 Z"/>
    <path fill="#fbb831" opacity="1.00" d=" M 257.01 369.10 C 275.92 362.95 294.90 356.99 314.06 351.64 C 312.48 364.87 315.22 378.50 321.98 389.98 C 331.81 407.01 347.56 419.62 363.93 430.01 C 383.07 442.02 403.87 451.08 424.93 459.11 C 407.74 477.61 389.81 495.44 371.20 512.52 C 340.81 504.38 313.41 485.89 293.24 461.81 C 271.57 435.88 258.86 402.81 257.01 369.10 Z"/>
    <path fill="#fbb831" opacity="1.00" d=" M 136.44 858.67 C 145.91 856.62 156.65 857.47 164.58 863.50 C 171.29 868.49 174.77 876.77 175.54 884.92 C 176.35 893.54 175.07 902.78 170.05 910.04 C 161.19 922.88 142.18 924.75 129.08 917.81 C 121.87 913.75 117.24 906.07 115.87 898.02 C 114.33 889.07 114.86 879.34 119.38 871.28 C 122.92 864.88 129.30 860.23 136.44 858.67 M 141.14 868.19 C 135.01 869.61 130.84 875.24 129.37 881.11 C 127.32 888.94 127.91 897.82 132.21 904.81 C 137.31 913.10 150.51 914.14 156.96 906.93 C 161.58 901.85 162.80 894.61 162.52 887.97 C 162.35 881.65 160.21 874.88 155.10 870.83 C 151.23 867.70 145.87 867.10 141.14 868.19 Z"/>
    <path fill="#fbb831" opacity="1.00" d=" M 226.39 860.49 C 235.86 856.75 246.66 856.86 256.27 860.07 C 256.16 863.69 255.82 867.29 255.47 870.90 C 247.96 867.00 238.19 866.14 230.84 870.84 C 218.70 878.91 218.20 899.45 229.99 908.06 C 237.61 913.31 247.70 912.24 255.96 909.19 C 256.08 912.68 256.24 916.19 256.54 919.68 C 246.11 922.44 234.68 922.67 224.63 918.38 C 217.39 915.30 211.69 908.87 209.71 901.24 C 207.51 892.98 207.90 883.98 210.91 875.98 C 213.59 868.92 219.37 863.22 226.39 860.49 Z"/>
    <path fill="#fbb831" opacity="1.00" d=" M 52.87 858.77 C 57.38 858.73 61.90 858.76 66.41 858.73 C 71.70 874.58 76.76 890.51 82.04 906.37 C 83.54 903.80 84.16 900.87 85.10 898.09 C 89.34 884.98 93.56 871.86 97.81 858.75 C 101.99 858.74 106.17 858.73 110.36 858.77 C 103.56 879.37 96.48 899.88 89.67 920.48 C 84.49 920.52 79.32 920.48 74.14 920.52 C 66.98 899.96 59.99 879.34 52.87 858.77 Z"/>
    <path fill="#fbb831" opacity="1.00" d=" M 185.76 858.76 C 189.92 858.74 194.08 858.74 198.24 858.76 C 198.27 879.33 198.24 899.90 198.26 920.47 C 194.08 920.51 189.91 920.52 185.74 920.47 C 185.76 899.90 185.73 879.33 185.76 858.76 Z"/>
    <path fill="#fbb831" opacity="1.00" d=" M 265.25 858.76 C 277.50 858.73 289.74 858.75 301.99 858.75 C 302.00 862.08 302.00 865.42 301.99 868.76 C 293.99 868.75 286.00 868.74 278.01 868.76 C 278.00 873.75 277.99 878.75 278.01 883.75 C 285.34 883.74 292.66 883.74 299.99 883.75 C 300.03 887.02 300.02 890.29 299.90 893.56 C 292.60 893.43 285.30 893.52 278.00 893.51 C 278.00 899.25 277.99 905.00 278.01 910.75 C 286.01 910.74 294.00 910.74 301.99 910.75 C 302.00 913.99 302.00 917.24 302.00 920.49 C 289.74 920.49 277.49 920.53 265.23 920.48 C 265.27 899.90 265.24 879.33 265.25 858.76 Z"/>
    <path fill="#fbb831" opacity="1.00" d=" M 413.76 858.76 C 426.84 859.16 440.87 856.94 452.96 863.21 C 460.85 867.05 465.39 875.56 466.23 884.06 C 467.13 893.05 466.32 903.08 460.27 910.27 C 454.39 917.36 444.85 919.95 435.99 920.44 C 428.58 920.59 421.17 920.46 413.75 920.49 C 413.74 899.91 413.74 879.33 413.76 858.76 M 426.51 868.77 C 426.42 882.71 426.64 896.66 426.40 910.60 C 433.14 911.17 440.65 910.73 446.02 906.09 C 456.58 897.68 455.70 878.86 444.02 871.83 C 438.88 868.30 432.45 868.62 426.51 868.77 Z"/>
    <path fill="#fbb831" opacity="1.00" d=" M 495.22 858.77 C 499.95 858.72 504.67 858.76 509.40 858.73 C 517.58 879.28 525.57 899.92 533.70 920.50 C 529.02 920.50 524.35 920.49 519.68 920.51 C 517.83 915.83 516.24 911.04 514.26 906.42 C 506.07 906.59 497.88 906.46 489.69 906.49 C 487.87 911.15 486.13 915.85 484.28 920.50 C 479.91 920.49 475.55 920.50 471.18 920.50 C 479.18 899.92 487.22 879.35 495.22 858.77 M 493.30 896.49 C 499.15 896.50 505.01 896.51 510.87 896.48 C 507.92 888.26 505.13 879.99 502.15 871.78 C 498.89 879.90 496.29 888.27 493.30 896.49 Z"/>
    <path fill="#fbb831" opacity="1.00" d=" M 527.76 858.76 C 543.75 858.74 559.75 858.74 575.75 858.76 C 575.75 862.08 575.75 865.41 575.75 868.75 C 569.83 868.76 563.92 868.74 558.01 868.76 C 557.99 886.00 558.01 903.25 558.00 920.49 C 553.83 920.50 549.67 920.50 545.51 920.49 C 545.46 903.24 545.56 885.99 545.46 868.74 C 539.56 868.75 533.66 868.75 527.76 868.75 C 527.74 865.41 527.74 862.08 527.76 858.76 Z"/>
    <path fill="#fbb831" opacity="1.00" d=" M 593.93 858.75 C 598.67 858.74 603.41 858.74 608.14 858.75 C 616.25 879.31 624.34 899.89 632.37 920.48 C 627.74 920.52 623.11 920.44 618.49 920.57 C 616.56 915.93 614.92 911.19 613.12 906.51 C 604.84 906.54 596.55 906.39 588.27 906.59 C 586.63 911.26 584.80 915.87 583.01 920.50 C 578.64 920.50 574.28 920.50 569.92 920.50 C 577.86 899.89 585.96 879.35 593.93 858.75 M 600.75 871.66 C 597.81 879.92 594.90 888.20 592.04 896.49 C 597.87 896.50 603.71 896.50 609.54 896.50 C 606.62 888.21 603.87 879.87 600.75 871.66 Z"/>
    <path fill="#fbb831" opacity="1.00" d=" M 738.51 858.75 C 742.67 858.74 746.83 858.74 750.99 858.75 C 751.01 879.33 751.00 899.91 751.00 920.49 C 746.83 920.50 742.66 920.50 738.50 920.49 C 738.50 899.91 738.49 879.33 738.51 858.75 Z"/>
    <path fill="#fbb831" opacity="1.00" d=" M 762.25 858.76 C 768.08 858.74 773.92 858.72 779.76 858.78 C 788.66 874.08 797.49 889.43 806.47 904.68 C 806.54 889.37 806.47 874.06 806.51 858.75 C 811.08 858.74 815.66 858.74 820.24 858.76 C 820.26 879.33 820.26 899.91 820.25 920.49 C 814.39 920.51 808.54 920.48 802.69 920.51 C 793.76 905.29 784.91 890.03 776.00 874.79 C 775.99 890.03 776.01 905.26 776.00 920.49 C 771.41 920.50 766.82 920.51 762.24 920.49 C 762.25 899.91 762.24 879.33 762.25 858.76 Z"/>
    <path fill="#fbb831" opacity="1.00" d=" M 821.24 858.79 C 837.24 858.70 853.24 858.76 869.24 858.76 C 869.25 862.08 869.25 865.41 869.24 868.75 C 863.33 868.75 857.42 868.74 851.52 868.75 C 851.47 886.00 851.52 903.25 851.49 920.49 C 847.33 920.50 843.16 920.50 839.00 920.49 C 838.99 903.25 839.01 886.00 838.99 868.76 C 833.08 868.74 827.16 868.76 821.25 868.75 C 821.24 865.42 821.24 862.10 821.24 858.79 Z"/>
    <path fill="#fbb831" opacity="1.00" d=" M 876.76 858.76 C 889.00 858.74 901.24 858.74 913.49 858.75 C 913.49 862.07 913.50 865.39 913.51 868.72 C 905.51 868.79 897.51 868.72 889.51 868.76 C 889.49 873.76 889.48 878.76 889.53 883.76 C 896.84 883.74 904.17 883.74 911.49 883.76 C 911.50 887.00 911.50 890.24 911.49 893.50 C 904.16 893.51 896.83 893.48 889.50 893.52 C 889.50 899.26 889.48 905.00 889.52 910.75 C 897.59 910.75 905.67 910.73 913.75 910.76 C 913.74 913.99 913.75 917.23 913.77 920.47 C 901.43 920.53 889.09 920.49 876.75 920.49 C 876.74 899.91 876.74 879.33 876.76 858.76 Z"/>
    <path fill="#fbb831" opacity="1.00" d=" M 925.01 858.75 C 936.07 859.22 947.53 857.38 958.28 860.75 C 969.02 864.21 970.77 880.51 962.11 887.09 C 960.27 888.51 958.02 889.18 955.85 889.89 C 958.16 891.29 960.17 893.24 961.14 895.83 C 964.60 904.02 967.89 912.28 971.29 920.50 C 966.57 920.49 961.86 920.53 957.15 920.46 C 954.78 914.29 952.39 908.14 950.05 901.96 C 949.10 899.72 948.25 897.11 945.97 895.90 C 943.33 894.64 940.31 895.06 937.49 895.00 C 937.50 903.50 937.50 911.99 937.49 920.49 C 933.32 920.50 929.16 920.50 925.00 920.49 C 925.00 899.91 924.99 879.33 925.01 858.75 M 937.51 868.76 C 937.49 874.17 937.49 879.58 937.51 885.00 C 942.02 884.94 946.91 885.51 951.01 883.19 C 955.58 880.49 955.68 872.48 950.68 870.20 C 946.59 868.21 941.89 868.84 937.51 868.76 Z"/>
    <path fill="#fbb831" opacity="1.00" d=" M 979.24 858.78 C 984.41 858.72 989.58 858.73 994.76 858.77 C 1002.55 874.07 1010.29 889.40 1018.19 904.65 C 1018.32 889.35 1018.21 874.06 1018.25 858.76 C 1022.24 858.73 1026.24 858.74 1030.24 858.76 C 1030.26 879.33 1030.25 899.91 1030.25 920.49 C 1025.08 920.51 1019.91 920.51 1014.74 920.49 C 1006.99 905.17 999.21 889.86 991.28 874.63 C 991.21 889.92 991.28 905.20 991.25 920.49 C 987.26 920.49 983.29 920.48 979.32 920.54 C 979.15 899.95 979.30 879.36 979.24 858.78 Z"/>
    <path fill="#fbb831" opacity="1.00" d=" M 1043.76 858.76 C 1055.92 858.74 1068.08 858.74 1080.24 858.76 C 1080.25 862.08 1080.25 865.41 1080.24 868.75 C 1072.24 868.76 1064.25 868.73 1056.25 868.76 C 1056.25 873.75 1056.25 878.75 1056.25 883.74 C 1063.58 883.76 1070.91 883.73 1078.24 883.76 C 1078.25 886.99 1078.25 890.22 1078.26 893.47 C 1070.92 893.55 1063.58 893.45 1056.24 893.52 C 1056.26 899.26 1056.24 905.00 1056.25 910.74 C 1064.33 910.75 1072.41 910.74 1080.49 910.75 C 1080.50 913.99 1080.50 917.24 1080.49 920.49 C 1068.25 920.50 1056.00 920.51 1043.75 920.49 C 1043.74 899.91 1043.74 879.33 1043.76 858.76 Z"/>
    <path fill="#fbb831" opacity="1.00" d=" M 1086.23 858.80 C 1102.23 858.68 1118.24 858.77 1134.24 858.76 C 1134.25 862.08 1134.25 865.41 1134.24 868.75 C 1128.34 868.75 1122.45 868.76 1116.56 868.73 C 1116.42 885.98 1116.55 903.24 1116.50 920.49 C 1112.32 920.50 1108.16 920.50 1104.00 920.49 C 1103.99 903.25 1104.01 886.00 1103.99 868.76 C 1098.08 868.74 1092.16 868.76 1086.25 868.75 C 1086.24 865.43 1086.24 862.11 1086.23 858.80 Z"/>
    <path fill="#fbb831" opacity="1.00" d=" M 345.51 877.75 C 353.26 877.74 361.00 877.73 368.75 877.76 C 368.75 885.42 368.76 893.08 368.75 900.75 C 361.02 900.77 353.29 900.71 345.56 900.78 C 345.43 893.10 345.52 885.43 345.51 877.75 Z"/>
    <path fill="#fbb831" opacity="1.00" d=" M 671.25 877.76 C 678.91 877.73 686.58 877.74 694.24 877.76 C 694.26 885.42 694.26 893.08 694.24 900.75 C 686.58 900.75 678.91 900.75 671.25 900.75 C 671.24 893.08 671.25 885.42 671.25 877.76 Z"/>
  </g>
</svg>
