<?xml version="1.0" encoding="UTF-8" standalone="no"?>
<!-- Created with Inkscape (http://www.inkscape.org/) -->
<svg
   xmlns:dc="http://purl.org/dc/elements/1.1/"
   xmlns:cc="http://creativecommons.org/ns#"
   xmlns:rdf="http://www.w3.org/1999/02/22-rdf-syntax-ns#"
   xmlns:svg="http://www.w3.org/2000/svg"
   xmlns="http://www.w3.org/2000/svg"
   xmlns:sodipodi="http://sodipodi.sourceforge.net/DTD/sodipodi-0.dtd"
   xmlns:inkscape="http://www.inkscape.org/namespaces/inkscape"
   width="231.61113"
   height="46.845001"
   id="svg2490"
   sodipodi:version="0.32"
   inkscape:version="0.46"
   version="1.0"
   sodipodi:docname="Telekom-Ungarn-Logo.svg"
   inkscape:output_extension="org.inkscape.output.svg.inkscape">
  <defs
     id="defs2492">
    <inkscape:perspective
       sodipodi:type="inkscape:persp3d"
       inkscape:vp_x="0 : 526.18109 : 1"
       inkscape:vp_y="0 : 1000 : 0"
       inkscape:vp_z="744.09448 : 526.18109 : 1"
       inkscape:persp3d-origin="372.04724 : 350.78739 : 1"
       id="perspective2498" />
    <inkscape:perspective
       id="perspective2549"
       inkscape:persp3d-origin="372.04724 : 350.78739 : 1"
       inkscape:vp_z="744.09448 : 526.18109 : 1"
       inkscape:vp_y="0 : 1000 : 0"
       inkscape:vp_x="0 : 526.18109 : 1"
       sodipodi:type="inkscape:persp3d" />
  </defs>
  <sodipodi:namedview
     id="base"
     pagecolor="#ffffff"
     bordercolor="#666666"
     borderopacity="1.0"
     inkscape:pageopacity="0.0"
     inkscape:pageshadow="2"
     inkscape:zoom="2.4437513"
     inkscape:cx="123.53586"
     inkscape:cy="23.422501"
     inkscape:document-units="px"
     inkscape:current-layer="layer1"
     showgrid="false"
     inkscape:window-width="640"
     inkscape:window-height="667"
     inkscape:window-x="110"
     inkscape:window-y="67" />
  <metadata
     id="metadata2495">
    <rdf:RDF>
      <cc:Work
         rdf:about="">
        <dc:format>image/svg+xml</dc:format>
        <dc:type
           rdf:resource="http://purl.org/dc/dcmitype/StillImage" />
      </cc:Work>
    </rdf:RDF>
  </metadata>
  <g
     inkscape:label="Ebene 1"
     inkscape:groupmode="layer"
     id="layer1"
     transform="translate(-121.33729,-471.79683)">
    <path
       d="M 315.52479,502.70933 L 324.85729,502.70933 L 324.85729,493.31683 L 315.52479,493.31683 L 315.52479,502.70933 z"
       style="fill:#7b7c7e;fill-opacity:1;fill-rule:nonzero;stroke:none"
       id="path13" />
    <path
       d="M 287.46479,502.70933 L 296.79717,502.70933 L 296.79717,493.31683 L 287.46479,493.31683 L 287.46479,502.70933 z"
       style="fill:#7b7c7e;fill-opacity:1;fill-rule:nonzero;stroke:none"
       id="path15" />
    <path
       d="M 259.34479,502.70933 L 268.73854,502.70933 L 268.73854,493.31683 L 259.34479,493.31683 L 259.34479,502.70933 z"
       style="fill:#ffffff;fill-opacity:1;fill-rule:nonzero;stroke:none"
       id="path17" />
    <path
       d="M 231.28479,502.70933 L 240.61854,502.70933 L 240.61854,493.31683 L 231.28479,493.31683 L 231.28479,502.70933 z"
       style="fill:#ffffff;fill-opacity:1;fill-rule:nonzero;stroke:none"
       id="path19" />
    <path
       d="M 126.56854,481.48683 L 126.56854,487.37183 C 126.56854,488.91683 126.62729,489.39308 126.98479,489.74933 C 127.28229,489.98683 127.87604,490.16558 128.52979,490.16558 L 128.88604,490.16558 L 128.88604,491.11683 L 121.63354,491.11683 L 121.63354,490.16558 L 121.99104,490.16558 C 122.64479,490.16558 123.23854,489.98683 123.47729,489.74933 C 123.83354,489.39308 123.95229,488.91683 123.95229,487.37183 L 123.95229,475.71933 C 123.95229,474.23308 123.83354,473.69808 123.47729,473.34183 C 123.23854,473.10308 122.64479,472.92558 121.99104,472.92558 L 121.63354,472.92558 L 121.63354,472.03433 L 128.88604,472.03433 L 128.88604,472.92558 L 128.52979,472.92558 C 127.87604,472.92558 127.28229,473.10308 126.98479,473.34183 C 126.62729,473.69808 126.56854,474.23308 126.56854,475.71933 L 126.56854,480.41683 L 133.70229,480.41683 L 133.70229,475.71933 C 133.70229,474.23308 133.64354,473.69808 133.28604,473.34183 C 132.98854,473.10308 132.39479,472.92558 131.74104,472.92558 L 131.44354,472.92558 L 131.44354,472.03433 L 138.69604,472.03433 L 138.69604,472.92558 L 138.27979,472.92558 C 137.62604,472.92558 137.09104,473.10308 136.79354,473.34183 C 136.43604,473.69808 136.37729,474.23308 136.37729,475.71933 L 136.37729,487.37183 C 136.37729,488.85808 136.43604,489.39308 136.79354,489.74933 C 137.09104,489.98683 137.62604,490.16558 138.27979,490.16558 L 138.69604,490.16558 L 138.69604,491.11683 L 131.44354,491.11683 L 131.44354,490.16558 L 131.74104,490.16558 C 132.39479,490.16558 132.98854,489.98683 133.28604,489.74933 C 133.64354,489.39308 133.70229,488.91683 133.70229,487.37183 L 133.70229,481.48683 L 126.56854,481.48683"
       style="fill:#7b7c7e;fill-opacity:1;fill-rule:nonzero;stroke:none"
       id="path21" />
    <path
       d="M 144.10604,481.42683 C 144.93854,478.81058 146.06729,477.68183 147.73229,477.68183 C 148.98104,477.68183 149.87229,478.45433 149.87229,479.52433 C 149.87229,480.47558 149.21854,481.12933 148.38604,481.12933 C 147.55354,481.12933 146.95854,480.53558 146.95854,479.76183 C 146.95854,479.22683 147.13729,478.98933 147.67229,478.63308 L 147.55354,478.63308 C 147.43479,478.57308 147.31604,478.57308 147.25604,478.57308 C 146.48354,478.57308 145.59229,479.58433 145.05604,481.18933 C 144.52229,482.67558 144.28354,484.39933 144.28354,486.95558 L 144.28354,487.90683 C 144.28354,489.51183 144.28354,489.57058 144.58104,489.86808 C 144.75979,490.10683 145.11604,490.22558 145.65104,490.22558 L 146.60229,490.22558 L 146.60229,491.11683 L 139.94479,491.11683 L 139.94479,490.22558 L 140.41979,490.22558 C 141.60854,490.22558 141.90604,489.80933 141.90604,487.90683 L 141.90604,481.12933 C 141.90604,479.22683 141.60854,478.81058 140.41979,478.81058 L 140.12229,478.81058 L 140.12229,477.91933 L 144.22479,477.74058 L 144.10604,481.42683"
       style="fill:#7b7c7e;fill-opacity:1;fill-rule:nonzero;stroke:none"
       id="path23" />
    <path
       d="M 156.64979,491.29558 L 152.72604,480.53558 C 152.19104,479.22683 151.83354,478.81058 151.12104,478.81058 L 150.82354,478.81058 L 150.82354,477.91933 L 156.82729,477.91933 L 156.82729,478.81058 L 156.29229,478.81058 C 155.46104,478.81058 154.98479,479.10808 154.98479,479.58433 C 154.98479,479.88058 155.04479,480.17808 155.28229,480.77308 L 157.95729,488.20433 L 160.63229,480.95183 C 160.81104,480.53558 160.86979,480.11933 160.86979,479.88058 C 160.86979,479.22683 160.39479,478.81058 159.62229,478.81058 L 159.14604,478.81058 L 159.14604,477.91933 L 163.72354,477.91933 L 163.72354,478.81058 C 162.77229,478.87058 162.35604,479.22683 161.88104,480.53558 L 157.83854,491.29558 L 156.64979,491.29558"
       style="fill:#7b7c7e;fill-opacity:1;fill-rule:nonzero;stroke:none"
       id="path25" />
    <path
       d="M 171.63104,484.33933 C 170.61979,484.33933 169.84729,484.45808 169.25229,484.63683 L 169.25229,483.56683 C 169.96604,483.44808 170.73854,483.38933 171.63104,483.38933 L 171.63104,481.78308 C 171.63104,479.58433 170.97604,478.63308 169.25229,478.57308 L 169.25229,477.56308 C 169.31229,477.56308 169.37104,477.56308 169.43104,477.56308 C 171.27354,477.56308 172.64104,478.15683 173.41479,479.22683 C 173.83104,479.88058 174.06729,480.89183 174.06729,482.43683 L 174.06729,488.02558 C 174.06729,489.15558 174.18729,489.63058 174.72229,489.63058 C 175.19729,489.63058 175.43479,489.09558 175.49479,487.78808 L 175.55354,487.60933 L 176.44604,487.60933 C 176.44604,488.73933 176.38604,489.09558 176.14854,489.63058 C 175.79229,490.70058 175.01979,491.29558 174.06729,491.29558 C 172.81979,491.29558 172.04729,490.52308 171.74979,488.91683 C 171.09604,490.10683 170.26354,490.87933 169.25229,491.23558 L 169.25229,490.04683 C 169.96604,489.86808 170.61979,489.27433 171.03604,488.44183 C 171.51229,487.60933 171.63104,486.83683 171.63104,485.17183 L 171.63104,484.33933 z M 169.25229,484.63683 C 169.01479,484.69683 168.77729,484.81558 168.53979,484.93433 C 167.52854,485.46933 166.87479,486.59808 166.87479,487.84683 C 166.87479,489.21433 167.58854,490.10683 168.71729,490.10683 C 168.89604,490.10683 169.07479,490.04683 169.25229,490.04683 L 169.25229,491.23558 C 168.77729,491.41433 168.30104,491.47308 167.70729,491.47308 C 165.74479,491.47308 164.25854,489.98683 164.25854,487.90683 C 164.25854,485.52808 166.04229,484.04183 169.25229,483.56683 L 169.25229,484.63683 z M 169.25229,477.56308 L 169.25229,478.57308 C 169.13354,478.51433 169.07479,478.51433 168.95604,478.51433 C 168.00354,478.51433 167.52854,478.69183 167.05354,479.22683 C 167.76604,479.40558 168.18229,480.00058 168.18229,480.77308 C 168.18229,481.72433 167.52854,482.37808 166.57729,482.37808 C 165.62604,482.37808 164.97229,481.72433 164.97229,480.77308 C 164.97229,478.98933 166.87479,477.62183 169.25229,477.56308"
       style="fill:#7b7c7e;fill-opacity:1;fill-rule:nonzero;stroke:none"
       id="path27" />
    <path
       d="M 181.14229,486.83683 C 181.14229,488.02558 181.20104,488.50058 181.38104,489.09558 C 181.55854,489.74933 182.09354,490.16558 182.74729,490.16558 C 183.87729,490.16558 184.53104,488.97683 184.53104,486.95558 L 184.53104,486.59808 L 185.48229,486.59808 L 185.48229,487.13433 C 185.48229,489.92808 184.29354,491.35433 182.03479,491.35433 C 180.96479,491.35433 180.07229,491.05808 179.53729,490.40308 C 178.94229,489.69058 178.76479,488.85808 178.76479,486.83683 L 178.76479,478.93058 L 176.68354,478.93058 L 176.68354,478.09808 C 179.18104,477.50308 180.01229,476.37433 180.36979,472.98558 L 181.14229,472.98558 L 181.14229,477.91933 L 185.00604,477.91933 L 185.00604,478.93058 L 181.14229,478.93058 L 181.14229,486.83683"
       style="fill:#7b7c7e;fill-opacity:1;fill-rule:nonzero;stroke:none"
       id="path29" />
    <path
       d="M 194.87479,482.08058 L 194.04229,482.08058 C 193.56729,479.64308 192.43729,478.45433 190.65479,478.45433 C 189.46479,478.45433 188.51479,479.34683 188.51479,480.47558 C 188.51479,481.54558 189.10854,482.08058 190.89229,482.67558 C 192.73479,483.26933 193.50729,483.56683 194.10229,484.04183 C 195.17229,484.87433 195.64854,485.88558 195.64854,487.19308 C 195.64854,489.63058 193.92354,491.35433 191.36729,491.35433 C 190.23729,491.35433 189.58479,491.17683 188.15729,490.34433 C 188.03854,490.22558 187.91979,490.22558 187.80104,490.22558 C 187.56229,490.22558 187.44354,490.46308 187.26604,491.11683 L 186.49229,491.11683 L 186.49229,486.24183 L 187.26604,486.24183 C 187.62229,487.55058 187.91979,488.26308 188.33604,488.85808 C 189.04854,489.86808 190.17854,490.46308 191.36729,490.46308 C 192.67604,490.46308 193.68604,489.51183 193.68604,488.14433 C 193.68604,487.31183 193.20979,486.59808 192.49729,486.12308 C 191.84354,485.70683 191.84354,485.70683 189.94104,485.11308 C 187.68229,484.33933 186.61229,483.09183 186.61229,481.24808 C 186.61229,479.16808 188.15729,477.68183 190.47604,477.68183 C 191.42729,477.68183 192.37854,477.91933 193.15104,478.45433 C 193.32979,478.51433 193.50729,478.57308 193.62604,478.57308 C 193.80479,478.57308 193.98354,478.33558 194.04229,477.91933 L 194.87479,477.91933 L 194.87479,482.08058"
       style="fill:#7b7c7e;fill-opacity:1;fill-rule:nonzero;stroke:none"
       id="path31" />
    <path
       d="M 206.40854,491.11683 L 202.24604,484.45808 L 201.11729,485.46933 L 201.11729,487.90683 C 201.11729,489.80933 201.35479,490.22558 202.60354,490.22558 L 203.13854,490.22558 L 203.13854,491.11683 L 196.77729,491.11683 L 196.77729,490.22558 L 197.25354,490.22558 C 198.44229,490.22558 198.73979,489.80933 198.73979,487.90683 L 198.73979,475.18433 C 198.73979,473.28308 198.44229,472.92558 197.25354,472.92558 L 196.95604,472.92558 L 196.95604,472.03433 L 201.11729,471.79683 L 201.11729,484.10183 L 204.98104,480.77308 C 205.51604,480.29683 205.81354,479.82183 205.81354,479.46433 C 205.81354,479.04808 205.45729,478.81058 204.62479,478.81058 L 204.14854,478.81058 L 204.14854,477.91933 L 209.79604,477.91933 L 209.79604,478.81058 L 209.55979,478.81058 C 208.72729,478.81058 208.31104,479.04808 207.12104,480.05933 L 203.97104,482.91308 L 207.47854,488.38183 C 208.31104,489.80933 208.84604,490.22558 209.79604,490.22558 L 210.03479,490.22558 L 210.03479,491.11683 L 206.40854,491.11683"
       style="fill:#7b7c7e;fill-opacity:1;fill-rule:nonzero;stroke:none"
       id="path33" />
    <path
       d="M 215.56354,473.46058 C 215.56354,474.29308 214.84979,475.00558 213.95854,475.00558 C 213.12604,475.00558 212.41229,474.29308 212.41229,473.46058 C 212.41229,472.56933 213.12604,471.85558 214.01729,471.85558 C 214.84979,471.85558 215.56354,472.56933 215.56354,473.46058 z M 215.38479,487.90683 C 215.38479,489.80933 215.62354,490.22558 216.87104,490.22558 L 217.28729,490.22558 L 217.28729,491.11683 L 211.04479,491.11683 L 211.04479,490.22558 L 211.52104,490.22558 C 212.70979,490.22558 212.94729,489.80933 212.94729,487.90683 L 212.94729,481.12933 C 212.94729,479.22683 212.70979,478.81058 211.52104,478.81058 L 211.22354,478.81058 L 211.22354,477.91933 L 215.38479,477.74058 L 215.38479,487.90683"
       style="fill:#7b7c7e;fill-opacity:1;fill-rule:nonzero;stroke:none"
       id="path35" />
    <path
       d="M 129.83854,514.54058 C 129.83854,516.08558 129.89729,516.56183 130.25479,516.91683 C 130.55104,517.15558 131.14604,517.33433 131.79979,517.33433 L 132.45354,517.33433 L 132.45354,518.28558 L 124.60729,518.28558 L 124.60729,517.33433 L 125.26104,517.33433 C 125.91479,517.33433 126.50979,517.15558 126.74729,516.91683 C 127.10354,516.56183 127.22229,516.08558 127.22229,514.54058 L 127.22229,500.09308 L 126.56854,500.09308 C 124.90354,500.09308 123.59604,500.98558 122.88229,502.47183 C 122.52604,503.36308 122.34729,504.25433 122.16854,505.86058 L 121.33729,505.80183 L 121.51479,499.20183 L 135.60479,499.20183 L 135.72354,505.80183 L 134.89104,505.86058 C 134.35604,501.69808 133.04854,500.09308 130.25479,500.09308 L 129.83854,500.09308 L 129.83854,514.54058"
       style="fill:#7b7c7e;fill-opacity:1;fill-rule:nonzero;stroke:none"
       id="path37" />
    <path
       d="M 143.74979,510.61683 C 143.80854,507.52558 142.85729,505.68183 141.25229,505.68183 C 141.19229,505.68183 141.19229,505.68183 141.19229,505.74183 L 141.19229,504.73058 C 144.22479,504.73058 146.30604,507.40558 146.42479,511.62683 L 141.19229,511.62683 L 141.19229,510.61683 L 143.74979,510.61683 z M 141.19229,518.64183 L 141.19229,517.51308 C 141.37104,517.51308 141.60854,517.57183 141.84729,517.57183 C 143.39229,517.57183 144.40354,516.73933 145.41354,514.59933 L 146.24604,515.07558 C 144.99729,517.57183 143.51104,518.64183 141.37104,518.64183 C 141.31104,518.64183 141.25229,518.64183 141.19229,518.64183 z M 141.19229,505.74183 C 139.58729,505.74183 138.63604,507.64308 138.57729,510.61683 L 141.19229,510.61683 L 141.19229,511.62683 L 138.57729,511.62683 C 138.57729,515.37308 139.34979,517.15558 141.19229,517.51308 L 141.19229,518.64183 C 137.98229,518.58183 135.90229,515.78933 135.90229,511.62683 C 135.90229,507.58308 138.10229,504.73058 141.07354,504.73058 C 141.13354,504.73058 141.13354,504.73058 141.19229,504.73058 L 141.19229,505.74183"
       style="fill:#7b7c7e;fill-opacity:1;fill-rule:nonzero;stroke:none"
       id="path39" />
    <path
       d="M 152.19104,515.07558 C 152.19104,516.97683 152.48854,517.39308 153.67729,517.39308 L 154.15229,517.39308 L 154.15229,518.28558 L 147.91104,518.28558 L 147.91104,517.39308 L 148.32729,517.39308 C 149.57479,517.39308 149.81354,516.97683 149.81354,515.07558 L 149.81354,502.35308 C 149.81354,500.45058 149.57479,500.09308 148.32729,500.09308 L 148.02979,500.09308 L 148.02979,499.20183 L 152.19104,498.96433 L 152.19104,515.07558"
       style="fill:#7b7c7e;fill-opacity:1;fill-rule:nonzero;stroke:none"
       id="path41" />
    <path
       d="M 163.42604,510.61683 C 163.42604,507.52558 162.47604,505.68183 160.86979,505.68183 C 160.86979,505.68183 160.86979,505.74183 160.81104,505.74183 L 160.81104,504.73058 C 163.90229,504.73058 165.92354,507.40558 166.10104,511.62683 L 160.81104,511.62683 L 160.81104,510.61683 L 163.42604,510.61683 z M 160.81104,518.64183 L 160.81104,517.51308 C 161.04854,517.51308 161.22729,517.57183 161.46479,517.57183 C 163.01104,517.57183 164.02104,516.73933 165.03104,514.59933 L 165.92354,515.07558 C 164.67479,517.57183 163.12979,518.64183 161.04854,518.64183 C 160.92979,518.64183 160.86979,518.64183 160.81104,518.64183 z M 160.81104,505.74183 C 159.26479,505.74183 158.25479,507.64308 158.25479,510.61683 L 160.81104,510.61683 L 160.81104,511.62683 L 158.19479,511.62683 C 158.25479,515.37308 159.02729,517.15558 160.81104,517.51308 L 160.81104,518.64183 C 157.60104,518.58183 155.51979,515.78933 155.51979,511.62683 C 155.51979,507.58308 157.71979,504.73058 160.75104,504.73058 L 160.81104,504.73058 L 160.81104,505.74183"
       style="fill:#7b7c7e;fill-opacity:1;fill-rule:nonzero;stroke:none"
       id="path43" />
    <path
       d="M 177.15979,518.28558 L 172.99854,511.62683 L 171.86854,512.63683 L 171.86854,515.07558 C 171.86854,516.97683 172.10604,517.39308 173.35479,517.39308 L 173.88979,517.39308 L 173.88979,518.28558 L 167.52854,518.28558 L 167.52854,517.39308 L 168.00354,517.39308 C 169.19354,517.39308 169.43104,516.97683 169.43104,515.07558 L 169.43104,502.35308 C 169.43104,500.45058 169.19354,500.09308 168.00354,500.09308 L 167.70729,500.09308 L 167.70729,499.20183 L 171.86854,498.96433 L 171.86854,511.27058 L 175.73229,507.94183 C 176.26729,507.46558 176.56479,506.98933 176.56479,506.63433 C 176.56479,506.21808 176.20854,505.97808 175.31604,505.97808 L 174.89979,505.97808 L 174.89979,505.08683 L 180.54854,505.08683 L 180.54854,505.97808 L 180.25104,505.97808 C 179.41854,505.97808 179.06229,506.21808 177.87229,507.22808 L 174.72229,510.08183 L 178.22979,515.55058 C 179.06229,516.97683 179.59604,517.39308 180.54854,517.39308 L 180.78604,517.39308 L 180.78604,518.28558 L 177.15979,518.28558"
       style="fill:#7b7c7e;fill-opacity:1;fill-rule:nonzero;stroke:none"
       id="path45" />
    <path
       d="M 187.38479,517.74933 C 187.38479,517.74933 187.38479,517.74933 187.44354,517.74933 C 189.40604,517.74933 190.41729,515.72808 190.41729,511.62683 C 190.41729,509.72433 190.17854,508.35808 189.76229,507.34683 C 189.28729,506.27683 188.39479,505.62308 187.44354,505.62308 C 187.38479,505.62308 187.38479,505.62308 187.38479,505.62308 L 187.38479,504.73058 C 187.38479,504.73058 187.38479,504.73058 187.44354,504.73058 C 190.89229,504.73058 193.20979,507.52558 193.20979,511.68683 C 193.20979,515.90683 190.89229,518.64183 187.38479,518.64183 L 187.38479,517.74933 z M 185.06604,507.34683 C 184.58979,508.35808 184.35229,509.72433 184.35229,511.56683 C 184.35229,515.72808 185.36354,517.74933 187.38479,517.74933 L 187.38479,518.64183 C 187.38479,518.64183 187.38479,518.64183 187.32479,518.64183 C 183.93604,518.64183 181.61854,515.84808 181.61854,511.68683 C 181.61854,507.52558 183.93604,504.73058 187.38479,504.73058 L 187.38479,505.62308 C 186.43354,505.62308 185.48229,506.27683 185.06604,507.34683"
       style="fill:#7b7c7e;fill-opacity:1;fill-rule:nonzero;stroke:none"
       id="path47" />
    <path
       d="M 210.27229,510.25933 C 210.27229,508.47558 210.15354,507.52558 209.91604,506.98933 C 209.61854,506.39433 209.08354,506.03933 208.42979,506.03933 C 207.65729,506.03933 206.94354,506.51433 206.46729,507.40558 C 205.93229,508.35808 205.81354,509.07058 205.81354,511.50808 L 205.81354,515.07558 C 205.81354,516.97683 206.11104,517.39308 207.29979,517.39308 L 207.71604,517.39308 L 207.71604,518.28558 L 203.43604,518.28558 L 203.43604,510.67558 C 203.43604,508.29808 203.37604,507.70308 203.07854,507.04933 C 202.72229,506.39433 202.18729,506.03933 201.53354,506.03933 C 200.70104,506.03933 200.04729,506.51433 199.57104,507.40558 C 199.09604,508.35808 198.97729,509.24933 198.97729,511.50808 L 198.97729,515.07558 C 198.97729,517.03683 199.21479,517.39308 200.46354,517.39308 L 200.81979,517.39308 L 200.81979,518.28558 L 194.63729,518.28558 L 194.63729,517.39308 L 195.11229,517.39308 C 196.30229,517.39308 196.53979,516.91683 196.53979,515.07558 L 196.53979,508.29808 C 196.53979,506.45433 196.30229,505.97808 195.11229,505.97808 L 194.81604,505.97808 L 194.81604,505.08683 L 198.79854,504.90933 L 198.79854,507.22808 C 199.33354,505.80183 200.70104,504.84933 202.18729,504.84933 C 203.79229,504.84933 204.80354,505.62308 205.51604,507.40558 C 206.34854,505.68183 207.47854,504.84933 209.08354,504.84933 C 210.27229,504.84933 211.40229,505.38433 211.99604,506.33558 C 212.47229,507.16808 212.70979,508.11933 212.70979,509.90308 L 212.70979,515.07558 C 212.70979,516.97683 212.94729,517.39308 214.13729,517.39308 L 214.49354,517.39308 L 214.49354,518.28558 L 210.27229,518.28558 L 210.27229,510.25933"
       style="fill:#7b7c7e;fill-opacity:1;fill-rule:nonzero;stroke:none"
       id="path49" />
    <path
       d="M 261.24729,518.22558 L 261.24729,515.60933 C 254.64854,515.55058 253.57854,514.54058 253.57854,508.29808 L 253.57854,474.23308 C 261.18729,474.35308 265.64604,479.40558 266.29979,488.67933 L 268.73854,488.32308 L 268.26229,472.03433 L 231.76104,472.03433 L 231.28479,488.32308 L 233.72229,488.67933 C 234.37604,479.40558 238.83479,474.35308 246.44479,474.23308 L 246.44479,508.29808 C 246.44479,514.54058 245.37354,515.55058 238.77604,515.60933 L 238.77604,518.22558 L 261.24729,518.22558"
       style="fill:#ec008c;fill-opacity:1;fill-rule:nonzero;stroke:none"
       id="path51" />
    <path
       d="M 343.58354,502.70933 L 352.91717,502.70933 L 352.91717,493.31683 L 343.58354,493.31683 L 343.58354,502.70933 z"
       style="fill:#7b7c7e;fill-opacity:1;fill-rule:nonzero;stroke:none"
       id="path53" />
    <path
       d="M 315.55604,502.70933 L 324.88979,502.70933 L 324.88979,493.31683 L 315.55604,493.31683 L 315.55604,502.70933 z"
       style="fill:#7b7c7e;fill-opacity:1;fill-rule:nonzero;stroke:none"
       id="path67" />
    <path
       d="M 287.49729,502.70933 L 296.82979,502.70933 L 296.82979,493.31683 L 287.49729,493.31683 L 287.49729,502.70933 z"
       style="fill:#7b7c7e;fill-opacity:1;fill-rule:nonzero;stroke:none"
       id="path69" />
    <path
       d="M 259.37729,502.70933 L 268.77092,502.70933 L 268.77092,493.31683 L 259.37729,493.31683 L 259.37729,502.70933 z"
       style="fill:#7b7c7e;fill-opacity:1;fill-rule:nonzero;stroke:none"
       id="path71" />
    <path
       d="M 231.31729,502.70933 L 240.64979,502.70933 L 240.64979,493.31683 L 231.31729,493.31683 L 231.31729,502.70933 z"
       style="fill:#7b7c7e;fill-opacity:1;fill-rule:nonzero;stroke:none"
       id="path73" />
    <path
       d="M 126.60104,481.48683 L 126.60104,487.37183 C 126.60104,488.91683 126.65979,489.39308 127.01729,489.74933 C 127.31479,489.98683 127.90854,490.16558 128.56229,490.16558 L 128.91854,490.16558 L 128.91854,491.11683 L 121.66604,491.11683 L 121.66604,490.16558 L 122.02354,490.16558 C 122.67729,490.16558 123.27104,489.98683 123.50979,489.74933 C 123.86604,489.39308 123.98479,488.91683 123.98479,487.37183 L 123.98479,475.71933 C 123.98479,474.23308 123.86604,473.69808 123.50979,473.34183 C 123.27104,473.10308 122.67729,472.92558 122.02354,472.92558 L 121.66604,472.92558 L 121.66604,472.03433 L 128.91854,472.03433 L 128.91854,472.92558 L 128.56229,472.92558 C 127.90854,472.92558 127.31479,473.10308 127.01729,473.34183 C 126.65979,473.69808 126.60104,474.23308 126.60104,475.71933 L 126.60104,480.41683 L 133.73479,480.41683 L 133.73479,475.71933 C 133.73479,474.23308 133.67604,473.69808 133.31854,473.34183 C 133.02104,473.10308 132.42604,472.92558 131.77229,472.92558 L 131.47604,472.92558 L 131.47604,472.03433 L 138.72729,472.03433 L 138.72729,472.92558 L 138.31229,472.92558 C 137.65854,472.92558 137.12354,473.10308 136.82604,473.34183 C 136.46854,473.69808 136.40979,474.23308 136.40979,475.71933 L 136.40979,487.37183 C 136.40979,488.85808 136.46854,489.39308 136.82604,489.74933 C 137.12354,489.98683 137.65854,490.16558 138.31229,490.16558 L 138.72729,490.16558 L 138.72729,491.11683 L 131.47604,491.11683 L 131.47604,490.16558 L 131.77229,490.16558 C 132.42604,490.16558 133.02104,489.98683 133.31854,489.74933 C 133.67604,489.39308 133.73479,488.91683 133.73479,487.37183 L 133.73479,481.48683 L 126.60104,481.48683"
       style="fill:#7b7c7e;fill-opacity:1;fill-rule:nonzero;stroke:none"
       id="path75" />
    <path
       d="M 144.13854,481.42683 C 144.97104,478.81058 146.09979,477.68183 147.76354,477.68183 C 149.01229,477.68183 149.90479,478.45433 149.90479,479.52433 C 149.90479,480.47558 149.25104,481.12933 148.41854,481.12933 C 147.58604,481.12933 146.99104,480.53558 146.99104,479.76183 C 146.99104,479.22683 147.16979,478.98933 147.70479,478.63308 L 147.58604,478.63308 C 147.46729,478.57308 147.34854,478.57308 147.28854,478.57308 C 146.51604,478.57308 145.62479,479.58433 145.08854,481.18933 C 144.55479,482.67558 144.31604,484.39933 144.31604,486.95558 L 144.31604,487.90683 C 144.31604,489.51183 144.31604,489.57058 144.61354,489.86808 C 144.79229,490.10683 145.14854,490.22558 145.68354,490.22558 L 146.63479,490.22558 L 146.63479,491.11683 L 139.97604,491.11683 L 139.97604,490.22558 L 140.45229,490.22558 C 141.64104,490.22558 141.93854,489.80933 141.93854,487.90683 L 141.93854,481.12933 C 141.93854,479.22683 141.64104,478.81058 140.45229,478.81058 L 140.15479,478.81058 L 140.15479,477.91933 L 144.25729,477.74058 L 144.13854,481.42683"
       style="fill:#7b7c7e;fill-opacity:1;fill-rule:nonzero;stroke:none"
       id="path77" />
    <path
       d="M 156.68229,491.29558 L 152.75854,480.53558 C 152.22354,479.22683 151.86604,478.81058 151.15229,478.81058 L 150.85604,478.81058 L 150.85604,477.91933 L 156.85979,477.91933 L 156.85979,478.81058 L 156.32479,478.81058 C 155.49354,478.81058 155.01729,479.10808 155.01729,479.58433 C 155.01729,479.88058 155.07729,480.17808 155.31479,480.77308 L 157.98979,488.20433 L 160.66479,480.95183 C 160.84354,480.53558 160.90229,480.11933 160.90229,479.88058 C 160.90229,479.22683 160.42729,478.81058 159.65479,478.81058 L 159.17854,478.81058 L 159.17854,477.91933 L 163.75604,477.91933 L 163.75604,478.81058 C 162.80479,478.87058 162.38854,479.22683 161.91354,480.53558 L 157.87104,491.29558 L 156.68229,491.29558"
       style="fill:#7b7c7e;fill-opacity:1;fill-rule:nonzero;stroke:none"
       id="path79" />
    <path
       d="M 171.66354,484.33933 C 170.65229,484.33933 169.87979,484.45808 169.28479,484.63683 L 169.28479,483.56683 C 169.99854,483.44808 170.77104,483.38933 171.66354,483.38933 L 171.66354,481.78308 C 171.66354,479.58433 171.00854,478.63308 169.28479,478.57308 L 169.28479,477.56308 C 169.34479,477.56308 169.40354,477.56308 169.46354,477.56308 C 171.30604,477.56308 172.67354,478.15683 173.44604,479.22683 C 173.86229,479.88058 174.09979,480.89183 174.09979,482.43683 L 174.09979,488.02558 C 174.09979,489.15558 174.21854,489.63058 174.75479,489.63058 C 175.22979,489.63058 175.46729,489.09558 175.52729,487.78808 L 175.58604,487.60933 L 176.47854,487.60933 C 176.47854,488.73933 176.41854,489.09558 176.18104,489.63058 C 175.82479,490.70058 175.05104,491.29558 174.09979,491.29558 C 172.85229,491.29558 172.07979,490.52308 171.78229,488.91683 C 171.12729,490.10683 170.29479,490.87933 169.28479,491.23558 L 169.28479,490.04683 C 169.99854,489.86808 170.65229,489.27433 171.06854,488.44183 C 171.54354,487.60933 171.66354,486.83683 171.66354,485.17183 L 171.66354,484.33933 z M 169.28479,484.63683 C 169.04729,484.69683 168.80854,484.81558 168.57104,484.93433 C 167.56104,485.46933 166.90729,486.59808 166.90729,487.84683 C 166.90729,489.21433 167.62104,490.10683 168.74979,490.10683 C 168.92854,490.10683 169.10729,490.04683 169.28479,490.04683 L 169.28479,491.23558 C 168.80854,491.41433 168.33354,491.47308 167.73854,491.47308 C 165.77729,491.47308 164.29104,489.98683 164.29104,487.90683 C 164.29104,485.52808 166.07479,484.04183 169.28479,483.56683 L 169.28479,484.63683 z M 169.28479,477.56308 L 169.28479,478.57308 C 169.16604,478.51433 169.10729,478.51433 168.98854,478.51433 C 168.03604,478.51433 167.56104,478.69183 167.08479,479.22683 C 167.79854,479.40558 168.21479,480.00058 168.21479,480.77308 C 168.21479,481.72433 167.56104,482.37808 166.60979,482.37808 C 165.65854,482.37808 165.00479,481.72433 165.00479,480.77308 C 165.00479,478.98933 166.90729,477.62183 169.28479,477.56308"
       style="fill:#7b7c7e;fill-opacity:1;fill-rule:nonzero;stroke:none"
       id="path81" />
    <path
       d="M 181.17479,486.83683 C 181.17479,488.02558 181.23354,488.50058 181.41229,489.09558 C 181.59104,489.74933 182.12604,490.16558 182.77979,490.16558 C 183.90854,490.16558 184.56354,488.97683 184.56354,486.95558 L 184.56354,486.59808 L 185.51479,486.59808 L 185.51479,487.13433 C 185.51479,489.92808 184.32479,491.35433 182.06604,491.35433 C 180.99604,491.35433 180.10479,491.05808 179.56979,490.40308 C 178.97479,489.69058 178.79729,488.85808 178.79729,486.83683 L 178.79729,478.93058 L 176.71604,478.93058 L 176.71604,478.09808 C 179.21354,477.50308 180.04479,476.37433 180.40229,472.98558 L 181.17479,472.98558 L 181.17479,477.91933 L 185.03854,477.91933 L 185.03854,478.93058 L 181.17479,478.93058 L 181.17479,486.83683"
       style="fill:#7b7c7e;fill-opacity:1;fill-rule:nonzero;stroke:none"
       id="path83" />
    <path
       d="M 194.90729,482.08058 L 194.07479,482.08058 C 193.59979,479.64308 192.46979,478.45433 190.68604,478.45433 C 189.49729,478.45433 188.54604,479.34683 188.54604,480.47558 C 188.54604,481.54558 189.14104,482.08058 190.92479,482.67558 C 192.76729,483.26933 193.53979,483.56683 194.13479,484.04183 C 195.20479,484.87433 195.68104,485.88558 195.68104,487.19308 C 195.68104,489.63058 193.95604,491.35433 191.39979,491.35433 C 190.26979,491.35433 189.61604,491.17683 188.18979,490.34433 C 188.07104,490.22558 187.95229,490.22558 187.83354,490.22558 C 187.59479,490.22558 187.47604,490.46308 187.29729,491.11683 L 186.52479,491.11683 L 186.52479,486.24183 L 187.29729,486.24183 C 187.65479,487.55058 187.95229,488.26308 188.36854,488.85808 C 189.08104,489.86808 190.21104,490.46308 191.39979,490.46308 C 192.70854,490.46308 193.71854,489.51183 193.71854,488.14433 C 193.71854,487.31183 193.24229,486.59808 192.52979,486.12308 C 191.87479,485.70683 191.87479,485.70683 189.97354,485.11308 C 187.71354,484.33933 186.64479,483.09183 186.64479,481.24808 C 186.64479,479.16808 188.18979,477.68183 190.50854,477.68183 C 191.45854,477.68183 192.41104,477.91933 193.18354,478.45433 C 193.36104,478.51433 193.53979,478.57308 193.65854,478.57308 C 193.83729,478.57308 194.01604,478.33558 194.07479,477.91933 L 194.90729,477.91933 L 194.90729,482.08058"
       style="fill:#7b7c7e;fill-opacity:1;fill-rule:nonzero;stroke:none"
       id="path85" />
    <path
       d="M 206.43979,491.11683 L 202.27854,484.45808 L 201.14979,485.46933 L 201.14979,487.90683 C 201.14979,489.80933 201.38729,490.22558 202.63604,490.22558 L 203.17104,490.22558 L 203.17104,491.11683 L 196.80979,491.11683 L 196.80979,490.22558 L 197.28604,490.22558 C 198.47479,490.22558 198.77229,489.80933 198.77229,487.90683 L 198.77229,475.18433 C 198.77229,473.28308 198.47479,472.92558 197.28604,472.92558 L 196.98854,472.92558 L 196.98854,472.03433 L 201.14979,471.79683 L 201.14979,484.10183 L 205.01354,480.77308 C 205.54854,480.29683 205.84604,479.82183 205.84604,479.46433 C 205.84604,479.04808 205.48979,478.81058 204.65729,478.81058 L 204.18104,478.81058 L 204.18104,477.91933 L 209.82854,477.91933 L 209.82854,478.81058 L 209.59104,478.81058 C 208.75854,478.81058 208.34229,479.04808 207.15354,480.05933 L 204.00354,482.91308 L 207.51104,488.38183 C 208.34229,489.80933 208.87854,490.22558 209.82854,490.22558 L 210.06729,490.22558 L 210.06729,491.11683 L 206.43979,491.11683"
       style="fill:#7b7c7e;fill-opacity:1;fill-rule:nonzero;stroke:none"
       id="path87" />
    <path
       d="M 215.59604,473.46058 C 215.59604,474.29308 214.88229,475.00558 213.99104,475.00558 C 213.15854,475.00558 212.44479,474.29308 212.44479,473.46058 C 212.44479,472.56933 213.15854,471.85558 214.04979,471.85558 C 214.88229,471.85558 215.59604,472.56933 215.59604,473.46058 z M 215.41729,487.90683 C 215.41729,489.80933 215.65479,490.22558 216.90354,490.22558 L 217.31979,490.22558 L 217.31979,491.11683 L 211.07729,491.11683 L 211.07729,490.22558 L 211.55354,490.22558 C 212.74229,490.22558 212.97979,489.80933 212.97979,487.90683 L 212.97979,481.12933 C 212.97979,479.22683 212.74229,478.81058 211.55354,478.81058 L 211.25604,478.81058 L 211.25604,477.91933 L 215.41729,477.74058 L 215.41729,487.90683"
       style="fill:#7b7c7e;fill-opacity:1;fill-rule:nonzero;stroke:none"
       id="path89" />
    <path
       d="M 129.86979,514.54058 C 129.86979,516.08558 129.92979,516.56183 130.28729,516.91683 C 130.58354,517.15558 131.17854,517.33433 131.83229,517.33433 L 132.48604,517.33433 L 132.48604,518.28558 L 124.63854,518.28558 L 124.63854,517.33433 L 125.29229,517.33433 C 125.94604,517.33433 126.54104,517.15558 126.77854,516.91683 C 127.13604,516.56183 127.25479,516.08558 127.25479,514.54058 L 127.25479,500.09308 L 126.60104,500.09308 C 124.93604,500.09308 123.62854,500.98558 122.91479,502.47183 C 122.55854,503.36308 122.37979,504.25433 122.20104,505.86058 L 121.36979,505.80183 L 121.54729,499.20183 L 135.63729,499.20183 L 135.75604,505.80183 L 134.92354,505.86058 C 134.38854,501.69808 133.07979,500.09308 130.28729,500.09308 L 129.86979,500.09308 L 129.86979,514.54058"
       style="fill:#7b7c7e;fill-opacity:1;fill-rule:nonzero;stroke:none"
       id="path91" />
    <path
       d="M 143.78104,510.61683 C 143.84104,507.52558 142.88979,505.68183 141.28479,505.68183 C 141.22479,505.68183 141.22479,505.68183 141.22479,505.74183 L 141.22479,504.73058 C 144.25729,504.73058 146.33729,507.40558 146.45729,511.62683 L 141.22479,511.62683 L 141.22479,510.61683 L 143.78104,510.61683 z M 141.22479,518.64183 L 141.22479,517.51308 C 141.40354,517.51308 141.64104,517.57183 141.87854,517.57183 C 143.42479,517.57183 144.43479,516.73933 145.44604,514.59933 L 146.27854,515.07558 C 145.02979,517.57183 143.54354,518.64183 141.40354,518.64183 C 141.34354,518.64183 141.28479,518.64183 141.22479,518.64183 z M 141.22479,505.74183 C 139.61979,505.74183 138.66854,507.64308 138.60979,510.61683 L 141.22479,510.61683 L 141.22479,511.62683 L 138.60979,511.62683 C 138.60979,515.37308 139.38229,517.15558 141.22479,517.51308 L 141.22479,518.64183 C 138.01479,518.58183 135.93479,515.78933 135.93479,511.62683 C 135.93479,507.58308 138.13354,504.73058 141.10604,504.73058 C 141.16604,504.73058 141.16604,504.73058 141.22479,504.73058 L 141.22479,505.74183"
       style="fill:#7b7c7e;fill-opacity:1;fill-rule:nonzero;stroke:none"
       id="path93" />
    <path
       d="M 152.22354,515.07558 C 152.22354,516.97683 152.52104,517.39308 153.70979,517.39308 L 154.18479,517.39308 L 154.18479,518.28558 L 147.94354,518.28558 L 147.94354,517.39308 L 148.35854,517.39308 C 149.60729,517.39308 149.84604,516.97683 149.84604,515.07558 L 149.84604,502.35308 C 149.84604,500.45058 149.60729,500.09308 148.35854,500.09308 L 148.06229,500.09308 L 148.06229,499.20183 L 152.22354,498.96433 L 152.22354,515.07558"
       style="fill:#7b7c7e;fill-opacity:1;fill-rule:nonzero;stroke:none"
       id="path95" />
    <path
       d="M 163.45854,510.61683 C 163.45854,507.52558 162.50729,505.68183 160.90229,505.68183 C 160.90229,505.68183 160.90229,505.74183 160.84354,505.74183 L 160.84354,504.73058 C 163.93479,504.73058 165.95604,507.40558 166.13354,511.62683 L 160.84354,511.62683 L 160.84354,510.61683 L 163.45854,510.61683 z M 160.84354,518.64183 L 160.84354,517.51308 C 161.08104,517.51308 161.25979,517.57183 161.49729,517.57183 C 163.04354,517.57183 164.05354,516.73933 165.06354,514.59933 L 165.95604,515.07558 C 164.70729,517.57183 163.16229,518.64183 161.08104,518.64183 C 160.96229,518.64183 160.90229,518.64183 160.84354,518.64183 z M 160.84354,505.74183 C 159.29729,505.74183 158.28729,507.64308 158.28729,510.61683 L 160.84354,510.61683 L 160.84354,511.62683 L 158.22729,511.62683 C 158.28729,515.37308 159.05979,517.15558 160.84354,517.51308 L 160.84354,518.64183 C 157.63229,518.58183 155.55229,515.78933 155.55229,511.62683 C 155.55229,507.58308 157.75229,504.73058 160.78354,504.73058 L 160.84354,504.73058 L 160.84354,505.74183"
       style="fill:#7b7c7e;fill-opacity:1;fill-rule:nonzero;stroke:none"
       id="path97" />
    <path
       d="M 177.19104,518.28558 L 173.02979,511.62683 L 171.89979,512.63683 L 171.89979,515.07558 C 171.89979,516.97683 172.13854,517.39308 173.38604,517.39308 L 173.92229,517.39308 L 173.92229,518.28558 L 167.56104,518.28558 L 167.56104,517.39308 L 168.03604,517.39308 C 169.22479,517.39308 169.46354,516.97683 169.46354,515.07558 L 169.46354,502.35308 C 169.46354,500.45058 169.22479,500.09308 168.03604,500.09308 L 167.73854,500.09308 L 167.73854,499.20183 L 171.89979,498.96433 L 171.89979,511.27058 L 175.76479,507.94183 C 176.29979,507.46558 176.59729,506.98933 176.59729,506.63433 C 176.59729,506.21808 176.24104,505.97808 175.34854,505.97808 L 174.93229,505.97808 L 174.93229,505.08683 L 180.57979,505.08683 L 180.57979,505.97808 L 180.28354,505.97808 C 179.45104,505.97808 179.09354,506.21808 177.90479,507.22808 L 174.75479,510.08183 L 178.26104,515.55058 C 179.09354,516.97683 179.62854,517.39308 180.57979,517.39308 L 180.81854,517.39308 L 180.81854,518.28558 L 177.19104,518.28558"
       style="fill:#7b7c7e;fill-opacity:1;fill-rule:nonzero;stroke:none"
       id="path99" />
    <path
       d="M 187.41729,517.74933 C 187.41729,517.74933 187.41729,517.74933 187.47604,517.74933 C 189.43854,517.74933 190.44854,515.72808 190.44854,511.62683 C 190.44854,509.72433 190.21104,508.35808 189.79479,507.34683 C 189.31979,506.27683 188.42729,505.62308 187.47604,505.62308 C 187.41729,505.62308 187.41729,505.62308 187.41729,505.62308 L 187.41729,504.73058 C 187.41729,504.73058 187.41729,504.73058 187.47604,504.73058 C 190.92479,504.73058 193.24229,507.52558 193.24229,511.68683 C 193.24229,515.90683 190.92479,518.64183 187.41729,518.64183 L 187.41729,517.74933 z M 185.09854,507.34683 C 184.62229,508.35808 184.38479,509.72433 184.38479,511.56683 C 184.38479,515.72808 185.39479,517.74933 187.41729,517.74933 L 187.41729,518.64183 C 187.41729,518.64183 187.41729,518.64183 187.35729,518.64183 C 183.96854,518.64183 181.64979,515.84808 181.64979,511.68683 C 181.64979,507.52558 183.96854,504.73058 187.41729,504.73058 L 187.41729,505.62308 C 186.46604,505.62308 185.51479,506.27683 185.09854,507.34683"
       style="fill:#7b7c7e;fill-opacity:1;fill-rule:nonzero;stroke:none"
       id="path101" />
    <path
       d="M 210.30479,510.25933 C 210.30479,508.47558 210.18604,507.52558 209.94854,506.98933 C 209.65104,506.39433 209.11604,506.03933 208.46229,506.03933 C 207.68854,506.03933 206.97604,506.51433 206.49979,507.40558 C 205.96479,508.35808 205.84604,509.07058 205.84604,511.50808 L 205.84604,515.07558 C 205.84604,516.97683 206.14354,517.39308 207.33229,517.39308 L 207.74854,517.39308 L 207.74854,518.28558 L 203.46729,518.28558 L 203.46729,510.67558 C 203.46729,508.29808 203.40854,507.70308 203.11104,507.04933 C 202.75479,506.39433 202.21979,506.03933 201.56604,506.03933 C 200.73354,506.03933 200.07979,506.51433 199.60354,507.40558 C 199.12854,508.35808 199.00979,509.24933 199.00979,511.50808 L 199.00979,515.07558 C 199.00979,517.03683 199.24729,517.39308 200.49479,517.39308 L 200.85229,517.39308 L 200.85229,518.28558 L 194.66979,518.28558 L 194.66979,517.39308 L 195.14479,517.39308 C 196.33354,517.39308 196.57229,516.91683 196.57229,515.07558 L 196.57229,508.29808 C 196.57229,506.45433 196.33354,505.97808 195.14479,505.97808 L 194.84729,505.97808 L 194.84729,505.08683 L 198.83104,504.90933 L 198.83104,507.22808 C 199.36604,505.80183 200.73354,504.84933 202.21979,504.84933 C 203.82479,504.84933 204.83604,505.62308 205.54854,507.40558 C 206.38104,505.68183 207.51104,504.84933 209.11604,504.84933 C 210.30479,504.84933 211.43479,505.38433 212.02854,506.33558 C 212.50354,507.16808 212.74229,508.11933 212.74229,509.90308 L 212.74229,515.07558 C 212.74229,516.97683 212.97979,517.39308 214.16854,517.39308 L 214.52604,517.39308 L 214.52604,518.28558 L 210.30479,518.28558 L 210.30479,510.25933"
       style="fill:#7b7c7e;fill-opacity:1;fill-rule:nonzero;stroke:none"
       id="path103" />
    <path
       d="M 261.27979,518.22558 L 261.27979,515.60933 C 254.68104,515.55058 253.61104,514.54058 253.61104,508.29808 L 253.61104,474.23308 C 261.21979,474.35308 265.67854,479.40558 266.33229,488.67933 L 268.77104,488.32308 L 268.29479,472.03433 L 231.79354,472.03433 L 231.31729,488.32308 L 233.75479,488.67933 C 234.40854,479.40558 238.86729,474.35308 246.47729,474.23308 L 246.47729,508.29808 C 246.47729,514.54058 245.40604,515.55058 238.80729,515.60933 L 238.80729,518.22558 L 261.27979,518.22558"
       style="fill:#ec008c;fill-opacity:1;fill-rule:nonzero;stroke:none"
       id="path105" />
    <path
       d="M 343.61604,502.70933 L 352.94842,502.70933 L 352.94842,493.31683 L 343.61604,493.31683 L 343.61604,502.70933 z"
       style="fill:#7b7c7e;fill-opacity:1;fill-rule:nonzero;stroke:none"
       id="path107" />
  </g>
</svg>
