<?xml version="1.0" encoding="UTF-8"?>
<svg xmlns="http://www.w3.org/2000/svg" xmlns:xlink="http://www.w3.org/1999/xlink" width="286.2pt" height="148.75pt" viewBox="0 0 286.2 148.75" version="1.1">
<defs>
<clipPath id="clip1">
  <path d="M 0 0 L 256 0 L 256 148.75 L 0 148.75 Z M 0 0 "/>
</clipPath>
<clipPath id="clip2">
  <path d="M 277 53 L 286.199219 53 L 286.199219 85 L 277 85 Z M 277 53 "/>
</clipPath>
</defs>
<g id="surface1">
<g clip-path="url(#clip1)" clip-rule="nonzero">
<path style=" stroke:none;fill-rule:evenodd;fill:rgb(92.199707%,48.999023%,13.699341%);fill-opacity:1;" d="M 167.9375 1.617188 C 186.296875 7.558594 199.796875 15.65625 207.894531 24.839844 C 213.296875 30.777344 217.078125 36.175781 219.238281 42.117188 C 222.476563 49.136719 224.097656 57.777344 224.097656 67.496094 C 224.097656 73.976563 222.476563 80.457031 219.777344 86.9375 C 217.078125 93.957031 212.757813 100.4375 207.894531 105.296875 C 197.097656 116.097656 181.976563 124.195313 162 130.136719 C 139.855469 136.078125 112.855469 139.316406 81 138.777344 C 59.398438 138.234375 32.9375 136.078125 2.15625 131.214844 C 0.535156 131.214844 0 131.757813 0 132.296875 C 0 132.839844 0.535156 133.375 1.617188 133.917969 C 24.296875 139.855469 50.757813 144.714844 80.460938 147.417969 C 108 149.578125 132.839844 149.035156 154.976563 146.335938 C 176.035156 143.636719 194.394531 138.234375 209.519531 131.214844 C 224.640625 124.195313 235.976563 115.015625 244.078125 104.757813 C 251.640625 93.957031 255.417969 82.078125 255.417969 69.117188 C 255.417969 42.65625 242.460938 23.757813 216 11.339844 C 206.820313 7.015625 197.097656 3.777344 186.296875 2.15625 L 169.019531 -0.00390625 L 167.394531 0.535156 L 167.9375 1.617188 "/>
</g>
<path style=" stroke:none;fill-rule:evenodd;fill:rgb(92.199707%,48.999023%,13.699341%);fill-opacity:1;" d="M 271.617188 78.296875 C 272.15625 77.214844 272.15625 77.214844 272.699219 78.296875 C 274.855469 82.617188 276.476563 86.9375 278.097656 90.714844 L 277.558594 92.875 C 274.855469 98.277344 271.078125 103.675781 266.757813 109.078125 C 266.214844 110.15625 265.679688 110.695313 265.140625 110.15625 L 258.117188 99.898438 C 257.578125 99.355469 258.117188 98.277344 258.65625 97.195313 C 263.519531 91.257813 267.835938 85.316406 271.617188 78.296875 "/>
<path style=" stroke:none;fill-rule:evenodd;fill:rgb(92.199707%,48.999023%,13.699341%);fill-opacity:1;" d="M 271.617188 59.9375 C 272.15625 61.015625 272.15625 61.015625 272.699219 60.476563 C 275.394531 55.617188 277.019531 51.296875 278.097656 47.515625 L 277.558594 45.355469 C 274.855469 39.957031 271.078125 34.558594 266.757813 29.15625 L 265.140625 28.617188 L 258.117188 38.339844 L 258.65625 41.035156 L 271.617188 59.9375 "/>
<g clip-path="url(#clip2)" clip-rule="nonzero">
<path style=" stroke:none;fill-rule:evenodd;fill:rgb(92.199707%,48.999023%,13.699341%);fill-opacity:1;" d="M 282.417969 54.535156 C 284.035156 59.398438 285.65625 63.714844 286.199219 68.035156 L 286.199219 70.195313 C 285.65625 73.976563 284.035156 78.839844 281.878906 83.695313 C 281.335938 84.234375 281.335938 84.777344 281.335938 84.234375 C 280.796875 79.917969 279.179688 75.597656 277.019531 70.734375 L 277.019531 68.035156 C 279.179688 63.175781 280.796875 58.855469 281.878906 53.996094 C 281.878906 53.457031 281.878906 53.457031 282.417969 54.535156 "/>
</g>
<path style=" stroke:none;fill-rule:evenodd;fill:rgb(5.099487%,45.098877%,69.398499%);fill-opacity:1;" d="M 234.894531 67.496094 L 251.097656 47.515625 C 251.640625 46.4375 252.714844 46.4375 253.796875 47.515625 C 258.65625 53.996094 263.519531 60.476563 267.296875 67.496094 C 267.835938 68.578125 267.835938 69.65625 267.296875 70.734375 C 263.519531 77.214844 258.65625 83.695313 253.257813 90.175781 C 252.714844 91.796875 251.640625 91.796875 251.097656 90.714844 L 243.535156 82.078125 L 234.894531 71.277344 C 233.820313 70.195313 233.820313 69.117188 234.894531 67.496094 "/>
<path style=" stroke:none;fill-rule:evenodd;fill:rgb(5.099487%,45.098877%,69.398499%);fill-opacity:1;" d="M 116.097656 39.417969 C 110.15625 39.417969 106.378906 41.035156 103.679688 43.734375 C 102.058594 45.355469 101.519531 47.515625 100.976563 50.214844 C 100.976563 52.917969 101.519531 54.535156 103.140625 56.15625 C 104.757813 57.777344 106.917969 58.855469 109.617188 58.855469 C 112.320313 58.855469 115.019531 57.777344 116.640625 55.617188 L 117.179688 58.316406 L 123.65625 58.316406 L 123.65625 57.777344 L 123.117188 51.296875 L 123.117188 41.578125 C 123.117188 33.476563 119.339844 29.15625 112.320313 29.15625 C 108.535156 29.15625 105.839844 30.234375 103.140625 31.855469 L 104.757813 37.257813 C 106.378906 35.636719 108.535156 35.097656 111.238281 35.097656 C 112.855469 35.097656 114.476563 35.636719 115.019531 36.175781 C 115.558594 36.714844 116.097656 37.796875 116.097656 39.417969 Z M 109.078125 46.976563 C 110.699219 45.355469 112.855469 44.816406 116.097656 44.816406 L 116.097656 49.675781 C 115.558594 51.839844 113.9375 52.917969 111.238281 52.917969 C 109.078125 52.917969 108 51.839844 108 49.675781 L 109.078125 46.976563 "/>
<path style=" stroke:none;fill-rule:evenodd;fill:rgb(5.099487%,45.098877%,69.398499%);fill-opacity:1;" d="M 143.640625 29.695313 L 142.019531 29.695313 C 139.320313 29.695313 137.15625 31.316406 135.535156 34.558594 L 135 30.234375 L 129.058594 30.234375 L 129.058594 58.316406 L 136.078125 58.316406 L 136.078125 41.578125 C 136.617188 38.339844 138.777344 36.714844 141.476563 36.714844 L 143.640625 36.714844 L 143.640625 29.695313 "/>
<path style=" stroke:none;fill-rule:evenodd;fill:rgb(5.099487%,45.098877%,69.398499%);fill-opacity:1;" d="M 149.035156 33.476563 C 146.335938 36.175781 145.257813 39.957031 145.257813 44.277344 C 145.257813 48.597656 146.335938 52.375 149.035156 55.078125 C 151.738281 57.777344 154.4375 58.855469 158.214844 58.855469 C 162 58.855469 164.699219 57.777344 167.394531 55.617188 C 170.097656 52.917969 171.714844 49.136719 171.714844 44.277344 C 171.714844 39.417969 170.640625 36.175781 167.9375 33.476563 C 165.777344 30.777344 162.535156 29.695313 158.757813 29.695313 C 154.976563 29.695313 151.738281 30.777344 149.035156 33.476563 Z M 158.757813 35.097656 C 160.378906 35.097656 162 36.175781 163.078125 38.339844 C 163.617188 39.957031 164.15625 41.578125 164.15625 44.277344 C 164.15625 46.976563 163.617188 49.136719 162.535156 50.757813 C 161.460938 52.375 160.378906 52.917969 158.757813 53.457031 C 157.140625 52.917969 155.519531 52.375 154.4375 50.757813 C 153.355469 49.136719 152.820313 46.976563 152.820313 44.277344 C 152.820313 41.578125 153.355469 39.957031 153.894531 38.339844 C 154.976563 36.175781 156.597656 35.097656 158.757813 35.097656 "/>
<path style=" stroke:none;fill-rule:evenodd;fill:rgb(5.099487%,45.098877%,69.398499%);fill-opacity:1;" d="M 178.738281 33.476563 C 176.035156 36.175781 174.417969 39.957031 174.417969 44.816406 C 174.417969 49.136719 175.5 52.375 178.199219 55.078125 C 180.894531 57.777344 184.140625 58.855469 187.917969 58.855469 C 190.617188 59.398438 193.320313 58.855469 194.9375 57.777344 L 193.855469 51.839844 C 192.238281 52.375 190.617188 52.917969 189 52.917969 C 186.835938 52.917969 185.214844 52.375 183.597656 50.757813 C 182.519531 49.136719 181.976563 46.976563 181.976563 44.277344 C 181.976563 41.578125 182.519531 39.417969 184.140625 37.796875 C 185.214844 36.175781 186.835938 35.636719 189 35.636719 C 190.617188 35.636719 192.238281 36.175781 193.855469 36.714844 L 194.9375 30.777344 C 193.320313 30.234375 191.699219 29.695313 189 29.695313 C 184.679688 29.695313 181.4375 30.777344 178.738281 33.476563 "/>
<path style=" stroke:none;fill-rule:evenodd;fill:rgb(5.099487%,45.098877%,69.398499%);fill-opacity:1;" d="M 59.398438 18.894531 L 59.398438 58.316406 L 66.417969 58.316406 L 65.878906 27.535156 L 74.519531 58.316406 L 81.535156 58.316406 L 90.179688 27.535156 L 90.179688 58.316406 L 96.65625 58.316406 L 96.65625 18.894531 L 85.855469 18.894531 L 78.296875 46.976563 L 70.199219 18.894531 L 59.398438 18.894531 "/>
<path style=" stroke:none;fill-rule:evenodd;fill:rgb(5.099487%,45.098877%,69.398499%);fill-opacity:1;" d="M 66.417969 109.078125 L 73.4375 109.078125 L 73.4375 71.277344 L 66.417969 71.277344 L 66.417969 109.078125 "/>
<path style=" stroke:none;fill-rule:evenodd;fill:rgb(5.099487%,45.098877%,69.398499%);fill-opacity:1;" d="M 118.796875 80.457031 C 114.476563 80.457031 111.238281 81.535156 108.535156 84.234375 C 105.839844 86.9375 104.214844 90.714844 104.214844 95.035156 C 104.214844 99.898438 105.296875 103.136719 108 105.839844 C 110.699219 108.535156 113.9375 109.617188 117.714844 109.617188 C 120.417969 109.617188 123.117188 109.078125 124.738281 108.535156 L 123.65625 102.597656 C 122.035156 103.136719 120.417969 103.675781 118.796875 103.675781 C 116.640625 103.675781 115.019531 102.597656 113.394531 100.976563 C 112.320313 99.355469 111.777344 97.734375 111.777344 95.035156 C 111.777344 92.339844 112.320313 90.175781 113.9375 88.558594 C 115.019531 86.9375 116.640625 86.398438 118.796875 86.398438 C 120.417969 86.398438 122.035156 86.9375 123.65625 87.476563 L 124.738281 81.535156 C 123.117188 81 121.5 80.457031 118.796875 80.457031 "/>
<path style=" stroke:none;fill-rule:evenodd;fill:rgb(5.099487%,45.098877%,69.398499%);fill-opacity:1;" d="M 144.179688 101.515625 C 143.097656 103.136719 141.476563 104.214844 139.855469 104.214844 C 138.238281 104.214844 137.15625 103.136719 136.078125 101.515625 C 134.460938 99.898438 133.917969 97.734375 134.460938 95.035156 L 135.535156 89.097656 C 136.617188 87.476563 138.238281 86.398438 140.394531 86.398438 C 142.019531 86.398438 143.640625 87.476563 144.714844 89.097656 C 145.257813 90.714844 145.796875 92.339844 145.796875 95.035156 C 145.796875 97.734375 145.257813 99.898438 144.179688 101.515625 Z M 149.578125 84.234375 C 147.417969 81.535156 144.179688 80.457031 140.394531 80.457031 C 136.617188 80.457031 133.378906 81.535156 130.679688 84.234375 C 127.976563 86.9375 126.894531 90.714844 126.894531 95.035156 C 126.894531 99.355469 127.976563 103.136719 130.679688 105.839844 C 133.378906 108.535156 136.078125 110.15625 139.855469 110.15625 C 143.640625 110.15625 146.335938 109.078125 149.035156 106.375 C 151.738281 103.675781 153.355469 99.898438 153.355469 95.035156 C 153.355469 90.714844 152.277344 86.9375 149.578125 84.234375 "/>
<path style=" stroke:none;fill-rule:evenodd;fill:rgb(5.099487%,45.098877%,69.398499%);fill-opacity:1;" d="M 186.835938 80.457031 C 184.679688 80.457031 183.058594 81 181.4375 82.078125 L 178.738281 85.316406 C 177.117188 81.535156 174.960938 79.917969 171.179688 79.917969 C 167.9375 79.917969 165.238281 81.535156 163.617188 84.234375 L 163.617188 81 L 157.679688 81 L 157.679688 109.078125 L 164.699219 109.078125 L 164.699219 90.175781 C 165.238281 87.476563 166.855469 86.398438 169.019531 86.398438 C 171.714844 86.398438 173.335938 88.558594 172.796875 92.875 L 172.796875 109.078125 L 179.820313 109.078125 L 179.820313 92.339844 L 180.355469 90.175781 C 180.894531 87.476563 182.519531 86.398438 184.140625 86.398438 C 186.835938 86.398438 188.460938 88.558594 188.460938 93.417969 L 188.460938 109.078125 L 195.476563 109.078125 L 195.476563 92.339844 C 195.476563 88.558594 194.394531 85.316406 192.777344 83.15625 C 191.15625 81.535156 189 80.457031 186.835938 80.457031 "/>
<path style=" stroke:none;fill-rule:evenodd;fill:rgb(5.099487%,45.098877%,69.398499%);fill-opacity:1;" d="M 14.578125 70.195313 L 14.578125 76.675781 L 24.839844 76.675781 L 24.839844 109.078125 L 31.855469 109.078125 L 31.855469 76.675781 L 42.117188 76.675781 L 42.117188 70.195313 L 14.578125 70.195313 "/>
<path style=" stroke:none;fill-rule:evenodd;fill:rgb(5.099487%,45.098877%,69.398499%);fill-opacity:1;" d="M 99.355469 84.777344 C 97.199219 81.535156 94.5 79.917969 90.714844 79.917969 C 86.398438 79.917969 83.15625 81.535156 81 84.777344 C 78.839844 87.476563 77.757813 91.257813 77.757813 95.035156 C 77.757813 99.898438 78.839844 103.136719 81.535156 105.839844 C 83.699219 108.535156 86.9375 109.617188 91.257813 109.617188 C 94.5 109.617188 97.199219 109.078125 99.898438 108 L 98.820313 102.597656 C 96.65625 103.136719 94.5 103.675781 91.796875 103.675781 C 89.640625 103.675781 88.019531 103.136719 86.9375 102.058594 C 85.320313 100.4375 84.78125 98.816406 84.78125 97.195313 L 101.519531 97.195313 L 101.519531 93.957031 C 101.519531 90.175781 100.976563 87.476563 99.355469 84.777344 Z M 95.035156 91.796875 L 84.78125 91.796875 C 85.320313 88.015625 86.9375 85.855469 90.179688 85.855469 C 91.796875 85.855469 92.878906 86.398438 93.417969 86.9375 C 93.960938 88.015625 94.5 89.636719 95.035156 91.796875 "/>
<path style=" stroke:none;fill-rule:evenodd;fill:rgb(5.099487%,45.098877%,69.398499%);fill-opacity:1;" d="M 50.757813 79.917969 C 46.976563 79.917969 43.738281 81.535156 41.035156 84.777344 C 38.878906 87.476563 37.796875 91.257813 38.339844 95.035156 C 37.796875 99.898438 38.878906 103.136719 41.578125 105.839844 C 44.28125 108.535156 47.519531 109.617188 51.296875 109.617188 C 54.535156 109.617188 57.238281 109.078125 59.9375 108 L 60.476563 108 L 58.855469 102.597656 C 57.238281 103.136719 55.078125 103.675781 52.378906 103.675781 C 50.214844 103.675781 48.597656 103.136719 46.976563 102.058594 C 45.898438 100.4375 45.355469 98.816406 44.820313 97.195313 L 61.558594 97.195313 L 62.097656 93.957031 C 62.097656 90.175781 61.019531 87.476563 59.398438 84.777344 C 57.78125 81.535156 54.535156 79.917969 50.757813 79.917969 Z M 55.078125 91.796875 L 44.820313 91.796875 C 45.355469 88.015625 47.519531 85.855469 50.214844 85.855469 C 51.839844 85.855469 52.917969 86.398438 53.460938 86.9375 C 54.535156 88.015625 55.078125 89.636719 55.078125 91.796875 "/>
</g>
</svg>
