<?xml version="1.0" encoding="UTF-8" standalone="no"?>
<svg
   xmlns:dc="http://purl.org/dc/elements/1.1/"
   xmlns:cc="http://creativecommons.org/ns#"
   xmlns:rdf="http://www.w3.org/1999/02/22-rdf-syntax-ns#"
   xmlns:svg="http://www.w3.org/2000/svg"
   xmlns="http://www.w3.org/2000/svg"
   version="1.1"
   id="Layer_1"
   x="0px"
   y="0px"
   width="317.431"
   height="48.625"
   viewBox="0 0 317.431 48.625"
   enable-background="new 0 0 720 340"
   xml:space="preserve"><metadata
   id="metadata1031"><rdf:RDF><cc:Work
       rdf:about=""><dc:format>image/svg+xml</dc:format><dc:type
         rdf:resource="http://purl.org/dc/dcmitype/StillImage" /><dc:title></dc:title></cc:Work></rdf:RDF></metadata><defs
   id="defs1029" />







<g
   id="g1602"
   transform="translate(-217,-150.439)"><path
     fill="#fa1a17"
     d="m 217,198.63 v -6.884 h 6.989 V 157.324 H 217 v -6.885 h 20.966 v 6.885 h -6.988 v 34.422 h 6.988 v 6.884 z"
     id="path976" /><path
     fill="#fa1a17"
     d="m 257.969,170.761 v 27.627 h -6.906 v -37.986 h 6.906 v 3.454 h 3.453 v -3.454 h 17.266 v 3.454 h 3.453 v 3.453 h 3.453 v 31.08 h -6.906 v -27.627 h -3.453 v -3.453 h -3.453 v 31.08 h -6.907 v -31.08 h -3.453 v 3.453 h -3.453 z"
     id="path978" /><path
     fill="#fa1a17"
     d="m 299.33,184.412 v 13.951 h -6.893 v -41.851 h 6.893 V 160 h 3.447 v -3.488 h 17.235 V 160 h 3.447 v 3.487 h 3.446 v 17.438 h -3.446 v 3.486 h -3.447 v 3.487 h -17.235 v -3.487 h -3.447 z m 20.682,-17.436 h -3.447 v -3.488 h -10.34 v 3.488 h -3.447 v 10.461 h 3.447 v 3.489 h 10.34 v -3.489 h 3.447 z"
     id="path980" /><path
     fill="#fa1a17"
     d="m 341.181,199.064 v -3.492 h -3.493 v -3.494 h -3.492 v -24.447 h 3.492 v -3.493 h 3.493 v -3.494 h 20.956 v 3.494 h 3.494 v 3.493 h 3.492 v 24.447 h -3.492 v 3.494 h -3.494 v 3.492 z m 3.493,-6.986 h 13.971 v -3.492 h 3.492 v -17.463 h -3.492 v -3.492 h -13.971 v 3.492 h -3.493 v 17.463 h 3.493 z"
     id="path982" /><path
     fill="#fa1a17"
     d="m 378.561,191.329 h -3.54 v -6.98 h 7.082 v 3.49 h 3.541 v 3.49 h 14.165 v -6.98 h -7.082 v -3.491 h -7.083 v -3.489 h -7.083 v -3.491 h -3.54 v -6.981 h 3.54 v -3.49 h 3.542 v -3.491 h 21.248 v 3.491 h 3.541 v 3.49 h 3.542 v 6.981 h -7.083 v -3.491 h -3.542 v -3.49 h -14.165 v 6.981 h 10.626 v 3.491 h 7.081 v 3.489 h 3.541 v 3.491 h 3.542 v 6.98 h -3.542 v 3.491 h -3.541 v 3.49 h -21.248 v -3.49 h -3.542 z"
     id="path984" /><path
     fill="#fa1a17"
     d="m 441.848,191.507 h 3.402 v 6.804 h -6.804 v -3.401 h -3.402 v -3.402 h -3.401 v -23.814 h -6.805 v -6.805 h 6.805 v -10.206 h 6.804 v 10.206 h 6.804 v 6.805 h -6.804 v 20.413 h 3.401 z"
     id="path986" /><path
     fill="#fa1a17"
     d="m 465.32,198.311 v -3.468 h -3.474 v -3.47 h -3.475 v -24.278 h 3.475 v -3.468 h 3.474 v -3.469 h 20.852 v 3.469 h 3.475 v 3.468 h 3.475 v 24.278 h -3.475 v 3.47 h -3.475 v 3.468 z m 3.476,-6.938 h 13.9 v -3.468 h 3.476 v -17.341 h -3.476 v -3.469 h -13.9 v 3.469 h -3.476 v 17.341 h 3.476 z"
     id="path988" /><path
     fill="#fa1a17"
     d="m 506.889,177.374 v 20.657 h -6.886 v -37.873 h 6.886 v 6.886 h 3.443 v -3.442 h 3.443 v -3.443 h 13.771 v 3.443 h 3.442 v 3.442 h 3.443 v 6.887 h -6.886 v -3.443 h -3.442 v -3.443 h -6.887 v 3.443 h -3.441 v 3.443 h -3.443 v 3.443 z"
     id="path990" /></g>

</svg>
