<svg xmlns="http://www.w3.org/2000/svg" viewBox="0 0 23.83 22.92"><path fill-rule="evenodd" d="M0 9.642c0-2.811.862-5.121 2.586-6.93C4.311.904 6.58 0 9.392 0c2.779 0 5.03.904 6.755 2.712 1.724 1.808 2.586 4.118 2.586 6.93 0 2.679-.879 4.956-2.636 6.83-1.758 1.876-3.993 2.813-6.705 2.813-2.746 0-4.997-.937-6.755-2.812C.879 14.598 0 12.321 0 9.643Zm3.616 0c0 1.842.494 3.45 1.482 4.822.987 1.373 2.419 2.059 4.294 2.059 1.841 0 3.256-.686 4.244-2.06.987-1.372 1.481-2.98 1.481-4.82 0-1.842-.519-3.45-1.557-4.822-1.038-1.372-2.427-2.06-4.168-2.06s-3.14.687-4.194 2.06c-1.055 1.373-1.582 2.98-1.582 4.821zm20.19 13.26h-5.424v-1.407l.628-.552c.418-.369.744-.678.979-.93.234-.25.519-.577.854-.979a7.17 7.17 0 0 0 .778-1.105c.184-.335.276-.653.276-.954a.955.955 0 0 0-.401-.804 1.47 1.47 0 0 0-.904-.3c-.603 0-1.24.217-1.909.652l-.1-1.356a5.314 5.314 0 0 1 2.41-.552c1.708 0 2.562.786 2.562 2.36 0 .536-.201 1.122-.603 1.758-.402.636-.737 1.096-1.004 1.381a83.37 83.37 0 0 1-1.457 1.482h3.315z" style="fill:#0050ff;fill-opacity:1"/></svg>