<?xml version="1.0" encoding="utf-8"?>
<!-- Generator: Adobe Illustrator 21.0.0, SVG Export Plug-In . SVG Version: 6.00 Build 0)  -->
<svg version="1.1" id="Layer_1" xmlns="http://www.w3.org/2000/svg" xmlns:xlink="http://www.w3.org/1999/xlink" x="0px" y="0px"
	 viewBox="0 0 320.5 57.1" style="enable-background:new 0 0 320.5 57.1;" xml:space="preserve">
<style type="text/css">
	.st0{clip-path:url(#SVGID_2_);fill:#FF0000;}
</style>
<g>
	<defs>
		<rect id="SVGID_1_" y="0" width="320.5" height="57.1"/>
	</defs>
	<clipPath id="SVGID_2_">
		<use xlink:href="#SVGID_1_"  style="overflow:visible;"/>
	</clipPath>
	<path class="st0" d="M29.7,25.3l-9.8-2.7c-5.4-1.5-7.9-3.9-7.9-7.4c0-5,4.7-7.3,9.4-7.3c5.5,0,9.4,2.2,11.4,6.4l0.3,0.7l7.9-3.1
		l-0.3-0.8C38.1,4,31.1,0,21.5,0C10.6,0,3.1,6.5,3.1,15.7c0,7.8,3.9,12.2,12.7,14.7l9.7,2.6c5.2,1.6,7.4,3.9,7.4,7.8
		c0,5.9-6,7.9-11.1,7.9c-6.5,0-11.3-3.1-13.3-8.5l-0.3-0.8L0,42.5l0.2,0.8c2.5,8.5,10.5,13.5,21.3,13.5c11.9,0,20.3-6.9,20.3-16.6
		C41.8,32.5,37.7,27.4,29.7,25.3"/>
	<path class="st0" d="M219.8,15.5c-8.3,0-17.1,5.2-17.1,16.4v9.4c0,9.6,6.9,15.7,17.4,15.7c8.3,0,17.1-5.2,17.1-16.5v-8.8
		C237.2,22,230.3,15.5,219.8,15.5 M211.5,31.5c0-5.1,3.1-8.2,8.4-8.2s8.5,3,8.5,7.9V41c0,5.3-2.9,8.3-8.3,8.3
		c-5.3,0-8.6-3.1-8.6-8.1V31.5z"/>
	<path class="st0" d="M91.5,15.5c-4.9,0-9.5,1.8-12.6,4.9c-3.1-3.1-7.7-4.9-12.6-4.9c-10.4,0-17.3,7-17.4,7.2v33.8h8.6l0.2-30.3
		c0,0,3.4-3,8.8-3c5.2,0,8.4,3.1,8.4,8.2v25.1h8.7V31.7v-0.3c0-5.1,3.1-8.2,8.4-8.2c5.3,0,8.5,3,8.5,7.9v25.4h8.9V31.7
		C108.9,22,101.8,15.5,91.5,15.5"/>
	<path class="st0" d="M174.5,15.5c-10.5,0-17.3,7-17.4,7.2v33.8h8.7V26.2c0,0,3.4-3,8.9-3h0.2v-7.6L174.5,15.5z"/>
	<path class="st0" d="M265.9,15.9c-0.3-0.1-0.6-0.1-0.9-0.1l-0.8-0.1c-0.4,0-0.9-0.1-1.3-0.1H262c-10.4,0-17.3,7-17.4,7.2v33.8h8.7
		V26.3c0,0,3.3-2.9,8.6-3c5.3,0,8.4,3,8.4,7.9v25.4h9V31.8C279.1,23.5,274.1,17.4,265.9,15.9"/>
	<path class="st0" d="M132.1,15.4c-6.3,0-11.7,2.8-14.7,7.5l-0.2,0.3l7.3,4l0.2-0.1l0.1-0.2c1.3-2.5,3.9-3.8,7.3-3.8
		c4.5,0,7.6,2.1,8.3,5.9c-3.2,0.7-8.1,1.7-12.8,2.6c-5.5,1.1-9.2,3.3-11,6.5c-2.2,3.8-1,7.9-0.8,8.3l0.1,0.3c1.5,4.4,5,7.7,9.9,9.3
		c2.1,0.7,4.3,1.1,6.5,1.1c10.5,0,17.3-7,17.4-7.2V31.8C149.5,22,142.6,15.4,132.1,15.4 M140.9,46.3c0,0-1.3,1.1-3.4,2
		c-1.7,0.6-3.3,0.9-5.2,1c-3.1,0-5.9-1-7.4-2.8c-1-1.1-1.4-2.5-1.2-3.9c0.1-1,1.2-2.4,5.4-3.3c2.7-0.6,5.6-1.1,8.2-1.6
		c1.3-0.2,2.6-0.5,3.6-0.7V46.3z"/>
	<path class="st0" d="M319.2,34.3c2.2-3.8,1-7.9,0.8-8.3l-0.1-0.3c-1.5-4.4-5-7.7-9.9-9.3c-2.1-0.7-4.3-1.1-6.5-1.1h-0.2
		c-8.3,0-17.2,5.2-17.2,16.5v8.9c0,9.8,7.1,16.2,17.4,16.2c6.3,0,11.7-2.8,14.7-7.5l0.2-0.3l-7.3-4l-0.2,0.1l-0.1,0.2
		c-1.3,2.5-3.9,3.8-7.3,3.8c-4.5,0-7.6-2.2-8.3-5.9c3.2-0.7,8.1-1.7,12.8-2.6C313.7,39.7,317.4,37.5,319.2,34.3 M298.4,34.8
		c-1.3,0.2-2.4,0.5-3.5,0.7v-0.7v-3.4c0-4.5,2.4-7.4,6.4-8c0.7-0.1,1.4-0.2,2.1-0.2c3.1,0,5.9,1,7.4,2.8c1,1.1,1.4,2.5,1.2,3.9
		c-0.1,1-1.2,2.4-5.4,3.3C304,33.8,301.1,34.3,298.4,34.8"/>
	<polygon class="st0" points="207,0.1 171.3,0.1 171.3,8.5 184.7,8.5 184.7,56.5 193.6,56.5 193.6,8.5 207,8.5 	"/>
</g>
</svg>
