<?xml version="1.0" encoding="UTF-8" standalone="no"?>
<!-- Created with Inkscape (http://www.inkscape.org/) -->
<svg
   xmlns:svg="http://www.w3.org/2000/svg"
   xmlns="http://www.w3.org/2000/svg"
   version="1.0"
   width="708.66144"
   height="142.63519"
   id="svg10550">
  <defs
     id="defs10552" />
  <g
     transform="translate(-73.213663,-324.60748)"
     id="layer1">
    <g
       id="g11537">
      <path
         d="M 491.81743,324.60748 L 781.87508,324.60748 L 781.87508,467.24268 L 491.81743,467.24268 L 491.81743,324.60748 z"
         id="path734"
         style="font-size:9px;letter-spacing:0;word-spacing:0;fill:#ed1c23;fill-opacity:1;fill-rule:nonzero;stroke:none;font-family:fnt2" />
      <path
         d="M 559.29786,429.39477 L 559.29786,403.99546 C 559.29786,399.71896 558.3456,397.06129 554.53659,397.06129 C 550.035,397.06129 545.36029,402.38096 545.36029,410.20676 L 545.36029,429.39477 L 535.18845,429.39477 L 535.18845,403.99546 C 535.18845,400.04357 534.36605,397.06129 530.42714,397.06129 C 525.66586,397.06129 521.25084,402.70557 521.25084,410.20676 L 521.25084,429.39477 L 510.90589,429.39477 L 510.90589,389.3177 L 520.68816,389.3177 C 520.68816,391.17461 520.51501,394.15689 520.12547,396.49428 L 520.25529,396.49428 C 522.67925,391.57714 527.5271,388.43037 533.50036,388.43037 C 540.59898,388.43037 543.58563,392.62463 544.53789,396.49428 C 546.39909,392.54238 550.81411,388.43037 557.60977,388.43037 C 565.35769,388.43037 569.64285,392.70687 569.64285,401.81824 L 569.64285,429.39477 L 559.29786,429.39477"
         id="path736"
         style="font-size:9px;letter-spacing:0;word-spacing:0;fill:#ffffff;fill-rule:nonzero;stroke:none;font-family:fnt2" />
      <path
         d="M 597.6046,397.22145 C 593.01644,397.22145 588.47159,400.77075 588.47159,408.99481 C 588.47159,417.21885 591.4582,421.41311 597.43146,421.41311 C 602.53902,421.41311 606.39132,417.30109 606.39132,409.15497 C 606.39132,401.41571 603.66443,397.22145 597.6046,397.22145 M 596.56577,430.20419 C 585.18198,430.20419 577.86689,424.31751 577.86689,410.04227 C 577.86689,397.54606 586.17749,388.51261 598.34043,388.51261 C 609.68094,388.51261 617.03932,394.80185 617.03932,408.59225 C 617.03932,421.17071 608.55556,430.20419 596.56577,430.20419"
         id="path738"
         style="font-size:9px;letter-spacing:0;word-spacing:0;fill:#ffffff;fill-rule:nonzero;stroke:none;font-family:fnt2" />
      <path
         d="M 644.30849,397.06129 C 638.89795,397.06129 635.65163,403.26826 635.65163,409.96439 L 635.65163,421.25295 C 637.12329,421.73776 638.81138,421.9758 641.06216,421.9758 C 646.86227,421.9758 651.14743,418.27067 651.14743,408.34985 C 651.14743,400.84866 648.98322,397.06129 644.30849,397.06129 M 640.28304,430.20419 C 634.43965,430.20419 629.93805,429.55923 625.34992,428.26937 L 625.34992,370.52792 L 635.65163,370.52792 L 635.65163,387.78544 C 635.65163,390.20503 635.43519,393.51196 635.00233,395.60694 L 635.0889,395.60694 C 637.12329,391.25252 641.62488,388.51261 647.20856,388.51261 C 656.77443,388.51261 661.96857,395.44678 661.96857,407.30239 C 661.96857,420.85042 654.0475,430.20419 640.28304,430.20419"
         id="path740"
         style="font-size:9px;letter-spacing:0;word-spacing:0;fill:#ffffff;fill-rule:nonzero;stroke:none;font-family:fnt2" />
      <path
         d="M 670.40903,389.3177 L 680.75399,389.3177 L 680.75399,429.39477 L 670.40903,429.39477 L 670.40903,389.3177 z M 675.60314,384.15819 C 672.05384,384.15819 669.19705,381.33603 669.19705,377.86465 C 669.19705,374.47981 672.05384,371.65765 675.60314,371.65765 C 679.15247,371.65765 682.05254,374.39756 682.05254,377.86465 C 682.05254,381.33603 679.15247,384.15819 675.60314,384.15819"
         id="path742"
         style="font-size:9px;letter-spacing:0;word-spacing:0;fill:#ffffff;fill-rule:nonzero;stroke:none;font-family:fnt2" />
      <path
         d="M 691.87809,370.52792 L 702.1798,370.52792 L 702.1798,429.39477 L 691.87809,429.39477 L 691.87809,370.52792 z"
         id="path744"
         style="font-size:9px;letter-spacing:0;word-spacing:0;fill:#ffffff;fill-rule:nonzero;stroke:none;font-family:fnt2" />
      <path
         d="M 728.97285,396.00947 C 724.68769,396.00947 721.70108,399.15624 721.13836,403.99546 L 735.89837,403.99546 C 736.07152,398.99611 733.34459,396.00947 728.97285,396.00947 M 745.8105,411.01185 L 720.96525,411.01185 C 720.92196,418.50871 724.60112,422.14028 732.04604,422.14028 C 735.98494,422.14028 740.27011,421.25295 743.73286,419.63844 L 744.68509,427.62444 C 740.44325,429.31686 735.33568,430.20419 730.35794,430.20419 C 717.58907,430.20419 710.4904,423.8327 710.4904,409.72199 C 710.4904,397.46382 717.28606,388.43037 729.27586,388.43037 C 740.96265,388.43037 746.15679,396.41636 746.15679,406.33282 C 746.15679,407.70492 746.07022,409.3151 745.8105,411.01185"
         id="path746"
         style="font-size:9px;letter-spacing:0;word-spacing:0;fill:#ffffff;fill-rule:nonzero;stroke:none;font-family:fnt2" />
      <path
         d="M 415.72339,429.19566 L 453.77041,429.19566 L 453.77041,467.23402 L 415.72339,467.23402 L 415.72339,429.19566 z"
         id="path748"
         style="font-size:9px;letter-spacing:0;word-spacing:0;fill:#ed1c23;fill-opacity:1;fill-rule:nonzero;stroke:none;font-family:fnt2" />
      <path
         d="M 358.58794,429.19999 L 377.11368,429.19999 L 377.11368,467.23402 L 358.58794,467.23402 L 358.58794,429.19999 z"
         id="path750"
         style="font-size:9px;letter-spacing:0;word-spacing:0;fill:#ed1c23;fill-opacity:1;fill-rule:nonzero;stroke:none;font-family:fnt2" />
      <path
         d="M 301.62564,429.19999 L 320.10809,429.19999 L 320.10809,467.23402 L 301.62564,467.23402 L 301.62564,429.19999 z"
         id="path752"
         style="font-size:9px;letter-spacing:0;word-spacing:0;fill:#ed1c23;fill-opacity:1;fill-rule:nonzero;stroke:none;font-family:fnt2" />
      <path
         d="M 244.70659,429.19999 L 262.53979,429.19999 L 262.53979,467.23402 L 244.70659,467.23402 L 244.70659,429.19999 z"
         id="path754"
         style="font-size:9px;letter-spacing:0;word-spacing:0;fill:#ed1c23;fill-opacity:1;fill-rule:nonzero;stroke:none;font-family:fnt2" />
      <path
         d="M 196.66087,429.19999 L 206.14017,429.19999 L 206.14017,467.23402 L 196.66087,467.23402 L 196.66087,429.19999 z"
         id="path756"
         style="font-size:9px;letter-spacing:0;word-spacing:0;fill:#ed1c23;fill-opacity:1;fill-rule:nonzero;stroke:none;font-family:fnt2" />
      <path
         d="M 149.65398,429.19999 L 158.87356,429.19999 L 158.87356,467.23402 L 149.65398,467.23402 L 149.65398,429.19999 z"
         id="path758"
         style="font-size:9px;letter-spacing:0;word-spacing:0;fill:#ed1c23;fill-opacity:1;fill-rule:nonzero;stroke:none;font-family:fnt2" />
      <path
         d="M 82.5631,429.99642 C 79.619759,429.99642 76.676418,429.67177 74.036066,429.26924 L 74.252491,420.78982 C 76.80627,421.43908 79.966035,422.00177 83.082514,422.00177 C 87.107966,422.00177 89.748317,420.38726 89.748317,417.72526 C 89.748317,410.62231 73.213663,414.66074 73.213663,401.01748 C 73.213663,393.99673 79.057063,388.18363 90.570721,388.18363 C 92.951365,388.18363 95.591717,388.50395 98.05893,388.90651 L 97.712655,397.06129 C 95.418579,396.41636 92.734945,396.0138 90.137876,396.0138 C 86.025855,396.0138 84.078055,397.62831 84.078055,400.13014 C 84.078055,406.66609 100.87242,403.76172 100.87242,416.75572 C 100.87242,424.66809 93.773769,429.99642 82.5631,429.99642"
         id="path760"
         style="font-size:9px;letter-spacing:0;word-spacing:0;fill:#0c4da2;fill-opacity:1;fill-rule:nonzero;stroke:none;font-family:fnt2" />
      <path
         d="M 154.76154,429.187 L 143.63744,429.187 L 137.88061,411.34948 C 137.01492,408.60524 136.36566,405.77879 135.62982,402.38962 L 135.58654,402.38962 C 134.76413,406.1034 133.89844,409.16792 132.85961,412.47922 L 127.83862,429.187 L 117.27722,429.187 L 105.11429,389.07097 L 116.32496,389.07097 L 120.56684,404.24649 C 121.56238,408.19838 122.68777,412.23681 123.68332,416.35316 L 123.7266,416.35316 C 124.549,411.91217 125.50126,408.28063 126.62666,404.7313 L 131.43123,389.07097 L 141.2568,389.07097 L 146.10465,404.24649 C 147.57632,408.84764 148.52858,412.39697 149.3077,416.35316 L 149.48084,416.35316 C 150.25996,412.23681 151.08236,408.68315 152.29433,404.7313 L 156.75262,389.07097 L 167.22746,389.07097 L 154.76154,429.187"
         id="path762"
         style="font-size:9px;letter-spacing:0;word-spacing:0;fill:#0c4da2;fill-opacity:1;fill-rule:nonzero;stroke:none;font-family:fnt2" />
      <path
         d="M 174.36937,389.07097 L 185.01737,389.07097 L 185.01737,429.19133 L 174.36937,429.19133 L 174.36937,389.07097 z M 179.69337,383.9028 C 176.05747,383.9028 173.15743,381.08068 173.15743,377.60926 C 173.15743,374.22009 176.05747,371.39361 179.69337,371.39361 C 183.37256,371.39361 186.35917,374.13785 186.35917,377.60926 C 186.35917,381.08068 183.37256,383.9028 179.69337,383.9028"
         id="path764"
         style="font-size:9px;letter-spacing:0;word-spacing:0;fill:#0c4da2;fill-opacity:1;fill-rule:nonzero;stroke:none;font-family:fnt2" />
      <path
         d="M 205.10134,429.99209 C 202.11473,429.99209 199.30123,429.65879 196.66087,429.25193 L 196.79073,420.78982 C 199.34451,421.43908 202.46098,422.00177 205.57745,422.00177 C 209.64622,422.00177 212.24329,420.38726 212.24329,417.72526 C 212.24329,410.62231 195.70861,414.66074 195.70861,401.01748 C 195.70861,393.99673 201.55201,388.18363 213.06569,388.18363 C 215.44633,388.18363 218.08668,388.50395 220.59718,388.90651 L 220.25089,397.06129 C 217.95682,396.41636 215.2299,396.0138 212.67611,396.0138 C 208.5641,396.0138 206.573,397.62831 206.573,400.13014 C 206.573,406.66609 223.36736,403.76172 223.36736,416.75572 C 223.36736,424.66809 216.31202,429.99209 205.10134,429.99209"
         id="path766"
         style="font-size:9px;letter-spacing:0;word-spacing:0;fill:#0c4da2;fill-opacity:1;fill-rule:nonzero;stroke:none;font-family:fnt2" />
      <path
         d="M 241.59013,429.99642 C 238.60348,429.99642 235.66016,429.67177 233.0198,429.26924 L 233.23623,420.78982 C 235.79002,421.43908 238.94977,422.00177 242.06624,422.00177 C 246.09168,422.00177 248.73204,420.38726 248.73204,417.72526 C 248.73204,410.62231 232.1974,414.66074 232.1974,401.01748 C 232.1974,393.99673 238.04079,388.18363 249.55444,388.18363 C 251.93508,388.18363 254.57543,388.50395 257.04264,388.90651 L 256.73968,397.06129 C 254.40232,396.41636 251.71868,396.0138 249.1649,396.0138 C 245.0096,396.0138 243.06179,397.62831 243.06179,400.13014 C 243.06179,406.66609 259.85614,403.76172 259.85614,416.75572 C 259.85614,424.66809 252.75752,429.99642 241.59013,429.99642"
         id="path768"
         style="font-size:9px;letter-spacing:0;word-spacing:0;fill:#0c4da2;fill-opacity:1;fill-rule:nonzero;stroke:none;font-family:fnt2" />
      <path
         d="M 286.47609,429.91417 C 275.0057,429.91417 267.86378,424.10108 267.86378,410.46215 C 267.86378,397.94862 274.57287,388.34379 289.24627,388.34379 C 292.05977,388.34379 295.04638,388.74636 297.68674,389.47353 L 296.60465,398.43339 C 294.39712,397.62831 291.80005,396.97905 289.1597,396.97905 C 282.40733,396.97905 278.98785,401.82257 278.98785,409.41033 C 278.98785,416.27524 281.75807,420.95431 288.81344,420.95431 C 291.62691,420.95431 294.70013,420.38726 296.9509,419.25756 L 297.77331,428.05727 C 294.95981,429.10909 290.89108,429.91417 286.47609,429.91417"
         id="path770"
         style="font-size:9px;letter-spacing:0;word-spacing:0;fill:#0c4da2;fill-opacity:1;fill-rule:nonzero;stroke:none;font-family:fnt2" />
      <path
         d="M 324.56636,396.97905 C 319.80509,396.97905 315.17367,400.53271 315.17367,408.7654 C 315.17367,416.99809 318.24685,421.19668 324.39325,421.19668 C 329.63064,421.19668 333.61284,417.08033 333.61284,408.92556 C 333.61284,401.17764 330.79934,396.97905 324.56636,396.97905 M 323.48428,429.99642 C 311.7542,429.99642 304.17942,424.10108 304.17942,409.81722 C 304.17942,397.30369 312.74971,388.26155 325.30223,388.26155 C 337.03231,388.26155 344.60708,394.55945 344.60708,408.36284 C 344.60708,420.95431 335.86362,429.99642 323.48428,429.99642"
         id="path772"
         style="font-size:9px;letter-spacing:0;word-spacing:0;fill:#0c4da2;fill-opacity:1;fill-rule:nonzero;stroke:none;font-family:fnt2" />
      <path
         d="M 404.77243,429.187 L 404.77243,403.76172 C 404.77243,399.48089 403.77691,396.81889 399.79472,396.81889 C 395.03344,396.81889 390.09902,402.14721 390.09902,409.97738 L 390.09902,429.187 L 379.45103,429.187 L 379.45103,403.76172 C 379.45103,399.80553 378.58534,396.81889 374.43004,396.81889 C 369.45233,396.81889 364.77763,402.47182 364.77763,409.97738 L 364.77763,429.187 L 353.91324,429.187 L 353.91324,389.07097 L 364.17162,389.07097 C 364.17162,390.92788 363.99851,393.91452 363.56565,396.25187 L 363.73879,396.25187 C 366.29258,391.33044 371.40014,388.18363 377.63311,388.18363 C 385.12132,388.18363 388.23779,392.38222 389.27662,396.25187 C 391.2244,392.29998 395.89913,388.18363 402.99776,388.18363 C 411.13526,388.18363 415.63681,392.46014 415.63681,401.58016 L 415.63681,429.187 L 404.77243,429.187"
         id="path774"
         style="font-size:9px;letter-spacing:0;word-spacing:0;fill:#0c4da2;fill-opacity:1;fill-rule:nonzero;stroke:none;font-family:fnt2" />
    </g>
  </g>
</svg>
