<?xml version="1.0" encoding="UTF-8" standalone="no"?>
<!-- Created with Inkscape (http://www.inkscape.org/) -->

<svg
   xmlns:dc="http://purl.org/dc/elements/1.1/"
   xmlns:cc="http://creativecommons.org/ns#"
   xmlns:rdf="http://www.w3.org/1999/02/22-rdf-syntax-ns#"
   xmlns:svg="http://www.w3.org/2000/svg"
   xmlns="http://www.w3.org/2000/svg"
   xmlns:sodipodi="http://sodipodi.sourceforge.net/DTD/sodipodi-0.dtd"
   xmlns:inkscape="http://www.inkscape.org/namespaces/inkscape"
   width="935.12421"
   height="446.58411"
   id="svg2"
   version="1.1"
   inkscape:version="0.48.0 r9654"
   sodipodi:docname="s4c_logo_original.svg">
  <defs
     id="defs4" />
  <sodipodi:namedview
     id="base"
     pagecolor="#ffffff"
     bordercolor="#666666"
     borderopacity="1.0"
     inkscape:pageopacity="0.0"
     inkscape:pageshadow="2"
     inkscape:zoom="0.35"
     inkscape:cx="1246.9768"
     inkscape:cy="776.94398"
     inkscape:document-units="px"
     inkscape:current-layer="layer1"
     showgrid="false"
     fit-margin-top="0"
     fit-margin-left="0"
     fit-margin-right="0"
     fit-margin-bottom="0"
     inkscape:window-width="1858"
     inkscape:window-height="1058"
     inkscape:window-x="54"
     inkscape:window-y="-8"
     inkscape:window-maximized="1" />
  <metadata
     id="metadata7">
    <rdf:RDF>
      <cc:Work
         rdf:about="">
        <dc:format>image/svg+xml</dc:format>
        <dc:type
           rdf:resource="http://purl.org/dc/dcmitype/StillImage" />
        <dc:title />
      </cc:Work>
    </rdf:RDF>
  </metadata>
  <g
     inkscape:label="Layer 1"
     inkscape:groupmode="layer"
     id="layer1"
     transform="translate(1317.6911,-405.57921)">
    <g
       id="g3809"
       transform="matrix(0.95713527,0,0,0.95713527,-357.29641,515.09538)">
      <g
         transform="scale(1.0907829,0.91677275)"
         style="font-size:753.66094971px;font-style:normal;font-variant:normal;font-weight:normal;font-stretch:normal;line-height:125%;letter-spacing:0px;word-spacing:0px;fill:#4c76fc;fill-opacity:1;stroke:none;font-family:Bodoni BdCn BT;-inkscape-font-specification:Bodoni BdCn BT"
         id="text2985">
        <path
           d="m -919.89468,375.66974 0,-148.3034 16.55993,0 c 5.15193,43.66926 16.98921,77.15709 35.51186,100.46359 18.52249,23.3066 42.38104,34.95987 71.57571,34.95986 21.34374,1e-5 38.94632,-7.05328 52.80779,-21.15991 13.86105,-14.10656 20.79169,-32.19981 20.79191,-54.27978 -2.2e-4,-18.15449 -5.02953,-34.46907 -15.08794,-48.94381 -10.05882,-14.47445 -34.10137,-34.83702 -72.1277,-61.08775 -43.42393,-30.42098 -72.61844,-57.83684 -87.58365,-82.247666 -14.96531,-24.410262 -22.44794,-53.666115 -22.44791,-87.7676443 -3e-5,-39.0074347 10.97858,-70.7779407 32.93587,-95.3116147 21.95716,-24.532745 50.10902,-36.799355 84.45566,-36.799855 14.71977,5e-4 28.8877,2.57649 42.50382,7.72797 13.61575,5.15247 27.66101,13.12576 42.13583,23.919906 l 15.82394,-25.391896 16.55993,0 0,130.271472 -16.55993,0 c -8.34154,-38.516775 -21.34414,-67.772628 -39.00784,-87.767645 -17.66412,-19.994114 -39.37601,-29.991397 -65.13574,-29.991877 -18.89071,4.8e-4 -34.77597,6.01112 -47.65581,18.031925 -12.88003,12.021737 -19.31999,26.618996 -19.31992,43.791823 -7e-5,27.232283 27.59979,59.248121 82.79967,96.047611 13.73843,9.322944 24.28771,16.560241 31.64787,21.711913 29.93032,20.85353 51.88755,44.221408 65.87173,70.103718 13.98367,25.88277 20.97564,56.24261 20.97592,91.07963 -2.8e-4,44.15992 -11.65356,80.10107 -34.95986,107.82356 -23.30679,27.72256 -53.11464,41.58383 -89.42364,41.58383 -14.47475,0 -28.94934,-2.75999 -43.42382,-8.27996 -14.47471,-5.51997 -29.19463,-13.9226 -44.15982,-25.2079 l -19.50393,25.0239 z"
           style=""
           id="path2990" />
      </g>
      <g
         transform="scale(1.1146185,0.89716796)"
         style="font-size:784.27758789px;font-style:normal;font-variant:normal;font-weight:normal;font-stretch:normal;line-height:125%;letter-spacing:0px;word-spacing:0px;fill:#209141;fill-opacity:1;stroke:none;font-family:Bodoni BdCn BT;-inkscape-font-specification:Bodoni BdCn BT"
         id="text2985-1">
        <path
           d="m -612.57824,228.82842 115.26736,0 0,-245.469691 c -25.01939,45.954116 -47.29418,89.801623 -66.82443,131.542651 -19.53041,41.74156 -35.67804,79.7172 -48.44293,113.92704 z m 62.03759,152.03038 0,-19.53035 53.22977,0 0,-110.67199 -132.50002,0 0,-31.40174 c 31.91229,-72.24929 61.71838,-136.520677 89.41837,-192.814337 27.69977,-56.292951 51.76165,-102.055196 72.18571,-137.286873 l 53.22977,0 0,339.67491 35.61417,0 0,-51.69798 15.31792,0 0,124.45811 -15.31792,0 0,-50.93209 -35.61417,0 0,110.67199 41.74134,0 0,19.53035 z"
           style=""
           id="path2993" />
      </g>
      <g
         transform="scale(1.1388078,0.8781113)"
         style="font-size:767.61877441px;font-style:normal;font-variant:normal;font-weight:normal;font-stretch:normal;line-height:125%;letter-spacing:0px;word-spacing:0px;fill:#d02329;fill-opacity:1;stroke:none;font-family:Bodoni BdCn BT;-inkscape-font-specification:Bodoni BdCn BT"
         id="text2985-7">
        <path
           d="m -39.301074,394.03298 -20.614762,-25.86215 c -13.743447,9.99505 -27.798952,17.61625 -42.166554,22.86364 -14.3681,5.24739 -28.17373,7.87108 -41.41694,7.87109 -54.22321,-10e-6 -97.88899,-23.23844 -130.99744,-69.71537 -33.10859,-46.47681 -49.66286,-107.94623 -49.66283,-184.40842 -3e-5,-36.4816 3.93552,-69.590125 11.80663,-99.325671 7.87105,-29.734859 19.80261,-56.846367 35.79473,-81.334607 18.24085,-27.236021 38.54325,-48.100638 60.90725,-62.593914 22.36374,-14.492298 45.66464,-21.738698 69.90278,-21.739208 14.74246,5.1e-4 29.29772,3.2489 43.66582,9.74517 14.367602,6.49726 28.922858,16.36735 43.66581,29.61029 l 18.365879,-34.10806 13.118485,0 0,140.555194 -16.866624,0 c -6.247194,-39.729865 -17.741474,-70.527039 -34.482874,-92.391615 -16.741937,-21.863663 -36.981866,-32.795723 -60.719846,-32.796212 -23.48852,4.89e-4 -40.605,10.557735 -51.3495,31.671771 -10.74481,21.11495 -16.11713,55.160508 -16.11699,102.136775 l 0,199.400967 c -1.4e-4,53.22367 5.24725,90.58008 15.74218,112.06935 10.49462,21.48935 28.23579,32.234 53.22357,32.23399 25.4871,10e-6 46.913942,-11.93155 64.280573,-35.79473 17.366084,-23.86307 27.923331,-56.1595 31.67177,-96.88938 l 18.365879,0 0,148.8011 z"
           style=""
           id="path2996" />
      </g>
    </g>
  </g>
</svg>
