<?xml version="1.0" encoding="utf-8"?>
<!-- Generator: Adobe Illustrator 26.3.1, SVG Export Plug-In . SVG Version: 6.00 Build 0)  -->
<svg version="1.1" id="Layer_1" xmlns="http://www.w3.org/2000/svg" xmlns:xlink="http://www.w3.org/1999/xlink" x="0px" y="0px"
	 viewBox="0 0 3000 1370.71" style="enable-background:new 0 0 3000 1370.71;" xml:space="preserve">
<style type="text/css">
	.st0{fill:#333333;}
	.st1{fill:#46C800;}
	.st2{fill:url(#SVGID_1_);}
	.st3{fill:url(#SVGID_00000067215852081310424160000007003981399160141461_);}
	.st4{fill:url(#SVGID_00000105398052213108636500000016490993907171050626_);}
</style>
<g>
	<g>
		<g>
			<path class="st0" d="M1724.96,514.66h-54.98v244.9l-140.8-226.98c-7.01-11.31-19.37-18.18-32.68-18.18h0
				c-21.24,0-38.45,17.22-38.45,38.45v303.46h54.99V610.89l140.79,226.97c7.01,11.31,19.37,18.18,32.67,18.18l0,0
				c21.24,0,38.45-17.22,38.45-38.45V514.66z"/>
			<g>
				<rect x="1794.63" y="514.66" class="st0" width="54.99" height="341.64"/>
			</g>
			<path class="st0" d="M1350.97,514.66v236.89c0,27.48-22.28,49.76-49.76,49.76h-57.41c-27.48,0-49.76-22.28-49.76-49.76V514.66
				h-54.99l0,237c0,57.79,46.85,104.64,104.64,104.64h57.66c57.78,0,104.61-46.84,104.61-104.61l0-237.03H1350.97z"/>
			<g>
				<path class="st0" d="M2261.42,569.65h138.84v-54.99l-139.09,0c-47.01,0-85.11,38.11-85.11,85.11v171.36
					c0,47.04,38.13,85.17,85.17,85.17h139.03v-54.99l-138.84,0c-16.78,0-30.38-13.6-30.38-30.38v-62.78h144.44v-54.99h-144.44
					v-53.15C2231.04,583.25,2244.64,569.65,2261.42,569.65z"/>
			</g>
			<g>
				<path class="st0" d="M2452.36,514.66v256.47c0,47.04,38.13,85.17,85.17,85.17h120.84v-54.99l-120.65,0
					c-16.78,0-30.38-13.6-30.38-30.38V514.66L2452.36,514.66z"/>
			</g>
			<g>
				<polygon class="st0" points="1891.32,514.66 1891.32,569.65 1991.3,569.65 1991.3,856.3 2046.29,856.3 2046.29,569.65 
					2140.95,569.65 2140.95,514.66 				"/>
			</g>
		</g>
	</g>
	<g>
		<g>
			<g>
				<g>
					<g>
						<g>
							<g>
								<g>
									<g>
										<path class="st1" d="M801.03,341.64H341.64v459.39c0,125.95,102.1,228.04,228.04,228.04h459.39V569.68
											C1029.07,443.74,926.98,341.64,801.03,341.64z"/>
									</g>
								</g>
							</g>
						</g>
					</g>
				</g>
			</g>
		</g>
		<g>
			<linearGradient id="SVGID_1_" gradientUnits="userSpaceOnUse" x1="685.3549" y1="458.9492" x2="855.5739" y2="458.9492">
				<stop  offset="0" style="stop-color:#FFFFFF"/>
				<stop  offset="1" style="stop-color:#000000"/>
			</linearGradient>
			<path class="st2" d="M685.35,458.84c2.94,0,5.85,0.11,8.76,0.22C691.21,458.91,688.29,458.84,685.35,458.84z"/>
			
				<linearGradient id="SVGID_00000116930250754942116740000014289315199497870757_" gradientUnits="userSpaceOnUse" x1="604.412" y1="1027.425" x2="959.5624" y2="24.8083">
				<stop  offset="0.2995" style="stop-color:#46C800"/>
				<stop  offset="0.6234" style="stop-color:#003C28"/>
			</linearGradient>
			<path style="fill:url(#SVGID_00000116930250754942116740000014289315199497870757_);" d="M694.12,459.06
				c-2.91-0.11-5.82-0.22-8.76-0.22c47,0,85.11,38.1,85.11,85.11s-38.11,85.11-85.11,85.11c47,0,85.11,38.1,85.11,85.11
				c0,47-38.11,85.11-85.11,85.11c94.01,0,170.22-76.21,170.22-170.22C855.57,537.99,784.05,463.62,694.12,459.06z"/>
			
				<radialGradient id="SVGID_00000134246169854029201100000000613759166432089739_" cx="660.5092" cy="603.2411" r="357.2398" gradientUnits="userSpaceOnUse">
				<stop  offset="0.5103" style="stop-color:#FFFFFF"/>
				<stop  offset="0.607" style="stop-color:#F7F9F8"/>
				<stop  offset="0.758" style="stop-color:#E1E8E6"/>
				<stop  offset="0.9435" style="stop-color:#BDCCC8"/>
				<stop  offset="0.9563" style="stop-color:#BACAC6"/>
			</radialGradient>
			<path style="fill:url(#SVGID_00000134246169854029201100000000613759166432089739_);" d="M694.12,459.06
				c89.94,4.56,161.46,78.93,161.46,170c0,94.01-76.21,170.22-170.22,170.22c-47,0-85.11-38.1-85.11-85.11
				c0-47,38.1-85.11,85.11-85.11s85.11-38.1,85.11-85.11s-38.11-85.11-85.11-85.11c-125.1,0-226.52,101.42-226.52,226.52
				s101.42,226.52,226.52,226.52s226.52-101.42,226.52-226.52C911.87,563.19,815.15,463.67,694.12,459.06z"/>
		</g>
	</g>
</g>
</svg>
