<?xml version="1.0" encoding="UTF-8" standalone="no"?>
<!DOCTYPE svg  PUBLIC '-//W3C//DTD SVG 1.1//EN'  'http://www.w3.org/Graphics/SVG/1.1/DTD/svg11.dtd'>
<svg xmlns="http://www.w3.org/2000/svg" xml:space="preserve" height="112px" viewBox="0 0 112 112" width="112px" version="1.1" y="0px" x="0px" xmlns:xlink="http://www.w3.org/1999/xlink" enable-background="new 0 0 112 112">
	<path d="m109.4 39.17c9.289 29.49-7.08 60.93-36.57 70.23-29.49 9.289-60.93-7.08-70.23-36.57-9.29-29.49 7.08-60.93 36.57-70.23 29.49-9.29 60.93 7.08 70.23 36.57z" fill="#fff"/><g fill="#3A1F4F">
	<path d="m100.79 55.43c0.42 0.77 0.181 1.36-0.64 1.62l-4.63 1.45c-0.699 0.23-1.31 0.04-1.6-0.6l-7.32-15.51c-0.199-0.37-0.52-0.27-0.47 0.14l2.5 17.031c0.101 0.699-0.26 1.199-0.96 1.42l-3.35 1.049c-0.69 0.221-1.271 0.021-1.59-0.6l-7.72-15.39c-0.199-0.37-0.51-0.27-0.47 0.14l2.899 16.91c0.131 0.689-0.27 1.2-0.969 1.42l-4.621 1.461c-0.82 0.25-1.359-0.091-1.459-0.961l-3.07-26.42c-0.09-0.7 0.27-1.2 0.97-1.42l5.479-1.73c0.701-0.22 1.24 0 1.601 0.61l5.149 8.89c0.201 0.36 0.51 0.27 0.471-0.15l-0.881-10.23c-0.049-0.71 0.271-1.2 0.961-1.42l5.49-1.73c0.699-0.22 1.27-0.01 1.6 0.61l12.63 23.41z"/>
	<path d="m11.21 56.57c-0.42-0.77-0.18-1.36 0.64-1.62l4.63-1.45c0.7-0.22 1.31-0.03 1.6 0.6l7.32 15.52c0.2 0.36 0.51 0.26 0.47-0.149l-2.5-17.031c-0.09-0.7 0.26-1.2 0.96-1.42l3.34-1.05c0.7-0.22 1.28-0.02 1.61 0.61l7.71 15.391c0.2 0.359 0.51 0.26 0.47-0.15l-2.9-16.91c-0.13-0.69 0.27-1.2 0.97-1.42l4.63-1.45c0.81-0.26 1.35 0.08 1.45 0.95l3.07 26.43c0.09 0.689-0.27 1.189-0.97 1.41l-5.48 1.73c-0.7 0.219-1.23 0-1.6-0.61l-5.15-8.89c-0.2-0.36-0.51-0.261-0.47 0.149l0.88 10.24c0.05 0.71-0.27 1.19-0.97 1.409l-5.48 1.73c-0.7 0.221-1.27 0.02-1.6-0.609l-12.63-23.41z"/>
	<path clip-rule="evenodd" d="m45.57 53.95c-0.31-2.73-0.6-10.2 8.62-13.11 9.21-2.9 10.589 4.23 10.9 6.96l1.17 10.31c0.311 2.721 0.6 10.201-8.619 13.101-9.21 2.899-10.581-4.229-10.891-6.95l-1.18-10.311zm7.61 6.021c0.36 3.17 0.78 5.049 3.66 4.139 2.87-0.899 2.85-2.899 2.49-6.08l-0.68-5.939c-0.36-3.18-0.78-5.06-3.65-4.15-2.88 0.91-2.85 2.91-2.49 6.09l0.67 5.94z" fill-rule="evenodd"/>
</g>
</svg>
